%TF.GenerationSoftware,KiCad,Pcbnew,10.0.1*%
%TF.CreationDate,2026-04-30T13:42:22-06:00*%
%TF.ProjectId,sauna-controller,7361756e-612d-4636-9f6e-74726f6c6c65,rev?*%
%TF.SameCoordinates,Original*%
%TF.FileFunction,Copper,L2,Bot*%
%TF.FilePolarity,Positive*%
%FSLAX46Y46*%
G04 Gerber Fmt 4.6, Leading zero omitted, Abs format (unit mm)*
G04 Created by KiCad (PCBNEW 10.0.1) date 2026-04-30 13:42:22*
%MOMM*%
%LPD*%
G01*
G04 APERTURE LIST*
G04 Aperture macros list*
%AMRoundRect*
0 Rectangle with rounded corners*
0 $1 Rounding radius*
0 $2 $3 $4 $5 $6 $7 $8 $9 X,Y pos of 4 corners*
0 Add a 4 corners polygon primitive as box body*
4,1,4,$2,$3,$4,$5,$6,$7,$8,$9,$2,$3,0*
0 Add four circle primitives for the rounded corners*
1,1,$1+$1,$2,$3*
1,1,$1+$1,$4,$5*
1,1,$1+$1,$6,$7*
1,1,$1+$1,$8,$9*
0 Add four rect primitives between the rounded corners*
20,1,$1+$1,$2,$3,$4,$5,0*
20,1,$1+$1,$4,$5,$6,$7,0*
20,1,$1+$1,$6,$7,$8,$9,0*
20,1,$1+$1,$8,$9,$2,$3,0*%
G04 Aperture macros list end*
%TA.AperFunction,ComponentPad*%
%ADD10RoundRect,0.250000X-1.050000X-1.050000X1.050000X-1.050000X1.050000X1.050000X-1.050000X1.050000X0*%
%TD*%
%TA.AperFunction,ComponentPad*%
%ADD11C,2.600000*%
%TD*%
%TA.AperFunction,ComponentPad*%
%ADD12R,1.700000X1.700000*%
%TD*%
%TA.AperFunction,ComponentPad*%
%ADD13C,1.700000*%
%TD*%
%TA.AperFunction,ComponentPad*%
%ADD14RoundRect,0.250000X0.550000X0.550000X-0.550000X0.550000X-0.550000X-0.550000X0.550000X-0.550000X0*%
%TD*%
%TA.AperFunction,ComponentPad*%
%ADD15C,1.600000*%
%TD*%
%TA.AperFunction,ComponentPad*%
%ADD16RoundRect,0.250000X1.050000X1.050000X-1.050000X1.050000X-1.050000X-1.050000X1.050000X-1.050000X0*%
%TD*%
%TA.AperFunction,ComponentPad*%
%ADD17R,2.300000X1.500000*%
%TD*%
%TA.AperFunction,ComponentPad*%
%ADD18O,2.300000X1.500000*%
%TD*%
%TA.AperFunction,ComponentPad*%
%ADD19RoundRect,0.575000X0.575000X0.575000X-0.575000X0.575000X-0.575000X-0.575000X0.575000X-0.575000X0*%
%TD*%
%TA.AperFunction,ComponentPad*%
%ADD20C,2.300000*%
%TD*%
%TA.AperFunction,ComponentPad*%
%ADD21RoundRect,0.250000X-0.550000X-0.550000X0.550000X-0.550000X0.550000X0.550000X-0.550000X0.550000X0*%
%TD*%
%TA.AperFunction,ComponentPad*%
%ADD22RoundRect,0.575000X-0.575000X0.575000X-0.575000X-0.575000X0.575000X-0.575000X0.575000X0.575000X0*%
%TD*%
%TA.AperFunction,ComponentPad*%
%ADD23RoundRect,0.250000X1.050000X-1.050000X1.050000X1.050000X-1.050000X1.050000X-1.050000X-1.050000X0*%
%TD*%
%TA.AperFunction,ViaPad*%
%ADD24C,1.016000*%
%TD*%
%TA.AperFunction,ViaPad*%
%ADD25C,0.600000*%
%TD*%
%TA.AperFunction,ViaPad*%
%ADD26C,0.609600*%
%TD*%
%TA.AperFunction,Conductor*%
%ADD27C,0.508000*%
%TD*%
%TA.AperFunction,Conductor*%
%ADD28C,0.254000*%
%TD*%
%TA.AperFunction,Conductor*%
%ADD29C,1.524000*%
%TD*%
G04 APERTURE END LIST*
D10*
%TO.P,J_BENCH1,1,Pin_1_1*%
%TO.N,+3V3*%
X119875000Y-128057500D03*
D11*
%TO.P,J_BENCH1,2,Pin_2_2*%
%TO.N,/BENCH_DATA*%
X124955000Y-128057500D03*
%TO.P,J_BENCH1,3,Pin_3_3*%
%TO.N,GND*%
X130035000Y-128057500D03*
%TD*%
D12*
%TO.P,J_ESP_L1,1,Pin_1_1*%
%TO.N,+3V3*%
X64000000Y-57180000D03*
D13*
%TO.P,J_ESP_L1,2,Pin_2_2*%
%TO.N,unconnected-(J_ESP_L1-Pin_2-Pad2)*%
X64000000Y-59720000D03*
%TO.P,J_ESP_L1,3,Pin_3_3*%
%TO.N,unconnected-(J_ESP_L1-Pin_3-Pad3)*%
X64000000Y-62260000D03*
%TO.P,J_ESP_L1,4,Pin_4_4*%
%TO.N,unconnected-(J_ESP_L1-Pin_4-Pad4)*%
X64000000Y-64800000D03*
%TO.P,J_ESP_L1,5,Pin_5_5*%
%TO.N,unconnected-(J_ESP_L1-Pin_5-Pad5)*%
X64000000Y-67340000D03*
%TO.P,J_ESP_L1,6,Pin_6_6*%
%TO.N,unconnected-(J_ESP_L1-Pin_6-Pad6)*%
X64000000Y-69880000D03*
%TO.P,J_ESP_L1,7,Pin_7_7*%
%TO.N,/GPIO32*%
X64000000Y-72420000D03*
%TO.P,J_ESP_L1,8,Pin_8_8*%
%TO.N,/GPIO33*%
X64000000Y-74960000D03*
%TO.P,J_ESP_L1,9,Pin_9_9*%
%TO.N,/GPIO25*%
X64000000Y-77500000D03*
%TO.P,J_ESP_L1,10,Pin_10_10*%
%TO.N,/BENCH_DATA*%
X64000000Y-80040000D03*
%TO.P,J_ESP_L1,11,Pin_11_11*%
%TO.N,/CEILING_DATA*%
X64000000Y-82580000D03*
%TO.P,J_ESP_L1,12,Pin_12_12*%
%TO.N,/GPIO14*%
X64000000Y-85120000D03*
%TO.P,J_ESP_L1,13,Pin_13_13*%
%TO.N,unconnected-(J_ESP_L1-Pin_13-Pad13)*%
X64000000Y-87660000D03*
%TO.P,J_ESP_L1,14,Pin_14_14*%
%TO.N,GND*%
X64000000Y-90200000D03*
%TO.P,J_ESP_L1,15,Pin_15_15*%
%TO.N,/GPIO13*%
X64000000Y-92740000D03*
%TO.P,J_ESP_L1,16,Pin_16_16*%
%TO.N,unconnected-(J_ESP_L1-Pin_16-Pad16)*%
X64000000Y-95280000D03*
%TO.P,J_ESP_L1,17,Pin_17_17*%
%TO.N,unconnected-(J_ESP_L1-Pin_17-Pad17)*%
X64000000Y-97820000D03*
%TO.P,J_ESP_L1,18,Pin_18_18*%
%TO.N,unconnected-(J_ESP_L1-Pin_18-Pad18)*%
X64000000Y-100360000D03*
%TO.P,J_ESP_L1,19,Pin_19_19*%
%TO.N,+5V*%
X64000000Y-102900000D03*
%TD*%
D10*
%TO.P,J_CEILING1,1,Pin_1_1*%
%TO.N,+3V3*%
X101870000Y-128000000D03*
D11*
%TO.P,J_CEILING1,2,Pin_2_2*%
%TO.N,/CEILING_DATA*%
X106950000Y-128000000D03*
%TO.P,J_CEILING1,3,Pin_3_3*%
%TO.N,GND*%
X112030000Y-128000000D03*
%TD*%
D14*
%TO.P,OPT_AUX1,1*%
%TO.N,Net-(J_AUX1-Pin_2)*%
X165100000Y-68580000D03*
D15*
%TO.P,OPT_AUX1,2*%
%TO.N,GND*%
X165100000Y-66040000D03*
%TO.P,OPT_AUX1,3*%
X157480000Y-66040000D03*
%TO.P,OPT_AUX1,4*%
%TO.N,/GPIO32*%
X157480000Y-68580000D03*
%TD*%
D10*
%TO.P,J_DOOR1,1,Pin_1_1*%
%TO.N,/DOOR_RAW*%
X87630000Y-128000000D03*
D11*
%TO.P,J_DOOR1,2,Pin_2_2*%
%TO.N,GND*%
X92710000Y-128000000D03*
%TD*%
D14*
%TO.P,OPT_HL1,1*%
%TO.N,Net-(OPT_HL1-Pad1)*%
X133350000Y-74930000D03*
D15*
%TO.P,OPT_HL1,2*%
%TO.N,GND*%
X133350000Y-72390000D03*
%TO.P,OPT_HL1,3*%
X125730000Y-72390000D03*
%TO.P,OPT_HL1,4*%
%TO.N,/GPIO33*%
X125730000Y-74930000D03*
%TD*%
D16*
%TO.P,J_AUX1,1,Pin_1_1*%
%TO.N,Net-(J_AUX1-Pin_1)*%
X167640000Y-57150000D03*
D11*
%TO.P,J_AUX1,2,Pin_2_2*%
%TO.N,Net-(J_AUX1-Pin_2)*%
X162560000Y-57150000D03*
%TD*%
D17*
%TO.P,U1,1,VI_1*%
%TO.N,+24V*%
X149000000Y-80010000D03*
D18*
%TO.P,U1,2,GND_2*%
%TO.N,GND*%
X149000000Y-82550000D03*
%TO.P,U1,3,VO_3*%
%TO.N,+5V*%
X149000000Y-85090000D03*
%TD*%
D10*
%TO.P,J_LED1,1,Pin_1_1*%
%TO.N,/LED_R-*%
X141760000Y-128000000D03*
D11*
%TO.P,J_LED1,2,Pin_2_2*%
%TO.N,/LED_G-*%
X146840000Y-128000000D03*
%TO.P,J_LED1,3,Pin_3_3*%
%TO.N,/LED_B-*%
X151920000Y-128000000D03*
%TO.P,J_LED1,4,Pin_4_4*%
%TO.N,/LED_W-*%
X157000000Y-128000000D03*
%TO.P,J_LED1,5,Pin_5_5*%
%TO.N,/+24V_LED*%
X162080000Y-128000000D03*
%TD*%
D16*
%TO.P,J_COIL1,1,Pin_1_1*%
%TO.N,/+24V_COIL*%
X127500000Y-57150000D03*
D11*
%TO.P,J_COIL1,2,Pin_2_2*%
%TO.N,/HI_LIM_SENSE*%
X122420000Y-57150000D03*
%TO.P,J_COIL1,3,Pin_3_3*%
%TO.N,/COIL-*%
X117340000Y-57150000D03*
%TD*%
D19*
%TO.P,F2,1*%
%TO.N,+24V*%
X151500000Y-58500000D03*
X151500000Y-53500000D03*
D20*
%TO.P,F2,2*%
%TO.N,/+24V_COIL*%
X136500000Y-58500000D03*
X136500000Y-53500000D03*
%TD*%
D21*
%TO.P,C_BULK1,1*%
%TO.N,+24V*%
X159500000Y-80000000D03*
D15*
%TO.P,C_BULK1,2*%
%TO.N,GND*%
X163000000Y-80000000D03*
%TD*%
D22*
%TO.P,F1,1*%
%TO.N,+24V*%
X177500000Y-102000000D03*
X172500000Y-102000000D03*
D20*
%TO.P,F1,2*%
%TO.N,/+24V_LED*%
X177500000Y-117000000D03*
X172500000Y-117000000D03*
%TD*%
D10*
%TO.P,J_PANEL1,1,Pin_1_1*%
%TO.N,/PANEL_TX_CONN*%
X62000000Y-128000000D03*
D11*
%TO.P,J_PANEL1,2,Pin_2_2*%
%TO.N,/PANEL_RX_CONN*%
X67080000Y-128000000D03*
%TO.P,J_PANEL1,3,Pin_3_3*%
%TO.N,/+5V_PANEL*%
X72160000Y-128000000D03*
%TO.P,J_PANEL1,4,Pin_4_4*%
%TO.N,GND*%
X77240000Y-128000000D03*
%TD*%
D23*
%TO.P,J_PWR1,1,Pin_1_1*%
%TO.N,/+24V_IN_RAW*%
X173172500Y-82545000D03*
D11*
%TO.P,J_PWR1,2,Pin_2_2*%
%TO.N,GND*%
X173172500Y-77465000D03*
%TD*%
D12*
%TO.P,J_ESP_R1,1,Pin_1_1*%
%TO.N,GND*%
X89400000Y-57180000D03*
D13*
%TO.P,J_ESP_R1,2,Pin_2_2*%
%TO.N,unconnected-(J_ESP_R1-Pin_2-Pad2)*%
X89400000Y-59720000D03*
%TO.P,J_ESP_R1,3,Pin_3_3*%
%TO.N,/GPIO22*%
X89400000Y-62260000D03*
%TO.P,J_ESP_R1,4,Pin_4_4*%
%TO.N,unconnected-(J_ESP_R1-Pin_4-Pad4)*%
X89400000Y-64800000D03*
%TO.P,J_ESP_R1,5,Pin_5_5*%
%TO.N,unconnected-(J_ESP_R1-Pin_5-Pad5)*%
X89400000Y-67340000D03*
%TO.P,J_ESP_R1,6,Pin_6_6*%
%TO.N,unconnected-(J_ESP_R1-Pin_6-Pad6)*%
X89400000Y-69880000D03*
%TO.P,J_ESP_R1,7,Pin_7_7*%
%TO.N,unconnected-(J_ESP_R1-Pin_7-Pad7)*%
X89400000Y-72420000D03*
%TO.P,J_ESP_R1,8,Pin_8_8*%
%TO.N,/GPIO19*%
X89400000Y-74960000D03*
%TO.P,J_ESP_R1,9,Pin_9_9*%
%TO.N,/GPIO18*%
X89400000Y-77500000D03*
%TO.P,J_ESP_R1,10,Pin_10_10*%
%TO.N,unconnected-(J_ESP_R1-Pin_10-Pad10)*%
X89400000Y-80040000D03*
%TO.P,J_ESP_R1,11,Pin_11_11*%
%TO.N,/GPIO17*%
X89400000Y-82580000D03*
%TO.P,J_ESP_R1,12,Pin_12_12*%
%TO.N,/GPIO16*%
X89400000Y-85120000D03*
%TO.P,J_ESP_R1,13,Pin_13_13*%
%TO.N,/GPIO4*%
X89400000Y-87660000D03*
%TO.P,J_ESP_R1,14,Pin_14_14*%
%TO.N,unconnected-(J_ESP_R1-Pin_14-Pad14)*%
X89400000Y-90200000D03*
%TO.P,J_ESP_R1,15,Pin_15_15*%
%TO.N,unconnected-(J_ESP_R1-Pin_15-Pad15)*%
X89400000Y-92740000D03*
%TO.P,J_ESP_R1,16,Pin_16_16*%
%TO.N,unconnected-(J_ESP_R1-Pin_16-Pad16)*%
X89400000Y-95280000D03*
%TO.P,J_ESP_R1,17,Pin_17_17*%
%TO.N,unconnected-(J_ESP_R1-Pin_17-Pad17)*%
X89400000Y-97820000D03*
%TO.P,J_ESP_R1,18,Pin_18_18*%
%TO.N,unconnected-(J_ESP_R1-Pin_18-Pad18)*%
X89400000Y-100360000D03*
%TO.P,J_ESP_R1,19,Pin_19_19*%
%TO.N,unconnected-(J_ESP_R1-Pin_19-Pad19)*%
X89400000Y-102900000D03*
%TD*%
D24*
%TO.N,+3V3*%
X96520000Y-62230000D03*
X104140000Y-114300000D03*
D25*
X116840000Y-78740000D03*
%TO.N,GND*%
X129660000Y-110370000D03*
X74930000Y-118110000D03*
X90170000Y-115570000D03*
X142240000Y-81280000D03*
X151130000Y-110490000D03*
X58420000Y-118110000D03*
X134620000Y-64770000D03*
X68025000Y-113030000D03*
X153670000Y-73660000D03*
X161290000Y-110490000D03*
X106680000Y-60960000D03*
X107950000Y-67310000D03*
X77790000Y-73340000D03*
X139735000Y-110525000D03*
X176260000Y-67040000D03*
X110490000Y-100330000D03*
X123190000Y-92710000D03*
X168450000Y-98250000D03*
X158608333Y-97931667D03*
X156210000Y-91440000D03*
X153670000Y-69850000D03*
X101600000Y-106680000D03*
X110490000Y-120650000D03*
X127180000Y-117930000D03*
X156210000Y-66040000D03*
X137160000Y-97790000D03*
X147320000Y-97790000D03*
D26*
%TO.N,/GPIO32*%
X100330000Y-53340000D03*
X143510000Y-65485000D03*
X153670000Y-66040000D03*
X95250000Y-55880000D03*
%TO.N,/GPIO22*%
X81280000Y-95250000D03*
X81280000Y-102870000D03*
%TO.N,/GPIO13*%
X60960000Y-85090000D03*
X60960000Y-87630000D03*
D25*
%TO.N,+5V*%
X74930000Y-104140000D03*
X99060000Y-105410000D03*
X114300000Y-87630000D03*
X140970000Y-87630000D03*
D26*
%TO.N,/GPIO4*%
X72945000Y-115570000D03*
X90170000Y-110490000D03*
D24*
%TO.N,/+24V_LED*%
X152608333Y-107400000D03*
X163475000Y-107400000D03*
X131975000Y-107400000D03*
X172500000Y-111707624D03*
X141458334Y-107400000D03*
D26*
%TO.N,Net-(J_AUX1-Pin_1)*%
X153670000Y-63500000D03*
%TO.N,/HI_LIM_SENSE*%
X128700000Y-65500000D03*
X122555000Y-59055000D03*
%TD*%
%TO.N,+3V3*%
D27*
X97790000Y-68580000D02*
X106680000Y-77470000D01*
X114300000Y-77470000D02*
X106680000Y-77470000D01*
X115570000Y-78740000D02*
X114300000Y-77470000D01*
X96520000Y-62230000D02*
X96520000Y-63500000D01*
X106680000Y-111760000D02*
X106680000Y-77470000D01*
X104140000Y-114300000D02*
X106680000Y-111760000D01*
X97790000Y-64770000D02*
X97790000Y-68580000D01*
X116840000Y-78740000D02*
X115570000Y-78740000D01*
X96520000Y-63500000D02*
X97790000Y-64770000D01*
%TO.N,/GPIO32*%
D28*
X97790000Y-53340000D02*
X95250000Y-55880000D01*
X153670000Y-66040000D02*
X144065000Y-66040000D01*
X100330000Y-53340000D02*
X97790000Y-53340000D01*
X144065000Y-66040000D02*
X143510000Y-65485000D01*
%TO.N,/GPIO22*%
X81280000Y-95250000D02*
X81280000Y-102870000D01*
%TO.N,/GPIO13*%
X60960000Y-85090000D02*
X60960000Y-87630000D01*
%TO.N,+5V*%
D27*
X140970000Y-87630000D02*
X114300000Y-87630000D01*
X80370000Y-105410000D02*
X79100000Y-104140000D01*
X99060000Y-105410000D02*
X80370000Y-105410000D01*
X79100000Y-104140000D02*
X74930000Y-104140000D01*
%TO.N,/GPIO4*%
D28*
X75842500Y-115570000D02*
X72945000Y-115570000D01*
X90170000Y-110490000D02*
X87630000Y-113030000D01*
X78382500Y-113030000D02*
X75842500Y-115570000D01*
X87630000Y-113030000D02*
X78382500Y-113030000D01*
%TO.N,/+24V_LED*%
D29*
X143420334Y-107787000D02*
X154570333Y-107787000D01*
X141458334Y-107400000D02*
X143420334Y-107787000D01*
X165437000Y-107787000D02*
X163475000Y-107400000D01*
X172500000Y-111707624D02*
X168579376Y-107787000D01*
X168579376Y-107787000D02*
X154570333Y-107787000D01*
X154570333Y-107787000D02*
X152608333Y-107400000D01*
X131975000Y-107400000D02*
X133937000Y-107962000D01*
X168579376Y-107787000D02*
X165437000Y-107787000D01*
X133937000Y-107962000D02*
X143420334Y-107787000D01*
%TO.N,Net-(J_AUX1-Pin_1)*%
D28*
X161290000Y-63500000D02*
X167640000Y-57150000D01*
X153670000Y-63500000D02*
X161290000Y-63500000D01*
%TO.N,/HI_LIM_SENSE*%
X122555000Y-59055000D02*
X128700000Y-65200000D01*
X128700000Y-65200000D02*
X128700000Y-65500000D01*
%TD*%
%TA.AperFunction,Conductor*%
%TO.N,GND*%
G36*
X179013039Y-50819685D02*
G01*
X179058794Y-50872489D01*
X179070000Y-50924000D01*
X179070000Y-100599651D01*
X179050315Y-100666690D01*
X178997511Y-100712445D01*
X178928353Y-100722389D01*
X178864797Y-100693364D01*
X178858319Y-100687332D01*
X178762877Y-100591890D01*
X178762868Y-100591882D01*
X178592781Y-100476766D01*
X178592777Y-100476763D01*
X178592773Y-100476761D01*
X178592771Y-100476760D01*
X178403968Y-100395909D01*
X178403961Y-100395907D01*
X178203268Y-100352250D01*
X178203267Y-100352249D01*
X178203263Y-100352249D01*
X178157118Y-100349500D01*
X176842882Y-100349500D01*
X176796737Y-100352249D01*
X176796732Y-100352249D01*
X176796731Y-100352250D01*
X176596038Y-100395907D01*
X176596031Y-100395909D01*
X176407228Y-100476760D01*
X176407218Y-100476766D01*
X176237131Y-100591882D01*
X176237122Y-100591890D01*
X176091890Y-100737122D01*
X176091882Y-100737131D01*
X175976766Y-100907218D01*
X175976760Y-100907228D01*
X175895909Y-101096031D01*
X175895907Y-101096038D01*
X175852250Y-101296731D01*
X175852249Y-101296737D01*
X175849500Y-101342882D01*
X175849500Y-102657118D01*
X175852249Y-102703263D01*
X175852249Y-102703267D01*
X175852250Y-102703268D01*
X175895907Y-102903961D01*
X175895909Y-102903968D01*
X175976760Y-103092771D01*
X175976763Y-103092777D01*
X175976766Y-103092781D01*
X176091882Y-103262868D01*
X176091890Y-103262877D01*
X176237122Y-103408109D01*
X176237131Y-103408117D01*
X176330583Y-103471366D01*
X176407223Y-103523237D01*
X176407228Y-103523239D01*
X176596031Y-103604090D01*
X176596038Y-103604092D01*
X176662935Y-103618644D01*
X176796737Y-103647751D01*
X176842882Y-103650500D01*
X176842893Y-103650500D01*
X178157107Y-103650500D01*
X178157118Y-103650500D01*
X178203263Y-103647751D01*
X178386823Y-103607820D01*
X178403961Y-103604092D01*
X178403968Y-103604090D01*
X178466902Y-103577139D01*
X178592777Y-103523237D01*
X178753444Y-103414495D01*
X178762868Y-103408117D01*
X178762869Y-103408115D01*
X178762875Y-103408112D01*
X178858319Y-103312668D01*
X178919642Y-103279183D01*
X178989334Y-103284167D01*
X179045267Y-103326039D01*
X179069684Y-103391503D01*
X179070000Y-103400349D01*
X179070000Y-115971288D01*
X179050315Y-116038327D01*
X178997511Y-116084082D01*
X178928353Y-116094026D01*
X178864797Y-116065001D01*
X178845682Y-116044174D01*
X178841434Y-116038327D01*
X178758931Y-115924771D01*
X178575229Y-115741069D01*
X178365051Y-115588366D01*
X178292764Y-115551534D01*
X178133576Y-115470422D01*
X177886493Y-115390140D01*
X177629902Y-115349500D01*
X177629897Y-115349500D01*
X177370103Y-115349500D01*
X177370098Y-115349500D01*
X177113506Y-115390140D01*
X176866423Y-115470422D01*
X176634945Y-115588368D01*
X176424774Y-115741066D01*
X176424768Y-115741071D01*
X176241071Y-115924768D01*
X176241066Y-115924774D01*
X176088368Y-116134945D01*
X175970422Y-116366423D01*
X175890140Y-116613506D01*
X175849500Y-116870097D01*
X175849500Y-117129902D01*
X175890140Y-117386493D01*
X175970422Y-117633576D01*
X176051534Y-117792764D01*
X176088366Y-117865051D01*
X176241069Y-118075229D01*
X176424771Y-118258931D01*
X176634949Y-118411634D01*
X176782445Y-118486787D01*
X176866423Y-118529577D01*
X176866425Y-118529577D01*
X176866428Y-118529579D01*
X177113507Y-118609860D01*
X177245706Y-118630797D01*
X177370098Y-118650500D01*
X177370103Y-118650500D01*
X177629902Y-118650500D01*
X177743298Y-118632539D01*
X177886493Y-118609860D01*
X178133572Y-118529579D01*
X178365051Y-118411634D01*
X178575229Y-118258931D01*
X178758931Y-118075229D01*
X178845682Y-117955825D01*
X178901012Y-117913160D01*
X178970625Y-117907181D01*
X179032420Y-117939786D01*
X179066777Y-118000625D01*
X179070000Y-118028711D01*
X179070000Y-134375500D01*
X179050315Y-134442539D01*
X178997511Y-134488294D01*
X178946000Y-134499500D01*
X50924000Y-134499500D01*
X50856961Y-134479815D01*
X50811206Y-134427011D01*
X50800000Y-134375500D01*
X50800000Y-129878711D01*
X53149500Y-129878711D01*
X53149500Y-130121288D01*
X53181161Y-130361785D01*
X53243947Y-130596104D01*
X53336773Y-130820205D01*
X53336776Y-130820212D01*
X53458064Y-131030289D01*
X53458066Y-131030292D01*
X53458067Y-131030293D01*
X53605733Y-131222736D01*
X53605739Y-131222743D01*
X53777256Y-131394260D01*
X53777262Y-131394265D01*
X53969711Y-131541936D01*
X54179788Y-131663224D01*
X54403900Y-131756054D01*
X54638211Y-131818838D01*
X54818586Y-131842584D01*
X54878711Y-131850500D01*
X54878712Y-131850500D01*
X55121289Y-131850500D01*
X55169388Y-131844167D01*
X55361789Y-131818838D01*
X55596100Y-131756054D01*
X55820212Y-131663224D01*
X56030289Y-131541936D01*
X56222738Y-131394265D01*
X56394265Y-131222738D01*
X56541936Y-131030289D01*
X56663224Y-130820212D01*
X56756054Y-130596100D01*
X56818838Y-130361789D01*
X56850500Y-130121288D01*
X56850500Y-129878712D01*
X56850500Y-129878711D01*
X173149500Y-129878711D01*
X173149500Y-130121288D01*
X173181161Y-130361785D01*
X173243947Y-130596104D01*
X173336773Y-130820205D01*
X173336776Y-130820212D01*
X173458064Y-131030289D01*
X173458066Y-131030292D01*
X173458067Y-131030293D01*
X173605733Y-131222736D01*
X173605739Y-131222743D01*
X173777256Y-131394260D01*
X173777262Y-131394265D01*
X173969711Y-131541936D01*
X174179788Y-131663224D01*
X174403900Y-131756054D01*
X174638211Y-131818838D01*
X174818586Y-131842584D01*
X174878711Y-131850500D01*
X174878712Y-131850500D01*
X175121289Y-131850500D01*
X175169388Y-131844167D01*
X175361789Y-131818838D01*
X175596100Y-131756054D01*
X175820212Y-131663224D01*
X176030289Y-131541936D01*
X176222738Y-131394265D01*
X176394265Y-131222738D01*
X176541936Y-131030289D01*
X176663224Y-130820212D01*
X176756054Y-130596100D01*
X176818838Y-130361789D01*
X176850500Y-130121288D01*
X176850500Y-129878712D01*
X176847707Y-129857500D01*
X176835675Y-129766105D01*
X176818838Y-129638211D01*
X176756054Y-129403900D01*
X176663224Y-129179788D01*
X176541936Y-128969711D01*
X176410221Y-128798056D01*
X176394266Y-128777263D01*
X176394260Y-128777256D01*
X176222743Y-128605739D01*
X176222736Y-128605733D01*
X176030293Y-128458067D01*
X176030292Y-128458066D01*
X176030289Y-128458064D01*
X175820212Y-128336776D01*
X175820205Y-128336773D01*
X175596104Y-128243947D01*
X175361785Y-128181161D01*
X175121289Y-128149500D01*
X175121288Y-128149500D01*
X174878712Y-128149500D01*
X174878711Y-128149500D01*
X174638214Y-128181161D01*
X174403895Y-128243947D01*
X174179794Y-128336773D01*
X174179785Y-128336777D01*
X173969706Y-128458067D01*
X173777263Y-128605733D01*
X173777256Y-128605739D01*
X173605739Y-128777256D01*
X173605733Y-128777263D01*
X173458067Y-128969706D01*
X173336777Y-129179785D01*
X173336773Y-129179794D01*
X173243947Y-129403895D01*
X173181161Y-129638214D01*
X173149500Y-129878711D01*
X56850500Y-129878711D01*
X56847707Y-129857500D01*
X56835675Y-129766105D01*
X56818838Y-129638211D01*
X56756054Y-129403900D01*
X56663224Y-129179788D01*
X56541936Y-128969711D01*
X56410221Y-128798056D01*
X56394266Y-128777263D01*
X56394260Y-128777256D01*
X56222743Y-128605739D01*
X56222736Y-128605733D01*
X56030293Y-128458067D01*
X56030292Y-128458066D01*
X56030289Y-128458064D01*
X55820212Y-128336776D01*
X55820205Y-128336773D01*
X55596104Y-128243947D01*
X55361785Y-128181161D01*
X55121289Y-128149500D01*
X55121288Y-128149500D01*
X54878712Y-128149500D01*
X54878711Y-128149500D01*
X54638214Y-128181161D01*
X54403895Y-128243947D01*
X54179794Y-128336773D01*
X54179785Y-128336777D01*
X53969706Y-128458067D01*
X53777263Y-128605733D01*
X53777256Y-128605739D01*
X53605739Y-128777256D01*
X53605733Y-128777263D01*
X53458067Y-128969706D01*
X53336777Y-129179785D01*
X53336773Y-129179794D01*
X53243947Y-129403895D01*
X53181161Y-129638214D01*
X53149500Y-129878711D01*
X50800000Y-129878711D01*
X50800000Y-126899983D01*
X60199500Y-126899983D01*
X60199500Y-129100001D01*
X60199501Y-129100018D01*
X60210000Y-129202796D01*
X60210001Y-129202799D01*
X60258885Y-129350319D01*
X60265186Y-129369334D01*
X60357288Y-129518656D01*
X60481344Y-129642712D01*
X60630666Y-129734814D01*
X60797203Y-129789999D01*
X60899991Y-129800500D01*
X63100008Y-129800499D01*
X63202797Y-129789999D01*
X63369334Y-129734814D01*
X63518656Y-129642712D01*
X63642712Y-129518656D01*
X63734814Y-129369334D01*
X63789999Y-129202797D01*
X63800500Y-129100009D01*
X63800499Y-127881995D01*
X65279500Y-127881995D01*
X65279500Y-128118004D01*
X65279501Y-128118020D01*
X65310306Y-128352010D01*
X65371394Y-128579993D01*
X65461714Y-128798045D01*
X65461719Y-128798056D01*
X65532677Y-128920957D01*
X65579727Y-129002450D01*
X65579729Y-129002453D01*
X65579730Y-129002454D01*
X65723406Y-129189697D01*
X65723412Y-129189704D01*
X65890295Y-129356587D01*
X65890302Y-129356593D01*
X66000306Y-129441001D01*
X66077550Y-129500273D01*
X66176419Y-129557355D01*
X66281943Y-129618280D01*
X66281948Y-129618282D01*
X66281951Y-129618284D01*
X66500007Y-129708606D01*
X66727986Y-129769693D01*
X66961989Y-129800500D01*
X66961996Y-129800500D01*
X67198004Y-129800500D01*
X67198011Y-129800500D01*
X67432014Y-129769693D01*
X67659993Y-129708606D01*
X67878049Y-129618284D01*
X68082450Y-129500273D01*
X68269699Y-129356592D01*
X68436592Y-129189699D01*
X68580273Y-129002450D01*
X68698284Y-128798049D01*
X68788606Y-128579993D01*
X68849693Y-128352014D01*
X68880500Y-128118011D01*
X68880500Y-127881995D01*
X70359500Y-127881995D01*
X70359500Y-128118004D01*
X70359501Y-128118020D01*
X70390306Y-128352010D01*
X70451394Y-128579993D01*
X70541714Y-128798045D01*
X70541719Y-128798056D01*
X70612677Y-128920957D01*
X70659727Y-129002450D01*
X70659729Y-129002453D01*
X70659730Y-129002454D01*
X70803406Y-129189697D01*
X70803412Y-129189704D01*
X70970295Y-129356587D01*
X70970302Y-129356593D01*
X71080306Y-129441001D01*
X71157550Y-129500273D01*
X71256419Y-129557355D01*
X71361943Y-129618280D01*
X71361948Y-129618282D01*
X71361951Y-129618284D01*
X71580007Y-129708606D01*
X71807986Y-129769693D01*
X72041989Y-129800500D01*
X72041996Y-129800500D01*
X72278004Y-129800500D01*
X72278011Y-129800500D01*
X72512014Y-129769693D01*
X72739993Y-129708606D01*
X72958049Y-129618284D01*
X73162450Y-129500273D01*
X73349699Y-129356592D01*
X73355972Y-129350319D01*
X73404648Y-129301644D01*
X73516587Y-129189704D01*
X73516592Y-129189699D01*
X73660273Y-129002450D01*
X73778284Y-128798049D01*
X73868606Y-128579993D01*
X73929693Y-128352014D01*
X73960500Y-128118011D01*
X73960500Y-127882014D01*
X75440000Y-127882014D01*
X75440000Y-128117985D01*
X75470799Y-128351914D01*
X75531870Y-128579837D01*
X75622160Y-128797819D01*
X75622165Y-128797828D01*
X75740144Y-129002171D01*
X75740145Y-129002172D01*
X75802721Y-129083723D01*
X76638958Y-128247487D01*
X76663978Y-128307890D01*
X76735112Y-128414351D01*
X76825649Y-128504888D01*
X76932110Y-128576022D01*
X76992511Y-128601041D01*
X76156275Y-129437277D01*
X76237827Y-129499854D01*
X76237828Y-129499855D01*
X76442171Y-129617834D01*
X76442180Y-129617839D01*
X76660163Y-129708129D01*
X76660161Y-129708129D01*
X76888085Y-129769200D01*
X77122014Y-129799999D01*
X77122029Y-129800000D01*
X77357971Y-129800000D01*
X77357985Y-129799999D01*
X77591914Y-129769200D01*
X77819837Y-129708129D01*
X78037819Y-129617839D01*
X78037828Y-129617834D01*
X78242181Y-129499850D01*
X78323723Y-129437279D01*
X78323723Y-129437276D01*
X77487487Y-128601041D01*
X77547890Y-128576022D01*
X77654351Y-128504888D01*
X77744888Y-128414351D01*
X77816022Y-128307890D01*
X77841041Y-128247487D01*
X78677276Y-129083723D01*
X78677279Y-129083723D01*
X78739850Y-129002181D01*
X78857834Y-128797828D01*
X78857839Y-128797819D01*
X78948129Y-128579837D01*
X79009200Y-128351914D01*
X79039999Y-128117985D01*
X79040000Y-128117971D01*
X79040000Y-127882028D01*
X79039999Y-127882014D01*
X79009200Y-127648085D01*
X78948129Y-127420162D01*
X78857839Y-127202180D01*
X78857834Y-127202171D01*
X78739855Y-126997828D01*
X78739848Y-126997817D01*
X78720286Y-126972324D01*
X78720283Y-126972321D01*
X78677277Y-126916275D01*
X77841041Y-127752511D01*
X77816022Y-127692110D01*
X77744888Y-127585649D01*
X77654351Y-127495112D01*
X77547890Y-127423978D01*
X77487488Y-127398958D01*
X77986462Y-126899983D01*
X85829500Y-126899983D01*
X85829500Y-129100001D01*
X85829501Y-129100018D01*
X85840000Y-129202796D01*
X85840001Y-129202799D01*
X85888885Y-129350319D01*
X85895186Y-129369334D01*
X85987288Y-129518656D01*
X86111344Y-129642712D01*
X86260666Y-129734814D01*
X86427203Y-129789999D01*
X86529991Y-129800500D01*
X88730008Y-129800499D01*
X88832797Y-129789999D01*
X88999334Y-129734814D01*
X89148656Y-129642712D01*
X89272712Y-129518656D01*
X89364814Y-129369334D01*
X89419999Y-129202797D01*
X89430500Y-129100009D01*
X89430499Y-127882014D01*
X90910000Y-127882014D01*
X90910000Y-128117985D01*
X90940799Y-128351914D01*
X91001870Y-128579837D01*
X91092160Y-128797819D01*
X91092165Y-128797828D01*
X91210144Y-129002171D01*
X91210145Y-129002172D01*
X91272721Y-129083723D01*
X92108958Y-128247487D01*
X92133978Y-128307890D01*
X92205112Y-128414351D01*
X92295649Y-128504888D01*
X92402110Y-128576022D01*
X92462511Y-128601041D01*
X91626275Y-129437277D01*
X91707827Y-129499854D01*
X91707828Y-129499855D01*
X91912171Y-129617834D01*
X91912180Y-129617839D01*
X92130163Y-129708129D01*
X92130161Y-129708129D01*
X92358085Y-129769200D01*
X92592014Y-129799999D01*
X92592029Y-129800000D01*
X92827971Y-129800000D01*
X92827985Y-129799999D01*
X93061914Y-129769200D01*
X93289837Y-129708129D01*
X93507819Y-129617839D01*
X93507828Y-129617834D01*
X93712181Y-129499850D01*
X93793723Y-129437279D01*
X93793723Y-129437276D01*
X92957487Y-128601041D01*
X93017890Y-128576022D01*
X93124351Y-128504888D01*
X93214888Y-128414351D01*
X93286022Y-128307890D01*
X93311041Y-128247488D01*
X94147276Y-129083723D01*
X94147279Y-129083723D01*
X94209850Y-129002181D01*
X94327834Y-128797828D01*
X94327839Y-128797819D01*
X94418129Y-128579837D01*
X94479200Y-128351914D01*
X94509999Y-128117985D01*
X94510000Y-128117971D01*
X94510000Y-127882028D01*
X94509999Y-127882014D01*
X94479200Y-127648085D01*
X94418129Y-127420162D01*
X94327839Y-127202180D01*
X94327834Y-127202171D01*
X94209855Y-126997828D01*
X94209848Y-126997817D01*
X94190286Y-126972324D01*
X94190283Y-126972321D01*
X94147277Y-126916275D01*
X93311041Y-127752511D01*
X93286022Y-127692110D01*
X93214888Y-127585649D01*
X93124351Y-127495112D01*
X93017890Y-127423978D01*
X92957488Y-127398958D01*
X93456462Y-126899983D01*
X100069500Y-126899983D01*
X100069500Y-129100001D01*
X100069501Y-129100018D01*
X100080000Y-129202796D01*
X100080001Y-129202799D01*
X100128885Y-129350319D01*
X100135186Y-129369334D01*
X100227288Y-129518656D01*
X100351344Y-129642712D01*
X100500666Y-129734814D01*
X100667203Y-129789999D01*
X100769991Y-129800500D01*
X102970008Y-129800499D01*
X103072797Y-129789999D01*
X103239334Y-129734814D01*
X103388656Y-129642712D01*
X103512712Y-129518656D01*
X103604814Y-129369334D01*
X103659999Y-129202797D01*
X103670500Y-129100009D01*
X103670499Y-127881995D01*
X105149500Y-127881995D01*
X105149500Y-128118004D01*
X105149501Y-128118020D01*
X105180306Y-128352010D01*
X105241394Y-128579993D01*
X105331714Y-128798045D01*
X105331719Y-128798056D01*
X105402677Y-128920957D01*
X105449727Y-129002450D01*
X105449729Y-129002453D01*
X105449730Y-129002454D01*
X105593406Y-129189697D01*
X105593412Y-129189704D01*
X105760295Y-129356587D01*
X105760302Y-129356593D01*
X105870306Y-129441001D01*
X105947550Y-129500273D01*
X106046419Y-129557355D01*
X106151943Y-129618280D01*
X106151948Y-129618282D01*
X106151951Y-129618284D01*
X106370007Y-129708606D01*
X106597986Y-129769693D01*
X106831989Y-129800500D01*
X106831996Y-129800500D01*
X107068004Y-129800500D01*
X107068011Y-129800500D01*
X107302014Y-129769693D01*
X107529993Y-129708606D01*
X107748049Y-129618284D01*
X107952450Y-129500273D01*
X108139699Y-129356592D01*
X108145972Y-129350319D01*
X108194648Y-129301644D01*
X108306587Y-129189704D01*
X108306592Y-129189699D01*
X108450273Y-129002450D01*
X108568284Y-128798049D01*
X108658606Y-128579993D01*
X108719693Y-128352014D01*
X108750500Y-128118011D01*
X108750500Y-127882014D01*
X110230000Y-127882014D01*
X110230000Y-128117985D01*
X110260799Y-128351914D01*
X110321870Y-128579837D01*
X110412160Y-128797819D01*
X110412165Y-128797828D01*
X110530144Y-129002171D01*
X110530145Y-129002172D01*
X110592721Y-129083723D01*
X111428958Y-128247487D01*
X111453978Y-128307890D01*
X111525112Y-128414351D01*
X111615649Y-128504888D01*
X111722110Y-128576022D01*
X111782511Y-128601041D01*
X110946275Y-129437277D01*
X111027827Y-129499854D01*
X111027828Y-129499855D01*
X111232171Y-129617834D01*
X111232180Y-129617839D01*
X111450163Y-129708129D01*
X111450161Y-129708129D01*
X111678085Y-129769200D01*
X111912014Y-129799999D01*
X111912029Y-129800000D01*
X112147971Y-129800000D01*
X112147985Y-129799999D01*
X112381914Y-129769200D01*
X112609837Y-129708129D01*
X112827819Y-129617839D01*
X112827828Y-129617834D01*
X113032181Y-129499850D01*
X113113723Y-129437279D01*
X113113723Y-129437276D01*
X112277487Y-128601041D01*
X112337890Y-128576022D01*
X112444351Y-128504888D01*
X112534888Y-128414351D01*
X112606022Y-128307890D01*
X112631041Y-128247488D01*
X113467276Y-129083723D01*
X113467279Y-129083723D01*
X113529850Y-129002181D01*
X113647834Y-128797828D01*
X113647839Y-128797819D01*
X113738129Y-128579837D01*
X113799200Y-128351914D01*
X113829999Y-128117985D01*
X113830000Y-128117971D01*
X113830000Y-127882028D01*
X113829999Y-127882014D01*
X113799200Y-127648085D01*
X113738129Y-127420162D01*
X113647839Y-127202180D01*
X113647831Y-127202164D01*
X113540541Y-127016334D01*
X113529859Y-126997834D01*
X113529854Y-126997827D01*
X113498897Y-126957483D01*
X118074500Y-126957483D01*
X118074500Y-129157501D01*
X118074501Y-129157518D01*
X118085000Y-129260296D01*
X118085001Y-129260299D01*
X118140185Y-129426831D01*
X118140187Y-129426836D01*
X118146627Y-129437277D01*
X118232288Y-129576156D01*
X118356344Y-129700212D01*
X118505666Y-129792314D01*
X118672203Y-129847499D01*
X118774991Y-129858000D01*
X120975008Y-129857999D01*
X121077797Y-129847499D01*
X121244334Y-129792314D01*
X121393656Y-129700212D01*
X121517712Y-129576156D01*
X121609814Y-129426834D01*
X121664999Y-129260297D01*
X121675500Y-129157509D01*
X121675499Y-127939495D01*
X123154500Y-127939495D01*
X123154500Y-128175504D01*
X123154501Y-128175520D01*
X123185293Y-128409414D01*
X123185307Y-128409514D01*
X123226270Y-128562388D01*
X123246394Y-128637493D01*
X123336714Y-128855545D01*
X123336719Y-128855556D01*
X123402625Y-128969706D01*
X123454727Y-129059950D01*
X123454729Y-129059953D01*
X123454730Y-129059954D01*
X123598406Y-129247197D01*
X123598412Y-129247204D01*
X123765295Y-129414087D01*
X123765302Y-129414093D01*
X123875306Y-129498501D01*
X123952550Y-129557773D01*
X124057358Y-129618284D01*
X124156943Y-129675780D01*
X124156948Y-129675782D01*
X124156951Y-129675784D01*
X124375007Y-129766106D01*
X124602986Y-129827193D01*
X124836989Y-129858000D01*
X124836996Y-129858000D01*
X125073004Y-129858000D01*
X125073011Y-129858000D01*
X125307014Y-129827193D01*
X125534993Y-129766106D01*
X125753049Y-129675784D01*
X125957450Y-129557773D01*
X126144699Y-129414092D01*
X126154896Y-129403895D01*
X126199648Y-129359144D01*
X126311587Y-129247204D01*
X126311592Y-129247199D01*
X126455273Y-129059950D01*
X126573284Y-128855549D01*
X126663606Y-128637493D01*
X126724693Y-128409514D01*
X126755500Y-128175511D01*
X126755500Y-127939514D01*
X128235000Y-127939514D01*
X128235000Y-128175485D01*
X128265799Y-128409414D01*
X128326870Y-128637337D01*
X128417160Y-128855319D01*
X128417165Y-128855328D01*
X128535144Y-129059671D01*
X128535145Y-129059672D01*
X128597721Y-129141223D01*
X129433958Y-128304987D01*
X129458978Y-128365390D01*
X129530112Y-128471851D01*
X129620649Y-128562388D01*
X129727110Y-128633522D01*
X129787511Y-128658541D01*
X128951275Y-129494777D01*
X129032827Y-129557354D01*
X129032828Y-129557355D01*
X129237171Y-129675334D01*
X129237180Y-129675339D01*
X129455163Y-129765629D01*
X129455161Y-129765629D01*
X129683085Y-129826700D01*
X129917014Y-129857499D01*
X129917029Y-129857500D01*
X130152971Y-129857500D01*
X130152985Y-129857499D01*
X130386914Y-129826700D01*
X130614837Y-129765629D01*
X130832819Y-129675339D01*
X130832828Y-129675334D01*
X131037181Y-129557350D01*
X131118723Y-129494779D01*
X131118723Y-129494776D01*
X130282487Y-128658541D01*
X130342890Y-128633522D01*
X130449351Y-128562388D01*
X130539888Y-128471851D01*
X130611022Y-128365390D01*
X130636041Y-128304988D01*
X131472276Y-129141223D01*
X131472279Y-129141223D01*
X131534850Y-129059681D01*
X131652834Y-128855328D01*
X131652839Y-128855319D01*
X131743129Y-128637337D01*
X131804200Y-128409414D01*
X131834999Y-128175485D01*
X131835000Y-128175471D01*
X131835000Y-127939528D01*
X131834999Y-127939514D01*
X131804200Y-127705585D01*
X131743129Y-127477662D01*
X131652839Y-127259680D01*
X131652834Y-127259671D01*
X131534855Y-127055328D01*
X131534849Y-127055319D01*
X131472278Y-126973775D01*
X131472277Y-126973775D01*
X130636041Y-127810011D01*
X130611022Y-127749610D01*
X130539888Y-127643149D01*
X130449351Y-127552612D01*
X130342890Y-127481478D01*
X130282488Y-127456458D01*
X130838962Y-126899983D01*
X139959500Y-126899983D01*
X139959500Y-129100001D01*
X139959501Y-129100018D01*
X139970000Y-129202796D01*
X139970001Y-129202799D01*
X140018885Y-129350319D01*
X140025186Y-129369334D01*
X140117288Y-129518656D01*
X140241344Y-129642712D01*
X140390666Y-129734814D01*
X140557203Y-129789999D01*
X140659991Y-129800500D01*
X142860008Y-129800499D01*
X142962797Y-129789999D01*
X143129334Y-129734814D01*
X143278656Y-129642712D01*
X143402712Y-129518656D01*
X143494814Y-129369334D01*
X143549999Y-129202797D01*
X143560500Y-129100009D01*
X143560499Y-127881995D01*
X145039500Y-127881995D01*
X145039500Y-128118004D01*
X145039501Y-128118020D01*
X145070306Y-128352010D01*
X145131394Y-128579993D01*
X145221714Y-128798045D01*
X145221719Y-128798056D01*
X145292677Y-128920957D01*
X145339727Y-129002450D01*
X145339729Y-129002453D01*
X145339730Y-129002454D01*
X145483406Y-129189697D01*
X145483412Y-129189704D01*
X145650295Y-129356587D01*
X145650302Y-129356593D01*
X145760306Y-129441001D01*
X145837550Y-129500273D01*
X145936419Y-129557355D01*
X146041943Y-129618280D01*
X146041948Y-129618282D01*
X146041951Y-129618284D01*
X146260007Y-129708606D01*
X146487986Y-129769693D01*
X146721989Y-129800500D01*
X146721996Y-129800500D01*
X146958004Y-129800500D01*
X146958011Y-129800500D01*
X147192014Y-129769693D01*
X147419993Y-129708606D01*
X147638049Y-129618284D01*
X147842450Y-129500273D01*
X148029699Y-129356592D01*
X148196592Y-129189699D01*
X148340273Y-129002450D01*
X148458284Y-128798049D01*
X148548606Y-128579993D01*
X148609693Y-128352014D01*
X148640500Y-128118011D01*
X148640500Y-127881995D01*
X150119500Y-127881995D01*
X150119500Y-128118004D01*
X150119501Y-128118020D01*
X150150306Y-128352010D01*
X150211394Y-128579993D01*
X150301714Y-128798045D01*
X150301719Y-128798056D01*
X150372677Y-128920957D01*
X150419727Y-129002450D01*
X150419729Y-129002453D01*
X150419730Y-129002454D01*
X150563406Y-129189697D01*
X150563412Y-129189704D01*
X150730295Y-129356587D01*
X150730302Y-129356593D01*
X150840306Y-129441001D01*
X150917550Y-129500273D01*
X151016419Y-129557355D01*
X151121943Y-129618280D01*
X151121948Y-129618282D01*
X151121951Y-129618284D01*
X151340007Y-129708606D01*
X151567986Y-129769693D01*
X151801989Y-129800500D01*
X151801996Y-129800500D01*
X152038004Y-129800500D01*
X152038011Y-129800500D01*
X152272014Y-129769693D01*
X152499993Y-129708606D01*
X152718049Y-129618284D01*
X152922450Y-129500273D01*
X153109699Y-129356592D01*
X153276592Y-129189699D01*
X153420273Y-129002450D01*
X153538284Y-128798049D01*
X153628606Y-128579993D01*
X153689693Y-128352014D01*
X153720500Y-128118011D01*
X153720500Y-127881995D01*
X155199500Y-127881995D01*
X155199500Y-128118004D01*
X155199501Y-128118020D01*
X155230306Y-128352010D01*
X155291394Y-128579993D01*
X155381714Y-128798045D01*
X155381719Y-128798056D01*
X155452677Y-128920957D01*
X155499727Y-129002450D01*
X155499729Y-129002453D01*
X155499730Y-129002454D01*
X155643406Y-129189697D01*
X155643412Y-129189704D01*
X155810295Y-129356587D01*
X155810302Y-129356593D01*
X155920306Y-129441001D01*
X155997550Y-129500273D01*
X156096419Y-129557355D01*
X156201943Y-129618280D01*
X156201948Y-129618282D01*
X156201951Y-129618284D01*
X156420007Y-129708606D01*
X156647986Y-129769693D01*
X156881989Y-129800500D01*
X156881996Y-129800500D01*
X157118004Y-129800500D01*
X157118011Y-129800500D01*
X157352014Y-129769693D01*
X157579993Y-129708606D01*
X157798049Y-129618284D01*
X158002450Y-129500273D01*
X158189699Y-129356592D01*
X158356592Y-129189699D01*
X158500273Y-129002450D01*
X158618284Y-128798049D01*
X158708606Y-128579993D01*
X158769693Y-128352014D01*
X158800500Y-128118011D01*
X158800500Y-127881995D01*
X160279500Y-127881995D01*
X160279500Y-128118004D01*
X160279501Y-128118020D01*
X160310306Y-128352010D01*
X160371394Y-128579993D01*
X160461714Y-128798045D01*
X160461719Y-128798056D01*
X160532677Y-128920957D01*
X160579727Y-129002450D01*
X160579729Y-129002453D01*
X160579730Y-129002454D01*
X160723406Y-129189697D01*
X160723412Y-129189704D01*
X160890295Y-129356587D01*
X160890302Y-129356593D01*
X161000306Y-129441001D01*
X161077550Y-129500273D01*
X161176419Y-129557355D01*
X161281943Y-129618280D01*
X161281948Y-129618282D01*
X161281951Y-129618284D01*
X161500007Y-129708606D01*
X161727986Y-129769693D01*
X161961989Y-129800500D01*
X161961996Y-129800500D01*
X162198004Y-129800500D01*
X162198011Y-129800500D01*
X162432014Y-129769693D01*
X162659993Y-129708606D01*
X162878049Y-129618284D01*
X163082450Y-129500273D01*
X163269699Y-129356592D01*
X163436592Y-129189699D01*
X163580273Y-129002450D01*
X163698284Y-128798049D01*
X163788606Y-128579993D01*
X163849693Y-128352014D01*
X163880500Y-128118011D01*
X163880500Y-127881989D01*
X163849693Y-127647986D01*
X163788606Y-127420007D01*
X163698284Y-127201951D01*
X163698282Y-127201948D01*
X163698280Y-127201943D01*
X163613631Y-127055328D01*
X163580273Y-126997550D01*
X163436592Y-126810301D01*
X163436587Y-126810295D01*
X163269704Y-126643412D01*
X163269697Y-126643406D01*
X163082454Y-126499730D01*
X163082453Y-126499729D01*
X163082450Y-126499727D01*
X162977642Y-126439216D01*
X162878056Y-126381719D01*
X162878045Y-126381714D01*
X162659993Y-126291394D01*
X162432010Y-126230306D01*
X162198020Y-126199501D01*
X162198017Y-126199500D01*
X162198011Y-126199500D01*
X161961989Y-126199500D01*
X161961983Y-126199500D01*
X161961979Y-126199501D01*
X161727989Y-126230306D01*
X161500006Y-126291394D01*
X161281954Y-126381714D01*
X161281943Y-126381719D01*
X161077545Y-126499730D01*
X160890302Y-126643406D01*
X160890295Y-126643412D01*
X160723412Y-126810295D01*
X160723406Y-126810302D01*
X160579730Y-126997545D01*
X160579727Y-126997549D01*
X160579727Y-126997550D01*
X160579563Y-126997834D01*
X160461719Y-127201943D01*
X160461714Y-127201954D01*
X160371394Y-127420006D01*
X160310306Y-127647989D01*
X160279501Y-127881979D01*
X160279500Y-127881995D01*
X158800500Y-127881995D01*
X158800500Y-127881989D01*
X158769693Y-127647986D01*
X158708606Y-127420007D01*
X158618284Y-127201951D01*
X158618282Y-127201948D01*
X158618280Y-127201943D01*
X158533631Y-127055328D01*
X158500273Y-126997550D01*
X158356592Y-126810301D01*
X158356587Y-126810295D01*
X158189704Y-126643412D01*
X158189697Y-126643406D01*
X158002454Y-126499730D01*
X158002453Y-126499729D01*
X158002450Y-126499727D01*
X157897642Y-126439216D01*
X157798056Y-126381719D01*
X157798045Y-126381714D01*
X157579993Y-126291394D01*
X157352010Y-126230306D01*
X157118020Y-126199501D01*
X157118017Y-126199500D01*
X157118011Y-126199500D01*
X156881989Y-126199500D01*
X156881983Y-126199500D01*
X156881979Y-126199501D01*
X156647989Y-126230306D01*
X156420006Y-126291394D01*
X156201954Y-126381714D01*
X156201943Y-126381719D01*
X155997545Y-126499730D01*
X155810302Y-126643406D01*
X155810295Y-126643412D01*
X155643412Y-126810295D01*
X155643406Y-126810302D01*
X155499730Y-126997545D01*
X155499727Y-126997549D01*
X155499727Y-126997550D01*
X155499563Y-126997834D01*
X155381719Y-127201943D01*
X155381714Y-127201954D01*
X155291394Y-127420006D01*
X155230306Y-127647989D01*
X155199501Y-127881979D01*
X155199500Y-127881995D01*
X153720500Y-127881995D01*
X153720500Y-127881989D01*
X153689693Y-127647986D01*
X153628606Y-127420007D01*
X153538284Y-127201951D01*
X153538282Y-127201948D01*
X153538280Y-127201943D01*
X153453631Y-127055328D01*
X153420273Y-126997550D01*
X153276592Y-126810301D01*
X153276587Y-126810295D01*
X153109704Y-126643412D01*
X153109697Y-126643406D01*
X152922454Y-126499730D01*
X152922453Y-126499729D01*
X152922450Y-126499727D01*
X152817642Y-126439216D01*
X152718056Y-126381719D01*
X152718045Y-126381714D01*
X152499993Y-126291394D01*
X152272010Y-126230306D01*
X152038020Y-126199501D01*
X152038017Y-126199500D01*
X152038011Y-126199500D01*
X151801989Y-126199500D01*
X151801983Y-126199500D01*
X151801979Y-126199501D01*
X151567989Y-126230306D01*
X151340006Y-126291394D01*
X151121954Y-126381714D01*
X151121943Y-126381719D01*
X150917545Y-126499730D01*
X150730302Y-126643406D01*
X150730295Y-126643412D01*
X150563412Y-126810295D01*
X150563406Y-126810302D01*
X150419730Y-126997545D01*
X150419727Y-126997549D01*
X150419727Y-126997550D01*
X150419563Y-126997834D01*
X150301719Y-127201943D01*
X150301714Y-127201954D01*
X150211394Y-127420006D01*
X150150306Y-127647989D01*
X150119501Y-127881979D01*
X150119500Y-127881995D01*
X148640500Y-127881995D01*
X148640500Y-127881989D01*
X148609693Y-127647986D01*
X148548606Y-127420007D01*
X148458284Y-127201951D01*
X148458282Y-127201948D01*
X148458280Y-127201943D01*
X148373631Y-127055328D01*
X148340273Y-126997550D01*
X148196592Y-126810301D01*
X148196587Y-126810295D01*
X148029704Y-126643412D01*
X148029697Y-126643406D01*
X147842454Y-126499730D01*
X147842453Y-126499729D01*
X147842450Y-126499727D01*
X147737642Y-126439216D01*
X147638056Y-126381719D01*
X147638045Y-126381714D01*
X147419993Y-126291394D01*
X147192010Y-126230306D01*
X146958020Y-126199501D01*
X146958017Y-126199500D01*
X146958011Y-126199500D01*
X146721989Y-126199500D01*
X146721983Y-126199500D01*
X146721979Y-126199501D01*
X146487989Y-126230306D01*
X146260006Y-126291394D01*
X146041954Y-126381714D01*
X146041943Y-126381719D01*
X145837545Y-126499730D01*
X145650302Y-126643406D01*
X145650295Y-126643412D01*
X145483412Y-126810295D01*
X145483406Y-126810302D01*
X145339730Y-126997545D01*
X145339727Y-126997549D01*
X145339727Y-126997550D01*
X145339563Y-126997834D01*
X145221719Y-127201943D01*
X145221714Y-127201954D01*
X145131394Y-127420006D01*
X145070306Y-127647989D01*
X145039501Y-127881979D01*
X145039500Y-127881995D01*
X143560499Y-127881995D01*
X143560499Y-126899992D01*
X143549999Y-126797203D01*
X143494814Y-126630666D01*
X143402712Y-126481344D01*
X143278656Y-126357288D01*
X143166007Y-126287806D01*
X143129336Y-126265187D01*
X143129331Y-126265185D01*
X143104630Y-126257000D01*
X142962797Y-126210001D01*
X142962795Y-126210000D01*
X142860010Y-126199500D01*
X140659998Y-126199500D01*
X140659981Y-126199501D01*
X140557203Y-126210000D01*
X140557200Y-126210001D01*
X140390668Y-126265185D01*
X140390663Y-126265187D01*
X140241342Y-126357289D01*
X140117289Y-126481342D01*
X140025187Y-126630663D01*
X140025185Y-126630668D01*
X140018886Y-126649678D01*
X139970001Y-126797203D01*
X139970001Y-126797204D01*
X139970000Y-126797204D01*
X139959500Y-126899983D01*
X130838962Y-126899983D01*
X131118723Y-126620221D01*
X131037172Y-126557645D01*
X131037171Y-126557644D01*
X130832828Y-126439665D01*
X130832819Y-126439660D01*
X130614836Y-126349370D01*
X130614838Y-126349370D01*
X130386914Y-126288299D01*
X130152985Y-126257500D01*
X129917014Y-126257500D01*
X129683085Y-126288299D01*
X129455162Y-126349370D01*
X129237180Y-126439660D01*
X129237171Y-126439665D01*
X129032828Y-126557644D01*
X129032818Y-126557650D01*
X128951275Y-126620220D01*
X128951275Y-126620221D01*
X129787512Y-127456458D01*
X129727110Y-127481478D01*
X129620649Y-127552612D01*
X129530112Y-127643149D01*
X129458978Y-127749610D01*
X129433958Y-127810011D01*
X128597721Y-126973775D01*
X128597720Y-126973775D01*
X128535150Y-127055318D01*
X128535144Y-127055328D01*
X128417165Y-127259671D01*
X128417160Y-127259680D01*
X128326870Y-127477662D01*
X128265799Y-127705585D01*
X128235000Y-127939514D01*
X126755500Y-127939514D01*
X126755500Y-127939489D01*
X126724693Y-127705486D01*
X126663606Y-127477507D01*
X126573284Y-127259451D01*
X126573282Y-127259448D01*
X126573280Y-127259443D01*
X126531118Y-127186418D01*
X126455273Y-127055050D01*
X126311592Y-126867801D01*
X126311587Y-126867795D01*
X126144704Y-126700912D01*
X126144697Y-126700906D01*
X125957454Y-126557230D01*
X125957453Y-126557229D01*
X125957450Y-126557227D01*
X125858581Y-126500145D01*
X125753056Y-126439219D01*
X125753045Y-126439214D01*
X125534993Y-126348894D01*
X125307010Y-126287806D01*
X125073020Y-126257001D01*
X125073017Y-126257000D01*
X125073011Y-126257000D01*
X124836989Y-126257000D01*
X124836983Y-126257000D01*
X124836979Y-126257001D01*
X124602989Y-126287806D01*
X124375006Y-126348894D01*
X124156954Y-126439214D01*
X124156943Y-126439219D01*
X123952545Y-126557230D01*
X123765302Y-126700906D01*
X123765295Y-126700912D01*
X123598412Y-126867795D01*
X123598406Y-126867802D01*
X123454730Y-127055045D01*
X123454727Y-127055049D01*
X123454727Y-127055050D01*
X123447014Y-127068409D01*
X123336719Y-127259443D01*
X123336714Y-127259454D01*
X123246394Y-127477506D01*
X123185306Y-127705489D01*
X123154501Y-127939479D01*
X123154500Y-127939495D01*
X121675499Y-127939495D01*
X121675499Y-126957492D01*
X121664999Y-126854703D01*
X121609814Y-126688166D01*
X121517712Y-126538844D01*
X121393656Y-126414788D01*
X121244334Y-126322686D01*
X121077797Y-126267501D01*
X121077795Y-126267500D01*
X120975010Y-126257000D01*
X118774998Y-126257000D01*
X118774981Y-126257001D01*
X118672203Y-126267500D01*
X118672200Y-126267501D01*
X118505668Y-126322685D01*
X118505663Y-126322687D01*
X118356342Y-126414789D01*
X118232289Y-126538842D01*
X118140187Y-126688163D01*
X118140185Y-126688168D01*
X118135962Y-126700912D01*
X118085001Y-126854703D01*
X118085001Y-126854704D01*
X118085000Y-126854704D01*
X118074500Y-126957483D01*
X113498897Y-126957483D01*
X113467277Y-126916275D01*
X112631041Y-127752511D01*
X112606022Y-127692110D01*
X112534888Y-127585649D01*
X112444351Y-127495112D01*
X112337890Y-127423978D01*
X112277488Y-127398958D01*
X113113723Y-126562721D01*
X113032172Y-126500145D01*
X113032171Y-126500144D01*
X112827828Y-126382165D01*
X112827819Y-126382160D01*
X112609836Y-126291870D01*
X112609838Y-126291870D01*
X112381914Y-126230799D01*
X112147985Y-126200000D01*
X111912014Y-126200000D01*
X111678085Y-126230799D01*
X111450162Y-126291870D01*
X111232180Y-126382160D01*
X111232171Y-126382165D01*
X111027828Y-126500144D01*
X111027818Y-126500150D01*
X110946275Y-126562720D01*
X110946275Y-126562721D01*
X111782512Y-127398958D01*
X111722110Y-127423978D01*
X111615649Y-127495112D01*
X111525112Y-127585649D01*
X111453978Y-127692110D01*
X111428958Y-127752511D01*
X110592721Y-126916275D01*
X110592720Y-126916275D01*
X110530150Y-126997818D01*
X110530144Y-126997828D01*
X110412165Y-127202171D01*
X110412160Y-127202180D01*
X110321870Y-127420162D01*
X110260799Y-127648085D01*
X110230000Y-127882014D01*
X108750500Y-127882014D01*
X108750500Y-127881989D01*
X108719693Y-127647986D01*
X108658606Y-127420007D01*
X108568284Y-127201951D01*
X108568282Y-127201948D01*
X108568280Y-127201943D01*
X108483631Y-127055328D01*
X108450273Y-126997550D01*
X108306592Y-126810301D01*
X108306587Y-126810295D01*
X108139704Y-126643412D01*
X108139697Y-126643406D01*
X107952454Y-126499730D01*
X107952453Y-126499729D01*
X107952450Y-126499727D01*
X107847642Y-126439216D01*
X107748056Y-126381719D01*
X107748045Y-126381714D01*
X107529993Y-126291394D01*
X107302010Y-126230306D01*
X107068020Y-126199501D01*
X107068017Y-126199500D01*
X107068011Y-126199500D01*
X106831989Y-126199500D01*
X106831983Y-126199500D01*
X106831979Y-126199501D01*
X106597989Y-126230306D01*
X106370006Y-126291394D01*
X106151954Y-126381714D01*
X106151943Y-126381719D01*
X105947545Y-126499730D01*
X105760302Y-126643406D01*
X105760295Y-126643412D01*
X105593412Y-126810295D01*
X105593406Y-126810302D01*
X105449730Y-126997545D01*
X105449727Y-126997549D01*
X105449727Y-126997550D01*
X105449563Y-126997834D01*
X105331719Y-127201943D01*
X105331714Y-127201954D01*
X105241394Y-127420006D01*
X105180306Y-127647989D01*
X105149501Y-127881979D01*
X105149500Y-127881995D01*
X103670499Y-127881995D01*
X103670499Y-126899992D01*
X103659999Y-126797203D01*
X103604814Y-126630666D01*
X103512712Y-126481344D01*
X103388656Y-126357288D01*
X103276007Y-126287806D01*
X103239336Y-126265187D01*
X103239331Y-126265185D01*
X103214630Y-126257000D01*
X103072797Y-126210001D01*
X103072795Y-126210000D01*
X102970010Y-126199500D01*
X100769998Y-126199500D01*
X100769981Y-126199501D01*
X100667203Y-126210000D01*
X100667200Y-126210001D01*
X100500668Y-126265185D01*
X100500663Y-126265187D01*
X100351342Y-126357289D01*
X100227289Y-126481342D01*
X100135187Y-126630663D01*
X100135185Y-126630668D01*
X100128886Y-126649678D01*
X100080001Y-126797203D01*
X100080001Y-126797204D01*
X100080000Y-126797204D01*
X100069500Y-126899983D01*
X93456462Y-126899983D01*
X93793723Y-126562721D01*
X93712172Y-126500145D01*
X93712171Y-126500144D01*
X93507828Y-126382165D01*
X93507819Y-126382160D01*
X93289836Y-126291870D01*
X93289838Y-126291870D01*
X93061914Y-126230799D01*
X92827985Y-126200000D01*
X92592014Y-126200000D01*
X92358085Y-126230799D01*
X92130162Y-126291870D01*
X91912180Y-126382160D01*
X91912171Y-126382165D01*
X91707828Y-126500144D01*
X91707818Y-126500150D01*
X91626275Y-126562720D01*
X91626275Y-126562721D01*
X92462512Y-127398958D01*
X92402110Y-127423978D01*
X92295649Y-127495112D01*
X92205112Y-127585649D01*
X92133978Y-127692110D01*
X92108958Y-127752512D01*
X91272721Y-126916275D01*
X91272720Y-126916275D01*
X91210150Y-126997818D01*
X91210144Y-126997828D01*
X91092165Y-127202171D01*
X91092160Y-127202180D01*
X91001870Y-127420162D01*
X90940799Y-127648085D01*
X90910000Y-127882014D01*
X89430499Y-127882014D01*
X89430499Y-126899992D01*
X89419999Y-126797203D01*
X89364814Y-126630666D01*
X89272712Y-126481344D01*
X89148656Y-126357288D01*
X89036007Y-126287806D01*
X88999336Y-126265187D01*
X88999331Y-126265185D01*
X88974630Y-126257000D01*
X88832797Y-126210001D01*
X88832795Y-126210000D01*
X88730010Y-126199500D01*
X86529998Y-126199500D01*
X86529981Y-126199501D01*
X86427203Y-126210000D01*
X86427200Y-126210001D01*
X86260668Y-126265185D01*
X86260663Y-126265187D01*
X86111342Y-126357289D01*
X85987289Y-126481342D01*
X85895187Y-126630663D01*
X85895185Y-126630668D01*
X85888886Y-126649678D01*
X85840001Y-126797203D01*
X85840001Y-126797204D01*
X85840000Y-126797204D01*
X85829500Y-126899983D01*
X77986462Y-126899983D01*
X78323723Y-126562721D01*
X78242172Y-126500145D01*
X78242171Y-126500144D01*
X78037828Y-126382165D01*
X78037819Y-126382160D01*
X77819836Y-126291870D01*
X77819838Y-126291870D01*
X77591914Y-126230799D01*
X77357985Y-126200000D01*
X77122014Y-126200000D01*
X76888085Y-126230799D01*
X76660162Y-126291870D01*
X76442180Y-126382160D01*
X76442171Y-126382165D01*
X76237828Y-126500144D01*
X76237818Y-126500150D01*
X76156275Y-126562720D01*
X76156275Y-126562721D01*
X76992512Y-127398958D01*
X76932110Y-127423978D01*
X76825649Y-127495112D01*
X76735112Y-127585649D01*
X76663978Y-127692110D01*
X76638958Y-127752512D01*
X75802721Y-126916275D01*
X75802720Y-126916275D01*
X75740150Y-126997818D01*
X75740144Y-126997828D01*
X75622165Y-127202171D01*
X75622160Y-127202180D01*
X75531870Y-127420162D01*
X75470799Y-127648085D01*
X75440000Y-127882014D01*
X73960500Y-127882014D01*
X73960500Y-127881989D01*
X73929693Y-127647986D01*
X73868606Y-127420007D01*
X73778284Y-127201951D01*
X73778282Y-127201948D01*
X73778280Y-127201943D01*
X73693631Y-127055328D01*
X73660273Y-126997550D01*
X73516592Y-126810301D01*
X73516587Y-126810295D01*
X73349704Y-126643412D01*
X73349697Y-126643406D01*
X73162454Y-126499730D01*
X73162453Y-126499729D01*
X73162450Y-126499727D01*
X73057642Y-126439216D01*
X72958056Y-126381719D01*
X72958045Y-126381714D01*
X72739993Y-126291394D01*
X72512010Y-126230306D01*
X72278020Y-126199501D01*
X72278017Y-126199500D01*
X72278011Y-126199500D01*
X72041989Y-126199500D01*
X72041983Y-126199500D01*
X72041979Y-126199501D01*
X71807989Y-126230306D01*
X71580006Y-126291394D01*
X71361954Y-126381714D01*
X71361943Y-126381719D01*
X71157545Y-126499730D01*
X70970302Y-126643406D01*
X70970295Y-126643412D01*
X70803412Y-126810295D01*
X70803406Y-126810302D01*
X70659730Y-126997545D01*
X70659727Y-126997549D01*
X70659727Y-126997550D01*
X70659563Y-126997834D01*
X70541719Y-127201943D01*
X70541714Y-127201954D01*
X70451394Y-127420006D01*
X70390306Y-127647989D01*
X70359501Y-127881979D01*
X70359500Y-127881995D01*
X68880500Y-127881995D01*
X68880500Y-127881989D01*
X68849693Y-127647986D01*
X68788606Y-127420007D01*
X68698284Y-127201951D01*
X68698282Y-127201948D01*
X68698280Y-127201943D01*
X68613631Y-127055328D01*
X68580273Y-126997550D01*
X68436592Y-126810301D01*
X68436587Y-126810295D01*
X68269704Y-126643412D01*
X68269697Y-126643406D01*
X68082454Y-126499730D01*
X68082453Y-126499729D01*
X68082450Y-126499727D01*
X67977642Y-126439216D01*
X67878056Y-126381719D01*
X67878045Y-126381714D01*
X67659993Y-126291394D01*
X67432010Y-126230306D01*
X67198020Y-126199501D01*
X67198017Y-126199500D01*
X67198011Y-126199500D01*
X66961989Y-126199500D01*
X66961983Y-126199500D01*
X66961979Y-126199501D01*
X66727989Y-126230306D01*
X66500006Y-126291394D01*
X66281954Y-126381714D01*
X66281943Y-126381719D01*
X66077545Y-126499730D01*
X65890302Y-126643406D01*
X65890295Y-126643412D01*
X65723412Y-126810295D01*
X65723406Y-126810302D01*
X65579730Y-126997545D01*
X65579727Y-126997549D01*
X65579727Y-126997550D01*
X65579563Y-126997834D01*
X65461719Y-127201943D01*
X65461714Y-127201954D01*
X65371394Y-127420006D01*
X65310306Y-127647989D01*
X65279501Y-127881979D01*
X65279500Y-127881995D01*
X63800499Y-127881995D01*
X63800499Y-126899992D01*
X63789999Y-126797203D01*
X63734814Y-126630666D01*
X63642712Y-126481344D01*
X63518656Y-126357288D01*
X63406007Y-126287806D01*
X63369336Y-126265187D01*
X63369331Y-126265185D01*
X63344630Y-126257000D01*
X63202797Y-126210001D01*
X63202795Y-126210000D01*
X63100010Y-126199500D01*
X60899998Y-126199500D01*
X60899981Y-126199501D01*
X60797203Y-126210000D01*
X60797200Y-126210001D01*
X60630668Y-126265185D01*
X60630663Y-126265187D01*
X60481342Y-126357289D01*
X60357289Y-126481342D01*
X60265187Y-126630663D01*
X60265185Y-126630668D01*
X60258886Y-126649678D01*
X60210001Y-126797203D01*
X60210001Y-126797204D01*
X60210000Y-126797204D01*
X60199500Y-126899983D01*
X50800000Y-126899983D01*
X50800000Y-116870097D01*
X170849500Y-116870097D01*
X170849500Y-117129902D01*
X170890140Y-117386493D01*
X170970422Y-117633576D01*
X171051534Y-117792764D01*
X171088366Y-117865051D01*
X171241069Y-118075229D01*
X171424771Y-118258931D01*
X171634949Y-118411634D01*
X171782445Y-118486787D01*
X171866423Y-118529577D01*
X171866425Y-118529577D01*
X171866428Y-118529579D01*
X172113507Y-118609860D01*
X172245706Y-118630797D01*
X172370098Y-118650500D01*
X172370103Y-118650500D01*
X172629902Y-118650500D01*
X172743298Y-118632539D01*
X172886493Y-118609860D01*
X173133572Y-118529579D01*
X173365051Y-118411634D01*
X173575229Y-118258931D01*
X173758931Y-118075229D01*
X173911634Y-117865051D01*
X174029579Y-117633572D01*
X174109860Y-117386493D01*
X174132539Y-117243298D01*
X174150500Y-117129902D01*
X174150500Y-116870097D01*
X174128947Y-116734021D01*
X174109860Y-116613507D01*
X174029579Y-116366428D01*
X174029577Y-116366425D01*
X174029577Y-116366423D01*
X173986787Y-116282445D01*
X173911634Y-116134949D01*
X173758931Y-115924771D01*
X173575229Y-115741069D01*
X173365051Y-115588366D01*
X173292764Y-115551534D01*
X173133576Y-115470422D01*
X172886493Y-115390140D01*
X172629902Y-115349500D01*
X172629897Y-115349500D01*
X172370103Y-115349500D01*
X172370098Y-115349500D01*
X172113506Y-115390140D01*
X171866423Y-115470422D01*
X171634945Y-115588368D01*
X171424774Y-115741066D01*
X171424768Y-115741071D01*
X171241071Y-115924768D01*
X171241066Y-115924774D01*
X171088368Y-116134945D01*
X170970422Y-116366423D01*
X170890140Y-116613506D01*
X170849500Y-116870097D01*
X50800000Y-116870097D01*
X50800000Y-115490680D01*
X72139700Y-115490680D01*
X72139700Y-115649319D01*
X72170644Y-115804889D01*
X72170647Y-115804898D01*
X72231348Y-115951446D01*
X72231355Y-115951459D01*
X72319481Y-116083348D01*
X72319484Y-116083352D01*
X72431647Y-116195515D01*
X72431651Y-116195518D01*
X72563540Y-116283644D01*
X72563553Y-116283651D01*
X72673464Y-116329176D01*
X72710103Y-116344353D01*
X72710105Y-116344353D01*
X72710110Y-116344355D01*
X72865680Y-116375299D01*
X72865684Y-116375300D01*
X72865685Y-116375300D01*
X73024316Y-116375300D01*
X73024317Y-116375299D01*
X73076175Y-116364984D01*
X73179889Y-116344355D01*
X73179892Y-116344353D01*
X73179897Y-116344353D01*
X73326453Y-116283648D01*
X73354782Y-116264718D01*
X73424108Y-116218398D01*
X73490785Y-116197520D01*
X73492998Y-116197500D01*
X75904304Y-116197500D01*
X75904305Y-116197499D01*
X76025535Y-116173386D01*
X76084050Y-116149147D01*
X76118327Y-116134950D01*
X76126767Y-116131453D01*
X76139733Y-116126083D01*
X76242508Y-116057411D01*
X76329911Y-115970008D01*
X76388470Y-115911449D01*
X76388482Y-115911435D01*
X78606101Y-113693819D01*
X78667424Y-113660334D01*
X78693782Y-113657500D01*
X87691804Y-113657500D01*
X87691805Y-113657499D01*
X87813035Y-113633386D01*
X87893784Y-113599937D01*
X87927233Y-113586083D01*
X88030008Y-113517411D01*
X88117411Y-113430008D01*
X88175970Y-113371449D01*
X88175983Y-113371434D01*
X90226220Y-111321198D01*
X90287541Y-111287715D01*
X90289549Y-111287296D01*
X90404897Y-111264353D01*
X90551453Y-111203648D01*
X90683349Y-111115518D01*
X90795518Y-111003349D01*
X90883648Y-110871453D01*
X90944353Y-110724897D01*
X90975300Y-110569315D01*
X90975300Y-110410685D01*
X90967265Y-110370291D01*
X90944355Y-110255110D01*
X90944352Y-110255101D01*
X90883651Y-110108553D01*
X90883644Y-110108540D01*
X90795518Y-109976651D01*
X90795515Y-109976647D01*
X90683352Y-109864484D01*
X90683348Y-109864481D01*
X90551459Y-109776355D01*
X90551446Y-109776348D01*
X90404898Y-109715647D01*
X90404889Y-109715644D01*
X90249319Y-109684700D01*
X90249315Y-109684700D01*
X90090685Y-109684700D01*
X90090680Y-109684700D01*
X89935110Y-109715644D01*
X89935101Y-109715647D01*
X89788553Y-109776348D01*
X89788540Y-109776355D01*
X89656651Y-109864481D01*
X89656647Y-109864484D01*
X89544484Y-109976647D01*
X89544481Y-109976651D01*
X89456355Y-110108540D01*
X89456348Y-110108553D01*
X89395648Y-110255098D01*
X89395645Y-110255108D01*
X89372734Y-110370291D01*
X89340349Y-110432202D01*
X89338798Y-110433780D01*
X87406400Y-112366181D01*
X87345077Y-112399666D01*
X87318719Y-112402500D01*
X78320694Y-112402500D01*
X78199470Y-112426613D01*
X78199460Y-112426616D01*
X78085274Y-112473913D01*
X78085256Y-112473923D01*
X77982492Y-112542587D01*
X77982485Y-112542593D01*
X75618900Y-114906181D01*
X75557577Y-114939666D01*
X75531219Y-114942500D01*
X73492998Y-114942500D01*
X73425959Y-114922815D01*
X73424108Y-114921602D01*
X73326463Y-114856358D01*
X73326456Y-114856354D01*
X73326453Y-114856352D01*
X73326449Y-114856350D01*
X73326445Y-114856348D01*
X73179898Y-114795647D01*
X73179889Y-114795644D01*
X73024319Y-114764700D01*
X73024315Y-114764700D01*
X72865685Y-114764700D01*
X72865680Y-114764700D01*
X72710110Y-114795644D01*
X72710101Y-114795647D01*
X72563553Y-114856348D01*
X72563540Y-114856355D01*
X72431651Y-114944481D01*
X72431647Y-114944484D01*
X72319484Y-115056647D01*
X72319481Y-115056651D01*
X72231355Y-115188540D01*
X72231348Y-115188553D01*
X72170647Y-115335101D01*
X72170644Y-115335110D01*
X72139700Y-115490680D01*
X50800000Y-115490680D01*
X50800000Y-85010680D01*
X60154700Y-85010680D01*
X60154700Y-85169319D01*
X60185644Y-85324889D01*
X60185647Y-85324898D01*
X60246348Y-85471446D01*
X60246355Y-85471458D01*
X60311602Y-85569106D01*
X60332480Y-85635783D01*
X60332500Y-85637997D01*
X60332500Y-87082002D01*
X60312815Y-87149041D01*
X60311602Y-87150892D01*
X60246358Y-87248536D01*
X60246348Y-87248554D01*
X60185647Y-87395101D01*
X60185644Y-87395110D01*
X60154700Y-87550680D01*
X60154700Y-87709319D01*
X60185644Y-87864889D01*
X60185647Y-87864898D01*
X60246348Y-88011446D01*
X60246355Y-88011459D01*
X60334481Y-88143348D01*
X60334484Y-88143352D01*
X60446647Y-88255515D01*
X60446651Y-88255518D01*
X60578540Y-88343644D01*
X60578553Y-88343651D01*
X60677173Y-88384500D01*
X60725103Y-88404353D01*
X60725105Y-88404353D01*
X60725110Y-88404355D01*
X60880680Y-88435299D01*
X60880684Y-88435300D01*
X60880685Y-88435300D01*
X61039316Y-88435300D01*
X61039317Y-88435299D01*
X61091175Y-88424984D01*
X61194889Y-88404355D01*
X61194892Y-88404353D01*
X61194897Y-88404353D01*
X61341453Y-88343648D01*
X61473349Y-88255518D01*
X61585518Y-88143349D01*
X61673648Y-88011453D01*
X61674588Y-88009185D01*
X61688234Y-87976239D01*
X61734353Y-87864897D01*
X61734632Y-87863497D01*
X61765299Y-87709319D01*
X61765300Y-87709316D01*
X61765300Y-87550684D01*
X61765299Y-87550680D01*
X61734355Y-87395110D01*
X61734352Y-87395101D01*
X61673651Y-87248554D01*
X61673650Y-87248553D01*
X61673648Y-87248547D01*
X61673641Y-87248536D01*
X61608398Y-87150892D01*
X61587520Y-87084215D01*
X61587500Y-87082002D01*
X61587500Y-85637997D01*
X61607185Y-85570958D01*
X61608398Y-85569106D01*
X61673648Y-85471453D01*
X61734353Y-85324897D01*
X61765300Y-85169315D01*
X61765300Y-85010685D01*
X61761499Y-84991577D01*
X61734355Y-84855110D01*
X61734352Y-84855101D01*
X61673651Y-84708553D01*
X61673644Y-84708540D01*
X61585518Y-84576651D01*
X61585515Y-84576647D01*
X61473352Y-84464484D01*
X61473348Y-84464481D01*
X61341459Y-84376355D01*
X61341446Y-84376348D01*
X61194898Y-84315647D01*
X61194889Y-84315644D01*
X61039319Y-84284700D01*
X61039315Y-84284700D01*
X60880685Y-84284700D01*
X60880680Y-84284700D01*
X60725110Y-84315644D01*
X60725101Y-84315647D01*
X60578553Y-84376348D01*
X60578540Y-84376355D01*
X60446651Y-84464481D01*
X60446647Y-84464484D01*
X60334484Y-84576647D01*
X60334481Y-84576651D01*
X60246355Y-84708540D01*
X60246348Y-84708553D01*
X60185647Y-84855101D01*
X60185644Y-84855110D01*
X60154700Y-85010680D01*
X50800000Y-85010680D01*
X50800000Y-54878711D01*
X53149500Y-54878711D01*
X53149500Y-55121288D01*
X53181161Y-55361785D01*
X53243947Y-55596104D01*
X53328688Y-55800685D01*
X53336776Y-55820212D01*
X53458064Y-56030289D01*
X53458066Y-56030292D01*
X53458067Y-56030293D01*
X53605733Y-56222736D01*
X53605739Y-56222743D01*
X53777256Y-56394260D01*
X53777262Y-56394265D01*
X53969711Y-56541936D01*
X54179788Y-56663224D01*
X54403900Y-56756054D01*
X54638211Y-56818838D01*
X54818586Y-56842584D01*
X54878711Y-56850500D01*
X54878712Y-56850500D01*
X55121289Y-56850500D01*
X55169388Y-56844167D01*
X55361789Y-56818838D01*
X55596100Y-56756054D01*
X55820212Y-56663224D01*
X56030289Y-56541936D01*
X56222738Y-56394265D01*
X56334868Y-56282135D01*
X62649500Y-56282135D01*
X62649500Y-58077870D01*
X62649501Y-58077876D01*
X62655908Y-58137483D01*
X62706202Y-58272328D01*
X62706206Y-58272335D01*
X62792452Y-58387544D01*
X62792455Y-58387547D01*
X62907664Y-58473793D01*
X62907671Y-58473797D01*
X63039082Y-58522810D01*
X63095016Y-58564681D01*
X63119433Y-58630145D01*
X63104582Y-58698418D01*
X63083431Y-58726673D01*
X62969889Y-58840215D01*
X62844951Y-59012179D01*
X62748444Y-59201585D01*
X62682753Y-59403760D01*
X62655596Y-59575225D01*
X62649500Y-59613713D01*
X62649500Y-59826287D01*
X62649986Y-59829353D01*
X62681698Y-60029579D01*
X62682754Y-60036243D01*
X62718985Y-60147751D01*
X62748444Y-60238414D01*
X62844951Y-60427820D01*
X62969890Y-60599786D01*
X63120213Y-60750109D01*
X63292182Y-60875050D01*
X63300946Y-60879516D01*
X63351742Y-60927491D01*
X63368536Y-60995312D01*
X63345998Y-61061447D01*
X63300946Y-61100484D01*
X63292182Y-61104949D01*
X63120213Y-61229890D01*
X62969890Y-61380213D01*
X62844951Y-61552179D01*
X62748444Y-61741585D01*
X62682753Y-61943760D01*
X62651043Y-62143972D01*
X62649500Y-62153713D01*
X62649500Y-62366287D01*
X62682754Y-62576243D01*
X62725470Y-62707710D01*
X62748444Y-62778414D01*
X62844951Y-62967820D01*
X62969890Y-63139786D01*
X63120213Y-63290109D01*
X63292182Y-63415050D01*
X63300946Y-63419516D01*
X63351742Y-63467491D01*
X63368536Y-63535312D01*
X63345998Y-63601447D01*
X63300946Y-63640484D01*
X63292182Y-63644949D01*
X63120213Y-63769890D01*
X62969890Y-63920213D01*
X62844951Y-64092179D01*
X62748444Y-64281585D01*
X62682753Y-64483760D01*
X62649500Y-64693713D01*
X62649500Y-64906286D01*
X62681373Y-65107528D01*
X62682754Y-65116243D01*
X62747034Y-65314077D01*
X62748444Y-65318414D01*
X62844951Y-65507820D01*
X62969890Y-65679786D01*
X63120213Y-65830109D01*
X63292182Y-65955050D01*
X63300946Y-65959516D01*
X63351742Y-66007491D01*
X63368536Y-66075312D01*
X63345998Y-66141447D01*
X63300946Y-66180484D01*
X63292182Y-66184949D01*
X63120213Y-66309890D01*
X62969890Y-66460213D01*
X62844951Y-66632179D01*
X62748444Y-66821585D01*
X62682753Y-67023760D01*
X62649500Y-67233713D01*
X62649500Y-67446286D01*
X62671950Y-67588034D01*
X62682754Y-67656243D01*
X62707624Y-67732786D01*
X62748444Y-67858414D01*
X62844951Y-68047820D01*
X62969890Y-68219786D01*
X63120213Y-68370109D01*
X63292182Y-68495050D01*
X63300946Y-68499516D01*
X63351742Y-68547491D01*
X63368536Y-68615312D01*
X63345998Y-68681447D01*
X63300946Y-68720484D01*
X63292182Y-68724949D01*
X63120213Y-68849890D01*
X62969890Y-69000213D01*
X62844951Y-69172179D01*
X62748444Y-69361585D01*
X62682753Y-69563760D01*
X62649500Y-69773713D01*
X62649500Y-69986286D01*
X62682753Y-70196239D01*
X62748444Y-70398414D01*
X62844951Y-70587820D01*
X62969890Y-70759786D01*
X63120213Y-70910109D01*
X63292182Y-71035050D01*
X63300946Y-71039516D01*
X63351742Y-71087491D01*
X63368536Y-71155312D01*
X63345998Y-71221447D01*
X63300946Y-71260484D01*
X63292182Y-71264949D01*
X63120213Y-71389890D01*
X62969890Y-71540213D01*
X62844951Y-71712179D01*
X62748444Y-71901585D01*
X62682753Y-72103760D01*
X62649500Y-72313713D01*
X62649500Y-72526286D01*
X62682753Y-72736239D01*
X62748444Y-72938414D01*
X62844951Y-73127820D01*
X62969890Y-73299786D01*
X63120213Y-73450109D01*
X63292182Y-73575050D01*
X63300946Y-73579516D01*
X63351742Y-73627491D01*
X63368536Y-73695312D01*
X63345998Y-73761447D01*
X63300946Y-73800484D01*
X63292182Y-73804949D01*
X63120213Y-73929890D01*
X62969890Y-74080213D01*
X62844951Y-74252179D01*
X62748444Y-74441585D01*
X62682753Y-74643760D01*
X62653628Y-74827648D01*
X62649500Y-74853713D01*
X62649500Y-75066287D01*
X62682754Y-75276243D01*
X62732460Y-75429223D01*
X62748444Y-75478414D01*
X62844951Y-75667820D01*
X62969890Y-75839786D01*
X63120213Y-75990109D01*
X63292182Y-76115050D01*
X63300946Y-76119516D01*
X63351742Y-76167491D01*
X63368536Y-76235312D01*
X63345998Y-76301447D01*
X63300946Y-76340484D01*
X63292182Y-76344949D01*
X63120213Y-76469890D01*
X62969890Y-76620213D01*
X62844951Y-76792179D01*
X62748444Y-76981585D01*
X62682753Y-77183760D01*
X62649500Y-77393713D01*
X62649500Y-77606286D01*
X62681373Y-77807528D01*
X62682754Y-77816243D01*
X62737749Y-77985500D01*
X62748444Y-78018414D01*
X62844951Y-78207820D01*
X62969890Y-78379786D01*
X63120213Y-78530109D01*
X63292182Y-78655050D01*
X63300946Y-78659516D01*
X63351742Y-78707491D01*
X63368536Y-78775312D01*
X63345998Y-78841447D01*
X63300946Y-78880484D01*
X63292182Y-78884949D01*
X63120213Y-79009890D01*
X62969890Y-79160213D01*
X62844951Y-79332179D01*
X62748444Y-79521585D01*
X62682753Y-79723760D01*
X62649500Y-79933713D01*
X62649500Y-80146286D01*
X62682753Y-80356239D01*
X62748444Y-80558414D01*
X62844951Y-80747820D01*
X62969890Y-80919786D01*
X63120213Y-81070109D01*
X63292182Y-81195050D01*
X63300946Y-81199516D01*
X63351742Y-81247491D01*
X63368536Y-81315312D01*
X63345998Y-81381447D01*
X63300946Y-81420484D01*
X63292182Y-81424949D01*
X63120213Y-81549890D01*
X62969890Y-81700213D01*
X62844951Y-81872179D01*
X62748444Y-82061585D01*
X62748443Y-82061587D01*
X62748443Y-82061588D01*
X62719748Y-82149901D01*
X62682753Y-82263760D01*
X62649500Y-82473713D01*
X62649500Y-82686286D01*
X62676539Y-82857007D01*
X62682754Y-82896243D01*
X62721641Y-83015925D01*
X62748444Y-83098414D01*
X62844951Y-83287820D01*
X62969890Y-83459786D01*
X63120213Y-83610109D01*
X63292182Y-83735050D01*
X63300946Y-83739516D01*
X63351742Y-83787491D01*
X63368536Y-83855312D01*
X63345998Y-83921447D01*
X63300946Y-83960484D01*
X63292182Y-83964949D01*
X63120213Y-84089890D01*
X62969890Y-84240213D01*
X62844951Y-84412179D01*
X62748444Y-84601585D01*
X62682753Y-84803760D01*
X62649500Y-85013713D01*
X62649500Y-85226286D01*
X62674293Y-85382826D01*
X62682754Y-85436243D01*
X62748308Y-85637997D01*
X62748444Y-85638414D01*
X62844951Y-85827820D01*
X62969890Y-85999786D01*
X63120213Y-86150109D01*
X63292182Y-86275050D01*
X63300946Y-86279516D01*
X63351742Y-86327491D01*
X63368536Y-86395312D01*
X63345998Y-86461447D01*
X63300946Y-86500484D01*
X63292182Y-86504949D01*
X63120213Y-86629890D01*
X62969890Y-86780213D01*
X62844951Y-86952179D01*
X62748444Y-87141585D01*
X62682753Y-87343760D01*
X62649500Y-87553713D01*
X62649500Y-87766286D01*
X62665118Y-87864898D01*
X62682754Y-87976243D01*
X62737051Y-88143352D01*
X62748444Y-88178414D01*
X62844951Y-88367820D01*
X62969890Y-88539786D01*
X63120213Y-88690109D01*
X63292179Y-88815048D01*
X63292181Y-88815049D01*
X63292184Y-88815051D01*
X63301493Y-88819794D01*
X63352290Y-88867766D01*
X63369087Y-88935587D01*
X63346552Y-89001722D01*
X63301505Y-89040760D01*
X63292446Y-89045376D01*
X63292440Y-89045380D01*
X63238282Y-89084727D01*
X63238282Y-89084728D01*
X63870591Y-89717037D01*
X63807007Y-89734075D01*
X63692993Y-89799901D01*
X63599901Y-89892993D01*
X63534075Y-90007007D01*
X63517037Y-90070591D01*
X62884728Y-89438282D01*
X62884727Y-89438282D01*
X62845380Y-89492439D01*
X62748904Y-89681782D01*
X62683242Y-89883869D01*
X62683242Y-89883872D01*
X62650000Y-90093753D01*
X62650000Y-90306246D01*
X62683242Y-90516127D01*
X62683242Y-90516130D01*
X62748904Y-90718217D01*
X62845375Y-90907550D01*
X62884728Y-90961716D01*
X63517037Y-90329408D01*
X63534075Y-90392993D01*
X63599901Y-90507007D01*
X63692993Y-90600099D01*
X63807007Y-90665925D01*
X63870590Y-90682962D01*
X63238282Y-91315269D01*
X63238282Y-91315270D01*
X63292452Y-91354626D01*
X63292451Y-91354626D01*
X63301495Y-91359234D01*
X63352292Y-91407208D01*
X63369087Y-91475029D01*
X63346550Y-91541164D01*
X63301499Y-91580202D01*
X63292182Y-91584949D01*
X63120213Y-91709890D01*
X62969890Y-91860213D01*
X62844951Y-92032179D01*
X62748444Y-92221585D01*
X62682753Y-92423760D01*
X62649500Y-92633713D01*
X62649500Y-92846286D01*
X62682753Y-93056239D01*
X62748444Y-93258414D01*
X62844951Y-93447820D01*
X62969890Y-93619786D01*
X63120213Y-93770109D01*
X63292182Y-93895050D01*
X63300946Y-93899516D01*
X63351742Y-93947491D01*
X63368536Y-94015312D01*
X63345998Y-94081447D01*
X63300946Y-94120484D01*
X63292182Y-94124949D01*
X63120213Y-94249890D01*
X62969890Y-94400213D01*
X62844951Y-94572179D01*
X62748444Y-94761585D01*
X62682753Y-94963760D01*
X62649500Y-95173713D01*
X62649500Y-95386286D01*
X62665118Y-95484898D01*
X62682754Y-95596243D01*
X62748308Y-95797997D01*
X62748444Y-95798414D01*
X62844951Y-95987820D01*
X62969890Y-96159786D01*
X63120213Y-96310109D01*
X63292182Y-96435050D01*
X63300946Y-96439516D01*
X63351742Y-96487491D01*
X63368536Y-96555312D01*
X63345998Y-96621447D01*
X63300946Y-96660484D01*
X63292182Y-96664949D01*
X63120213Y-96789890D01*
X62969890Y-96940213D01*
X62844951Y-97112179D01*
X62748444Y-97301585D01*
X62682753Y-97503760D01*
X62649500Y-97713713D01*
X62649500Y-97926286D01*
X62682753Y-98136239D01*
X62748444Y-98338414D01*
X62844951Y-98527820D01*
X62969890Y-98699786D01*
X63120213Y-98850109D01*
X63292182Y-98975050D01*
X63300946Y-98979516D01*
X63351742Y-99027491D01*
X63368536Y-99095312D01*
X63345998Y-99161447D01*
X63300946Y-99200484D01*
X63292182Y-99204949D01*
X63120213Y-99329890D01*
X62969890Y-99480213D01*
X62844951Y-99652179D01*
X62748444Y-99841585D01*
X62682753Y-100043760D01*
X62649500Y-100253713D01*
X62649500Y-100466286D01*
X62682753Y-100676239D01*
X62748444Y-100878414D01*
X62844951Y-101067820D01*
X62969890Y-101239786D01*
X63120213Y-101390109D01*
X63292182Y-101515050D01*
X63300946Y-101519516D01*
X63351742Y-101567491D01*
X63368536Y-101635312D01*
X63345998Y-101701447D01*
X63300946Y-101740484D01*
X63292182Y-101744949D01*
X63120213Y-101869890D01*
X62969890Y-102020213D01*
X62844951Y-102192179D01*
X62748444Y-102381585D01*
X62682753Y-102583760D01*
X62649500Y-102793713D01*
X62649500Y-103006286D01*
X62665118Y-103104898D01*
X62682754Y-103216243D01*
X62747170Y-103414495D01*
X62748444Y-103418414D01*
X62844951Y-103607820D01*
X62969890Y-103779786D01*
X63120213Y-103930109D01*
X63292179Y-104055048D01*
X63292181Y-104055049D01*
X63292184Y-104055051D01*
X63481588Y-104151557D01*
X63683757Y-104217246D01*
X63893713Y-104250500D01*
X63893714Y-104250500D01*
X64106286Y-104250500D01*
X64106287Y-104250500D01*
X64316243Y-104217246D01*
X64518412Y-104151557D01*
X64695840Y-104061153D01*
X74129500Y-104061153D01*
X74129500Y-104218846D01*
X74160261Y-104373489D01*
X74160264Y-104373501D01*
X74220602Y-104519172D01*
X74220609Y-104519185D01*
X74308210Y-104650288D01*
X74308213Y-104650292D01*
X74419707Y-104761786D01*
X74419711Y-104761789D01*
X74550814Y-104849390D01*
X74550827Y-104849397D01*
X74659717Y-104894500D01*
X74696503Y-104909737D01*
X74802489Y-104930819D01*
X74851153Y-104940499D01*
X74851156Y-104940500D01*
X74851158Y-104940500D01*
X75008844Y-104940500D01*
X75008845Y-104940499D01*
X75141136Y-104914185D01*
X75163488Y-104909739D01*
X75163489Y-104909738D01*
X75163497Y-104909737D01*
X75177498Y-104903937D01*
X75224947Y-104894500D01*
X78736113Y-104894500D01*
X78803152Y-104914185D01*
X78823794Y-104930819D01*
X79779600Y-105886624D01*
X79779621Y-105886647D01*
X79889028Y-105996054D01*
X79889035Y-105996060D01*
X80012608Y-106078628D01*
X80012609Y-106078628D01*
X80012610Y-106078629D01*
X80149920Y-106135505D01*
X80295683Y-106164499D01*
X80295687Y-106164500D01*
X80295688Y-106164500D01*
X98765053Y-106164500D01*
X98812501Y-106173937D01*
X98826503Y-106179737D01*
X98826508Y-106179738D01*
X98826511Y-106179739D01*
X98981153Y-106210499D01*
X98981156Y-106210500D01*
X98981158Y-106210500D01*
X99138844Y-106210500D01*
X99138845Y-106210499D01*
X99293497Y-106179737D01*
X99439179Y-106119394D01*
X99570289Y-106031789D01*
X99681789Y-105920289D01*
X99769394Y-105789179D01*
X99829737Y-105643497D01*
X99860500Y-105488842D01*
X99860500Y-105331158D01*
X99860500Y-105331155D01*
X99860499Y-105331153D01*
X99829738Y-105176510D01*
X99829737Y-105176503D01*
X99829735Y-105176498D01*
X99769397Y-105030827D01*
X99769390Y-105030814D01*
X99681789Y-104899711D01*
X99681786Y-104899707D01*
X99570292Y-104788213D01*
X99570288Y-104788210D01*
X99439185Y-104700609D01*
X99439172Y-104700602D01*
X99293501Y-104640264D01*
X99293489Y-104640261D01*
X99138845Y-104609500D01*
X99138842Y-104609500D01*
X98981158Y-104609500D01*
X98981155Y-104609500D01*
X98826511Y-104640260D01*
X98826506Y-104640262D01*
X98826504Y-104640262D01*
X98826503Y-104640263D01*
X98812501Y-104646062D01*
X98765053Y-104655500D01*
X80733886Y-104655500D01*
X80666847Y-104635815D01*
X80646205Y-104619181D01*
X79580969Y-103553943D01*
X79580968Y-103553942D01*
X79457392Y-103471372D01*
X79457391Y-103471371D01*
X79457389Y-103471370D01*
X79457386Y-103471368D01*
X79457381Y-103471366D01*
X79363519Y-103432488D01*
X79363517Y-103432487D01*
X79358975Y-103430606D01*
X79320080Y-103414495D01*
X79295894Y-103409684D01*
X79288776Y-103408268D01*
X79288773Y-103408267D01*
X79174314Y-103385499D01*
X79174312Y-103385499D01*
X79025688Y-103385499D01*
X79019574Y-103385499D01*
X79019554Y-103385500D01*
X75224947Y-103385500D01*
X75177498Y-103376062D01*
X75163497Y-103370263D01*
X75163493Y-103370262D01*
X75163488Y-103370260D01*
X75008845Y-103339500D01*
X75008842Y-103339500D01*
X74851158Y-103339500D01*
X74851155Y-103339500D01*
X74696510Y-103370261D01*
X74696498Y-103370264D01*
X74550827Y-103430602D01*
X74550814Y-103430609D01*
X74419711Y-103518210D01*
X74419707Y-103518213D01*
X74308213Y-103629707D01*
X74308210Y-103629711D01*
X74220609Y-103760814D01*
X74220602Y-103760827D01*
X74160264Y-103906498D01*
X74160261Y-103906510D01*
X74129500Y-104061153D01*
X64695840Y-104061153D01*
X64707816Y-104055051D01*
X64879792Y-103930104D01*
X65030104Y-103779792D01*
X65030106Y-103779788D01*
X65030109Y-103779786D01*
X65155048Y-103607820D01*
X65155047Y-103607820D01*
X65155051Y-103607816D01*
X65251557Y-103418412D01*
X65317246Y-103216243D01*
X65350500Y-103006287D01*
X65350500Y-102793713D01*
X65317246Y-102583757D01*
X65251557Y-102381588D01*
X65155051Y-102192184D01*
X65155049Y-102192181D01*
X65155048Y-102192179D01*
X65030109Y-102020213D01*
X64879786Y-101869890D01*
X64707820Y-101744951D01*
X64707115Y-101744591D01*
X64699054Y-101740485D01*
X64648259Y-101692512D01*
X64631463Y-101624692D01*
X64653999Y-101558556D01*
X64699054Y-101519515D01*
X64707816Y-101515051D01*
X64729789Y-101499086D01*
X64879786Y-101390109D01*
X64879788Y-101390106D01*
X64879792Y-101390104D01*
X65030104Y-101239792D01*
X65030106Y-101239788D01*
X65030109Y-101239786D01*
X65155048Y-101067820D01*
X65155047Y-101067820D01*
X65155051Y-101067816D01*
X65251557Y-100878412D01*
X65317246Y-100676243D01*
X65350500Y-100466287D01*
X65350500Y-100253713D01*
X65317246Y-100043757D01*
X65251557Y-99841588D01*
X65155051Y-99652184D01*
X65155049Y-99652181D01*
X65155048Y-99652179D01*
X65030109Y-99480213D01*
X64879786Y-99329890D01*
X64707820Y-99204951D01*
X64707115Y-99204591D01*
X64699054Y-99200485D01*
X64648259Y-99152512D01*
X64631463Y-99084692D01*
X64653999Y-99018556D01*
X64699054Y-98979515D01*
X64707816Y-98975051D01*
X64729789Y-98959086D01*
X64879786Y-98850109D01*
X64879788Y-98850106D01*
X64879792Y-98850104D01*
X65030104Y-98699792D01*
X65030106Y-98699788D01*
X65030109Y-98699786D01*
X65155048Y-98527820D01*
X65155047Y-98527820D01*
X65155051Y-98527816D01*
X65251557Y-98338412D01*
X65317246Y-98136243D01*
X65350500Y-97926287D01*
X65350500Y-97713713D01*
X65317246Y-97503757D01*
X65251557Y-97301588D01*
X65155051Y-97112184D01*
X65155049Y-97112181D01*
X65155048Y-97112179D01*
X65030109Y-96940213D01*
X64879786Y-96789890D01*
X64707820Y-96664951D01*
X64707115Y-96664591D01*
X64699054Y-96660485D01*
X64648259Y-96612512D01*
X64631463Y-96544692D01*
X64653999Y-96478556D01*
X64699054Y-96439515D01*
X64707816Y-96435051D01*
X64729789Y-96419086D01*
X64879786Y-96310109D01*
X64879788Y-96310106D01*
X64879792Y-96310104D01*
X65030104Y-96159792D01*
X65030106Y-96159788D01*
X65030109Y-96159786D01*
X65155048Y-95987820D01*
X65155047Y-95987820D01*
X65155051Y-95987816D01*
X65251557Y-95798412D01*
X65317246Y-95596243D01*
X65350500Y-95386287D01*
X65350500Y-95173713D01*
X65350020Y-95170680D01*
X80474700Y-95170680D01*
X80474700Y-95329319D01*
X80505644Y-95484889D01*
X80505647Y-95484898D01*
X80566348Y-95631446D01*
X80566355Y-95631458D01*
X80631602Y-95729106D01*
X80652480Y-95795783D01*
X80652500Y-95797997D01*
X80652500Y-102322002D01*
X80632815Y-102389041D01*
X80631602Y-102390892D01*
X80566358Y-102488536D01*
X80566348Y-102488554D01*
X80505647Y-102635101D01*
X80505644Y-102635110D01*
X80474700Y-102790680D01*
X80474700Y-102949319D01*
X80505644Y-103104889D01*
X80505647Y-103104898D01*
X80566348Y-103251446D01*
X80566355Y-103251459D01*
X80654481Y-103383348D01*
X80654484Y-103383352D01*
X80766647Y-103495515D01*
X80766651Y-103495518D01*
X80898540Y-103583644D01*
X80898553Y-103583651D01*
X81008464Y-103629176D01*
X81045103Y-103644353D01*
X81045105Y-103644353D01*
X81045110Y-103644355D01*
X81200680Y-103675299D01*
X81200684Y-103675300D01*
X81200685Y-103675300D01*
X81359316Y-103675300D01*
X81359317Y-103675299D01*
X81411175Y-103664984D01*
X81514889Y-103644355D01*
X81514892Y-103644353D01*
X81514897Y-103644353D01*
X81661453Y-103583648D01*
X81793349Y-103495518D01*
X81905518Y-103383349D01*
X81993648Y-103251453D01*
X82054353Y-103104897D01*
X82085300Y-102949315D01*
X82085300Y-102790685D01*
X82067911Y-102703263D01*
X82054355Y-102635110D01*
X82054352Y-102635101D01*
X81993651Y-102488554D01*
X81993650Y-102488553D01*
X81993648Y-102488547D01*
X81993641Y-102488536D01*
X81928398Y-102390892D01*
X81907520Y-102324215D01*
X81907500Y-102322002D01*
X81907500Y-95797997D01*
X81927185Y-95730958D01*
X81928398Y-95729106D01*
X81993648Y-95631453D01*
X82054353Y-95484897D01*
X82085300Y-95329315D01*
X82085300Y-95170685D01*
X82085024Y-95169298D01*
X82054355Y-95015110D01*
X82054352Y-95015101D01*
X81993651Y-94868553D01*
X81993644Y-94868540D01*
X81905518Y-94736651D01*
X81905515Y-94736647D01*
X81793352Y-94624484D01*
X81793348Y-94624481D01*
X81661459Y-94536355D01*
X81661446Y-94536348D01*
X81514898Y-94475647D01*
X81514889Y-94475644D01*
X81359319Y-94444700D01*
X81359315Y-94444700D01*
X81200685Y-94444700D01*
X81200680Y-94444700D01*
X81045110Y-94475644D01*
X81045101Y-94475647D01*
X80898553Y-94536348D01*
X80898540Y-94536355D01*
X80766651Y-94624481D01*
X80766647Y-94624484D01*
X80654484Y-94736647D01*
X80654481Y-94736651D01*
X80566355Y-94868540D01*
X80566348Y-94868553D01*
X80505647Y-95015101D01*
X80505644Y-95015110D01*
X80474700Y-95170680D01*
X65350020Y-95170680D01*
X65317246Y-94963757D01*
X65251557Y-94761588D01*
X65155051Y-94572184D01*
X65155049Y-94572181D01*
X65155048Y-94572179D01*
X65030109Y-94400213D01*
X64879786Y-94249890D01*
X64707820Y-94124951D01*
X64707115Y-94124591D01*
X64699054Y-94120485D01*
X64648259Y-94072512D01*
X64631463Y-94004692D01*
X64653999Y-93938556D01*
X64699054Y-93899515D01*
X64707816Y-93895051D01*
X64729789Y-93879086D01*
X64879786Y-93770109D01*
X64879788Y-93770106D01*
X64879792Y-93770104D01*
X65030104Y-93619792D01*
X65030106Y-93619788D01*
X65030109Y-93619786D01*
X65155048Y-93447820D01*
X65155047Y-93447820D01*
X65155051Y-93447816D01*
X65251557Y-93258412D01*
X65317246Y-93056243D01*
X65350500Y-92846287D01*
X65350500Y-92633713D01*
X65317246Y-92423757D01*
X65251557Y-92221588D01*
X65155051Y-92032184D01*
X65155049Y-92032181D01*
X65155048Y-92032179D01*
X65030109Y-91860213D01*
X64879786Y-91709890D01*
X64707817Y-91584949D01*
X64698504Y-91580204D01*
X64647707Y-91532230D01*
X64630912Y-91464409D01*
X64653449Y-91398274D01*
X64698507Y-91359232D01*
X64707555Y-91354622D01*
X64761716Y-91315270D01*
X64761717Y-91315270D01*
X64129408Y-90682962D01*
X64192993Y-90665925D01*
X64307007Y-90600099D01*
X64400099Y-90507007D01*
X64465925Y-90392993D01*
X64482962Y-90329409D01*
X65115270Y-90961717D01*
X65115270Y-90961716D01*
X65154622Y-90907554D01*
X65251095Y-90718217D01*
X65316757Y-90516130D01*
X65316757Y-90516127D01*
X65350000Y-90306246D01*
X65350000Y-90093753D01*
X65316757Y-89883872D01*
X65316757Y-89883869D01*
X65251095Y-89681782D01*
X65154624Y-89492449D01*
X65115270Y-89438282D01*
X65115269Y-89438282D01*
X64482962Y-90070590D01*
X64465925Y-90007007D01*
X64400099Y-89892993D01*
X64307007Y-89799901D01*
X64192993Y-89734075D01*
X64129409Y-89717037D01*
X64761716Y-89084728D01*
X64707547Y-89045373D01*
X64707547Y-89045372D01*
X64698500Y-89040763D01*
X64647706Y-88992788D01*
X64630912Y-88924966D01*
X64653451Y-88858832D01*
X64698508Y-88819793D01*
X64707816Y-88815051D01*
X64787007Y-88757515D01*
X64879786Y-88690109D01*
X64879788Y-88690106D01*
X64879792Y-88690104D01*
X65030104Y-88539792D01*
X65030106Y-88539788D01*
X65030109Y-88539786D01*
X65155048Y-88367820D01*
X65155047Y-88367820D01*
X65155051Y-88367816D01*
X65251557Y-88178412D01*
X65317246Y-87976243D01*
X65350500Y-87766287D01*
X65350500Y-87553713D01*
X65317246Y-87343757D01*
X65251557Y-87141588D01*
X65155051Y-86952184D01*
X65155049Y-86952181D01*
X65155048Y-86952179D01*
X65030109Y-86780213D01*
X64879786Y-86629890D01*
X64707820Y-86504951D01*
X64707115Y-86504591D01*
X64699054Y-86500485D01*
X64648259Y-86452512D01*
X64631463Y-86384692D01*
X64653999Y-86318556D01*
X64699054Y-86279515D01*
X64707816Y-86275051D01*
X64743835Y-86248882D01*
X64879786Y-86150109D01*
X64879788Y-86150106D01*
X64879792Y-86150104D01*
X65030104Y-85999792D01*
X65030106Y-85999788D01*
X65030109Y-85999786D01*
X65155048Y-85827820D01*
X65155047Y-85827820D01*
X65155051Y-85827816D01*
X65251557Y-85638412D01*
X65317246Y-85436243D01*
X65350500Y-85226287D01*
X65350500Y-85013713D01*
X65317246Y-84803757D01*
X65251557Y-84601588D01*
X65155051Y-84412184D01*
X65155049Y-84412181D01*
X65155048Y-84412179D01*
X65030109Y-84240213D01*
X64879786Y-84089890D01*
X64707820Y-83964951D01*
X64707115Y-83964591D01*
X64699054Y-83960485D01*
X64648259Y-83912512D01*
X64631463Y-83844692D01*
X64653999Y-83778556D01*
X64699054Y-83739515D01*
X64707816Y-83735051D01*
X64831737Y-83645018D01*
X64879786Y-83610109D01*
X64879788Y-83610106D01*
X64879792Y-83610104D01*
X65030104Y-83459792D01*
X65030106Y-83459788D01*
X65030109Y-83459786D01*
X65155048Y-83287820D01*
X65155047Y-83287820D01*
X65155051Y-83287816D01*
X65251557Y-83098412D01*
X65317246Y-82896243D01*
X65350500Y-82686287D01*
X65350500Y-82473713D01*
X65317246Y-82263757D01*
X65251557Y-82061588D01*
X65155051Y-81872184D01*
X65155049Y-81872181D01*
X65155048Y-81872179D01*
X65030109Y-81700213D01*
X64879786Y-81549890D01*
X64707820Y-81424951D01*
X64707115Y-81424591D01*
X64699054Y-81420485D01*
X64648259Y-81372512D01*
X64631463Y-81304692D01*
X64653999Y-81238556D01*
X64699054Y-81199515D01*
X64707816Y-81195051D01*
X64734497Y-81175666D01*
X64879786Y-81070109D01*
X64879788Y-81070106D01*
X64879792Y-81070104D01*
X65030104Y-80919792D01*
X65030106Y-80919788D01*
X65030109Y-80919786D01*
X65149831Y-80755001D01*
X65155051Y-80747816D01*
X65251557Y-80558412D01*
X65317246Y-80356243D01*
X65350500Y-80146287D01*
X65350500Y-79933713D01*
X65317246Y-79723757D01*
X65251557Y-79521588D01*
X65155051Y-79332184D01*
X65155049Y-79332181D01*
X65155048Y-79332179D01*
X65030109Y-79160213D01*
X64879786Y-79009890D01*
X64707820Y-78884951D01*
X64707115Y-78884591D01*
X64699054Y-78880485D01*
X64648259Y-78832512D01*
X64631463Y-78764692D01*
X64653999Y-78698556D01*
X64699054Y-78659515D01*
X64707816Y-78655051D01*
X64729789Y-78639086D01*
X64879786Y-78530109D01*
X64879788Y-78530106D01*
X64879792Y-78530104D01*
X65030104Y-78379792D01*
X65030106Y-78379788D01*
X65030109Y-78379786D01*
X65155048Y-78207820D01*
X65155047Y-78207820D01*
X65155051Y-78207816D01*
X65251557Y-78018412D01*
X65317246Y-77816243D01*
X65350500Y-77606287D01*
X65350500Y-77393713D01*
X65317246Y-77183757D01*
X65251557Y-76981588D01*
X65155051Y-76792184D01*
X65155049Y-76792181D01*
X65155048Y-76792179D01*
X65030109Y-76620213D01*
X64879786Y-76469890D01*
X64707820Y-76344951D01*
X64707115Y-76344591D01*
X64699054Y-76340485D01*
X64648259Y-76292512D01*
X64631463Y-76224692D01*
X64653999Y-76158556D01*
X64699054Y-76119515D01*
X64707816Y-76115051D01*
X64807972Y-76042284D01*
X64879786Y-75990109D01*
X64879788Y-75990106D01*
X64879792Y-75990104D01*
X65030104Y-75839792D01*
X65030106Y-75839788D01*
X65030109Y-75839786D01*
X65155048Y-75667820D01*
X65155047Y-75667820D01*
X65155051Y-75667816D01*
X65251557Y-75478412D01*
X65317246Y-75276243D01*
X65350500Y-75066287D01*
X65350500Y-74853713D01*
X65317246Y-74643757D01*
X65251557Y-74441588D01*
X65155051Y-74252184D01*
X65155049Y-74252181D01*
X65155048Y-74252179D01*
X65030109Y-74080213D01*
X64879786Y-73929890D01*
X64707820Y-73804951D01*
X64707115Y-73804591D01*
X64699054Y-73800485D01*
X64648259Y-73752512D01*
X64631463Y-73684692D01*
X64653999Y-73618556D01*
X64699054Y-73579515D01*
X64707816Y-73575051D01*
X64743350Y-73549234D01*
X64879786Y-73450109D01*
X64879788Y-73450106D01*
X64879792Y-73450104D01*
X65030104Y-73299792D01*
X65030106Y-73299788D01*
X65030109Y-73299786D01*
X65155048Y-73127820D01*
X65155047Y-73127820D01*
X65155051Y-73127816D01*
X65251557Y-72938412D01*
X65317246Y-72736243D01*
X65350500Y-72526287D01*
X65350500Y-72313713D01*
X65317246Y-72103757D01*
X65251557Y-71901588D01*
X65155051Y-71712184D01*
X65155049Y-71712181D01*
X65155048Y-71712179D01*
X65030109Y-71540213D01*
X64879786Y-71389890D01*
X64707820Y-71264951D01*
X64707115Y-71264591D01*
X64699054Y-71260485D01*
X64648259Y-71212512D01*
X64631463Y-71144692D01*
X64653999Y-71078556D01*
X64699054Y-71039515D01*
X64707816Y-71035051D01*
X64729789Y-71019086D01*
X64879786Y-70910109D01*
X64879788Y-70910106D01*
X64879792Y-70910104D01*
X65030104Y-70759792D01*
X65030106Y-70759788D01*
X65030109Y-70759786D01*
X65155048Y-70587820D01*
X65155047Y-70587820D01*
X65155051Y-70587816D01*
X65251557Y-70398412D01*
X65317246Y-70196243D01*
X65350500Y-69986287D01*
X65350500Y-69773713D01*
X65317246Y-69563757D01*
X65251557Y-69361588D01*
X65155051Y-69172184D01*
X65155049Y-69172181D01*
X65155048Y-69172179D01*
X65030109Y-69000213D01*
X64879786Y-68849890D01*
X64707820Y-68724951D01*
X64707115Y-68724591D01*
X64699054Y-68720485D01*
X64648259Y-68672512D01*
X64631463Y-68604692D01*
X64653999Y-68538556D01*
X64699054Y-68499515D01*
X64707816Y-68495051D01*
X64731769Y-68477648D01*
X64879786Y-68370109D01*
X64879788Y-68370106D01*
X64879792Y-68370104D01*
X65030104Y-68219792D01*
X65030106Y-68219788D01*
X65030109Y-68219786D01*
X65155048Y-68047820D01*
X65155047Y-68047820D01*
X65155051Y-68047816D01*
X65251557Y-67858412D01*
X65317246Y-67656243D01*
X65350500Y-67446287D01*
X65350500Y-67233713D01*
X65317246Y-67023757D01*
X65251557Y-66821588D01*
X65155051Y-66632184D01*
X65155049Y-66632181D01*
X65155048Y-66632179D01*
X65030109Y-66460213D01*
X64879786Y-66309890D01*
X64707820Y-66184951D01*
X64707115Y-66184591D01*
X64699054Y-66180485D01*
X64648259Y-66132512D01*
X64631463Y-66064692D01*
X64653999Y-65998556D01*
X64699054Y-65959515D01*
X64707816Y-65955051D01*
X64803400Y-65885606D01*
X64879786Y-65830109D01*
X64879788Y-65830106D01*
X64879792Y-65830104D01*
X65030104Y-65679792D01*
X65030106Y-65679788D01*
X65030109Y-65679786D01*
X65155048Y-65507820D01*
X65155047Y-65507820D01*
X65155051Y-65507816D01*
X65251557Y-65318412D01*
X65317246Y-65116243D01*
X65350500Y-64906287D01*
X65350500Y-64693713D01*
X65317246Y-64483757D01*
X65251557Y-64281588D01*
X65155051Y-64092184D01*
X65155049Y-64092181D01*
X65155048Y-64092179D01*
X65030109Y-63920213D01*
X64879786Y-63769890D01*
X64707820Y-63644951D01*
X64707115Y-63644591D01*
X64699054Y-63640485D01*
X64648259Y-63592512D01*
X64631463Y-63524692D01*
X64653999Y-63458556D01*
X64699054Y-63419515D01*
X64707816Y-63415051D01*
X64729789Y-63399086D01*
X64879786Y-63290109D01*
X64879788Y-63290106D01*
X64879792Y-63290104D01*
X65030104Y-63139792D01*
X65030106Y-63139788D01*
X65030109Y-63139786D01*
X65155048Y-62967820D01*
X65155047Y-62967820D01*
X65155051Y-62967816D01*
X65251557Y-62778412D01*
X65317246Y-62576243D01*
X65350500Y-62366287D01*
X65350500Y-62153713D01*
X65317246Y-61943757D01*
X65251557Y-61741588D01*
X65155051Y-61552184D01*
X65155049Y-61552181D01*
X65155048Y-61552179D01*
X65030109Y-61380213D01*
X64879786Y-61229890D01*
X64707820Y-61104951D01*
X64707115Y-61104591D01*
X64699054Y-61100485D01*
X64648259Y-61052512D01*
X64631463Y-60984692D01*
X64653999Y-60918556D01*
X64699054Y-60879515D01*
X64707816Y-60875051D01*
X64729789Y-60859086D01*
X64879786Y-60750109D01*
X64879788Y-60750106D01*
X64879792Y-60750104D01*
X65030104Y-60599792D01*
X65030106Y-60599788D01*
X65030109Y-60599786D01*
X65155048Y-60427820D01*
X65155047Y-60427820D01*
X65155051Y-60427816D01*
X65251557Y-60238412D01*
X65317246Y-60036243D01*
X65350500Y-59826287D01*
X65350500Y-59613713D01*
X88049500Y-59613713D01*
X88049500Y-59826287D01*
X88049986Y-59829353D01*
X88081698Y-60029579D01*
X88082754Y-60036243D01*
X88118985Y-60147751D01*
X88148444Y-60238414D01*
X88244951Y-60427820D01*
X88369890Y-60599786D01*
X88520213Y-60750109D01*
X88692182Y-60875050D01*
X88700946Y-60879516D01*
X88751742Y-60927491D01*
X88768536Y-60995312D01*
X88745998Y-61061447D01*
X88700946Y-61100484D01*
X88692182Y-61104949D01*
X88520213Y-61229890D01*
X88369890Y-61380213D01*
X88244951Y-61552179D01*
X88148444Y-61741585D01*
X88082753Y-61943760D01*
X88051043Y-62143972D01*
X88049500Y-62153713D01*
X88049500Y-62366287D01*
X88082754Y-62576243D01*
X88125470Y-62707710D01*
X88148444Y-62778414D01*
X88244951Y-62967820D01*
X88369890Y-63139786D01*
X88520213Y-63290109D01*
X88692182Y-63415050D01*
X88700946Y-63419516D01*
X88751742Y-63467491D01*
X88768536Y-63535312D01*
X88745998Y-63601447D01*
X88700946Y-63640484D01*
X88692182Y-63644949D01*
X88520213Y-63769890D01*
X88369890Y-63920213D01*
X88244951Y-64092179D01*
X88148444Y-64281585D01*
X88082753Y-64483760D01*
X88049500Y-64693713D01*
X88049500Y-64906286D01*
X88081373Y-65107528D01*
X88082754Y-65116243D01*
X88147034Y-65314077D01*
X88148444Y-65318414D01*
X88244951Y-65507820D01*
X88369890Y-65679786D01*
X88520213Y-65830109D01*
X88692182Y-65955050D01*
X88700946Y-65959516D01*
X88751742Y-66007491D01*
X88768536Y-66075312D01*
X88745998Y-66141447D01*
X88700946Y-66180484D01*
X88692182Y-66184949D01*
X88520213Y-66309890D01*
X88369890Y-66460213D01*
X88244951Y-66632179D01*
X88148444Y-66821585D01*
X88082753Y-67023760D01*
X88049500Y-67233713D01*
X88049500Y-67446286D01*
X88071950Y-67588034D01*
X88082754Y-67656243D01*
X88107624Y-67732786D01*
X88148444Y-67858414D01*
X88244951Y-68047820D01*
X88369890Y-68219786D01*
X88520213Y-68370109D01*
X88692182Y-68495050D01*
X88700946Y-68499516D01*
X88751742Y-68547491D01*
X88768536Y-68615312D01*
X88745998Y-68681447D01*
X88700946Y-68720484D01*
X88692182Y-68724949D01*
X88520213Y-68849890D01*
X88369890Y-69000213D01*
X88244951Y-69172179D01*
X88148444Y-69361585D01*
X88082753Y-69563760D01*
X88049500Y-69773713D01*
X88049500Y-69986286D01*
X88082753Y-70196239D01*
X88148444Y-70398414D01*
X88244951Y-70587820D01*
X88369890Y-70759786D01*
X88520213Y-70910109D01*
X88692182Y-71035050D01*
X88700946Y-71039516D01*
X88751742Y-71087491D01*
X88768536Y-71155312D01*
X88745998Y-71221447D01*
X88700946Y-71260484D01*
X88692182Y-71264949D01*
X88520213Y-71389890D01*
X88369890Y-71540213D01*
X88244951Y-71712179D01*
X88148444Y-71901585D01*
X88082753Y-72103760D01*
X88049500Y-72313713D01*
X88049500Y-72526286D01*
X88082753Y-72736239D01*
X88148444Y-72938414D01*
X88244951Y-73127820D01*
X88369890Y-73299786D01*
X88520213Y-73450109D01*
X88692182Y-73575050D01*
X88700946Y-73579516D01*
X88751742Y-73627491D01*
X88768536Y-73695312D01*
X88745998Y-73761447D01*
X88700946Y-73800484D01*
X88692182Y-73804949D01*
X88520213Y-73929890D01*
X88369890Y-74080213D01*
X88244951Y-74252179D01*
X88148444Y-74441585D01*
X88082753Y-74643760D01*
X88053628Y-74827648D01*
X88049500Y-74853713D01*
X88049500Y-75066287D01*
X88082754Y-75276243D01*
X88132460Y-75429223D01*
X88148444Y-75478414D01*
X88244951Y-75667820D01*
X88369890Y-75839786D01*
X88520213Y-75990109D01*
X88692182Y-76115050D01*
X88700946Y-76119516D01*
X88751742Y-76167491D01*
X88768536Y-76235312D01*
X88745998Y-76301447D01*
X88700946Y-76340484D01*
X88692182Y-76344949D01*
X88520213Y-76469890D01*
X88369890Y-76620213D01*
X88244951Y-76792179D01*
X88148444Y-76981585D01*
X88082753Y-77183760D01*
X88049500Y-77393713D01*
X88049500Y-77606286D01*
X88081373Y-77807528D01*
X88082754Y-77816243D01*
X88137749Y-77985500D01*
X88148444Y-78018414D01*
X88244951Y-78207820D01*
X88369890Y-78379786D01*
X88520213Y-78530109D01*
X88692182Y-78655050D01*
X88700946Y-78659516D01*
X88751742Y-78707491D01*
X88768536Y-78775312D01*
X88745998Y-78841447D01*
X88700946Y-78880484D01*
X88692182Y-78884949D01*
X88520213Y-79009890D01*
X88369890Y-79160213D01*
X88244951Y-79332179D01*
X88148444Y-79521585D01*
X88082753Y-79723760D01*
X88049500Y-79933713D01*
X88049500Y-80146286D01*
X88082753Y-80356239D01*
X88148444Y-80558414D01*
X88244951Y-80747820D01*
X88369890Y-80919786D01*
X88520213Y-81070109D01*
X88692182Y-81195050D01*
X88700946Y-81199516D01*
X88751742Y-81247491D01*
X88768536Y-81315312D01*
X88745998Y-81381447D01*
X88700946Y-81420484D01*
X88692182Y-81424949D01*
X88520213Y-81549890D01*
X88369890Y-81700213D01*
X88244951Y-81872179D01*
X88148444Y-82061585D01*
X88148443Y-82061587D01*
X88148443Y-82061588D01*
X88119748Y-82149901D01*
X88082753Y-82263760D01*
X88049500Y-82473713D01*
X88049500Y-82686286D01*
X88076539Y-82857007D01*
X88082754Y-82896243D01*
X88121641Y-83015925D01*
X88148444Y-83098414D01*
X88244951Y-83287820D01*
X88369890Y-83459786D01*
X88520213Y-83610109D01*
X88692182Y-83735050D01*
X88700946Y-83739516D01*
X88751742Y-83787491D01*
X88768536Y-83855312D01*
X88745998Y-83921447D01*
X88700946Y-83960484D01*
X88692182Y-83964949D01*
X88520213Y-84089890D01*
X88369890Y-84240213D01*
X88244951Y-84412179D01*
X88148444Y-84601585D01*
X88082753Y-84803760D01*
X88049500Y-85013713D01*
X88049500Y-85226286D01*
X88074293Y-85382826D01*
X88082754Y-85436243D01*
X88148308Y-85637997D01*
X88148444Y-85638414D01*
X88244951Y-85827820D01*
X88369890Y-85999786D01*
X88520213Y-86150109D01*
X88692182Y-86275050D01*
X88700946Y-86279516D01*
X88751742Y-86327491D01*
X88768536Y-86395312D01*
X88745998Y-86461447D01*
X88700946Y-86500484D01*
X88692182Y-86504949D01*
X88520213Y-86629890D01*
X88369890Y-86780213D01*
X88244951Y-86952179D01*
X88148444Y-87141585D01*
X88082753Y-87343760D01*
X88049500Y-87553713D01*
X88049500Y-87766286D01*
X88065118Y-87864898D01*
X88082754Y-87976243D01*
X88137051Y-88143352D01*
X88148444Y-88178414D01*
X88244951Y-88367820D01*
X88369890Y-88539786D01*
X88520213Y-88690109D01*
X88692182Y-88815050D01*
X88700946Y-88819516D01*
X88751742Y-88867491D01*
X88768536Y-88935312D01*
X88745998Y-89001447D01*
X88700946Y-89040484D01*
X88692182Y-89044949D01*
X88520213Y-89169890D01*
X88369890Y-89320213D01*
X88244951Y-89492179D01*
X88148444Y-89681585D01*
X88082753Y-89883760D01*
X88049500Y-90093713D01*
X88049500Y-90306286D01*
X88082753Y-90516239D01*
X88148444Y-90718414D01*
X88244951Y-90907820D01*
X88369890Y-91079786D01*
X88520213Y-91230109D01*
X88692182Y-91355050D01*
X88700946Y-91359516D01*
X88751742Y-91407491D01*
X88768536Y-91475312D01*
X88745998Y-91541447D01*
X88700946Y-91580484D01*
X88692182Y-91584949D01*
X88520213Y-91709890D01*
X88369890Y-91860213D01*
X88244951Y-92032179D01*
X88148444Y-92221585D01*
X88082753Y-92423760D01*
X88049500Y-92633713D01*
X88049500Y-92846286D01*
X88082753Y-93056239D01*
X88148444Y-93258414D01*
X88244951Y-93447820D01*
X88369890Y-93619786D01*
X88520213Y-93770109D01*
X88692182Y-93895050D01*
X88700946Y-93899516D01*
X88751742Y-93947491D01*
X88768536Y-94015312D01*
X88745998Y-94081447D01*
X88700946Y-94120484D01*
X88692182Y-94124949D01*
X88520213Y-94249890D01*
X88369890Y-94400213D01*
X88244951Y-94572179D01*
X88148444Y-94761585D01*
X88082753Y-94963760D01*
X88049500Y-95173713D01*
X88049500Y-95386286D01*
X88065118Y-95484898D01*
X88082754Y-95596243D01*
X88148308Y-95797997D01*
X88148444Y-95798414D01*
X88244951Y-95987820D01*
X88369890Y-96159786D01*
X88520213Y-96310109D01*
X88692182Y-96435050D01*
X88700946Y-96439516D01*
X88751742Y-96487491D01*
X88768536Y-96555312D01*
X88745998Y-96621447D01*
X88700946Y-96660484D01*
X88692182Y-96664949D01*
X88520213Y-96789890D01*
X88369890Y-96940213D01*
X88244951Y-97112179D01*
X88148444Y-97301585D01*
X88082753Y-97503760D01*
X88049500Y-97713713D01*
X88049500Y-97926286D01*
X88082753Y-98136239D01*
X88148444Y-98338414D01*
X88244951Y-98527820D01*
X88369890Y-98699786D01*
X88520213Y-98850109D01*
X88692182Y-98975050D01*
X88700946Y-98979516D01*
X88751742Y-99027491D01*
X88768536Y-99095312D01*
X88745998Y-99161447D01*
X88700946Y-99200484D01*
X88692182Y-99204949D01*
X88520213Y-99329890D01*
X88369890Y-99480213D01*
X88244951Y-99652179D01*
X88148444Y-99841585D01*
X88082753Y-100043760D01*
X88049500Y-100253713D01*
X88049500Y-100466286D01*
X88082753Y-100676239D01*
X88148444Y-100878414D01*
X88244951Y-101067820D01*
X88369890Y-101239786D01*
X88520213Y-101390109D01*
X88692182Y-101515050D01*
X88700946Y-101519516D01*
X88751742Y-101567491D01*
X88768536Y-101635312D01*
X88745998Y-101701447D01*
X88700946Y-101740484D01*
X88692182Y-101744949D01*
X88520213Y-101869890D01*
X88369890Y-102020213D01*
X88244951Y-102192179D01*
X88148444Y-102381585D01*
X88082753Y-102583760D01*
X88049500Y-102793713D01*
X88049500Y-103006286D01*
X88065118Y-103104898D01*
X88082754Y-103216243D01*
X88147170Y-103414495D01*
X88148444Y-103418414D01*
X88244951Y-103607820D01*
X88369890Y-103779786D01*
X88520213Y-103930109D01*
X88692179Y-104055048D01*
X88692181Y-104055049D01*
X88692184Y-104055051D01*
X88881588Y-104151557D01*
X89083757Y-104217246D01*
X89293713Y-104250500D01*
X89293714Y-104250500D01*
X89506286Y-104250500D01*
X89506287Y-104250500D01*
X89716243Y-104217246D01*
X89918412Y-104151557D01*
X90107816Y-104055051D01*
X90245874Y-103954747D01*
X90279786Y-103930109D01*
X90279788Y-103930106D01*
X90279792Y-103930104D01*
X90430104Y-103779792D01*
X90430106Y-103779788D01*
X90430109Y-103779786D01*
X90555048Y-103607820D01*
X90555047Y-103607820D01*
X90555051Y-103607816D01*
X90651557Y-103418412D01*
X90717246Y-103216243D01*
X90750500Y-103006287D01*
X90750500Y-102793713D01*
X90717246Y-102583757D01*
X90651557Y-102381588D01*
X90555051Y-102192184D01*
X90555049Y-102192181D01*
X90555048Y-102192179D01*
X90430109Y-102020213D01*
X90279786Y-101869890D01*
X90107820Y-101744951D01*
X90107115Y-101744591D01*
X90099054Y-101740485D01*
X90048259Y-101692512D01*
X90031463Y-101624692D01*
X90053999Y-101558556D01*
X90099054Y-101519515D01*
X90107816Y-101515051D01*
X90129789Y-101499086D01*
X90279786Y-101390109D01*
X90279788Y-101390106D01*
X90279792Y-101390104D01*
X90430104Y-101239792D01*
X90430106Y-101239788D01*
X90430109Y-101239786D01*
X90555048Y-101067820D01*
X90555047Y-101067820D01*
X90555051Y-101067816D01*
X90651557Y-100878412D01*
X90717246Y-100676243D01*
X90750500Y-100466287D01*
X90750500Y-100253713D01*
X90717246Y-100043757D01*
X90651557Y-99841588D01*
X90555051Y-99652184D01*
X90555049Y-99652181D01*
X90555048Y-99652179D01*
X90430109Y-99480213D01*
X90279786Y-99329890D01*
X90107820Y-99204951D01*
X90107115Y-99204591D01*
X90099054Y-99200485D01*
X90048259Y-99152512D01*
X90031463Y-99084692D01*
X90053999Y-99018556D01*
X90099054Y-98979515D01*
X90107816Y-98975051D01*
X90129789Y-98959086D01*
X90279786Y-98850109D01*
X90279788Y-98850106D01*
X90279792Y-98850104D01*
X90430104Y-98699792D01*
X90430106Y-98699788D01*
X90430109Y-98699786D01*
X90555048Y-98527820D01*
X90555047Y-98527820D01*
X90555051Y-98527816D01*
X90651557Y-98338412D01*
X90717246Y-98136243D01*
X90750500Y-97926287D01*
X90750500Y-97713713D01*
X90717246Y-97503757D01*
X90651557Y-97301588D01*
X90555051Y-97112184D01*
X90555049Y-97112181D01*
X90555048Y-97112179D01*
X90430109Y-96940213D01*
X90279786Y-96789890D01*
X90107820Y-96664951D01*
X90107115Y-96664591D01*
X90099054Y-96660485D01*
X90048259Y-96612512D01*
X90031463Y-96544692D01*
X90053999Y-96478556D01*
X90099054Y-96439515D01*
X90107816Y-96435051D01*
X90129789Y-96419086D01*
X90279786Y-96310109D01*
X90279788Y-96310106D01*
X90279792Y-96310104D01*
X90430104Y-96159792D01*
X90430106Y-96159788D01*
X90430109Y-96159786D01*
X90555048Y-95987820D01*
X90555047Y-95987820D01*
X90555051Y-95987816D01*
X90651557Y-95798412D01*
X90717246Y-95596243D01*
X90750500Y-95386287D01*
X90750500Y-95173713D01*
X90717246Y-94963757D01*
X90651557Y-94761588D01*
X90555051Y-94572184D01*
X90555049Y-94572181D01*
X90555048Y-94572179D01*
X90430109Y-94400213D01*
X90279786Y-94249890D01*
X90107820Y-94124951D01*
X90107115Y-94124591D01*
X90099054Y-94120485D01*
X90048259Y-94072512D01*
X90031463Y-94004692D01*
X90053999Y-93938556D01*
X90099054Y-93899515D01*
X90107816Y-93895051D01*
X90129789Y-93879086D01*
X90279786Y-93770109D01*
X90279788Y-93770106D01*
X90279792Y-93770104D01*
X90430104Y-93619792D01*
X90430106Y-93619788D01*
X90430109Y-93619786D01*
X90555048Y-93447820D01*
X90555047Y-93447820D01*
X90555051Y-93447816D01*
X90651557Y-93258412D01*
X90717246Y-93056243D01*
X90750500Y-92846287D01*
X90750500Y-92633713D01*
X90717246Y-92423757D01*
X90651557Y-92221588D01*
X90555051Y-92032184D01*
X90555049Y-92032181D01*
X90555048Y-92032179D01*
X90430109Y-91860213D01*
X90279786Y-91709890D01*
X90107820Y-91584951D01*
X90107115Y-91584591D01*
X90099054Y-91580485D01*
X90048259Y-91532512D01*
X90031463Y-91464692D01*
X90053999Y-91398556D01*
X90099054Y-91359515D01*
X90107816Y-91355051D01*
X90162572Y-91315269D01*
X90279786Y-91230109D01*
X90279788Y-91230106D01*
X90279792Y-91230104D01*
X90430104Y-91079792D01*
X90430106Y-91079788D01*
X90430109Y-91079786D01*
X90555048Y-90907820D01*
X90555047Y-90907820D01*
X90555051Y-90907816D01*
X90651557Y-90718412D01*
X90717246Y-90516243D01*
X90750500Y-90306287D01*
X90750500Y-90093713D01*
X90717246Y-89883757D01*
X90651557Y-89681588D01*
X90555051Y-89492184D01*
X90555049Y-89492181D01*
X90555048Y-89492179D01*
X90430109Y-89320213D01*
X90279786Y-89169890D01*
X90107820Y-89044951D01*
X90099600Y-89040763D01*
X90099054Y-89040485D01*
X90048259Y-88992512D01*
X90031463Y-88924692D01*
X90053999Y-88858556D01*
X90099054Y-88819515D01*
X90107816Y-88815051D01*
X90129789Y-88799086D01*
X90279786Y-88690109D01*
X90279788Y-88690106D01*
X90279792Y-88690104D01*
X90430104Y-88539792D01*
X90430106Y-88539788D01*
X90430109Y-88539786D01*
X90555048Y-88367820D01*
X90555047Y-88367820D01*
X90555051Y-88367816D01*
X90651557Y-88178412D01*
X90717246Y-87976243D01*
X90750500Y-87766287D01*
X90750500Y-87553713D01*
X90717246Y-87343757D01*
X90651557Y-87141588D01*
X90555051Y-86952184D01*
X90555049Y-86952181D01*
X90555048Y-86952179D01*
X90430109Y-86780213D01*
X90279786Y-86629890D01*
X90107820Y-86504951D01*
X90107115Y-86504591D01*
X90099054Y-86500485D01*
X90048259Y-86452512D01*
X90031463Y-86384692D01*
X90053999Y-86318556D01*
X90099054Y-86279515D01*
X90107816Y-86275051D01*
X90143835Y-86248882D01*
X90279786Y-86150109D01*
X90279788Y-86150106D01*
X90279792Y-86150104D01*
X90430104Y-85999792D01*
X90430106Y-85999788D01*
X90430109Y-85999786D01*
X90555048Y-85827820D01*
X90555047Y-85827820D01*
X90555051Y-85827816D01*
X90651557Y-85638412D01*
X90717246Y-85436243D01*
X90750500Y-85226287D01*
X90750500Y-85013713D01*
X90717246Y-84803757D01*
X90651557Y-84601588D01*
X90555051Y-84412184D01*
X90555049Y-84412181D01*
X90555048Y-84412179D01*
X90430109Y-84240213D01*
X90279786Y-84089890D01*
X90107820Y-83964951D01*
X90107115Y-83964591D01*
X90099054Y-83960485D01*
X90048259Y-83912512D01*
X90031463Y-83844692D01*
X90053999Y-83778556D01*
X90099054Y-83739515D01*
X90107816Y-83735051D01*
X90231737Y-83645018D01*
X90279786Y-83610109D01*
X90279788Y-83610106D01*
X90279792Y-83610104D01*
X90430104Y-83459792D01*
X90430106Y-83459788D01*
X90430109Y-83459786D01*
X90555048Y-83287820D01*
X90555047Y-83287820D01*
X90555051Y-83287816D01*
X90651557Y-83098412D01*
X90717246Y-82896243D01*
X90750500Y-82686287D01*
X90750500Y-82473713D01*
X90717246Y-82263757D01*
X90651557Y-82061588D01*
X90555051Y-81872184D01*
X90555049Y-81872181D01*
X90555048Y-81872179D01*
X90430109Y-81700213D01*
X90279786Y-81549890D01*
X90107820Y-81424951D01*
X90107115Y-81424591D01*
X90099054Y-81420485D01*
X90048259Y-81372512D01*
X90031463Y-81304692D01*
X90053999Y-81238556D01*
X90099054Y-81199515D01*
X90107816Y-81195051D01*
X90134497Y-81175666D01*
X90279786Y-81070109D01*
X90279788Y-81070106D01*
X90279792Y-81070104D01*
X90430104Y-80919792D01*
X90430106Y-80919788D01*
X90430109Y-80919786D01*
X90549831Y-80755001D01*
X90555051Y-80747816D01*
X90651557Y-80558412D01*
X90717246Y-80356243D01*
X90750500Y-80146287D01*
X90750500Y-79933713D01*
X90717246Y-79723757D01*
X90651557Y-79521588D01*
X90555051Y-79332184D01*
X90555049Y-79332181D01*
X90555048Y-79332179D01*
X90430109Y-79160213D01*
X90279786Y-79009890D01*
X90107820Y-78884951D01*
X90107115Y-78884591D01*
X90099054Y-78880485D01*
X90048259Y-78832512D01*
X90031463Y-78764692D01*
X90053999Y-78698556D01*
X90099054Y-78659515D01*
X90107816Y-78655051D01*
X90129789Y-78639086D01*
X90279786Y-78530109D01*
X90279788Y-78530106D01*
X90279792Y-78530104D01*
X90430104Y-78379792D01*
X90430106Y-78379788D01*
X90430109Y-78379786D01*
X90555048Y-78207820D01*
X90555047Y-78207820D01*
X90555051Y-78207816D01*
X90651557Y-78018412D01*
X90717246Y-77816243D01*
X90750500Y-77606287D01*
X90750500Y-77393713D01*
X90717246Y-77183757D01*
X90651557Y-76981588D01*
X90555051Y-76792184D01*
X90555049Y-76792181D01*
X90555048Y-76792179D01*
X90430109Y-76620213D01*
X90279786Y-76469890D01*
X90107820Y-76344951D01*
X90107115Y-76344591D01*
X90099054Y-76340485D01*
X90048259Y-76292512D01*
X90031463Y-76224692D01*
X90053999Y-76158556D01*
X90099054Y-76119515D01*
X90107816Y-76115051D01*
X90207972Y-76042284D01*
X90279786Y-75990109D01*
X90279788Y-75990106D01*
X90279792Y-75990104D01*
X90430104Y-75839792D01*
X90430106Y-75839788D01*
X90430109Y-75839786D01*
X90555048Y-75667820D01*
X90555047Y-75667820D01*
X90555051Y-75667816D01*
X90651557Y-75478412D01*
X90717246Y-75276243D01*
X90750500Y-75066287D01*
X90750500Y-74853713D01*
X90717246Y-74643757D01*
X90651557Y-74441588D01*
X90555051Y-74252184D01*
X90555049Y-74252181D01*
X90555048Y-74252179D01*
X90430109Y-74080213D01*
X90279786Y-73929890D01*
X90107820Y-73804951D01*
X90107115Y-73804591D01*
X90099054Y-73800485D01*
X90048259Y-73752512D01*
X90031463Y-73684692D01*
X90053999Y-73618556D01*
X90099054Y-73579515D01*
X90107816Y-73575051D01*
X90143350Y-73549234D01*
X90279786Y-73450109D01*
X90279788Y-73450106D01*
X90279792Y-73450104D01*
X90430104Y-73299792D01*
X90430106Y-73299788D01*
X90430109Y-73299786D01*
X90555048Y-73127820D01*
X90555047Y-73127820D01*
X90555051Y-73127816D01*
X90651557Y-72938412D01*
X90717246Y-72736243D01*
X90750500Y-72526287D01*
X90750500Y-72313713D01*
X90717246Y-72103757D01*
X90651557Y-71901588D01*
X90555051Y-71712184D01*
X90555049Y-71712181D01*
X90555048Y-71712179D01*
X90430109Y-71540213D01*
X90279786Y-71389890D01*
X90107820Y-71264951D01*
X90107115Y-71264591D01*
X90099054Y-71260485D01*
X90048259Y-71212512D01*
X90031463Y-71144692D01*
X90053999Y-71078556D01*
X90099054Y-71039515D01*
X90107816Y-71035051D01*
X90129789Y-71019086D01*
X90279786Y-70910109D01*
X90279788Y-70910106D01*
X90279792Y-70910104D01*
X90430104Y-70759792D01*
X90430106Y-70759788D01*
X90430109Y-70759786D01*
X90555048Y-70587820D01*
X90555047Y-70587820D01*
X90555051Y-70587816D01*
X90651557Y-70398412D01*
X90717246Y-70196243D01*
X90750500Y-69986287D01*
X90750500Y-69773713D01*
X90717246Y-69563757D01*
X90651557Y-69361588D01*
X90555051Y-69172184D01*
X90555049Y-69172181D01*
X90555048Y-69172179D01*
X90430109Y-69000213D01*
X90279786Y-68849890D01*
X90107820Y-68724951D01*
X90107115Y-68724591D01*
X90099054Y-68720485D01*
X90048259Y-68672512D01*
X90031463Y-68604692D01*
X90053999Y-68538556D01*
X90099054Y-68499515D01*
X90107816Y-68495051D01*
X90131769Y-68477648D01*
X90279786Y-68370109D01*
X90279788Y-68370106D01*
X90279792Y-68370104D01*
X90430104Y-68219792D01*
X90430106Y-68219788D01*
X90430109Y-68219786D01*
X90555048Y-68047820D01*
X90555047Y-68047820D01*
X90555051Y-68047816D01*
X90651557Y-67858412D01*
X90717246Y-67656243D01*
X90750500Y-67446287D01*
X90750500Y-67233713D01*
X90717246Y-67023757D01*
X90651557Y-66821588D01*
X90555051Y-66632184D01*
X90555049Y-66632181D01*
X90555048Y-66632179D01*
X90430109Y-66460213D01*
X90279786Y-66309890D01*
X90107820Y-66184951D01*
X90107115Y-66184591D01*
X90099054Y-66180485D01*
X90048259Y-66132512D01*
X90031463Y-66064692D01*
X90053999Y-65998556D01*
X90099054Y-65959515D01*
X90107816Y-65955051D01*
X90203400Y-65885606D01*
X90279786Y-65830109D01*
X90279788Y-65830106D01*
X90279792Y-65830104D01*
X90430104Y-65679792D01*
X90430106Y-65679788D01*
X90430109Y-65679786D01*
X90555048Y-65507820D01*
X90555047Y-65507820D01*
X90555051Y-65507816D01*
X90651557Y-65318412D01*
X90717246Y-65116243D01*
X90750500Y-64906287D01*
X90750500Y-64693713D01*
X90717246Y-64483757D01*
X90651557Y-64281588D01*
X90555051Y-64092184D01*
X90555049Y-64092181D01*
X90555048Y-64092179D01*
X90430109Y-63920213D01*
X90279786Y-63769890D01*
X90107820Y-63644951D01*
X90107115Y-63644591D01*
X90099054Y-63640485D01*
X90048259Y-63592512D01*
X90031463Y-63524692D01*
X90053999Y-63458556D01*
X90099054Y-63419515D01*
X90107816Y-63415051D01*
X90129789Y-63399086D01*
X90279786Y-63290109D01*
X90279788Y-63290106D01*
X90279792Y-63290104D01*
X90430104Y-63139792D01*
X90430106Y-63139788D01*
X90430109Y-63139786D01*
X90555048Y-62967820D01*
X90555047Y-62967820D01*
X90555051Y-62967816D01*
X90651557Y-62778412D01*
X90717246Y-62576243D01*
X90750500Y-62366287D01*
X90750500Y-62153713D01*
X90746850Y-62130666D01*
X95511500Y-62130666D01*
X95511500Y-62329333D01*
X95550254Y-62524161D01*
X95550256Y-62524169D01*
X95626277Y-62707701D01*
X95626282Y-62707710D01*
X95736644Y-62872878D01*
X95737348Y-62873735D01*
X95737576Y-62874272D01*
X95740031Y-62877946D01*
X95739334Y-62878411D01*
X95764665Y-62938043D01*
X95765500Y-62952406D01*
X95765500Y-63420552D01*
X95765499Y-63420578D01*
X95765499Y-63574314D01*
X95778662Y-63640484D01*
X95787126Y-63683035D01*
X95794495Y-63720080D01*
X95815130Y-63769896D01*
X95817131Y-63774728D01*
X95817135Y-63774739D01*
X95851366Y-63857381D01*
X95851372Y-63857392D01*
X95933942Y-63980968D01*
X95933943Y-63980969D01*
X96999181Y-65046205D01*
X97032666Y-65107528D01*
X97035500Y-65133886D01*
X97035500Y-68500552D01*
X97035499Y-68500578D01*
X97035499Y-68505688D01*
X97035499Y-68654312D01*
X97035499Y-68654314D01*
X97035498Y-68654314D01*
X97064493Y-68800073D01*
X97064496Y-68800083D01*
X97121366Y-68937381D01*
X97121372Y-68937392D01*
X97203942Y-69060968D01*
X97203943Y-69060969D01*
X105889181Y-77746205D01*
X105922666Y-77807528D01*
X105925500Y-77833886D01*
X105925500Y-111396113D01*
X105905815Y-111463152D01*
X105889181Y-111483794D01*
X104117306Y-113255668D01*
X104055983Y-113289153D01*
X104041793Y-113291389D01*
X104040669Y-113291499D01*
X103845838Y-113330254D01*
X103845830Y-113330256D01*
X103662298Y-113406277D01*
X103662289Y-113406282D01*
X103497119Y-113516646D01*
X103497115Y-113516649D01*
X103356649Y-113657115D01*
X103356646Y-113657119D01*
X103246282Y-113822289D01*
X103246277Y-113822298D01*
X103170256Y-114005830D01*
X103170254Y-114005838D01*
X103131500Y-114200666D01*
X103131500Y-114399333D01*
X103170254Y-114594161D01*
X103170256Y-114594169D01*
X103246277Y-114777701D01*
X103246282Y-114777710D01*
X103356646Y-114942880D01*
X103356649Y-114942884D01*
X103497115Y-115083350D01*
X103497119Y-115083353D01*
X103662289Y-115193717D01*
X103662295Y-115193720D01*
X103662296Y-115193721D01*
X103845831Y-115269744D01*
X104040666Y-115308499D01*
X104040670Y-115308500D01*
X104040671Y-115308500D01*
X104239330Y-115308500D01*
X104239331Y-115308499D01*
X104434169Y-115269744D01*
X104617704Y-115193721D01*
X104782881Y-115083353D01*
X104923353Y-114942881D01*
X105033721Y-114777704D01*
X105109744Y-114594169D01*
X105148500Y-114399329D01*
X105148500Y-114399319D01*
X105148608Y-114398225D01*
X105148828Y-114397677D01*
X105149689Y-114393354D01*
X105150508Y-114393517D01*
X105174766Y-114333437D01*
X105184323Y-114322700D01*
X107160963Y-112346060D01*
X107160966Y-112346059D01*
X107266059Y-112240966D01*
X107348629Y-112117390D01*
X107405505Y-111980080D01*
X107434500Y-111834312D01*
X107434500Y-107345119D01*
X130709785Y-107345119D01*
X130716776Y-107543702D01*
X130716778Y-107543719D01*
X130754749Y-107738774D01*
X130754749Y-107738775D01*
X130785047Y-107821944D01*
X130822769Y-107925492D01*
X130822771Y-107925495D01*
X130919156Y-108099267D01*
X130919158Y-108099270D01*
X130919159Y-108099271D01*
X131041549Y-108255832D01*
X131186922Y-108391319D01*
X131186925Y-108391321D01*
X131186927Y-108391323D01*
X131351695Y-108502392D01*
X131351698Y-108502393D01*
X131351702Y-108502396D01*
X131531828Y-108586329D01*
X133579183Y-109172778D01*
X133664134Y-109198658D01*
X133674655Y-109200125D01*
X133684867Y-109203051D01*
X133773009Y-109213848D01*
X133860949Y-109226118D01*
X133871568Y-109225922D01*
X133882115Y-109227214D01*
X133969874Y-109224124D01*
X133971894Y-109224069D01*
X143404752Y-109050001D01*
X143406390Y-109049983D01*
X143409043Y-109049969D01*
X143472079Y-109052346D01*
X143495487Y-109049537D01*
X143502591Y-109049502D01*
X143502691Y-109049531D01*
X143503211Y-109049500D01*
X154470972Y-109049500D01*
X154544218Y-109049500D01*
X154548886Y-109049587D01*
X154556450Y-109049873D01*
X154622072Y-109052346D01*
X154622075Y-109052346D01*
X154622075Y-109052345D01*
X154622078Y-109052346D01*
X154635424Y-109050744D01*
X154638440Y-109050383D01*
X154653210Y-109049500D01*
X165337639Y-109049500D01*
X165413219Y-109049500D01*
X165488745Y-109052346D01*
X165512466Y-109049500D01*
X168005070Y-109049500D01*
X168072109Y-109069185D01*
X168092751Y-109085819D01*
X171677537Y-112670605D01*
X171838306Y-112787411D01*
X171925149Y-112831659D01*
X172015367Y-112877629D01*
X172015370Y-112877630D01*
X172109866Y-112908333D01*
X172204364Y-112939037D01*
X172400640Y-112970125D01*
X172400641Y-112970125D01*
X172599360Y-112970125D01*
X172599361Y-112970125D01*
X172795637Y-112939037D01*
X172795640Y-112939036D01*
X172795641Y-112939036D01*
X172984629Y-112877630D01*
X172984629Y-112877629D01*
X172984632Y-112877629D01*
X173161695Y-112787411D01*
X173322464Y-112670605D01*
X173462981Y-112530088D01*
X173579787Y-112369319D01*
X173670005Y-112192256D01*
X173731413Y-112003261D01*
X173762501Y-111806985D01*
X173762501Y-111608264D01*
X173731413Y-111411988D01*
X173670005Y-111222992D01*
X173670005Y-111222991D01*
X173579786Y-111045929D01*
X173548852Y-111003352D01*
X173462981Y-110885161D01*
X169546697Y-106968877D01*
X169546688Y-106968867D01*
X169534646Y-106956825D01*
X169401840Y-106824019D01*
X169241070Y-106707213D01*
X169218832Y-106695882D01*
X169064008Y-106616994D01*
X169064005Y-106616993D01*
X168875013Y-106555587D01*
X168776874Y-106540043D01*
X168678737Y-106524500D01*
X168678736Y-106524500D01*
X165572436Y-106524500D01*
X165548440Y-106522156D01*
X163621832Y-106142136D01*
X163423259Y-106134653D01*
X163423257Y-106134653D01*
X163225953Y-106158325D01*
X163225945Y-106158327D01*
X163034777Y-106212572D01*
X162854437Y-106296060D01*
X162854435Y-106296062D01*
X162689389Y-106406724D01*
X162689381Y-106406731D01*
X162598059Y-106491421D01*
X162535519Y-106522573D01*
X162513742Y-106524500D01*
X154705769Y-106524500D01*
X154681773Y-106522156D01*
X152755165Y-106142136D01*
X152556592Y-106134653D01*
X152556590Y-106134653D01*
X152359286Y-106158325D01*
X152359278Y-106158327D01*
X152168110Y-106212572D01*
X151987770Y-106296060D01*
X151987768Y-106296062D01*
X151822722Y-106406724D01*
X151822714Y-106406731D01*
X151731392Y-106491421D01*
X151668852Y-106522573D01*
X151647075Y-106524500D01*
X143555770Y-106524500D01*
X143531774Y-106522156D01*
X141605166Y-106142136D01*
X141406593Y-106134653D01*
X141406591Y-106134653D01*
X141209287Y-106158325D01*
X141209279Y-106158327D01*
X141018111Y-106212572D01*
X140837771Y-106296060D01*
X140837769Y-106296062D01*
X140672723Y-106406724D01*
X140672721Y-106406725D01*
X140608213Y-106466549D01*
X140527009Y-106541855D01*
X140527005Y-106541859D01*
X140523438Y-106545168D01*
X140522079Y-106543703D01*
X140469357Y-106575305D01*
X140440441Y-106579274D01*
X134121392Y-106695882D01*
X134084958Y-106691109D01*
X132227137Y-106158950D01*
X132227126Y-106158947D01*
X132029880Y-106134785D01*
X131831297Y-106141776D01*
X131831289Y-106141776D01*
X131831287Y-106141777D01*
X131831284Y-106141777D01*
X131831280Y-106141778D01*
X131636225Y-106179749D01*
X131636224Y-106179749D01*
X131546120Y-106212574D01*
X131449508Y-106247769D01*
X131449505Y-106247770D01*
X131449504Y-106247771D01*
X131275732Y-106344156D01*
X131119166Y-106466550D01*
X130983680Y-106611923D01*
X130983676Y-106611927D01*
X130872607Y-106776695D01*
X130850556Y-106824019D01*
X130788671Y-106956828D01*
X130785220Y-106968877D01*
X130733950Y-107147862D01*
X130733947Y-107147873D01*
X130709785Y-107345119D01*
X107434500Y-107345119D01*
X107434500Y-101342882D01*
X170849500Y-101342882D01*
X170849500Y-102657118D01*
X170852249Y-102703263D01*
X170852249Y-102703267D01*
X170852250Y-102703268D01*
X170895907Y-102903961D01*
X170895909Y-102903968D01*
X170976760Y-103092771D01*
X170976763Y-103092777D01*
X170976766Y-103092781D01*
X171091882Y-103262868D01*
X171091890Y-103262877D01*
X171237122Y-103408109D01*
X171237131Y-103408117D01*
X171330583Y-103471366D01*
X171407223Y-103523237D01*
X171407228Y-103523239D01*
X171596031Y-103604090D01*
X171596038Y-103604092D01*
X171662935Y-103618644D01*
X171796737Y-103647751D01*
X171842882Y-103650500D01*
X171842893Y-103650500D01*
X173157107Y-103650500D01*
X173157118Y-103650500D01*
X173203263Y-103647751D01*
X173386823Y-103607820D01*
X173403961Y-103604092D01*
X173403968Y-103604090D01*
X173466902Y-103577139D01*
X173592777Y-103523237D01*
X173753444Y-103414495D01*
X173762868Y-103408117D01*
X173762869Y-103408115D01*
X173762875Y-103408112D01*
X173908112Y-103262875D01*
X174023237Y-103092777D01*
X174104091Y-102903965D01*
X174147751Y-102703263D01*
X174150500Y-102657118D01*
X174150500Y-101342882D01*
X174147751Y-101296737D01*
X174104091Y-101096035D01*
X174104090Y-101096031D01*
X174023239Y-100907228D01*
X174023237Y-100907223D01*
X173977637Y-100839849D01*
X173908117Y-100737131D01*
X173908109Y-100737122D01*
X173762877Y-100591890D01*
X173762868Y-100591882D01*
X173592781Y-100476766D01*
X173592777Y-100476763D01*
X173592773Y-100476761D01*
X173592771Y-100476760D01*
X173403968Y-100395909D01*
X173403961Y-100395907D01*
X173203268Y-100352250D01*
X173203267Y-100352249D01*
X173203263Y-100352249D01*
X173157118Y-100349500D01*
X171842882Y-100349500D01*
X171796737Y-100352249D01*
X171796732Y-100352249D01*
X171796731Y-100352250D01*
X171596038Y-100395907D01*
X171596031Y-100395909D01*
X171407228Y-100476760D01*
X171407218Y-100476766D01*
X171237131Y-100591882D01*
X171237122Y-100591890D01*
X171091890Y-100737122D01*
X171091882Y-100737131D01*
X170976766Y-100907218D01*
X170976760Y-100907228D01*
X170895909Y-101096031D01*
X170895907Y-101096038D01*
X170852250Y-101296731D01*
X170852249Y-101296737D01*
X170849500Y-101342882D01*
X107434500Y-101342882D01*
X107434500Y-87551153D01*
X113499500Y-87551153D01*
X113499500Y-87708846D01*
X113530261Y-87863489D01*
X113530264Y-87863501D01*
X113590602Y-88009172D01*
X113590609Y-88009185D01*
X113678210Y-88140288D01*
X113678213Y-88140292D01*
X113789707Y-88251786D01*
X113789711Y-88251789D01*
X113920814Y-88339390D01*
X113920827Y-88339397D01*
X114029717Y-88384500D01*
X114066503Y-88399737D01*
X114221153Y-88430499D01*
X114221156Y-88430500D01*
X114221158Y-88430500D01*
X114378844Y-88430500D01*
X114378845Y-88430499D01*
X114455152Y-88415320D01*
X114533488Y-88399739D01*
X114533489Y-88399738D01*
X114533497Y-88399737D01*
X114547498Y-88393937D01*
X114594947Y-88384500D01*
X140675053Y-88384500D01*
X140722501Y-88393937D01*
X140736503Y-88399737D01*
X140736508Y-88399738D01*
X140736511Y-88399739D01*
X140891153Y-88430499D01*
X140891156Y-88430500D01*
X140891158Y-88430500D01*
X141048844Y-88430500D01*
X141048845Y-88430499D01*
X141203497Y-88399737D01*
X141349179Y-88339394D01*
X141480289Y-88251789D01*
X141591789Y-88140289D01*
X141679394Y-88009179D01*
X141739737Y-87863497D01*
X141770500Y-87708842D01*
X141770500Y-87551158D01*
X141770500Y-87551155D01*
X141770499Y-87551153D01*
X141739738Y-87396510D01*
X141739737Y-87396503D01*
X141739156Y-87395101D01*
X141679397Y-87250827D01*
X141679390Y-87250814D01*
X141591789Y-87119711D01*
X141591786Y-87119707D01*
X141480292Y-87008213D01*
X141480288Y-87008210D01*
X141349185Y-86920609D01*
X141349172Y-86920602D01*
X141203501Y-86860264D01*
X141203489Y-86860261D01*
X141048845Y-86829500D01*
X141048842Y-86829500D01*
X140891158Y-86829500D01*
X140891155Y-86829500D01*
X140736511Y-86860260D01*
X140736506Y-86860262D01*
X140736504Y-86860262D01*
X140736503Y-86860263D01*
X140722501Y-86866062D01*
X140675053Y-86875500D01*
X114594947Y-86875500D01*
X114547498Y-86866062D01*
X114533497Y-86860263D01*
X114533493Y-86860262D01*
X114533488Y-86860260D01*
X114378845Y-86829500D01*
X114378842Y-86829500D01*
X114221158Y-86829500D01*
X114221155Y-86829500D01*
X114066510Y-86860261D01*
X114066498Y-86860264D01*
X113920827Y-86920602D01*
X113920814Y-86920609D01*
X113789711Y-87008210D01*
X113789707Y-87008213D01*
X113678213Y-87119707D01*
X113678210Y-87119711D01*
X113590609Y-87250814D01*
X113590602Y-87250827D01*
X113530264Y-87396498D01*
X113530261Y-87396510D01*
X113499500Y-87551153D01*
X107434500Y-87551153D01*
X107434500Y-78348500D01*
X107454185Y-78281461D01*
X107506989Y-78235706D01*
X107558500Y-78224500D01*
X113936113Y-78224500D01*
X114003152Y-78244185D01*
X114023794Y-78260819D01*
X114979600Y-79216624D01*
X114979621Y-79216647D01*
X115089028Y-79326054D01*
X115089035Y-79326060D01*
X115212608Y-79408628D01*
X115212609Y-79408628D01*
X115212610Y-79408629D01*
X115349920Y-79465505D01*
X115495683Y-79494499D01*
X115495687Y-79494500D01*
X115495688Y-79494500D01*
X116545053Y-79494500D01*
X116592501Y-79503937D01*
X116606503Y-79509737D01*
X116606508Y-79509738D01*
X116606511Y-79509739D01*
X116761153Y-79540499D01*
X116761156Y-79540500D01*
X116761158Y-79540500D01*
X116918844Y-79540500D01*
X116918845Y-79540499D01*
X117073497Y-79509737D01*
X117219179Y-79449394D01*
X117350289Y-79361789D01*
X117461789Y-79250289D01*
X117487283Y-79212135D01*
X147349500Y-79212135D01*
X147349500Y-80807870D01*
X147349501Y-80807876D01*
X147355908Y-80867483D01*
X147406202Y-81002328D01*
X147406206Y-81002335D01*
X147492452Y-81117544D01*
X147492455Y-81117547D01*
X147607664Y-81203793D01*
X147607671Y-81203797D01*
X147742517Y-81254091D01*
X147742516Y-81254091D01*
X147749444Y-81254835D01*
X147802127Y-81260500D01*
X147866585Y-81260499D01*
X147933622Y-81280183D01*
X147979378Y-81332986D01*
X147989322Y-81402144D01*
X147960298Y-81465700D01*
X147939471Y-81484816D01*
X147785680Y-81596553D01*
X147646555Y-81735678D01*
X147530904Y-81894856D01*
X147441581Y-82070162D01*
X147380781Y-82257283D01*
X147374016Y-82300000D01*
X148566988Y-82300000D01*
X148534075Y-82357007D01*
X148500000Y-82484174D01*
X148500000Y-82615826D01*
X148534075Y-82742993D01*
X148566988Y-82800000D01*
X147374016Y-82800000D01*
X147380781Y-82842716D01*
X147441581Y-83029837D01*
X147530904Y-83205143D01*
X147646555Y-83364321D01*
X147785678Y-83503444D01*
X147944856Y-83619095D01*
X148121764Y-83709234D01*
X148172560Y-83757208D01*
X148189355Y-83825029D01*
X148166818Y-83891164D01*
X148121764Y-83930204D01*
X147944594Y-84020476D01*
X147853741Y-84086485D01*
X147785354Y-84136172D01*
X147785352Y-84136174D01*
X147785351Y-84136174D01*
X147646174Y-84275351D01*
X147646174Y-84275352D01*
X147646172Y-84275354D01*
X147616897Y-84315647D01*
X147530476Y-84434594D01*
X147441117Y-84609970D01*
X147380290Y-84797173D01*
X147349500Y-84991577D01*
X147349500Y-85188422D01*
X147380290Y-85382826D01*
X147441117Y-85570029D01*
X147530476Y-85745405D01*
X147646172Y-85904646D01*
X147785354Y-86043828D01*
X147944595Y-86159524D01*
X148027455Y-86201743D01*
X148119970Y-86248882D01*
X148119972Y-86248882D01*
X148119975Y-86248884D01*
X148200499Y-86275048D01*
X148307173Y-86309709D01*
X148501578Y-86340500D01*
X148501583Y-86340500D01*
X149498422Y-86340500D01*
X149692826Y-86309709D01*
X149880025Y-86248884D01*
X150055405Y-86159524D01*
X150214646Y-86043828D01*
X150353828Y-85904646D01*
X150469524Y-85745405D01*
X150558884Y-85570025D01*
X150619709Y-85382826D01*
X150628885Y-85324889D01*
X150650500Y-85188422D01*
X150650500Y-84991577D01*
X150619709Y-84797173D01*
X150558882Y-84609970D01*
X150484752Y-84464482D01*
X150469524Y-84434595D01*
X150353828Y-84275354D01*
X150214646Y-84136172D01*
X150055405Y-84020476D01*
X149880025Y-83931116D01*
X149880024Y-83931115D01*
X149878235Y-83930204D01*
X149827439Y-83882230D01*
X149810644Y-83814409D01*
X149833181Y-83748274D01*
X149878236Y-83709234D01*
X150055141Y-83619097D01*
X150214321Y-83503444D01*
X150353444Y-83364321D01*
X150469095Y-83205143D01*
X150558418Y-83029837D01*
X150619218Y-82842716D01*
X150625984Y-82800000D01*
X149433012Y-82800000D01*
X149465925Y-82742993D01*
X149500000Y-82615826D01*
X149500000Y-82484174D01*
X149465925Y-82357007D01*
X149433012Y-82300000D01*
X150625984Y-82300000D01*
X150619218Y-82257283D01*
X150558418Y-82070162D01*
X150469095Y-81894856D01*
X150353444Y-81735678D01*
X150214322Y-81596556D01*
X150139442Y-81542152D01*
X150060528Y-81484817D01*
X150029812Y-81444983D01*
X171372000Y-81444983D01*
X171372000Y-83645001D01*
X171372001Y-83645018D01*
X171382500Y-83747796D01*
X171382501Y-83747799D01*
X171437685Y-83914331D01*
X171437687Y-83914336D01*
X171448037Y-83931116D01*
X171529788Y-84063656D01*
X171653844Y-84187712D01*
X171803166Y-84279814D01*
X171969703Y-84334999D01*
X172072491Y-84345500D01*
X174272508Y-84345499D01*
X174375297Y-84334999D01*
X174541834Y-84279814D01*
X174691156Y-84187712D01*
X174815212Y-84063656D01*
X174907314Y-83914334D01*
X174962499Y-83747797D01*
X174973000Y-83645009D01*
X174972999Y-81444992D01*
X174970495Y-81420484D01*
X174962499Y-81342203D01*
X174962498Y-81342200D01*
X174948680Y-81300500D01*
X174907314Y-81175666D01*
X174815212Y-81026344D01*
X174691156Y-80902288D01*
X174541834Y-80810186D01*
X174375297Y-80755001D01*
X174375295Y-80755000D01*
X174272510Y-80744500D01*
X172072498Y-80744500D01*
X172072481Y-80744501D01*
X171969703Y-80755000D01*
X171969700Y-80755001D01*
X171803168Y-80810185D01*
X171803163Y-80810187D01*
X171653842Y-80902289D01*
X171529789Y-81026342D01*
X171437687Y-81175663D01*
X171437685Y-81175668D01*
X171411698Y-81254091D01*
X171382501Y-81342203D01*
X171382501Y-81342204D01*
X171382500Y-81342204D01*
X171372000Y-81444983D01*
X150029812Y-81444983D01*
X150017863Y-81429487D01*
X150011884Y-81359873D01*
X150044490Y-81298078D01*
X150105329Y-81263721D01*
X150133413Y-81260499D01*
X150197872Y-81260499D01*
X150257483Y-81254091D01*
X150392331Y-81203796D01*
X150507546Y-81117546D01*
X150593796Y-81002331D01*
X150644091Y-80867483D01*
X150650500Y-80807873D01*
X150650499Y-79399983D01*
X158199500Y-79399983D01*
X158199500Y-80600001D01*
X158199501Y-80600018D01*
X158210000Y-80702796D01*
X158210001Y-80702799D01*
X158264572Y-80867482D01*
X158265186Y-80869334D01*
X158357288Y-81018656D01*
X158481344Y-81142712D01*
X158630666Y-81234814D01*
X158797203Y-81289999D01*
X158899991Y-81300500D01*
X160100008Y-81300499D01*
X160202797Y-81289999D01*
X160369334Y-81234814D01*
X160518656Y-81142712D01*
X160642712Y-81018656D01*
X160734814Y-80869334D01*
X160789999Y-80702797D01*
X160800500Y-80600009D01*
X160800499Y-79897682D01*
X161700000Y-79897682D01*
X161700000Y-80102317D01*
X161732009Y-80304417D01*
X161795244Y-80499031D01*
X161888141Y-80681350D01*
X161888147Y-80681359D01*
X161920523Y-80725921D01*
X161920524Y-80725922D01*
X162600000Y-80046446D01*
X162600000Y-80052661D01*
X162627259Y-80154394D01*
X162679920Y-80245606D01*
X162754394Y-80320080D01*
X162845606Y-80372741D01*
X162947339Y-80400000D01*
X162953553Y-80400000D01*
X162274076Y-81079474D01*
X162318650Y-81111859D01*
X162500968Y-81204755D01*
X162695582Y-81267990D01*
X162897683Y-81300000D01*
X163102317Y-81300000D01*
X163304417Y-81267990D01*
X163499031Y-81204755D01*
X163681349Y-81111859D01*
X163725921Y-81079474D01*
X163046447Y-80400000D01*
X163052661Y-80400000D01*
X163154394Y-80372741D01*
X163245606Y-80320080D01*
X163320080Y-80245606D01*
X163372741Y-80154394D01*
X163400000Y-80052661D01*
X163400000Y-80046447D01*
X164079474Y-80725921D01*
X164111859Y-80681349D01*
X164204755Y-80499031D01*
X164267990Y-80304417D01*
X164300000Y-80102317D01*
X164300000Y-79897682D01*
X164267990Y-79695582D01*
X164204755Y-79500968D01*
X164111859Y-79318650D01*
X164079474Y-79274077D01*
X164079474Y-79274076D01*
X163400000Y-79953551D01*
X163400000Y-79947339D01*
X163372741Y-79845606D01*
X163320080Y-79754394D01*
X163245606Y-79679920D01*
X163154394Y-79627259D01*
X163052661Y-79600000D01*
X163046446Y-79600000D01*
X163725922Y-78920524D01*
X163725922Y-78920523D01*
X163681359Y-78888147D01*
X163681350Y-78888141D01*
X163499031Y-78795244D01*
X163304417Y-78732009D01*
X163102317Y-78700000D01*
X162897683Y-78700000D01*
X162695582Y-78732009D01*
X162500968Y-78795244D01*
X162318644Y-78888143D01*
X162274077Y-78920523D01*
X162274077Y-78920524D01*
X162953554Y-79600000D01*
X162947339Y-79600000D01*
X162845606Y-79627259D01*
X162754394Y-79679920D01*
X162679920Y-79754394D01*
X162627259Y-79845606D01*
X162600000Y-79947339D01*
X162600000Y-79953553D01*
X161920524Y-79274077D01*
X161920523Y-79274077D01*
X161888143Y-79318644D01*
X161795244Y-79500968D01*
X161732009Y-79695582D01*
X161700000Y-79897682D01*
X160800499Y-79897682D01*
X160800499Y-79399992D01*
X160789999Y-79297203D01*
X160734814Y-79130666D01*
X160727724Y-79119172D01*
X160674500Y-79032881D01*
X160674499Y-79032880D01*
X160642712Y-78981344D01*
X160518656Y-78857288D01*
X160377139Y-78770000D01*
X160369336Y-78765187D01*
X160369331Y-78765185D01*
X160328204Y-78751557D01*
X160202797Y-78710001D01*
X160202795Y-78710000D01*
X160100010Y-78699500D01*
X158899998Y-78699500D01*
X158899981Y-78699501D01*
X158797203Y-78710000D01*
X158797200Y-78710001D01*
X158630668Y-78765185D01*
X158630663Y-78765187D01*
X158481342Y-78857289D01*
X158357289Y-78981342D01*
X158265187Y-79130663D01*
X158265185Y-79130668D01*
X158257945Y-79152517D01*
X158210001Y-79297203D01*
X158210001Y-79297204D01*
X158210000Y-79297204D01*
X158199500Y-79399983D01*
X150650499Y-79399983D01*
X150650499Y-79212128D01*
X150644091Y-79152517D01*
X150639390Y-79139914D01*
X150593797Y-79017671D01*
X150593793Y-79017664D01*
X150507547Y-78902455D01*
X150507544Y-78902452D01*
X150392335Y-78816206D01*
X150392328Y-78816202D01*
X150257482Y-78765908D01*
X150257483Y-78765908D01*
X150197883Y-78759501D01*
X150197881Y-78759500D01*
X150197873Y-78759500D01*
X150197864Y-78759500D01*
X147802129Y-78759500D01*
X147802123Y-78759501D01*
X147742516Y-78765908D01*
X147607671Y-78816202D01*
X147607664Y-78816206D01*
X147492455Y-78902452D01*
X147492452Y-78902455D01*
X147406206Y-79017664D01*
X147406202Y-79017671D01*
X147355908Y-79152517D01*
X147349501Y-79212116D01*
X147349501Y-79212123D01*
X147349500Y-79212135D01*
X117487283Y-79212135D01*
X117549394Y-79119179D01*
X117609737Y-78973497D01*
X117640500Y-78818842D01*
X117640500Y-78661158D01*
X117640500Y-78661155D01*
X117640499Y-78661153D01*
X117618135Y-78548723D01*
X117609737Y-78506503D01*
X117609735Y-78506498D01*
X117549397Y-78360827D01*
X117549390Y-78360814D01*
X117461789Y-78229711D01*
X117461786Y-78229707D01*
X117350292Y-78118213D01*
X117350288Y-78118210D01*
X117219185Y-78030609D01*
X117219172Y-78030602D01*
X117073501Y-77970264D01*
X117073489Y-77970261D01*
X116918845Y-77939500D01*
X116918842Y-77939500D01*
X116761158Y-77939500D01*
X116761155Y-77939500D01*
X116606511Y-77970260D01*
X116606506Y-77970262D01*
X116606504Y-77970262D01*
X116606503Y-77970263D01*
X116592501Y-77976062D01*
X116545053Y-77985500D01*
X115933886Y-77985500D01*
X115866847Y-77965815D01*
X115846205Y-77949181D01*
X115327669Y-77430644D01*
X115244039Y-77347014D01*
X171372500Y-77347014D01*
X171372500Y-77582985D01*
X171403299Y-77816914D01*
X171464370Y-78044837D01*
X171554660Y-78262819D01*
X171554665Y-78262828D01*
X171672644Y-78467171D01*
X171672645Y-78467172D01*
X171735221Y-78548723D01*
X172571457Y-77712486D01*
X172596478Y-77772890D01*
X172667612Y-77879351D01*
X172758149Y-77969888D01*
X172864610Y-78041022D01*
X172925011Y-78066041D01*
X172088775Y-78902277D01*
X172170327Y-78964854D01*
X172170328Y-78964855D01*
X172374671Y-79082834D01*
X172374680Y-79082839D01*
X172592663Y-79173129D01*
X172592661Y-79173129D01*
X172820585Y-79234200D01*
X173054514Y-79264999D01*
X173054529Y-79265000D01*
X173290471Y-79265000D01*
X173290485Y-79264999D01*
X173524414Y-79234200D01*
X173752337Y-79173129D01*
X173970319Y-79082839D01*
X173970328Y-79082834D01*
X174174681Y-78964850D01*
X174256223Y-78902279D01*
X174256223Y-78902276D01*
X173419987Y-78066041D01*
X173480390Y-78041022D01*
X173586851Y-77969888D01*
X173677388Y-77879351D01*
X173748522Y-77772890D01*
X173773541Y-77712488D01*
X174609776Y-78548723D01*
X174609779Y-78548723D01*
X174672350Y-78467181D01*
X174790334Y-78262828D01*
X174790339Y-78262819D01*
X174880629Y-78044837D01*
X174941700Y-77816914D01*
X174972499Y-77582985D01*
X174972500Y-77582971D01*
X174972500Y-77347028D01*
X174972499Y-77347014D01*
X174941700Y-77113085D01*
X174880629Y-76885162D01*
X174790339Y-76667180D01*
X174790334Y-76667171D01*
X174672355Y-76462828D01*
X174672354Y-76462827D01*
X174609777Y-76381275D01*
X173773541Y-77217511D01*
X173748522Y-77157110D01*
X173677388Y-77050649D01*
X173586851Y-76960112D01*
X173480390Y-76888978D01*
X173419988Y-76863958D01*
X174256223Y-76027721D01*
X174174672Y-75965145D01*
X174174671Y-75965144D01*
X173970328Y-75847165D01*
X173970319Y-75847160D01*
X173752336Y-75756870D01*
X173752338Y-75756870D01*
X173524414Y-75695799D01*
X173290485Y-75665000D01*
X173054514Y-75665000D01*
X172820585Y-75695799D01*
X172592662Y-75756870D01*
X172374680Y-75847160D01*
X172374671Y-75847165D01*
X172170328Y-75965144D01*
X172170318Y-75965150D01*
X172088775Y-76027720D01*
X172088775Y-76027721D01*
X172925012Y-76863958D01*
X172864610Y-76888978D01*
X172758149Y-76960112D01*
X172667612Y-77050649D01*
X172596478Y-77157110D01*
X172571458Y-77217512D01*
X171735221Y-76381275D01*
X171735220Y-76381275D01*
X171672650Y-76462818D01*
X171672644Y-76462828D01*
X171554665Y-76667171D01*
X171554660Y-76667180D01*
X171464370Y-76885162D01*
X171403299Y-77113085D01*
X171372500Y-77347014D01*
X115244039Y-77347014D01*
X114780969Y-76883943D01*
X114780968Y-76883942D01*
X114715172Y-76839979D01*
X114657389Y-76801370D01*
X114657386Y-76801368D01*
X114657385Y-76801368D01*
X114576955Y-76768053D01*
X114520080Y-76744495D01*
X114495894Y-76739684D01*
X114374314Y-76715499D01*
X114374312Y-76715499D01*
X114225688Y-76715499D01*
X114219574Y-76715499D01*
X114219554Y-76715500D01*
X107043886Y-76715500D01*
X106976847Y-76695815D01*
X106956205Y-76679181D01*
X105104672Y-74827648D01*
X124429500Y-74827648D01*
X124429500Y-75032351D01*
X124461522Y-75234534D01*
X124524781Y-75429223D01*
X124617715Y-75611613D01*
X124738028Y-75777213D01*
X124882786Y-75921971D01*
X125028340Y-76027720D01*
X125048390Y-76042287D01*
X125164607Y-76101503D01*
X125230776Y-76135218D01*
X125230778Y-76135218D01*
X125230781Y-76135220D01*
X125302602Y-76158556D01*
X125425465Y-76198477D01*
X125526557Y-76214488D01*
X125627648Y-76230500D01*
X125627649Y-76230500D01*
X125832351Y-76230500D01*
X125832352Y-76230500D01*
X126034534Y-76198477D01*
X126229219Y-76135220D01*
X126411610Y-76042287D01*
X126540482Y-75948657D01*
X126577213Y-75921971D01*
X126577215Y-75921968D01*
X126577219Y-75921966D01*
X126721966Y-75777219D01*
X126721968Y-75777215D01*
X126721971Y-75777213D01*
X126826892Y-75632799D01*
X126842287Y-75611610D01*
X126935220Y-75429219D01*
X126998477Y-75234534D01*
X127030500Y-75032352D01*
X127030500Y-74827648D01*
X126998477Y-74625466D01*
X126935220Y-74430781D01*
X126935218Y-74430778D01*
X126935218Y-74430776D01*
X126910940Y-74383129D01*
X126883861Y-74329983D01*
X132049500Y-74329983D01*
X132049500Y-75530001D01*
X132049501Y-75530018D01*
X132060000Y-75632796D01*
X132060001Y-75632799D01*
X132115185Y-75799331D01*
X132115187Y-75799336D01*
X132144685Y-75847160D01*
X132207288Y-75948656D01*
X132331344Y-76072712D01*
X132480666Y-76164814D01*
X132647203Y-76219999D01*
X132749991Y-76230500D01*
X133950008Y-76230499D01*
X134052797Y-76219999D01*
X134219334Y-76164814D01*
X134368656Y-76072712D01*
X134492712Y-75948656D01*
X134584814Y-75799334D01*
X134639999Y-75632797D01*
X134650500Y-75530009D01*
X134650499Y-74329992D01*
X134639999Y-74227203D01*
X134584814Y-74060666D01*
X134492712Y-73911344D01*
X134368656Y-73787288D01*
X134240827Y-73708443D01*
X134219336Y-73695187D01*
X134219335Y-73695186D01*
X134219334Y-73695186D01*
X134136843Y-73667851D01*
X134079398Y-73628077D01*
X134052576Y-73563561D01*
X134064891Y-73494786D01*
X134074856Y-73483018D01*
X134075921Y-73469474D01*
X133396447Y-72790000D01*
X133402661Y-72790000D01*
X133504394Y-72762741D01*
X133595606Y-72710080D01*
X133670080Y-72635606D01*
X133722741Y-72544394D01*
X133750000Y-72442661D01*
X133750000Y-72436448D01*
X134429474Y-73115922D01*
X134429474Y-73115921D01*
X134461859Y-73071349D01*
X134554755Y-72889031D01*
X134617990Y-72694417D01*
X134650000Y-72492317D01*
X134650000Y-72287682D01*
X134617990Y-72085582D01*
X134554755Y-71890968D01*
X134461859Y-71708650D01*
X134429474Y-71664077D01*
X134429474Y-71664076D01*
X133750000Y-72343551D01*
X133750000Y-72337339D01*
X133722741Y-72235606D01*
X133670080Y-72144394D01*
X133595606Y-72069920D01*
X133504394Y-72017259D01*
X133402661Y-71990000D01*
X133396446Y-71990000D01*
X134075922Y-71310524D01*
X134075921Y-71310523D01*
X134031359Y-71278147D01*
X134031350Y-71278141D01*
X133849031Y-71185244D01*
X133654417Y-71122009D01*
X133452317Y-71090000D01*
X133247683Y-71090000D01*
X133045582Y-71122009D01*
X132850968Y-71185244D01*
X132668644Y-71278143D01*
X132624077Y-71310523D01*
X132624077Y-71310524D01*
X133303554Y-71990000D01*
X133297339Y-71990000D01*
X133195606Y-72017259D01*
X133104394Y-72069920D01*
X133029920Y-72144394D01*
X132977259Y-72235606D01*
X132950000Y-72337339D01*
X132950000Y-72343553D01*
X132270524Y-71664077D01*
X132270523Y-71664077D01*
X132238143Y-71708644D01*
X132145244Y-71890968D01*
X132082009Y-72085582D01*
X132050000Y-72287682D01*
X132050000Y-72492317D01*
X132082009Y-72694417D01*
X132145244Y-72889031D01*
X132238141Y-73071350D01*
X132238147Y-73071359D01*
X132270523Y-73115921D01*
X132270524Y-73115922D01*
X132950000Y-72436446D01*
X132950000Y-72442661D01*
X132977259Y-72544394D01*
X133029920Y-72635606D01*
X133104394Y-72710080D01*
X133195606Y-72762741D01*
X133297339Y-72790000D01*
X133303553Y-72790000D01*
X132624076Y-73469474D01*
X132625428Y-73486649D01*
X132639701Y-73505158D01*
X132645680Y-73574771D01*
X132613074Y-73636566D01*
X132563155Y-73667851D01*
X132512335Y-73684692D01*
X132480666Y-73695186D01*
X132480663Y-73695187D01*
X132331342Y-73787289D01*
X132207289Y-73911342D01*
X132115187Y-74060663D01*
X132115185Y-74060668D01*
X132107858Y-74082781D01*
X132060001Y-74227203D01*
X132060001Y-74227204D01*
X132060000Y-74227204D01*
X132049500Y-74329983D01*
X126883861Y-74329983D01*
X126844220Y-74252184D01*
X126842287Y-74248390D01*
X126842285Y-74248387D01*
X126842284Y-74248385D01*
X126721971Y-74082786D01*
X126577213Y-73938028D01*
X126411611Y-73817713D01*
X126318369Y-73770203D01*
X126267574Y-73722229D01*
X126250779Y-73654407D01*
X126273317Y-73588273D01*
X126318371Y-73549234D01*
X126411346Y-73501861D01*
X126411347Y-73501861D01*
X126455921Y-73469474D01*
X125776447Y-72790000D01*
X125782661Y-72790000D01*
X125884394Y-72762741D01*
X125975606Y-72710080D01*
X126050080Y-72635606D01*
X126102741Y-72544394D01*
X126130000Y-72442661D01*
X126130000Y-72436447D01*
X126809474Y-73115921D01*
X126841859Y-73071349D01*
X126934755Y-72889031D01*
X126997990Y-72694417D01*
X127030000Y-72492317D01*
X127030000Y-72287682D01*
X126997990Y-72085582D01*
X126934755Y-71890968D01*
X126841859Y-71708650D01*
X126809474Y-71664077D01*
X126809474Y-71664076D01*
X126130000Y-72343551D01*
X126130000Y-72337339D01*
X126102741Y-72235606D01*
X126050080Y-72144394D01*
X125975606Y-72069920D01*
X125884394Y-72017259D01*
X125782661Y-71990000D01*
X125776446Y-71990000D01*
X126455922Y-71310524D01*
X126455921Y-71310523D01*
X126411359Y-71278147D01*
X126411350Y-71278141D01*
X126229031Y-71185244D01*
X126034417Y-71122009D01*
X125832317Y-71090000D01*
X125627683Y-71090000D01*
X125425582Y-71122009D01*
X125230968Y-71185244D01*
X125048644Y-71278143D01*
X125004077Y-71310523D01*
X125004077Y-71310524D01*
X125683554Y-71990000D01*
X125677339Y-71990000D01*
X125575606Y-72017259D01*
X125484394Y-72069920D01*
X125409920Y-72144394D01*
X125357259Y-72235606D01*
X125330000Y-72337339D01*
X125330000Y-72343553D01*
X124650524Y-71664077D01*
X124650523Y-71664077D01*
X124618143Y-71708644D01*
X124525244Y-71890968D01*
X124462009Y-72085582D01*
X124430000Y-72287682D01*
X124430000Y-72492317D01*
X124462009Y-72694417D01*
X124525244Y-72889031D01*
X124618141Y-73071350D01*
X124618147Y-73071359D01*
X124650523Y-73115921D01*
X124650524Y-73115922D01*
X125330000Y-72436446D01*
X125330000Y-72442661D01*
X125357259Y-72544394D01*
X125409920Y-72635606D01*
X125484394Y-72710080D01*
X125575606Y-72762741D01*
X125677339Y-72790000D01*
X125683553Y-72790000D01*
X125004076Y-73469474D01*
X125048652Y-73501861D01*
X125141628Y-73549234D01*
X125192425Y-73597208D01*
X125209220Y-73665029D01*
X125186683Y-73731164D01*
X125141630Y-73770203D01*
X125048388Y-73817713D01*
X124882786Y-73938028D01*
X124738028Y-74082786D01*
X124617715Y-74248386D01*
X124524781Y-74430776D01*
X124461522Y-74625465D01*
X124429500Y-74827648D01*
X105104672Y-74827648D01*
X102769341Y-72492317D01*
X98754673Y-68477648D01*
X156179500Y-68477648D01*
X156179500Y-68682351D01*
X156211522Y-68884534D01*
X156274781Y-69079223D01*
X156367715Y-69261613D01*
X156488028Y-69427213D01*
X156632786Y-69571971D01*
X156787749Y-69684556D01*
X156798390Y-69692287D01*
X156914607Y-69751503D01*
X156980776Y-69785218D01*
X156980778Y-69785218D01*
X156980781Y-69785220D01*
X157071856Y-69814812D01*
X157175465Y-69848477D01*
X157276557Y-69864488D01*
X157377648Y-69880500D01*
X157377649Y-69880500D01*
X157582351Y-69880500D01*
X157582352Y-69880500D01*
X157784534Y-69848477D01*
X157979219Y-69785220D01*
X158161610Y-69692287D01*
X158290482Y-69598657D01*
X158327213Y-69571971D01*
X158327215Y-69571968D01*
X158327219Y-69571966D01*
X158471966Y-69427219D01*
X158471968Y-69427215D01*
X158471971Y-69427213D01*
X158576892Y-69282799D01*
X158592287Y-69261610D01*
X158685220Y-69079219D01*
X158748477Y-68884534D01*
X158780500Y-68682352D01*
X158780500Y-68477648D01*
X158763467Y-68370109D01*
X158748477Y-68275465D01*
X158685218Y-68080776D01*
X158660940Y-68033129D01*
X158633861Y-67979983D01*
X163799500Y-67979983D01*
X163799500Y-69180001D01*
X163799501Y-69180018D01*
X163810000Y-69282796D01*
X163810001Y-69282799D01*
X163857856Y-69427213D01*
X163865186Y-69449334D01*
X163957288Y-69598656D01*
X164081344Y-69722712D01*
X164230666Y-69814814D01*
X164397203Y-69869999D01*
X164499991Y-69880500D01*
X165700008Y-69880499D01*
X165802797Y-69869999D01*
X165969334Y-69814814D01*
X166118656Y-69722712D01*
X166242712Y-69598656D01*
X166334814Y-69449334D01*
X166389999Y-69282797D01*
X166400500Y-69180009D01*
X166400499Y-67979992D01*
X166389999Y-67877203D01*
X166334814Y-67710666D01*
X166242712Y-67561344D01*
X166118656Y-67437288D01*
X165969334Y-67345186D01*
X165886843Y-67317851D01*
X165829398Y-67278077D01*
X165802576Y-67213561D01*
X165814891Y-67144786D01*
X165824856Y-67133018D01*
X165825921Y-67119474D01*
X165146447Y-66440000D01*
X165152661Y-66440000D01*
X165254394Y-66412741D01*
X165345606Y-66360080D01*
X165420080Y-66285606D01*
X165472741Y-66194394D01*
X165500000Y-66092661D01*
X165500000Y-66086447D01*
X166179474Y-66765921D01*
X166211859Y-66721349D01*
X166304755Y-66539031D01*
X166367990Y-66344417D01*
X166400000Y-66142317D01*
X166400000Y-65937682D01*
X166367990Y-65735582D01*
X166304755Y-65540968D01*
X166211859Y-65358650D01*
X166179474Y-65314077D01*
X166179474Y-65314076D01*
X165500000Y-65993551D01*
X165500000Y-65987339D01*
X165472741Y-65885606D01*
X165420080Y-65794394D01*
X165345606Y-65719920D01*
X165254394Y-65667259D01*
X165152661Y-65640000D01*
X165146446Y-65640000D01*
X165825922Y-64960524D01*
X165825921Y-64960523D01*
X165781359Y-64928147D01*
X165781350Y-64928141D01*
X165599031Y-64835244D01*
X165404417Y-64772009D01*
X165202317Y-64740000D01*
X164997683Y-64740000D01*
X164795582Y-64772009D01*
X164600968Y-64835244D01*
X164418644Y-64928143D01*
X164374077Y-64960523D01*
X164374077Y-64960524D01*
X165053554Y-65640000D01*
X165047339Y-65640000D01*
X164945606Y-65667259D01*
X164854394Y-65719920D01*
X164779920Y-65794394D01*
X164727259Y-65885606D01*
X164700000Y-65987339D01*
X164700000Y-65993553D01*
X164020524Y-65314077D01*
X164020523Y-65314077D01*
X163988143Y-65358644D01*
X163895244Y-65540968D01*
X163832009Y-65735582D01*
X163800000Y-65937682D01*
X163800000Y-66142317D01*
X163832009Y-66344417D01*
X163895244Y-66539031D01*
X163988141Y-66721350D01*
X163988147Y-66721359D01*
X164020523Y-66765921D01*
X164020524Y-66765922D01*
X164700000Y-66086446D01*
X164700000Y-66092661D01*
X164727259Y-66194394D01*
X164779920Y-66285606D01*
X164854394Y-66360080D01*
X164945606Y-66412741D01*
X165047339Y-66440000D01*
X165053553Y-66440000D01*
X164374076Y-67119474D01*
X164375428Y-67136649D01*
X164389701Y-67155158D01*
X164395680Y-67224771D01*
X164363074Y-67286566D01*
X164313155Y-67317851D01*
X164230666Y-67345186D01*
X164230663Y-67345187D01*
X164081342Y-67437289D01*
X163957289Y-67561342D01*
X163865187Y-67710663D01*
X163865186Y-67710666D01*
X163810001Y-67877203D01*
X163810001Y-67877204D01*
X163810000Y-67877204D01*
X163799500Y-67979983D01*
X158633861Y-67979983D01*
X158592284Y-67898385D01*
X158471971Y-67732786D01*
X158327213Y-67588028D01*
X158161611Y-67467713D01*
X158068369Y-67420203D01*
X158017574Y-67372229D01*
X158000779Y-67304407D01*
X158023317Y-67238273D01*
X158068371Y-67199234D01*
X158161346Y-67151861D01*
X158161347Y-67151861D01*
X158205921Y-67119474D01*
X157526447Y-66440000D01*
X157532661Y-66440000D01*
X157634394Y-66412741D01*
X157725606Y-66360080D01*
X157800080Y-66285606D01*
X157852741Y-66194394D01*
X157880000Y-66092661D01*
X157880000Y-66086447D01*
X158559474Y-66765921D01*
X158591859Y-66721349D01*
X158684755Y-66539031D01*
X158747990Y-66344417D01*
X158780000Y-66142317D01*
X158780000Y-65937682D01*
X158747990Y-65735582D01*
X158684755Y-65540968D01*
X158591859Y-65358650D01*
X158559474Y-65314077D01*
X158559474Y-65314076D01*
X157880000Y-65993551D01*
X157880000Y-65987339D01*
X157852741Y-65885606D01*
X157800080Y-65794394D01*
X157725606Y-65719920D01*
X157634394Y-65667259D01*
X157532661Y-65640000D01*
X157526446Y-65640000D01*
X158205922Y-64960524D01*
X158205921Y-64960523D01*
X158161359Y-64928147D01*
X158161350Y-64928141D01*
X157979031Y-64835244D01*
X157784417Y-64772009D01*
X157582317Y-64740000D01*
X157377683Y-64740000D01*
X157175582Y-64772009D01*
X156980968Y-64835244D01*
X156798644Y-64928143D01*
X156754077Y-64960523D01*
X156754077Y-64960524D01*
X157433554Y-65640000D01*
X157427339Y-65640000D01*
X157325606Y-65667259D01*
X157234394Y-65719920D01*
X157159920Y-65794394D01*
X157107259Y-65885606D01*
X157080000Y-65987339D01*
X157080000Y-65993553D01*
X156400524Y-65314077D01*
X156400523Y-65314077D01*
X156368143Y-65358644D01*
X156275244Y-65540968D01*
X156212009Y-65735582D01*
X156180000Y-65937682D01*
X156180000Y-66142317D01*
X156212009Y-66344417D01*
X156275244Y-66539031D01*
X156368141Y-66721350D01*
X156368147Y-66721359D01*
X156400523Y-66765921D01*
X156400524Y-66765922D01*
X157080000Y-66086446D01*
X157080000Y-66092661D01*
X157107259Y-66194394D01*
X157159920Y-66285606D01*
X157234394Y-66360080D01*
X157325606Y-66412741D01*
X157427339Y-66440000D01*
X157433553Y-66440000D01*
X156754076Y-67119474D01*
X156798652Y-67151861D01*
X156891628Y-67199234D01*
X156942425Y-67247208D01*
X156959220Y-67315029D01*
X156936683Y-67381164D01*
X156891630Y-67420203D01*
X156798388Y-67467713D01*
X156632786Y-67588028D01*
X156488028Y-67732786D01*
X156367715Y-67898386D01*
X156274781Y-68080776D01*
X156211522Y-68275465D01*
X156179500Y-68477648D01*
X98754673Y-68477648D01*
X98580819Y-68303794D01*
X98547334Y-68242471D01*
X98544500Y-68216113D01*
X98544500Y-64695687D01*
X98544499Y-64695683D01*
X98515506Y-64549927D01*
X98515505Y-64549920D01*
X98458629Y-64412610D01*
X98386927Y-64305300D01*
X98376060Y-64289035D01*
X98376054Y-64289028D01*
X98266647Y-64179621D01*
X98266624Y-64179600D01*
X97310819Y-63223794D01*
X97296115Y-63196866D01*
X97279523Y-63171048D01*
X97278631Y-63164847D01*
X97277334Y-63162471D01*
X97274500Y-63136113D01*
X97274500Y-62952406D01*
X97294185Y-62885367D01*
X97302652Y-62873735D01*
X97303355Y-62872878D01*
X97413717Y-62707710D01*
X97413717Y-62707709D01*
X97413721Y-62707704D01*
X97489744Y-62524169D01*
X97528500Y-62329329D01*
X97528500Y-62130671D01*
X97489744Y-61935831D01*
X97413721Y-61752296D01*
X97413720Y-61752295D01*
X97413717Y-61752289D01*
X97303353Y-61587119D01*
X97303350Y-61587115D01*
X97162884Y-61446649D01*
X97162880Y-61446646D01*
X96997710Y-61336282D01*
X96997701Y-61336277D01*
X96814169Y-61260256D01*
X96814161Y-61260254D01*
X96619333Y-61221500D01*
X96619329Y-61221500D01*
X96420671Y-61221500D01*
X96420666Y-61221500D01*
X96225838Y-61260254D01*
X96225830Y-61260256D01*
X96042298Y-61336277D01*
X96042289Y-61336282D01*
X95877119Y-61446646D01*
X95877115Y-61446649D01*
X95736649Y-61587115D01*
X95736646Y-61587119D01*
X95626282Y-61752289D01*
X95626277Y-61752298D01*
X95550256Y-61935830D01*
X95550254Y-61935838D01*
X95511500Y-62130666D01*
X90746850Y-62130666D01*
X90717246Y-61943757D01*
X90651557Y-61741588D01*
X90555051Y-61552184D01*
X90555049Y-61552181D01*
X90555048Y-61552179D01*
X90430109Y-61380213D01*
X90279786Y-61229890D01*
X90107820Y-61104951D01*
X90107115Y-61104591D01*
X90099054Y-61100485D01*
X90048259Y-61052512D01*
X90031463Y-60984692D01*
X90053999Y-60918556D01*
X90099054Y-60879515D01*
X90107816Y-60875051D01*
X90129789Y-60859086D01*
X90279786Y-60750109D01*
X90279788Y-60750106D01*
X90279792Y-60750104D01*
X90430104Y-60599792D01*
X90430106Y-60599788D01*
X90430109Y-60599786D01*
X90555048Y-60427820D01*
X90555047Y-60427820D01*
X90555051Y-60427816D01*
X90651557Y-60238412D01*
X90717246Y-60036243D01*
X90750500Y-59826287D01*
X90750500Y-59613713D01*
X90717246Y-59403757D01*
X90651557Y-59201588D01*
X90555051Y-59012184D01*
X90555049Y-59012181D01*
X90555048Y-59012179D01*
X90430109Y-58840213D01*
X90316181Y-58726285D01*
X90282696Y-58664962D01*
X90287680Y-58595270D01*
X90329552Y-58539337D01*
X90360529Y-58522422D01*
X90492086Y-58473354D01*
X90492093Y-58473350D01*
X90607187Y-58387190D01*
X90607190Y-58387187D01*
X90693350Y-58272093D01*
X90693354Y-58272086D01*
X90743596Y-58137379D01*
X90743598Y-58137372D01*
X90749999Y-58077844D01*
X90750000Y-58077827D01*
X90750000Y-57430000D01*
X89833012Y-57430000D01*
X89865925Y-57372993D01*
X89900000Y-57245826D01*
X89900000Y-57114174D01*
X89877980Y-57031995D01*
X115539500Y-57031995D01*
X115539500Y-57268004D01*
X115539501Y-57268020D01*
X115570306Y-57502010D01*
X115631394Y-57729993D01*
X115721714Y-57948045D01*
X115721719Y-57948056D01*
X115758475Y-58011718D01*
X115839727Y-58152450D01*
X115839729Y-58152453D01*
X115839730Y-58152454D01*
X115983406Y-58339697D01*
X115983412Y-58339704D01*
X116150295Y-58506587D01*
X116150302Y-58506593D01*
X116226004Y-58564681D01*
X116337550Y-58650273D01*
X116420940Y-58698418D01*
X116541943Y-58768280D01*
X116541948Y-58768282D01*
X116541951Y-58768284D01*
X116760007Y-58858606D01*
X116987986Y-58919693D01*
X117221989Y-58950500D01*
X117221996Y-58950500D01*
X117458004Y-58950500D01*
X117458011Y-58950500D01*
X117692014Y-58919693D01*
X117919993Y-58858606D01*
X118138049Y-58768284D01*
X118342450Y-58650273D01*
X118529699Y-58506592D01*
X118696592Y-58339699D01*
X118840273Y-58152450D01*
X118958284Y-57948049D01*
X119048606Y-57729993D01*
X119109693Y-57502014D01*
X119140500Y-57268011D01*
X119140500Y-57031995D01*
X120619500Y-57031995D01*
X120619500Y-57268004D01*
X120619501Y-57268020D01*
X120650306Y-57502010D01*
X120711394Y-57729993D01*
X120801714Y-57948045D01*
X120801719Y-57948056D01*
X120838475Y-58011718D01*
X120919727Y-58152450D01*
X120919729Y-58152453D01*
X120919730Y-58152454D01*
X121063406Y-58339697D01*
X121063412Y-58339704D01*
X121230295Y-58506587D01*
X121230302Y-58506593D01*
X121306004Y-58564681D01*
X121417550Y-58650273D01*
X121621951Y-58768284D01*
X121621956Y-58768286D01*
X121621962Y-58768289D01*
X121684070Y-58794015D01*
X121738474Y-58837856D01*
X121760539Y-58904150D01*
X121758236Y-58932764D01*
X121749700Y-58975683D01*
X121749700Y-59134319D01*
X121780644Y-59289889D01*
X121780647Y-59289898D01*
X121841348Y-59436446D01*
X121841355Y-59436459D01*
X121929481Y-59568348D01*
X121929484Y-59568352D01*
X122041647Y-59680515D01*
X122041651Y-59680518D01*
X122173540Y-59768644D01*
X122173553Y-59768651D01*
X122261480Y-59805071D01*
X122320103Y-59829353D01*
X122435294Y-59852265D01*
X122497201Y-59884648D01*
X122498781Y-59886200D01*
X127870822Y-65258241D01*
X127904307Y-65319564D01*
X127904759Y-65370111D01*
X127894700Y-65420685D01*
X127894700Y-65579319D01*
X127925644Y-65734889D01*
X127925647Y-65734898D01*
X127986348Y-65881446D01*
X127986355Y-65881459D01*
X128074481Y-66013348D01*
X128074484Y-66013352D01*
X128186647Y-66125515D01*
X128186651Y-66125518D01*
X128318540Y-66213644D01*
X128318553Y-66213651D01*
X128428464Y-66259176D01*
X128465103Y-66274353D01*
X128465105Y-66274353D01*
X128465110Y-66274355D01*
X128620680Y-66305299D01*
X128620684Y-66305300D01*
X128620685Y-66305300D01*
X128779316Y-66305300D01*
X128779317Y-66305299D01*
X128858230Y-66289603D01*
X128934889Y-66274355D01*
X128934892Y-66274353D01*
X128934897Y-66274353D01*
X129081453Y-66213648D01*
X129213349Y-66125518D01*
X129325518Y-66013349D01*
X129413648Y-65881453D01*
X129474353Y-65734897D01*
X129477337Y-65719898D01*
X129505299Y-65579319D01*
X129505300Y-65579316D01*
X129505300Y-65420684D01*
X129505299Y-65420680D01*
X129502315Y-65405680D01*
X142704700Y-65405680D01*
X142704700Y-65564319D01*
X142735644Y-65719889D01*
X142735647Y-65719898D01*
X142796348Y-65866446D01*
X142796355Y-65866459D01*
X142884481Y-65998348D01*
X142884484Y-65998352D01*
X142996647Y-66110515D01*
X142996651Y-66110518D01*
X143128540Y-66198644D01*
X143128553Y-66198651D01*
X143216480Y-66235071D01*
X143275103Y-66259353D01*
X143390294Y-66282265D01*
X143407048Y-66291029D01*
X143425527Y-66295049D01*
X143450563Y-66313791D01*
X143452201Y-66314648D01*
X143453781Y-66316200D01*
X143577589Y-66440008D01*
X143664992Y-66527411D01*
X143664994Y-66527413D01*
X143664996Y-66527414D01*
X143767756Y-66596076D01*
X143767758Y-66596077D01*
X143767767Y-66596083D01*
X143792772Y-66606440D01*
X143815071Y-66615677D01*
X143854911Y-66632179D01*
X143881966Y-66643386D01*
X143993218Y-66665515D01*
X144003192Y-66667499D01*
X144003196Y-66667500D01*
X144003197Y-66667500D01*
X144126804Y-66667500D01*
X153122002Y-66667500D01*
X153189041Y-66687185D01*
X153190892Y-66688398D01*
X153288536Y-66753641D01*
X153288539Y-66753642D01*
X153288547Y-66753648D01*
X153435103Y-66814353D01*
X153435105Y-66814353D01*
X153435110Y-66814355D01*
X153590680Y-66845299D01*
X153590684Y-66845300D01*
X153590685Y-66845300D01*
X153749316Y-66845300D01*
X153749317Y-66845299D01*
X153801175Y-66834984D01*
X153904889Y-66814355D01*
X153904892Y-66814353D01*
X153904897Y-66814353D01*
X154051453Y-66753648D01*
X154183349Y-66665518D01*
X154295518Y-66553349D01*
X154383648Y-66421453D01*
X154444353Y-66274897D01*
X154444462Y-66274353D01*
X154475299Y-66119319D01*
X154475300Y-66119316D01*
X154475300Y-65960686D01*
X154474568Y-65957006D01*
X154474568Y-65957003D01*
X154444355Y-65805110D01*
X154444352Y-65805101D01*
X154383651Y-65658553D01*
X154383644Y-65658540D01*
X154295518Y-65526651D01*
X154295515Y-65526647D01*
X154183352Y-65414484D01*
X154183348Y-65414481D01*
X154051459Y-65326355D01*
X154051446Y-65326348D01*
X153904898Y-65265647D01*
X153904889Y-65265644D01*
X153749319Y-65234700D01*
X153749315Y-65234700D01*
X153590685Y-65234700D01*
X153590680Y-65234700D01*
X153435110Y-65265644D01*
X153435101Y-65265647D01*
X153288554Y-65326348D01*
X153288536Y-65326358D01*
X153190892Y-65391602D01*
X153124215Y-65412480D01*
X153122002Y-65412500D01*
X144418419Y-65412500D01*
X144351380Y-65392815D01*
X144305625Y-65340011D01*
X144296803Y-65312698D01*
X144284353Y-65250103D01*
X144229864Y-65118553D01*
X144223651Y-65103553D01*
X144223645Y-65103542D01*
X144205692Y-65076673D01*
X144205691Y-65076672D01*
X144135518Y-64971651D01*
X144135515Y-64971647D01*
X144023352Y-64859484D01*
X144023348Y-64859481D01*
X143891459Y-64771355D01*
X143891446Y-64771348D01*
X143744898Y-64710647D01*
X143744889Y-64710644D01*
X143589319Y-64679700D01*
X143589315Y-64679700D01*
X143430685Y-64679700D01*
X143430680Y-64679700D01*
X143275110Y-64710644D01*
X143275101Y-64710647D01*
X143128553Y-64771348D01*
X143128540Y-64771355D01*
X142996651Y-64859481D01*
X142996647Y-64859484D01*
X142884484Y-64971647D01*
X142884481Y-64971651D01*
X142796355Y-65103540D01*
X142796348Y-65103553D01*
X142735647Y-65250101D01*
X142735644Y-65250110D01*
X142704700Y-65405680D01*
X129502315Y-65405680D01*
X129474355Y-65265110D01*
X129474352Y-65265101D01*
X129413651Y-65118553D01*
X129413644Y-65118540D01*
X129325518Y-64986651D01*
X129325515Y-64986647D01*
X129283742Y-64944875D01*
X129259134Y-64908046D01*
X129258956Y-64908142D01*
X129257984Y-64906324D01*
X129256858Y-64904639D01*
X129256083Y-64902767D01*
X129187414Y-64799996D01*
X129187413Y-64799994D01*
X129158767Y-64771348D01*
X129100008Y-64712589D01*
X127808099Y-63420680D01*
X152864700Y-63420680D01*
X152864700Y-63579319D01*
X152895644Y-63734889D01*
X152895647Y-63734898D01*
X152956348Y-63881446D01*
X152956355Y-63881459D01*
X153044481Y-64013348D01*
X153044484Y-64013352D01*
X153156647Y-64125515D01*
X153156651Y-64125518D01*
X153288540Y-64213644D01*
X153288553Y-64213651D01*
X153398464Y-64259176D01*
X153435103Y-64274353D01*
X153435105Y-64274353D01*
X153435110Y-64274355D01*
X153590680Y-64305299D01*
X153590684Y-64305300D01*
X153590685Y-64305300D01*
X153749316Y-64305300D01*
X153749317Y-64305299D01*
X153801175Y-64294984D01*
X153904889Y-64274355D01*
X153904892Y-64274353D01*
X153904897Y-64274353D01*
X154051453Y-64213648D01*
X154095916Y-64183939D01*
X154149108Y-64148398D01*
X154215785Y-64127520D01*
X154217998Y-64127500D01*
X161351804Y-64127500D01*
X161351805Y-64127499D01*
X161473035Y-64103386D01*
X161553784Y-64069937D01*
X161587233Y-64056083D01*
X161690008Y-63987411D01*
X161777411Y-63900008D01*
X166690600Y-58986817D01*
X166751923Y-58953333D01*
X166778281Y-58950499D01*
X168740002Y-58950499D01*
X168740008Y-58950499D01*
X168842797Y-58939999D01*
X169009334Y-58884814D01*
X169158656Y-58792712D01*
X169282712Y-58668656D01*
X169374814Y-58519334D01*
X169429999Y-58352797D01*
X169440500Y-58250009D01*
X169440499Y-56049992D01*
X169429999Y-55947203D01*
X169374814Y-55780666D01*
X169282712Y-55631344D01*
X169158656Y-55507288D01*
X169009334Y-55415186D01*
X168842797Y-55360001D01*
X168842795Y-55360000D01*
X168740010Y-55349500D01*
X166539998Y-55349500D01*
X166539981Y-55349501D01*
X166437203Y-55360000D01*
X166437200Y-55360001D01*
X166270668Y-55415185D01*
X166270663Y-55415187D01*
X166121342Y-55507289D01*
X165997289Y-55631342D01*
X165905187Y-55780663D01*
X165905185Y-55780668D01*
X165877349Y-55864670D01*
X165850001Y-55947203D01*
X165850001Y-55947204D01*
X165850000Y-55947204D01*
X165839500Y-56049983D01*
X165839500Y-58011718D01*
X165819815Y-58078757D01*
X165803181Y-58099399D01*
X161066400Y-62836181D01*
X161005077Y-62869666D01*
X160978719Y-62872500D01*
X154217998Y-62872500D01*
X154150959Y-62852815D01*
X154149108Y-62851602D01*
X154051463Y-62786358D01*
X154051456Y-62786354D01*
X154051453Y-62786352D01*
X154051449Y-62786350D01*
X154051445Y-62786348D01*
X153904898Y-62725647D01*
X153904889Y-62725644D01*
X153749319Y-62694700D01*
X153749315Y-62694700D01*
X153590685Y-62694700D01*
X153590680Y-62694700D01*
X153435110Y-62725644D01*
X153435101Y-62725647D01*
X153288553Y-62786348D01*
X153288540Y-62786355D01*
X153156651Y-62874481D01*
X153156647Y-62874484D01*
X153044484Y-62986647D01*
X153044481Y-62986651D01*
X152956355Y-63118540D01*
X152956348Y-63118553D01*
X152895647Y-63265101D01*
X152895644Y-63265110D01*
X152864700Y-63420680D01*
X127808099Y-63420680D01*
X123386201Y-58998782D01*
X123377369Y-58982608D01*
X123364467Y-58969448D01*
X123353648Y-58939167D01*
X123352716Y-58937459D01*
X123352461Y-58936258D01*
X123352362Y-58935782D01*
X123329353Y-58820103D01*
X123327435Y-58815473D01*
X123325195Y-58804660D01*
X123327595Y-58775202D01*
X123327329Y-58745641D01*
X123330401Y-58740764D01*
X123330869Y-58735022D01*
X123348815Y-58711536D01*
X123364573Y-58686525D01*
X123372016Y-58681173D01*
X123373292Y-58679505D01*
X123375397Y-58678743D01*
X123384618Y-58672115D01*
X123390608Y-58668657D01*
X123422450Y-58650273D01*
X123609699Y-58506592D01*
X123776592Y-58339699D01*
X123920273Y-58152450D01*
X124038284Y-57948049D01*
X124128606Y-57729993D01*
X124189693Y-57502014D01*
X124220500Y-57268011D01*
X124220500Y-57031989D01*
X124189693Y-56797986D01*
X124128606Y-56570007D01*
X124038284Y-56351951D01*
X124038282Y-56351948D01*
X124038280Y-56351943D01*
X123963683Y-56222738D01*
X123920273Y-56147550D01*
X123895217Y-56114896D01*
X123845408Y-56049983D01*
X125699500Y-56049983D01*
X125699500Y-58250001D01*
X125699501Y-58250018D01*
X125710000Y-58352796D01*
X125710001Y-58352799D01*
X125765185Y-58519331D01*
X125765187Y-58519336D01*
X125772073Y-58530500D01*
X125857288Y-58668656D01*
X125981344Y-58792712D01*
X126130666Y-58884814D01*
X126297203Y-58939999D01*
X126399991Y-58950500D01*
X128600008Y-58950499D01*
X128702797Y-58939999D01*
X128869334Y-58884814D01*
X129018656Y-58792712D01*
X129142712Y-58668656D01*
X129234814Y-58519334D01*
X129284266Y-58370097D01*
X134849500Y-58370097D01*
X134849500Y-58629902D01*
X134890140Y-58886493D01*
X134970422Y-59133576D01*
X135088368Y-59365054D01*
X135241066Y-59575225D01*
X135241069Y-59575229D01*
X135424771Y-59758931D01*
X135634949Y-59911634D01*
X135782445Y-59986787D01*
X135866423Y-60029577D01*
X135866425Y-60029577D01*
X135866428Y-60029579D01*
X136113507Y-60109860D01*
X136245706Y-60130797D01*
X136370098Y-60150500D01*
X136370103Y-60150500D01*
X136629902Y-60150500D01*
X136743298Y-60132539D01*
X136886493Y-60109860D01*
X137133572Y-60029579D01*
X137365051Y-59911634D01*
X137575229Y-59758931D01*
X137758931Y-59575229D01*
X137911634Y-59365051D01*
X138029579Y-59133572D01*
X138109860Y-58886493D01*
X138133850Y-58735022D01*
X138150500Y-58629902D01*
X138150500Y-58370097D01*
X138116028Y-58152454D01*
X138109860Y-58113507D01*
X138029579Y-57866428D01*
X138029577Y-57866425D01*
X138029577Y-57866423D01*
X138017582Y-57842882D01*
X149849500Y-57842882D01*
X149849500Y-59157118D01*
X149852249Y-59203263D01*
X149852249Y-59203267D01*
X149852250Y-59203268D01*
X149895907Y-59403961D01*
X149895909Y-59403968D01*
X149969249Y-59575231D01*
X149976763Y-59592777D01*
X149976766Y-59592781D01*
X150091882Y-59762868D01*
X150091890Y-59762877D01*
X150237122Y-59908109D01*
X150237131Y-59908117D01*
X150339849Y-59977637D01*
X150407223Y-60023237D01*
X150407228Y-60023239D01*
X150596031Y-60104090D01*
X150596038Y-60104092D01*
X150662935Y-60118644D01*
X150796737Y-60147751D01*
X150842882Y-60150500D01*
X150842893Y-60150500D01*
X152157107Y-60150500D01*
X152157118Y-60150500D01*
X152203263Y-60147751D01*
X152378954Y-60109531D01*
X152403961Y-60104092D01*
X152403968Y-60104090D01*
X152466902Y-60077139D01*
X152592777Y-60023237D01*
X152734179Y-59927533D01*
X152762868Y-59908117D01*
X152762869Y-59908115D01*
X152762875Y-59908112D01*
X152908112Y-59762875D01*
X152910782Y-59758931D01*
X152927533Y-59734179D01*
X153023237Y-59592777D01*
X153104091Y-59403965D01*
X153147751Y-59203263D01*
X153150500Y-59157118D01*
X153150500Y-57842882D01*
X153147751Y-57796737D01*
X153104091Y-57596035D01*
X153104090Y-57596031D01*
X153023239Y-57407228D01*
X153023237Y-57407223D01*
X152977637Y-57339849D01*
X152908117Y-57237131D01*
X152908109Y-57237122D01*
X152762877Y-57091890D01*
X152762868Y-57091882D01*
X152674384Y-57031995D01*
X160759500Y-57031995D01*
X160759500Y-57268004D01*
X160759501Y-57268020D01*
X160790306Y-57502010D01*
X160851394Y-57729993D01*
X160941714Y-57948045D01*
X160941719Y-57948056D01*
X160978475Y-58011718D01*
X161059727Y-58152450D01*
X161059729Y-58152453D01*
X161059730Y-58152454D01*
X161203406Y-58339697D01*
X161203412Y-58339704D01*
X161370295Y-58506587D01*
X161370302Y-58506593D01*
X161446004Y-58564681D01*
X161557550Y-58650273D01*
X161640940Y-58698418D01*
X161761943Y-58768280D01*
X161761948Y-58768282D01*
X161761951Y-58768284D01*
X161980007Y-58858606D01*
X162207986Y-58919693D01*
X162441989Y-58950500D01*
X162441996Y-58950500D01*
X162678004Y-58950500D01*
X162678011Y-58950500D01*
X162912014Y-58919693D01*
X163139993Y-58858606D01*
X163358049Y-58768284D01*
X163562450Y-58650273D01*
X163749699Y-58506592D01*
X163916592Y-58339699D01*
X164060273Y-58152450D01*
X164178284Y-57948049D01*
X164268606Y-57729993D01*
X164329693Y-57502014D01*
X164360500Y-57268011D01*
X164360500Y-57031989D01*
X164329693Y-56797986D01*
X164268606Y-56570007D01*
X164178284Y-56351951D01*
X164178282Y-56351948D01*
X164178280Y-56351943D01*
X164126031Y-56261446D01*
X164060273Y-56147550D01*
X163925918Y-55972455D01*
X163916593Y-55960302D01*
X163916587Y-55960295D01*
X163749704Y-55793412D01*
X163749697Y-55793406D01*
X163562454Y-55649730D01*
X163562453Y-55649729D01*
X163562450Y-55649727D01*
X163469572Y-55596104D01*
X163358056Y-55531719D01*
X163358045Y-55531714D01*
X163139993Y-55441394D01*
X162912010Y-55380306D01*
X162678020Y-55349501D01*
X162678017Y-55349500D01*
X162678011Y-55349500D01*
X162441989Y-55349500D01*
X162441983Y-55349500D01*
X162441979Y-55349501D01*
X162207989Y-55380306D01*
X161980006Y-55441394D01*
X161761954Y-55531714D01*
X161761943Y-55531719D01*
X161589390Y-55631344D01*
X161565563Y-55645101D01*
X161557545Y-55649730D01*
X161370302Y-55793406D01*
X161370295Y-55793412D01*
X161203412Y-55960295D01*
X161203406Y-55960302D01*
X161059730Y-56147545D01*
X160941719Y-56351943D01*
X160941714Y-56351954D01*
X160851394Y-56570006D01*
X160790306Y-56797989D01*
X160759501Y-57031979D01*
X160759500Y-57031995D01*
X152674384Y-57031995D01*
X152624800Y-56998436D01*
X152592777Y-56976763D01*
X152592773Y-56976761D01*
X152592771Y-56976760D01*
X152403968Y-56895909D01*
X152403961Y-56895907D01*
X152203268Y-56852250D01*
X152203267Y-56852249D01*
X152203263Y-56852249D01*
X152157118Y-56849500D01*
X150842882Y-56849500D01*
X150796737Y-56852249D01*
X150796732Y-56852249D01*
X150796731Y-56852250D01*
X150596038Y-56895907D01*
X150596031Y-56895909D01*
X150407228Y-56976760D01*
X150407218Y-56976766D01*
X150237131Y-57091882D01*
X150237122Y-57091890D01*
X150091890Y-57237122D01*
X150091882Y-57237131D01*
X149976766Y-57407218D01*
X149976760Y-57407228D01*
X149895909Y-57596031D01*
X149895907Y-57596038D01*
X149866768Y-57729993D01*
X149852249Y-57796737D01*
X149849500Y-57842882D01*
X138017582Y-57842882D01*
X137986787Y-57782445D01*
X137911634Y-57634949D01*
X137758931Y-57424771D01*
X137575229Y-57241069D01*
X137569801Y-57237125D01*
X137365054Y-57088368D01*
X137365053Y-57088367D01*
X137365051Y-57088366D01*
X137292764Y-57051534D01*
X137133576Y-56970422D01*
X136886493Y-56890140D01*
X136629902Y-56849500D01*
X136629897Y-56849500D01*
X136370103Y-56849500D01*
X136370098Y-56849500D01*
X136113506Y-56890140D01*
X135866423Y-56970422D01*
X135634945Y-57088368D01*
X135424774Y-57241066D01*
X135424768Y-57241071D01*
X135241071Y-57424768D01*
X135241066Y-57424774D01*
X135088368Y-57634945D01*
X134970422Y-57866423D01*
X134890140Y-58113506D01*
X134849500Y-58370097D01*
X129284266Y-58370097D01*
X129289999Y-58352797D01*
X129300500Y-58250009D01*
X129300499Y-56049992D01*
X129289999Y-55947203D01*
X129234814Y-55780666D01*
X129142712Y-55631344D01*
X129018656Y-55507288D01*
X128869334Y-55415186D01*
X128702797Y-55360001D01*
X128702795Y-55360000D01*
X128600010Y-55349500D01*
X126399998Y-55349500D01*
X126399981Y-55349501D01*
X126297203Y-55360000D01*
X126297200Y-55360001D01*
X126130668Y-55415185D01*
X126130663Y-55415187D01*
X125981342Y-55507289D01*
X125857289Y-55631342D01*
X125765187Y-55780663D01*
X125765185Y-55780668D01*
X125737349Y-55864670D01*
X125710001Y-55947203D01*
X125710001Y-55947204D01*
X125710000Y-55947204D01*
X125699500Y-56049983D01*
X123845408Y-56049983D01*
X123776593Y-55960302D01*
X123776587Y-55960295D01*
X123609704Y-55793412D01*
X123609697Y-55793406D01*
X123422454Y-55649730D01*
X123422453Y-55649729D01*
X123422450Y-55649727D01*
X123329572Y-55596104D01*
X123218056Y-55531719D01*
X123218045Y-55531714D01*
X122999993Y-55441394D01*
X122772010Y-55380306D01*
X122538020Y-55349501D01*
X122538017Y-55349500D01*
X122538011Y-55349500D01*
X122301989Y-55349500D01*
X122301983Y-55349500D01*
X122301979Y-55349501D01*
X122067989Y-55380306D01*
X121840006Y-55441394D01*
X121621954Y-55531714D01*
X121621943Y-55531719D01*
X121449390Y-55631344D01*
X121425563Y-55645101D01*
X121417545Y-55649730D01*
X121230302Y-55793406D01*
X121230295Y-55793412D01*
X121063412Y-55960295D01*
X121063406Y-55960302D01*
X120919730Y-56147545D01*
X120801719Y-56351943D01*
X120801714Y-56351954D01*
X120711394Y-56570006D01*
X120650306Y-56797989D01*
X120619501Y-57031979D01*
X120619500Y-57031995D01*
X119140500Y-57031995D01*
X119140500Y-57031989D01*
X119109693Y-56797986D01*
X119048606Y-56570007D01*
X118958284Y-56351951D01*
X118958282Y-56351948D01*
X118958280Y-56351943D01*
X118906031Y-56261446D01*
X118840273Y-56147550D01*
X118705918Y-55972455D01*
X118696593Y-55960302D01*
X118696587Y-55960295D01*
X118529704Y-55793412D01*
X118529697Y-55793406D01*
X118342454Y-55649730D01*
X118342453Y-55649729D01*
X118342450Y-55649727D01*
X118249572Y-55596104D01*
X118138056Y-55531719D01*
X118138045Y-55531714D01*
X117919993Y-55441394D01*
X117692010Y-55380306D01*
X117458020Y-55349501D01*
X117458017Y-55349500D01*
X117458011Y-55349500D01*
X117221989Y-55349500D01*
X117221983Y-55349500D01*
X117221979Y-55349501D01*
X116987989Y-55380306D01*
X116760006Y-55441394D01*
X116541954Y-55531714D01*
X116541943Y-55531719D01*
X116369390Y-55631344D01*
X116345563Y-55645101D01*
X116337545Y-55649730D01*
X116150302Y-55793406D01*
X116150295Y-55793412D01*
X115983412Y-55960295D01*
X115983406Y-55960302D01*
X115839730Y-56147545D01*
X115721719Y-56351943D01*
X115721714Y-56351954D01*
X115631394Y-56570006D01*
X115570306Y-56797989D01*
X115539501Y-57031979D01*
X115539500Y-57031995D01*
X89877980Y-57031995D01*
X89865925Y-56987007D01*
X89833012Y-56930000D01*
X90750000Y-56930000D01*
X90750000Y-56282172D01*
X90749999Y-56282155D01*
X90743598Y-56222627D01*
X90743596Y-56222620D01*
X90693354Y-56087913D01*
X90693350Y-56087906D01*
X90607190Y-55972812D01*
X90607187Y-55972809D01*
X90501736Y-55893868D01*
X90501723Y-55893859D01*
X90492089Y-55886647D01*
X90492086Y-55886645D01*
X90357379Y-55836403D01*
X90357372Y-55836401D01*
X90297844Y-55830000D01*
X89650000Y-55830000D01*
X89650000Y-56746988D01*
X89592993Y-56714075D01*
X89465826Y-56680000D01*
X89334174Y-56680000D01*
X89207007Y-56714075D01*
X89150000Y-56746988D01*
X89150000Y-55830000D01*
X88502155Y-55830000D01*
X88442627Y-55836401D01*
X88442620Y-55836403D01*
X88307913Y-55886645D01*
X88307906Y-55886649D01*
X88192812Y-55972809D01*
X88192809Y-55972812D01*
X88106649Y-56087906D01*
X88106645Y-56087913D01*
X88056403Y-56222620D01*
X88056401Y-56222627D01*
X88050000Y-56282155D01*
X88050000Y-56930000D01*
X88966988Y-56930000D01*
X88934075Y-56987007D01*
X88900000Y-57114174D01*
X88900000Y-57245826D01*
X88934075Y-57372993D01*
X88966988Y-57430000D01*
X88050000Y-57430000D01*
X88050000Y-58077844D01*
X88056401Y-58137372D01*
X88056403Y-58137379D01*
X88106645Y-58272086D01*
X88106649Y-58272093D01*
X88192809Y-58387187D01*
X88192812Y-58387190D01*
X88307906Y-58473350D01*
X88307913Y-58473354D01*
X88439470Y-58522422D01*
X88495404Y-58564293D01*
X88519821Y-58629758D01*
X88504969Y-58698031D01*
X88483819Y-58726285D01*
X88369889Y-58840215D01*
X88244951Y-59012179D01*
X88148444Y-59201585D01*
X88082753Y-59403760D01*
X88055596Y-59575225D01*
X88049500Y-59613713D01*
X65350500Y-59613713D01*
X65317246Y-59403757D01*
X65251557Y-59201588D01*
X65155051Y-59012184D01*
X65155049Y-59012181D01*
X65155048Y-59012179D01*
X65030109Y-58840213D01*
X64916569Y-58726673D01*
X64883084Y-58665350D01*
X64888068Y-58595658D01*
X64929940Y-58539725D01*
X64960915Y-58522810D01*
X65092331Y-58473796D01*
X65207546Y-58387546D01*
X65293796Y-58272331D01*
X65344091Y-58137483D01*
X65350500Y-58077873D01*
X65350499Y-56282128D01*
X65344091Y-56222517D01*
X65336931Y-56203321D01*
X65293797Y-56087671D01*
X65293793Y-56087664D01*
X65207547Y-55972455D01*
X65207544Y-55972452D01*
X65092335Y-55886206D01*
X65092328Y-55886202D01*
X64957482Y-55835908D01*
X64957483Y-55835908D01*
X64897883Y-55829501D01*
X64897881Y-55829500D01*
X64897873Y-55829500D01*
X64897864Y-55829500D01*
X63102129Y-55829500D01*
X63102123Y-55829501D01*
X63042516Y-55835908D01*
X62907671Y-55886202D01*
X62907664Y-55886206D01*
X62792455Y-55972452D01*
X62792452Y-55972455D01*
X62706206Y-56087664D01*
X62706202Y-56087671D01*
X62655908Y-56222517D01*
X62651722Y-56261459D01*
X62649501Y-56282123D01*
X62649500Y-56282135D01*
X56334868Y-56282135D01*
X56394265Y-56222738D01*
X56541936Y-56030289D01*
X56663224Y-55820212D01*
X56671314Y-55800680D01*
X94444700Y-55800680D01*
X94444700Y-55959319D01*
X94475644Y-56114889D01*
X94475647Y-56114898D01*
X94536348Y-56261446D01*
X94536355Y-56261459D01*
X94624481Y-56393348D01*
X94624484Y-56393352D01*
X94736647Y-56505515D01*
X94736651Y-56505518D01*
X94868540Y-56593644D01*
X94868553Y-56593651D01*
X94978464Y-56639176D01*
X95015103Y-56654353D01*
X95015105Y-56654353D01*
X95015110Y-56654355D01*
X95170680Y-56685299D01*
X95170684Y-56685300D01*
X95170685Y-56685300D01*
X95329316Y-56685300D01*
X95329317Y-56685299D01*
X95381175Y-56674984D01*
X95484889Y-56654355D01*
X95484892Y-56654353D01*
X95484897Y-56654353D01*
X95631453Y-56593648D01*
X95763349Y-56505518D01*
X95875518Y-56393349D01*
X95963648Y-56261453D01*
X96024353Y-56114897D01*
X96047265Y-55999704D01*
X96079649Y-55937796D01*
X96081144Y-55936273D01*
X98013601Y-54003819D01*
X98074924Y-53970334D01*
X98101282Y-53967500D01*
X99782002Y-53967500D01*
X99849041Y-53987185D01*
X99850892Y-53988398D01*
X99948536Y-54053641D01*
X99948539Y-54053642D01*
X99948547Y-54053648D01*
X100095103Y-54114353D01*
X100095105Y-54114353D01*
X100095110Y-54114355D01*
X100250680Y-54145299D01*
X100250684Y-54145300D01*
X100250685Y-54145300D01*
X100409316Y-54145300D01*
X100409317Y-54145299D01*
X100468276Y-54133572D01*
X100564889Y-54114355D01*
X100564892Y-54114353D01*
X100564897Y-54114353D01*
X100711453Y-54053648D01*
X100843349Y-53965518D01*
X100955518Y-53853349D01*
X101043648Y-53721453D01*
X101104353Y-53574897D01*
X101135300Y-53419315D01*
X101135300Y-53370097D01*
X134849500Y-53370097D01*
X134849500Y-53629902D01*
X134890140Y-53886493D01*
X134970422Y-54133576D01*
X135088368Y-54365054D01*
X135116641Y-54403968D01*
X135241069Y-54575229D01*
X135424771Y-54758931D01*
X135634949Y-54911634D01*
X135782445Y-54986787D01*
X135866423Y-55029577D01*
X135866425Y-55029577D01*
X135866428Y-55029579D01*
X136113507Y-55109860D01*
X136245706Y-55130797D01*
X136370098Y-55150500D01*
X136370103Y-55150500D01*
X136629902Y-55150500D01*
X136743298Y-55132539D01*
X136886493Y-55109860D01*
X137133572Y-55029579D01*
X137365051Y-54911634D01*
X137575229Y-54758931D01*
X137758931Y-54575229D01*
X137911634Y-54365051D01*
X138029579Y-54133572D01*
X138109860Y-53886493D01*
X138135999Y-53721453D01*
X138150500Y-53629902D01*
X138150500Y-53370097D01*
X138120575Y-53181161D01*
X138109860Y-53113507D01*
X138029579Y-52866428D01*
X138029577Y-52866425D01*
X138029577Y-52866423D01*
X138017582Y-52842882D01*
X149849500Y-52842882D01*
X149849500Y-54157118D01*
X149852249Y-54203263D01*
X149852249Y-54203267D01*
X149852250Y-54203268D01*
X149895907Y-54403961D01*
X149895909Y-54403968D01*
X149969249Y-54575231D01*
X149976763Y-54592777D01*
X149976766Y-54592781D01*
X150091882Y-54762868D01*
X150091890Y-54762877D01*
X150237122Y-54908109D01*
X150237131Y-54908117D01*
X150339849Y-54977637D01*
X150407223Y-55023237D01*
X150407228Y-55023239D01*
X150596031Y-55104090D01*
X150596038Y-55104092D01*
X150662935Y-55118644D01*
X150796737Y-55147751D01*
X150842882Y-55150500D01*
X150842893Y-55150500D01*
X152157107Y-55150500D01*
X152157118Y-55150500D01*
X152203263Y-55147751D01*
X152396808Y-55105648D01*
X152403961Y-55104092D01*
X152403968Y-55104090D01*
X152533086Y-55048798D01*
X152592777Y-55023237D01*
X152734179Y-54927533D01*
X152762868Y-54908117D01*
X152762869Y-54908115D01*
X152762875Y-54908112D01*
X152792276Y-54878711D01*
X173149500Y-54878711D01*
X173149500Y-55121288D01*
X173181161Y-55361785D01*
X173243947Y-55596104D01*
X173328688Y-55800685D01*
X173336776Y-55820212D01*
X173458064Y-56030289D01*
X173458066Y-56030292D01*
X173458067Y-56030293D01*
X173605733Y-56222736D01*
X173605739Y-56222743D01*
X173777256Y-56394260D01*
X173777262Y-56394265D01*
X173969711Y-56541936D01*
X174179788Y-56663224D01*
X174403900Y-56756054D01*
X174638211Y-56818838D01*
X174818586Y-56842584D01*
X174878711Y-56850500D01*
X174878712Y-56850500D01*
X175121289Y-56850500D01*
X175169388Y-56844167D01*
X175361789Y-56818838D01*
X175596100Y-56756054D01*
X175820212Y-56663224D01*
X176030289Y-56541936D01*
X176222738Y-56394265D01*
X176394265Y-56222738D01*
X176541936Y-56030289D01*
X176663224Y-55820212D01*
X176756054Y-55596100D01*
X176818838Y-55361789D01*
X176850500Y-55121288D01*
X176850500Y-54878712D01*
X176818838Y-54638211D01*
X176756054Y-54403900D01*
X176663224Y-54179788D01*
X176541936Y-53969711D01*
X176452651Y-53853352D01*
X176394266Y-53777263D01*
X176394260Y-53777256D01*
X176222743Y-53605739D01*
X176222736Y-53605733D01*
X176030293Y-53458067D01*
X176030292Y-53458066D01*
X176030289Y-53458064D01*
X175820212Y-53336776D01*
X175820205Y-53336773D01*
X175596104Y-53243947D01*
X175361785Y-53181161D01*
X175121289Y-53149500D01*
X175121288Y-53149500D01*
X174878712Y-53149500D01*
X174878711Y-53149500D01*
X174638214Y-53181161D01*
X174403895Y-53243947D01*
X174179794Y-53336773D01*
X174179785Y-53336777D01*
X173969706Y-53458067D01*
X173777263Y-53605733D01*
X173777256Y-53605739D01*
X173605739Y-53777256D01*
X173605733Y-53777263D01*
X173458067Y-53969706D01*
X173336777Y-54179785D01*
X173336773Y-54179794D01*
X173243947Y-54403895D01*
X173181161Y-54638214D01*
X173149500Y-54878711D01*
X152792276Y-54878711D01*
X152908112Y-54762875D01*
X152910782Y-54758931D01*
X152927533Y-54734179D01*
X153023237Y-54592777D01*
X153104091Y-54403965D01*
X153147751Y-54203263D01*
X153150500Y-54157118D01*
X153150500Y-52842882D01*
X153147751Y-52796737D01*
X153112555Y-52634945D01*
X153104092Y-52596038D01*
X153104090Y-52596031D01*
X153023239Y-52407228D01*
X153023237Y-52407223D01*
X152977637Y-52339849D01*
X152908117Y-52237131D01*
X152908109Y-52237122D01*
X152762877Y-52091890D01*
X152762868Y-52091882D01*
X152592781Y-51976766D01*
X152592777Y-51976763D01*
X152592773Y-51976761D01*
X152592771Y-51976760D01*
X152403968Y-51895909D01*
X152403961Y-51895907D01*
X152203268Y-51852250D01*
X152203267Y-51852249D01*
X152203263Y-51852249D01*
X152157118Y-51849500D01*
X150842882Y-51849500D01*
X150796737Y-51852249D01*
X150796732Y-51852249D01*
X150796731Y-51852250D01*
X150596038Y-51895907D01*
X150596031Y-51895909D01*
X150407228Y-51976760D01*
X150407218Y-51976766D01*
X150237131Y-52091882D01*
X150237122Y-52091890D01*
X150091890Y-52237122D01*
X150091882Y-52237131D01*
X149976766Y-52407218D01*
X149976760Y-52407228D01*
X149895909Y-52596031D01*
X149895907Y-52596038D01*
X149852250Y-52796731D01*
X149852249Y-52796737D01*
X149849500Y-52842882D01*
X138017582Y-52842882D01*
X137963436Y-52736616D01*
X137911634Y-52634949D01*
X137758931Y-52424771D01*
X137575229Y-52241069D01*
X137569801Y-52237125D01*
X137365054Y-52088368D01*
X137365053Y-52088367D01*
X137365051Y-52088366D01*
X137292764Y-52051534D01*
X137133576Y-51970422D01*
X136886493Y-51890140D01*
X136629902Y-51849500D01*
X136629897Y-51849500D01*
X136370103Y-51849500D01*
X136370098Y-51849500D01*
X136113506Y-51890140D01*
X135866423Y-51970422D01*
X135634945Y-52088368D01*
X135424774Y-52241066D01*
X135424768Y-52241071D01*
X135241071Y-52424768D01*
X135241066Y-52424774D01*
X135088368Y-52634945D01*
X134970422Y-52866423D01*
X134890140Y-53113506D01*
X134849500Y-53370097D01*
X101135300Y-53370097D01*
X101135300Y-53260685D01*
X101106025Y-53113507D01*
X101104355Y-53105110D01*
X101104352Y-53105101D01*
X101043651Y-52958553D01*
X101043644Y-52958540D01*
X100955518Y-52826651D01*
X100955515Y-52826647D01*
X100843352Y-52714484D01*
X100843348Y-52714481D01*
X100711459Y-52626355D01*
X100711446Y-52626348D01*
X100564898Y-52565647D01*
X100564889Y-52565644D01*
X100409319Y-52534700D01*
X100409315Y-52534700D01*
X100250685Y-52534700D01*
X100250680Y-52534700D01*
X100095110Y-52565644D01*
X100095101Y-52565647D01*
X99948554Y-52626348D01*
X99948536Y-52626358D01*
X99850892Y-52691602D01*
X99784215Y-52712480D01*
X99782002Y-52712500D01*
X97728194Y-52712500D01*
X97606970Y-52736613D01*
X97606960Y-52736616D01*
X97492774Y-52783913D01*
X97492756Y-52783923D01*
X97389992Y-52852587D01*
X97389985Y-52852593D01*
X95193781Y-55048798D01*
X95132458Y-55082283D01*
X95130291Y-55082734D01*
X95015110Y-55105645D01*
X95015098Y-55105648D01*
X94868553Y-55166348D01*
X94868540Y-55166355D01*
X94736651Y-55254481D01*
X94736647Y-55254484D01*
X94624484Y-55366647D01*
X94624481Y-55366651D01*
X94536355Y-55498540D01*
X94536348Y-55498553D01*
X94475647Y-55645101D01*
X94475644Y-55645110D01*
X94444700Y-55800680D01*
X56671314Y-55800680D01*
X56756054Y-55596100D01*
X56818838Y-55361789D01*
X56850500Y-55121288D01*
X56850500Y-54878712D01*
X56818838Y-54638211D01*
X56756054Y-54403900D01*
X56663224Y-54179788D01*
X56541936Y-53969711D01*
X56452651Y-53853352D01*
X56394266Y-53777263D01*
X56394260Y-53777256D01*
X56222743Y-53605739D01*
X56222736Y-53605733D01*
X56030293Y-53458067D01*
X56030292Y-53458066D01*
X56030289Y-53458064D01*
X55820212Y-53336776D01*
X55820205Y-53336773D01*
X55596104Y-53243947D01*
X55361785Y-53181161D01*
X55121289Y-53149500D01*
X55121288Y-53149500D01*
X54878712Y-53149500D01*
X54878711Y-53149500D01*
X54638214Y-53181161D01*
X54403895Y-53243947D01*
X54179794Y-53336773D01*
X54179785Y-53336777D01*
X53969706Y-53458067D01*
X53777263Y-53605733D01*
X53777256Y-53605739D01*
X53605739Y-53777256D01*
X53605733Y-53777263D01*
X53458067Y-53969706D01*
X53336777Y-54179785D01*
X53336773Y-54179794D01*
X53243947Y-54403895D01*
X53181161Y-54638214D01*
X53149500Y-54878711D01*
X50800000Y-54878711D01*
X50800000Y-50924000D01*
X50819685Y-50856961D01*
X50872489Y-50811206D01*
X50924000Y-50800000D01*
X178946000Y-50800000D01*
X179013039Y-50819685D01*
G37*
%TD.AperFunction*%
%TD*%
M02*
