%TF.GenerationSoftware,KiCad,Pcbnew,10.0.1*%
%TF.CreationDate,2026-04-30T13:42:22-06:00*%
%TF.ProjectId,sauna-controller,7361756e-612d-4636-9f6e-74726f6c6c65,rev?*%
%TF.SameCoordinates,Original*%
%TF.FileFunction,Legend,Top*%
%TF.FilePolarity,Positive*%
%FSLAX46Y46*%
G04 Gerber Fmt 4.6, Leading zero omitted, Abs format (unit mm)*
G04 Created by KiCad (PCBNEW 10.0.1) date 2026-04-30 13:42:22*
%MOMM*%
%LPD*%
G01*
G04 APERTURE LIST*
G04 Aperture macros list*
%AMRoundRect*
0 Rectangle with rounded corners*
0 $1 Rounding radius*
0 $2 $3 $4 $5 $6 $7 $8 $9 X,Y pos of 4 corners*
0 Add a 4 corners polygon primitive as box body*
4,1,4,$2,$3,$4,$5,$6,$7,$8,$9,$2,$3,0*
0 Add four circle primitives for the rounded corners*
1,1,$1+$1,$2,$3*
1,1,$1+$1,$4,$5*
1,1,$1+$1,$6,$7*
1,1,$1+$1,$8,$9*
0 Add four rect primitives between the rounded corners*
20,1,$1+$1,$2,$3,$4,$5,0*
20,1,$1+$1,$4,$5,$6,$7,0*
20,1,$1+$1,$6,$7,$8,$9,0*
20,1,$1+$1,$8,$9,$2,$3,0*%
G04 Aperture macros list end*
%ADD10C,0.120000*%
%ADD11C,0.150000*%
%ADD12C,0.180000*%
%ADD13C,0.225000*%
%ADD14C,0.375000*%
%ADD15C,1.500000*%
%ADD16RoundRect,0.250000X-0.350000X0.850000X-0.350000X-0.850000X0.350000X-0.850000X0.350000X0.850000X0*%
%ADD17RoundRect,0.249997X-2.650003X2.950003X-2.650003X-2.950003X2.650003X-2.950003X2.650003X2.950003X0*%
%ADD18RoundRect,0.250000X0.450000X-0.262500X0.450000X0.262500X-0.450000X0.262500X-0.450000X-0.262500X0*%
%ADD19RoundRect,0.250000X-0.450000X0.262500X-0.450000X-0.262500X0.450000X-0.262500X0.450000X0.262500X0*%
%ADD20RoundRect,0.250000X-1.050000X-1.050000X1.050000X-1.050000X1.050000X1.050000X-1.050000X1.050000X0*%
%ADD21C,2.600000*%
%ADD22R,1.700000X1.700000*%
%ADD23C,1.700000*%
%ADD24RoundRect,0.112500X0.112500X-0.187500X0.112500X0.187500X-0.112500X0.187500X-0.112500X-0.187500X0*%
%ADD25RoundRect,0.250000X0.262500X0.450000X-0.262500X0.450000X-0.262500X-0.450000X0.262500X-0.450000X0*%
%ADD26RoundRect,0.250000X0.550000X0.550000X-0.550000X0.550000X-0.550000X-0.550000X0.550000X-0.550000X0*%
%ADD27C,1.600000*%
%ADD28RoundRect,0.250000X0.475000X-0.250000X0.475000X0.250000X-0.475000X0.250000X-0.475000X-0.250000X0*%
%ADD29RoundRect,0.250000X-1.000000X-0.900000X1.000000X-0.900000X1.000000X0.900000X-1.000000X0.900000X0*%
%ADD30C,3.200000*%
%ADD31RoundRect,0.250000X-1.000000X-0.650000X1.000000X-0.650000X1.000000X0.650000X-1.000000X0.650000X0*%
%ADD32RoundRect,0.250000X0.250000X0.475000X-0.250000X0.475000X-0.250000X-0.475000X0.250000X-0.475000X0*%
%ADD33RoundRect,0.250000X-0.250000X-0.475000X0.250000X-0.475000X0.250000X0.475000X-0.250000X0.475000X0*%
%ADD34RoundRect,0.112500X0.187500X0.112500X-0.187500X0.112500X-0.187500X-0.112500X0.187500X-0.112500X0*%
%ADD35RoundRect,0.250000X1.050000X1.050000X-1.050000X1.050000X-1.050000X-1.050000X1.050000X-1.050000X0*%
%ADD36R,2.300000X1.500000*%
%ADD37O,2.300000X1.500000*%
%ADD38RoundRect,0.112500X-0.187500X-0.112500X0.187500X-0.112500X0.187500X0.112500X-0.187500X0.112500X0*%
%ADD39RoundRect,0.250000X-0.262500X-0.450000X0.262500X-0.450000X0.262500X0.450000X-0.262500X0.450000X0*%
%ADD40RoundRect,0.243750X-0.243750X-0.456250X0.243750X-0.456250X0.243750X0.456250X-0.243750X0.456250X0*%
%ADD41RoundRect,0.575000X0.575000X0.575000X-0.575000X0.575000X-0.575000X-0.575000X0.575000X-0.575000X0*%
%ADD42C,2.300000*%
%ADD43RoundRect,0.250000X-1.450000X0.312500X-1.450000X-0.312500X1.450000X-0.312500X1.450000X0.312500X0*%
%ADD44RoundRect,0.243750X-0.456250X0.243750X-0.456250X-0.243750X0.456250X-0.243750X0.456250X0.243750X0*%
%ADD45RoundRect,0.250000X-0.550000X-0.550000X0.550000X-0.550000X0.550000X0.550000X-0.550000X0.550000X0*%
%ADD46RoundRect,0.575000X-0.575000X0.575000X-0.575000X-0.575000X0.575000X-0.575000X0.575000X0.575000X0*%
%ADD47RoundRect,0.112500X-0.112500X0.187500X-0.112500X-0.187500X0.112500X-0.187500X0.112500X0.187500X0*%
%ADD48RoundRect,0.250000X1.050000X-1.050000X1.050000X1.050000X-1.050000X1.050000X-1.050000X-1.050000X0*%
%ADD49RoundRect,0.250000X1.000000X0.650000X-1.000000X0.650000X-1.000000X-0.650000X1.000000X-0.650000X0*%
%ADD50RoundRect,0.250000X-0.325000X-1.100000X0.325000X-1.100000X0.325000X1.100000X-0.325000X1.100000X0*%
%ADD51RoundRect,0.250000X0.350000X-0.850000X0.350000X0.850000X-0.350000X0.850000X-0.350000X-0.850000X0*%
%ADD52RoundRect,0.249997X2.650003X-2.950003X2.650003X2.950003X-2.650003X2.950003X-2.650003X-2.950003X0*%
G04 APERTURE END LIST*
D10*
X115045067Y-51214664D02*
X115013619Y-51252760D01*
X115013619Y-51252760D02*
X114919277Y-51290855D01*
X114919277Y-51290855D02*
X114856381Y-51290855D01*
X114856381Y-51290855D02*
X114762038Y-51252760D01*
X114762038Y-51252760D02*
X114699143Y-51176569D01*
X114699143Y-51176569D02*
X114667696Y-51100379D01*
X114667696Y-51100379D02*
X114636248Y-50947998D01*
X114636248Y-50947998D02*
X114636248Y-50833712D01*
X114636248Y-50833712D02*
X114667696Y-50681331D01*
X114667696Y-50681331D02*
X114699143Y-50605140D01*
X114699143Y-50605140D02*
X114762038Y-50528950D01*
X114762038Y-50528950D02*
X114856381Y-50490855D01*
X114856381Y-50490855D02*
X114919277Y-50490855D01*
X114919277Y-50490855D02*
X115013619Y-50528950D01*
X115013619Y-50528950D02*
X115045067Y-50567045D01*
X115453886Y-50490855D02*
X115579677Y-50490855D01*
X115579677Y-50490855D02*
X115642572Y-50528950D01*
X115642572Y-50528950D02*
X115705467Y-50605140D01*
X115705467Y-50605140D02*
X115736915Y-50757521D01*
X115736915Y-50757521D02*
X115736915Y-51024188D01*
X115736915Y-51024188D02*
X115705467Y-51176569D01*
X115705467Y-51176569D02*
X115642572Y-51252760D01*
X115642572Y-51252760D02*
X115579677Y-51290855D01*
X115579677Y-51290855D02*
X115453886Y-51290855D01*
X115453886Y-51290855D02*
X115390991Y-51252760D01*
X115390991Y-51252760D02*
X115328096Y-51176569D01*
X115328096Y-51176569D02*
X115296648Y-51024188D01*
X115296648Y-51024188D02*
X115296648Y-50757521D01*
X115296648Y-50757521D02*
X115328096Y-50605140D01*
X115328096Y-50605140D02*
X115390991Y-50528950D01*
X115390991Y-50528950D02*
X115453886Y-50490855D01*
X116019944Y-51290855D02*
X116019944Y-50490855D01*
X116648896Y-51290855D02*
X116334420Y-51290855D01*
X116334420Y-51290855D02*
X116334420Y-50490855D01*
X116869030Y-50986093D02*
X117372192Y-50986093D01*
X118347068Y-51557521D02*
X118347068Y-50414664D01*
X119793658Y-51252760D02*
X119888001Y-51290855D01*
X119888001Y-51290855D02*
X120045239Y-51290855D01*
X120045239Y-51290855D02*
X120108134Y-51252760D01*
X120108134Y-51252760D02*
X120139582Y-51214664D01*
X120139582Y-51214664D02*
X120171029Y-51138474D01*
X120171029Y-51138474D02*
X120171029Y-51062283D01*
X120171029Y-51062283D02*
X120139582Y-50986093D01*
X120139582Y-50986093D02*
X120108134Y-50947998D01*
X120108134Y-50947998D02*
X120045239Y-50909902D01*
X120045239Y-50909902D02*
X119919448Y-50871807D01*
X119919448Y-50871807D02*
X119856553Y-50833712D01*
X119856553Y-50833712D02*
X119825106Y-50795617D01*
X119825106Y-50795617D02*
X119793658Y-50719426D01*
X119793658Y-50719426D02*
X119793658Y-50643236D01*
X119793658Y-50643236D02*
X119825106Y-50567045D01*
X119825106Y-50567045D02*
X119856553Y-50528950D01*
X119856553Y-50528950D02*
X119919448Y-50490855D01*
X119919448Y-50490855D02*
X120076687Y-50490855D01*
X120076687Y-50490855D02*
X120171029Y-50528950D01*
X120831429Y-51290855D02*
X120611296Y-50909902D01*
X120454058Y-51290855D02*
X120454058Y-50490855D01*
X120454058Y-50490855D02*
X120705639Y-50490855D01*
X120705639Y-50490855D02*
X120768534Y-50528950D01*
X120768534Y-50528950D02*
X120799981Y-50567045D01*
X120799981Y-50567045D02*
X120831429Y-50643236D01*
X120831429Y-50643236D02*
X120831429Y-50757521D01*
X120831429Y-50757521D02*
X120799981Y-50833712D01*
X120799981Y-50833712D02*
X120768534Y-50871807D01*
X120768534Y-50871807D02*
X120705639Y-50909902D01*
X120705639Y-50909902D02*
X120454058Y-50909902D01*
X121428934Y-51290855D02*
X121114458Y-51290855D01*
X121114458Y-51290855D02*
X121114458Y-50490855D01*
X121617620Y-50567045D02*
X121649068Y-50528950D01*
X121649068Y-50528950D02*
X121711963Y-50490855D01*
X121711963Y-50490855D02*
X121869201Y-50490855D01*
X121869201Y-50490855D02*
X121932096Y-50528950D01*
X121932096Y-50528950D02*
X121963544Y-50567045D01*
X121963544Y-50567045D02*
X121994991Y-50643236D01*
X121994991Y-50643236D02*
X121994991Y-50719426D01*
X121994991Y-50719426D02*
X121963544Y-50833712D01*
X121963544Y-50833712D02*
X121586172Y-51290855D01*
X121586172Y-51290855D02*
X121994991Y-51290855D01*
X122592496Y-50490855D02*
X122278020Y-50490855D01*
X122278020Y-50490855D02*
X122246572Y-50871807D01*
X122246572Y-50871807D02*
X122278020Y-50833712D01*
X122278020Y-50833712D02*
X122340915Y-50795617D01*
X122340915Y-50795617D02*
X122498153Y-50795617D01*
X122498153Y-50795617D02*
X122561048Y-50833712D01*
X122561048Y-50833712D02*
X122592496Y-50871807D01*
X122592496Y-50871807D02*
X122623943Y-50947998D01*
X122623943Y-50947998D02*
X122623943Y-51138474D01*
X122623943Y-51138474D02*
X122592496Y-51214664D01*
X122592496Y-51214664D02*
X122561048Y-51252760D01*
X122561048Y-51252760D02*
X122498153Y-51290855D01*
X122498153Y-51290855D02*
X122340915Y-51290855D01*
X122340915Y-51290855D02*
X122278020Y-51252760D01*
X122278020Y-51252760D02*
X122246572Y-51214664D01*
X123032762Y-50490855D02*
X123095657Y-50490855D01*
X123095657Y-50490855D02*
X123158553Y-50528950D01*
X123158553Y-50528950D02*
X123190000Y-50567045D01*
X123190000Y-50567045D02*
X123221448Y-50643236D01*
X123221448Y-50643236D02*
X123252895Y-50795617D01*
X123252895Y-50795617D02*
X123252895Y-50986093D01*
X123252895Y-50986093D02*
X123221448Y-51138474D01*
X123221448Y-51138474D02*
X123190000Y-51214664D01*
X123190000Y-51214664D02*
X123158553Y-51252760D01*
X123158553Y-51252760D02*
X123095657Y-51290855D01*
X123095657Y-51290855D02*
X123032762Y-51290855D01*
X123032762Y-51290855D02*
X122969867Y-51252760D01*
X122969867Y-51252760D02*
X122938419Y-51214664D01*
X122938419Y-51214664D02*
X122906972Y-51138474D01*
X122906972Y-51138474D02*
X122875524Y-50986093D01*
X122875524Y-50986093D02*
X122875524Y-50795617D01*
X122875524Y-50795617D02*
X122906972Y-50643236D01*
X122906972Y-50643236D02*
X122938419Y-50567045D01*
X122938419Y-50567045D02*
X122969867Y-50528950D01*
X122969867Y-50528950D02*
X123032762Y-50490855D01*
X123535924Y-50757521D02*
X124039086Y-50986093D01*
X124039086Y-50986093D02*
X123535924Y-51214664D01*
X125013962Y-51557521D02*
X125013962Y-50414664D01*
X125988838Y-50757521D02*
X126492000Y-50986093D01*
X126492000Y-50986093D02*
X125988838Y-51214664D01*
X126775028Y-51252760D02*
X126869371Y-51290855D01*
X126869371Y-51290855D02*
X127026609Y-51290855D01*
X127026609Y-51290855D02*
X127089504Y-51252760D01*
X127089504Y-51252760D02*
X127120952Y-51214664D01*
X127120952Y-51214664D02*
X127152399Y-51138474D01*
X127152399Y-51138474D02*
X127152399Y-51062283D01*
X127152399Y-51062283D02*
X127120952Y-50986093D01*
X127120952Y-50986093D02*
X127089504Y-50947998D01*
X127089504Y-50947998D02*
X127026609Y-50909902D01*
X127026609Y-50909902D02*
X126900818Y-50871807D01*
X126900818Y-50871807D02*
X126837923Y-50833712D01*
X126837923Y-50833712D02*
X126806476Y-50795617D01*
X126806476Y-50795617D02*
X126775028Y-50719426D01*
X126775028Y-50719426D02*
X126775028Y-50643236D01*
X126775028Y-50643236D02*
X126806476Y-50567045D01*
X126806476Y-50567045D02*
X126837923Y-50528950D01*
X126837923Y-50528950D02*
X126900818Y-50490855D01*
X126900818Y-50490855D02*
X127058057Y-50490855D01*
X127058057Y-50490855D02*
X127152399Y-50528950D01*
X127812799Y-51290855D02*
X127592666Y-50909902D01*
X127435428Y-51290855D02*
X127435428Y-50490855D01*
X127435428Y-50490855D02*
X127687009Y-50490855D01*
X127687009Y-50490855D02*
X127749904Y-50528950D01*
X127749904Y-50528950D02*
X127781351Y-50567045D01*
X127781351Y-50567045D02*
X127812799Y-50643236D01*
X127812799Y-50643236D02*
X127812799Y-50757521D01*
X127812799Y-50757521D02*
X127781351Y-50833712D01*
X127781351Y-50833712D02*
X127749904Y-50871807D01*
X127749904Y-50871807D02*
X127687009Y-50909902D01*
X127687009Y-50909902D02*
X127435428Y-50909902D01*
X128410304Y-51290855D02*
X128095828Y-51290855D01*
X128095828Y-51290855D02*
X128095828Y-50490855D01*
X128598990Y-50567045D02*
X128630438Y-50528950D01*
X128630438Y-50528950D02*
X128693333Y-50490855D01*
X128693333Y-50490855D02*
X128850571Y-50490855D01*
X128850571Y-50490855D02*
X128913466Y-50528950D01*
X128913466Y-50528950D02*
X128944914Y-50567045D01*
X128944914Y-50567045D02*
X128976361Y-50643236D01*
X128976361Y-50643236D02*
X128976361Y-50719426D01*
X128976361Y-50719426D02*
X128944914Y-50833712D01*
X128944914Y-50833712D02*
X128567542Y-51290855D01*
X128567542Y-51290855D02*
X128976361Y-51290855D01*
X129573866Y-50490855D02*
X129259390Y-50490855D01*
X129259390Y-50490855D02*
X129227942Y-50871807D01*
X129227942Y-50871807D02*
X129259390Y-50833712D01*
X129259390Y-50833712D02*
X129322285Y-50795617D01*
X129322285Y-50795617D02*
X129479523Y-50795617D01*
X129479523Y-50795617D02*
X129542418Y-50833712D01*
X129542418Y-50833712D02*
X129573866Y-50871807D01*
X129573866Y-50871807D02*
X129605313Y-50947998D01*
X129605313Y-50947998D02*
X129605313Y-51138474D01*
X129605313Y-51138474D02*
X129573866Y-51214664D01*
X129573866Y-51214664D02*
X129542418Y-51252760D01*
X129542418Y-51252760D02*
X129479523Y-51290855D01*
X129479523Y-51290855D02*
X129322285Y-51290855D01*
X129322285Y-51290855D02*
X129259390Y-51252760D01*
X129259390Y-51252760D02*
X129227942Y-51214664D01*
X130014132Y-50490855D02*
X130077027Y-50490855D01*
X130077027Y-50490855D02*
X130139923Y-50528950D01*
X130139923Y-50528950D02*
X130171370Y-50567045D01*
X130171370Y-50567045D02*
X130202818Y-50643236D01*
X130202818Y-50643236D02*
X130234265Y-50795617D01*
X130234265Y-50795617D02*
X130234265Y-50986093D01*
X130234265Y-50986093D02*
X130202818Y-51138474D01*
X130202818Y-51138474D02*
X130171370Y-51214664D01*
X130171370Y-51214664D02*
X130139923Y-51252760D01*
X130139923Y-51252760D02*
X130077027Y-51290855D01*
X130077027Y-51290855D02*
X130014132Y-51290855D01*
X130014132Y-51290855D02*
X129951237Y-51252760D01*
X129951237Y-51252760D02*
X129919789Y-51214664D01*
X129919789Y-51214664D02*
X129888342Y-51138474D01*
X129888342Y-51138474D02*
X129856894Y-50986093D01*
X129856894Y-50986093D02*
X129856894Y-50795617D01*
X129856894Y-50795617D02*
X129888342Y-50643236D01*
X129888342Y-50643236D02*
X129919789Y-50567045D01*
X129919789Y-50567045D02*
X129951237Y-50528950D01*
X129951237Y-50528950D02*
X130014132Y-50490855D01*
X59509523Y-56743855D02*
X60004761Y-56743855D01*
X60004761Y-56743855D02*
X59738095Y-57048617D01*
X59738095Y-57048617D02*
X59852380Y-57048617D01*
X59852380Y-57048617D02*
X59928571Y-57086712D01*
X59928571Y-57086712D02*
X59966666Y-57124807D01*
X59966666Y-57124807D02*
X60004761Y-57200998D01*
X60004761Y-57200998D02*
X60004761Y-57391474D01*
X60004761Y-57391474D02*
X59966666Y-57467664D01*
X59966666Y-57467664D02*
X59928571Y-57505760D01*
X59928571Y-57505760D02*
X59852380Y-57543855D01*
X59852380Y-57543855D02*
X59623809Y-57543855D01*
X59623809Y-57543855D02*
X59547618Y-57505760D01*
X59547618Y-57505760D02*
X59509523Y-57467664D01*
X60233333Y-56743855D02*
X60500000Y-57543855D01*
X60500000Y-57543855D02*
X60766666Y-56743855D01*
X60957142Y-56743855D02*
X61452380Y-56743855D01*
X61452380Y-56743855D02*
X61185714Y-57048617D01*
X61185714Y-57048617D02*
X61299999Y-57048617D01*
X61299999Y-57048617D02*
X61376190Y-57086712D01*
X61376190Y-57086712D02*
X61414285Y-57124807D01*
X61414285Y-57124807D02*
X61452380Y-57200998D01*
X61452380Y-57200998D02*
X61452380Y-57391474D01*
X61452380Y-57391474D02*
X61414285Y-57467664D01*
X61414285Y-57467664D02*
X61376190Y-57505760D01*
X61376190Y-57505760D02*
X61299999Y-57543855D01*
X61299999Y-57543855D02*
X61071428Y-57543855D01*
X61071428Y-57543855D02*
X60995237Y-57505760D01*
X60995237Y-57505760D02*
X60957142Y-57467664D01*
X61390476Y-133548855D02*
X61847619Y-133548855D01*
X61619047Y-134348855D02*
X61619047Y-133548855D01*
X62038095Y-133548855D02*
X62571429Y-134348855D01*
X62571429Y-133548855D02*
X62038095Y-134348855D01*
X66946667Y-134348855D02*
X66680000Y-133967902D01*
X66489524Y-134348855D02*
X66489524Y-133548855D01*
X66489524Y-133548855D02*
X66794286Y-133548855D01*
X66794286Y-133548855D02*
X66870476Y-133586950D01*
X66870476Y-133586950D02*
X66908571Y-133625045D01*
X66908571Y-133625045D02*
X66946667Y-133701236D01*
X66946667Y-133701236D02*
X66946667Y-133815521D01*
X66946667Y-133815521D02*
X66908571Y-133891712D01*
X66908571Y-133891712D02*
X66870476Y-133929807D01*
X66870476Y-133929807D02*
X66794286Y-133967902D01*
X66794286Y-133967902D02*
X66489524Y-133967902D01*
X67213333Y-133548855D02*
X67746667Y-134348855D01*
X67746667Y-133548855D02*
X67213333Y-134348855D01*
X65303809Y-106624807D02*
X65037143Y-106624807D01*
X65037143Y-107043855D02*
X65037143Y-106243855D01*
X65037143Y-106243855D02*
X65418095Y-106243855D01*
X65646666Y-106243855D02*
X66141904Y-106243855D01*
X66141904Y-106243855D02*
X65875238Y-106548617D01*
X65875238Y-106548617D02*
X65989523Y-106548617D01*
X65989523Y-106548617D02*
X66065714Y-106586712D01*
X66065714Y-106586712D02*
X66103809Y-106624807D01*
X66103809Y-106624807D02*
X66141904Y-106700998D01*
X66141904Y-106700998D02*
X66141904Y-106891474D01*
X66141904Y-106891474D02*
X66103809Y-106967664D01*
X66103809Y-106967664D02*
X66065714Y-107005760D01*
X66065714Y-107005760D02*
X65989523Y-107043855D01*
X65989523Y-107043855D02*
X65760952Y-107043855D01*
X65760952Y-107043855D02*
X65684761Y-107005760D01*
X65684761Y-107005760D02*
X65646666Y-106967664D01*
X67246667Y-106243855D02*
X67322857Y-106243855D01*
X67322857Y-106243855D02*
X67399048Y-106281950D01*
X67399048Y-106281950D02*
X67437143Y-106320045D01*
X67437143Y-106320045D02*
X67475238Y-106396236D01*
X67475238Y-106396236D02*
X67513333Y-106548617D01*
X67513333Y-106548617D02*
X67513333Y-106739093D01*
X67513333Y-106739093D02*
X67475238Y-106891474D01*
X67475238Y-106891474D02*
X67437143Y-106967664D01*
X67437143Y-106967664D02*
X67399048Y-107005760D01*
X67399048Y-107005760D02*
X67322857Y-107043855D01*
X67322857Y-107043855D02*
X67246667Y-107043855D01*
X67246667Y-107043855D02*
X67170476Y-107005760D01*
X67170476Y-107005760D02*
X67132381Y-106967664D01*
X67132381Y-106967664D02*
X67094286Y-106891474D01*
X67094286Y-106891474D02*
X67056190Y-106739093D01*
X67056190Y-106739093D02*
X67056190Y-106548617D01*
X67056190Y-106548617D02*
X67094286Y-106396236D01*
X67094286Y-106396236D02*
X67132381Y-106320045D01*
X67132381Y-106320045D02*
X67170476Y-106281950D01*
X67170476Y-106281950D02*
X67246667Y-106243855D01*
X67856191Y-106967664D02*
X67894286Y-107005760D01*
X67894286Y-107005760D02*
X67856191Y-107043855D01*
X67856191Y-107043855D02*
X67818095Y-107005760D01*
X67818095Y-107005760D02*
X67856191Y-106967664D01*
X67856191Y-106967664D02*
X67856191Y-107043855D01*
X68618095Y-106243855D02*
X68237143Y-106243855D01*
X68237143Y-106243855D02*
X68199047Y-106624807D01*
X68199047Y-106624807D02*
X68237143Y-106586712D01*
X68237143Y-106586712D02*
X68313333Y-106548617D01*
X68313333Y-106548617D02*
X68503809Y-106548617D01*
X68503809Y-106548617D02*
X68580000Y-106586712D01*
X68580000Y-106586712D02*
X68618095Y-106624807D01*
X68618095Y-106624807D02*
X68656190Y-106700998D01*
X68656190Y-106700998D02*
X68656190Y-106891474D01*
X68656190Y-106891474D02*
X68618095Y-106967664D01*
X68618095Y-106967664D02*
X68580000Y-107005760D01*
X68580000Y-107005760D02*
X68503809Y-107043855D01*
X68503809Y-107043855D02*
X68313333Y-107043855D01*
X68313333Y-107043855D02*
X68237143Y-107005760D01*
X68237143Y-107005760D02*
X68199047Y-106967664D01*
X68960952Y-106815283D02*
X69341905Y-106815283D01*
X68884762Y-107043855D02*
X69151429Y-106243855D01*
X69151429Y-106243855D02*
X69418095Y-107043855D01*
X70294286Y-107043855D02*
X70294286Y-106243855D01*
X70294286Y-106243855D02*
X70599048Y-106243855D01*
X70599048Y-106243855D02*
X70675238Y-106281950D01*
X70675238Y-106281950D02*
X70713333Y-106320045D01*
X70713333Y-106320045D02*
X70751429Y-106396236D01*
X70751429Y-106396236D02*
X70751429Y-106510521D01*
X70751429Y-106510521D02*
X70713333Y-106586712D01*
X70713333Y-106586712D02*
X70675238Y-106624807D01*
X70675238Y-106624807D02*
X70599048Y-106662902D01*
X70599048Y-106662902D02*
X70294286Y-106662902D01*
X70980000Y-106243855D02*
X71437143Y-106243855D01*
X71208571Y-107043855D02*
X71208571Y-106243855D01*
X72160953Y-106967664D02*
X72122857Y-107005760D01*
X72122857Y-107005760D02*
X72008572Y-107043855D01*
X72008572Y-107043855D02*
X71932381Y-107043855D01*
X71932381Y-107043855D02*
X71818095Y-107005760D01*
X71818095Y-107005760D02*
X71741905Y-106929569D01*
X71741905Y-106929569D02*
X71703810Y-106853379D01*
X71703810Y-106853379D02*
X71665714Y-106700998D01*
X71665714Y-106700998D02*
X71665714Y-106586712D01*
X71665714Y-106586712D02*
X71703810Y-106434331D01*
X71703810Y-106434331D02*
X71741905Y-106358140D01*
X71741905Y-106358140D02*
X71818095Y-106281950D01*
X71818095Y-106281950D02*
X71932381Y-106243855D01*
X71932381Y-106243855D02*
X72008572Y-106243855D01*
X72008572Y-106243855D02*
X72122857Y-106281950D01*
X72122857Y-106281950D02*
X72160953Y-106320045D01*
X72007619Y-133548855D02*
X71626667Y-133548855D01*
X71626667Y-133548855D02*
X71588571Y-133929807D01*
X71588571Y-133929807D02*
X71626667Y-133891712D01*
X71626667Y-133891712D02*
X71702857Y-133853617D01*
X71702857Y-133853617D02*
X71893333Y-133853617D01*
X71893333Y-133853617D02*
X71969524Y-133891712D01*
X71969524Y-133891712D02*
X72007619Y-133929807D01*
X72007619Y-133929807D02*
X72045714Y-134005998D01*
X72045714Y-134005998D02*
X72045714Y-134196474D01*
X72045714Y-134196474D02*
X72007619Y-134272664D01*
X72007619Y-134272664D02*
X71969524Y-134310760D01*
X71969524Y-134310760D02*
X71893333Y-134348855D01*
X71893333Y-134348855D02*
X71702857Y-134348855D01*
X71702857Y-134348855D02*
X71626667Y-134310760D01*
X71626667Y-134310760D02*
X71588571Y-134272664D01*
X72274286Y-133548855D02*
X72540953Y-134348855D01*
X72540953Y-134348855D02*
X72807619Y-133548855D01*
X76630476Y-133586950D02*
X76554286Y-133548855D01*
X76554286Y-133548855D02*
X76440000Y-133548855D01*
X76440000Y-133548855D02*
X76325714Y-133586950D01*
X76325714Y-133586950D02*
X76249524Y-133663140D01*
X76249524Y-133663140D02*
X76211429Y-133739331D01*
X76211429Y-133739331D02*
X76173333Y-133891712D01*
X76173333Y-133891712D02*
X76173333Y-134005998D01*
X76173333Y-134005998D02*
X76211429Y-134158379D01*
X76211429Y-134158379D02*
X76249524Y-134234569D01*
X76249524Y-134234569D02*
X76325714Y-134310760D01*
X76325714Y-134310760D02*
X76440000Y-134348855D01*
X76440000Y-134348855D02*
X76516191Y-134348855D01*
X76516191Y-134348855D02*
X76630476Y-134310760D01*
X76630476Y-134310760D02*
X76668572Y-134272664D01*
X76668572Y-134272664D02*
X76668572Y-134005998D01*
X76668572Y-134005998D02*
X76516191Y-134005998D01*
X77011429Y-134348855D02*
X77011429Y-133548855D01*
X77011429Y-133548855D02*
X77468572Y-134348855D01*
X77468572Y-134348855D02*
X77468572Y-133548855D01*
X77849524Y-134348855D02*
X77849524Y-133548855D01*
X77849524Y-133548855D02*
X78040000Y-133548855D01*
X78040000Y-133548855D02*
X78154286Y-133586950D01*
X78154286Y-133586950D02*
X78230476Y-133663140D01*
X78230476Y-133663140D02*
X78268571Y-133739331D01*
X78268571Y-133739331D02*
X78306667Y-133891712D01*
X78306667Y-133891712D02*
X78306667Y-134005998D01*
X78306667Y-134005998D02*
X78268571Y-134158379D01*
X78268571Y-134158379D02*
X78230476Y-134234569D01*
X78230476Y-134234569D02*
X78154286Y-134310760D01*
X78154286Y-134310760D02*
X78040000Y-134348855D01*
X78040000Y-134348855D02*
X77849524Y-134348855D01*
X88722381Y-122283855D02*
X88722381Y-121483855D01*
X88722381Y-121483855D02*
X88912857Y-121483855D01*
X88912857Y-121483855D02*
X89027143Y-121521950D01*
X89027143Y-121521950D02*
X89103333Y-121598140D01*
X89103333Y-121598140D02*
X89141428Y-121674331D01*
X89141428Y-121674331D02*
X89179524Y-121826712D01*
X89179524Y-121826712D02*
X89179524Y-121940998D01*
X89179524Y-121940998D02*
X89141428Y-122093379D01*
X89141428Y-122093379D02*
X89103333Y-122169569D01*
X89103333Y-122169569D02*
X89027143Y-122245760D01*
X89027143Y-122245760D02*
X88912857Y-122283855D01*
X88912857Y-122283855D02*
X88722381Y-122283855D01*
X89674762Y-121483855D02*
X89827143Y-121483855D01*
X89827143Y-121483855D02*
X89903333Y-121521950D01*
X89903333Y-121521950D02*
X89979524Y-121598140D01*
X89979524Y-121598140D02*
X90017619Y-121750521D01*
X90017619Y-121750521D02*
X90017619Y-122017188D01*
X90017619Y-122017188D02*
X89979524Y-122169569D01*
X89979524Y-122169569D02*
X89903333Y-122245760D01*
X89903333Y-122245760D02*
X89827143Y-122283855D01*
X89827143Y-122283855D02*
X89674762Y-122283855D01*
X89674762Y-122283855D02*
X89598571Y-122245760D01*
X89598571Y-122245760D02*
X89522381Y-122169569D01*
X89522381Y-122169569D02*
X89484285Y-122017188D01*
X89484285Y-122017188D02*
X89484285Y-121750521D01*
X89484285Y-121750521D02*
X89522381Y-121598140D01*
X89522381Y-121598140D02*
X89598571Y-121521950D01*
X89598571Y-121521950D02*
X89674762Y-121483855D01*
X90512857Y-121483855D02*
X90665238Y-121483855D01*
X90665238Y-121483855D02*
X90741428Y-121521950D01*
X90741428Y-121521950D02*
X90817619Y-121598140D01*
X90817619Y-121598140D02*
X90855714Y-121750521D01*
X90855714Y-121750521D02*
X90855714Y-122017188D01*
X90855714Y-122017188D02*
X90817619Y-122169569D01*
X90817619Y-122169569D02*
X90741428Y-122245760D01*
X90741428Y-122245760D02*
X90665238Y-122283855D01*
X90665238Y-122283855D02*
X90512857Y-122283855D01*
X90512857Y-122283855D02*
X90436666Y-122245760D01*
X90436666Y-122245760D02*
X90360476Y-122169569D01*
X90360476Y-122169569D02*
X90322380Y-122017188D01*
X90322380Y-122017188D02*
X90322380Y-121750521D01*
X90322380Y-121750521D02*
X90360476Y-121598140D01*
X90360476Y-121598140D02*
X90436666Y-121521950D01*
X90436666Y-121521950D02*
X90512857Y-121483855D01*
X91655714Y-122283855D02*
X91389047Y-121902902D01*
X91198571Y-122283855D02*
X91198571Y-121483855D01*
X91198571Y-121483855D02*
X91503333Y-121483855D01*
X91503333Y-121483855D02*
X91579523Y-121521950D01*
X91579523Y-121521950D02*
X91617618Y-121560045D01*
X91617618Y-121560045D02*
X91655714Y-121636236D01*
X91655714Y-121636236D02*
X91655714Y-121750521D01*
X91655714Y-121750521D02*
X91617618Y-121826712D01*
X91617618Y-121826712D02*
X91579523Y-121864807D01*
X91579523Y-121864807D02*
X91503333Y-121902902D01*
X91503333Y-121902902D02*
X91198571Y-121902902D01*
X105041905Y-122207664D02*
X105003809Y-122245760D01*
X105003809Y-122245760D02*
X104889524Y-122283855D01*
X104889524Y-122283855D02*
X104813333Y-122283855D01*
X104813333Y-122283855D02*
X104699047Y-122245760D01*
X104699047Y-122245760D02*
X104622857Y-122169569D01*
X104622857Y-122169569D02*
X104584762Y-122093379D01*
X104584762Y-122093379D02*
X104546666Y-121940998D01*
X104546666Y-121940998D02*
X104546666Y-121826712D01*
X104546666Y-121826712D02*
X104584762Y-121674331D01*
X104584762Y-121674331D02*
X104622857Y-121598140D01*
X104622857Y-121598140D02*
X104699047Y-121521950D01*
X104699047Y-121521950D02*
X104813333Y-121483855D01*
X104813333Y-121483855D02*
X104889524Y-121483855D01*
X104889524Y-121483855D02*
X105003809Y-121521950D01*
X105003809Y-121521950D02*
X105041905Y-121560045D01*
X105384762Y-121864807D02*
X105651428Y-121864807D01*
X105765714Y-122283855D02*
X105384762Y-122283855D01*
X105384762Y-122283855D02*
X105384762Y-121483855D01*
X105384762Y-121483855D02*
X105765714Y-121483855D01*
X106108572Y-122283855D02*
X106108572Y-121483855D01*
X106870476Y-122283855D02*
X106489524Y-122283855D01*
X106489524Y-122283855D02*
X106489524Y-121483855D01*
X107137143Y-122283855D02*
X107137143Y-121483855D01*
X107518095Y-122283855D02*
X107518095Y-121483855D01*
X107518095Y-121483855D02*
X107975238Y-122283855D01*
X107975238Y-122283855D02*
X107975238Y-121483855D01*
X108775237Y-121521950D02*
X108699047Y-121483855D01*
X108699047Y-121483855D02*
X108584761Y-121483855D01*
X108584761Y-121483855D02*
X108470475Y-121521950D01*
X108470475Y-121521950D02*
X108394285Y-121598140D01*
X108394285Y-121598140D02*
X108356190Y-121674331D01*
X108356190Y-121674331D02*
X108318094Y-121826712D01*
X108318094Y-121826712D02*
X108318094Y-121940998D01*
X108318094Y-121940998D02*
X108356190Y-122093379D01*
X108356190Y-122093379D02*
X108394285Y-122169569D01*
X108394285Y-122169569D02*
X108470475Y-122245760D01*
X108470475Y-122245760D02*
X108584761Y-122283855D01*
X108584761Y-122283855D02*
X108660952Y-122283855D01*
X108660952Y-122283855D02*
X108775237Y-122245760D01*
X108775237Y-122245760D02*
X108813333Y-122207664D01*
X108813333Y-122207664D02*
X108813333Y-121940998D01*
X108813333Y-121940998D02*
X108660952Y-121940998D01*
X101353047Y-133548855D02*
X101848285Y-133548855D01*
X101848285Y-133548855D02*
X101581619Y-133853617D01*
X101581619Y-133853617D02*
X101695904Y-133853617D01*
X101695904Y-133853617D02*
X101772095Y-133891712D01*
X101772095Y-133891712D02*
X101810190Y-133929807D01*
X101810190Y-133929807D02*
X101848285Y-134005998D01*
X101848285Y-134005998D02*
X101848285Y-134196474D01*
X101848285Y-134196474D02*
X101810190Y-134272664D01*
X101810190Y-134272664D02*
X101772095Y-134310760D01*
X101772095Y-134310760D02*
X101695904Y-134348855D01*
X101695904Y-134348855D02*
X101467333Y-134348855D01*
X101467333Y-134348855D02*
X101391142Y-134310760D01*
X101391142Y-134310760D02*
X101353047Y-134272664D01*
X102076857Y-133548855D02*
X102343524Y-134348855D01*
X102343524Y-134348855D02*
X102610190Y-133548855D01*
X102800666Y-133548855D02*
X103295904Y-133548855D01*
X103295904Y-133548855D02*
X103029238Y-133853617D01*
X103029238Y-133853617D02*
X103143523Y-133853617D01*
X103143523Y-133853617D02*
X103219714Y-133891712D01*
X103219714Y-133891712D02*
X103257809Y-133929807D01*
X103257809Y-133929807D02*
X103295904Y-134005998D01*
X103295904Y-134005998D02*
X103295904Y-134196474D01*
X103295904Y-134196474D02*
X103257809Y-134272664D01*
X103257809Y-134272664D02*
X103219714Y-134310760D01*
X103219714Y-134310760D02*
X103143523Y-134348855D01*
X103143523Y-134348855D02*
X102914952Y-134348855D01*
X102914952Y-134348855D02*
X102838761Y-134310760D01*
X102838761Y-134310760D02*
X102800666Y-134272664D01*
X104438762Y-134615521D02*
X104438762Y-133472664D01*
X105619715Y-134348855D02*
X105619715Y-133548855D01*
X105619715Y-133548855D02*
X105810191Y-133548855D01*
X105810191Y-133548855D02*
X105924477Y-133586950D01*
X105924477Y-133586950D02*
X106000667Y-133663140D01*
X106000667Y-133663140D02*
X106038762Y-133739331D01*
X106038762Y-133739331D02*
X106076858Y-133891712D01*
X106076858Y-133891712D02*
X106076858Y-134005998D01*
X106076858Y-134005998D02*
X106038762Y-134158379D01*
X106038762Y-134158379D02*
X106000667Y-134234569D01*
X106000667Y-134234569D02*
X105924477Y-134310760D01*
X105924477Y-134310760D02*
X105810191Y-134348855D01*
X105810191Y-134348855D02*
X105619715Y-134348855D01*
X106381619Y-134120283D02*
X106762572Y-134120283D01*
X106305429Y-134348855D02*
X106572096Y-133548855D01*
X106572096Y-133548855D02*
X106838762Y-134348855D01*
X106991143Y-133548855D02*
X107448286Y-133548855D01*
X107219714Y-134348855D02*
X107219714Y-133548855D01*
X107676857Y-134120283D02*
X108057810Y-134120283D01*
X107600667Y-134348855D02*
X107867334Y-133548855D01*
X107867334Y-133548855D02*
X108134000Y-134348855D01*
X109200667Y-134615521D02*
X109200667Y-133472664D01*
X110800667Y-133586950D02*
X110724477Y-133548855D01*
X110724477Y-133548855D02*
X110610191Y-133548855D01*
X110610191Y-133548855D02*
X110495905Y-133586950D01*
X110495905Y-133586950D02*
X110419715Y-133663140D01*
X110419715Y-133663140D02*
X110381620Y-133739331D01*
X110381620Y-133739331D02*
X110343524Y-133891712D01*
X110343524Y-133891712D02*
X110343524Y-134005998D01*
X110343524Y-134005998D02*
X110381620Y-134158379D01*
X110381620Y-134158379D02*
X110419715Y-134234569D01*
X110419715Y-134234569D02*
X110495905Y-134310760D01*
X110495905Y-134310760D02*
X110610191Y-134348855D01*
X110610191Y-134348855D02*
X110686382Y-134348855D01*
X110686382Y-134348855D02*
X110800667Y-134310760D01*
X110800667Y-134310760D02*
X110838763Y-134272664D01*
X110838763Y-134272664D02*
X110838763Y-134005998D01*
X110838763Y-134005998D02*
X110686382Y-134005998D01*
X111181620Y-134348855D02*
X111181620Y-133548855D01*
X111181620Y-133548855D02*
X111638763Y-134348855D01*
X111638763Y-134348855D02*
X111638763Y-133548855D01*
X112019715Y-134348855D02*
X112019715Y-133548855D01*
X112019715Y-133548855D02*
X112210191Y-133548855D01*
X112210191Y-133548855D02*
X112324477Y-133586950D01*
X112324477Y-133586950D02*
X112400667Y-133663140D01*
X112400667Y-133663140D02*
X112438762Y-133739331D01*
X112438762Y-133739331D02*
X112476858Y-133891712D01*
X112476858Y-133891712D02*
X112476858Y-134005998D01*
X112476858Y-134005998D02*
X112438762Y-134158379D01*
X112438762Y-134158379D02*
X112400667Y-134234569D01*
X112400667Y-134234569D02*
X112324477Y-134310760D01*
X112324477Y-134310760D02*
X112210191Y-134348855D01*
X112210191Y-134348855D02*
X112019715Y-134348855D01*
X122917142Y-121864807D02*
X123031428Y-121902902D01*
X123031428Y-121902902D02*
X123069523Y-121940998D01*
X123069523Y-121940998D02*
X123107619Y-122017188D01*
X123107619Y-122017188D02*
X123107619Y-122131474D01*
X123107619Y-122131474D02*
X123069523Y-122207664D01*
X123069523Y-122207664D02*
X123031428Y-122245760D01*
X123031428Y-122245760D02*
X122955238Y-122283855D01*
X122955238Y-122283855D02*
X122650476Y-122283855D01*
X122650476Y-122283855D02*
X122650476Y-121483855D01*
X122650476Y-121483855D02*
X122917142Y-121483855D01*
X122917142Y-121483855D02*
X122993333Y-121521950D01*
X122993333Y-121521950D02*
X123031428Y-121560045D01*
X123031428Y-121560045D02*
X123069523Y-121636236D01*
X123069523Y-121636236D02*
X123069523Y-121712426D01*
X123069523Y-121712426D02*
X123031428Y-121788617D01*
X123031428Y-121788617D02*
X122993333Y-121826712D01*
X122993333Y-121826712D02*
X122917142Y-121864807D01*
X122917142Y-121864807D02*
X122650476Y-121864807D01*
X123450476Y-121864807D02*
X123717142Y-121864807D01*
X123831428Y-122283855D02*
X123450476Y-122283855D01*
X123450476Y-122283855D02*
X123450476Y-121483855D01*
X123450476Y-121483855D02*
X123831428Y-121483855D01*
X124174286Y-122283855D02*
X124174286Y-121483855D01*
X124174286Y-121483855D02*
X124631429Y-122283855D01*
X124631429Y-122283855D02*
X124631429Y-121483855D01*
X125469524Y-122207664D02*
X125431428Y-122245760D01*
X125431428Y-122245760D02*
X125317143Y-122283855D01*
X125317143Y-122283855D02*
X125240952Y-122283855D01*
X125240952Y-122283855D02*
X125126666Y-122245760D01*
X125126666Y-122245760D02*
X125050476Y-122169569D01*
X125050476Y-122169569D02*
X125012381Y-122093379D01*
X125012381Y-122093379D02*
X124974285Y-121940998D01*
X124974285Y-121940998D02*
X124974285Y-121826712D01*
X124974285Y-121826712D02*
X125012381Y-121674331D01*
X125012381Y-121674331D02*
X125050476Y-121598140D01*
X125050476Y-121598140D02*
X125126666Y-121521950D01*
X125126666Y-121521950D02*
X125240952Y-121483855D01*
X125240952Y-121483855D02*
X125317143Y-121483855D01*
X125317143Y-121483855D02*
X125431428Y-121521950D01*
X125431428Y-121521950D02*
X125469524Y-121560045D01*
X125812381Y-122283855D02*
X125812381Y-121483855D01*
X125812381Y-121864807D02*
X126269524Y-121864807D01*
X126269524Y-122283855D02*
X126269524Y-121483855D01*
X119387047Y-133548855D02*
X119882285Y-133548855D01*
X119882285Y-133548855D02*
X119615619Y-133853617D01*
X119615619Y-133853617D02*
X119729904Y-133853617D01*
X119729904Y-133853617D02*
X119806095Y-133891712D01*
X119806095Y-133891712D02*
X119844190Y-133929807D01*
X119844190Y-133929807D02*
X119882285Y-134005998D01*
X119882285Y-134005998D02*
X119882285Y-134196474D01*
X119882285Y-134196474D02*
X119844190Y-134272664D01*
X119844190Y-134272664D02*
X119806095Y-134310760D01*
X119806095Y-134310760D02*
X119729904Y-134348855D01*
X119729904Y-134348855D02*
X119501333Y-134348855D01*
X119501333Y-134348855D02*
X119425142Y-134310760D01*
X119425142Y-134310760D02*
X119387047Y-134272664D01*
X120110857Y-133548855D02*
X120377524Y-134348855D01*
X120377524Y-134348855D02*
X120644190Y-133548855D01*
X120834666Y-133548855D02*
X121329904Y-133548855D01*
X121329904Y-133548855D02*
X121063238Y-133853617D01*
X121063238Y-133853617D02*
X121177523Y-133853617D01*
X121177523Y-133853617D02*
X121253714Y-133891712D01*
X121253714Y-133891712D02*
X121291809Y-133929807D01*
X121291809Y-133929807D02*
X121329904Y-134005998D01*
X121329904Y-134005998D02*
X121329904Y-134196474D01*
X121329904Y-134196474D02*
X121291809Y-134272664D01*
X121291809Y-134272664D02*
X121253714Y-134310760D01*
X121253714Y-134310760D02*
X121177523Y-134348855D01*
X121177523Y-134348855D02*
X120948952Y-134348855D01*
X120948952Y-134348855D02*
X120872761Y-134310760D01*
X120872761Y-134310760D02*
X120834666Y-134272664D01*
X122472762Y-134615521D02*
X122472762Y-133472664D01*
X123653715Y-134348855D02*
X123653715Y-133548855D01*
X123653715Y-133548855D02*
X123844191Y-133548855D01*
X123844191Y-133548855D02*
X123958477Y-133586950D01*
X123958477Y-133586950D02*
X124034667Y-133663140D01*
X124034667Y-133663140D02*
X124072762Y-133739331D01*
X124072762Y-133739331D02*
X124110858Y-133891712D01*
X124110858Y-133891712D02*
X124110858Y-134005998D01*
X124110858Y-134005998D02*
X124072762Y-134158379D01*
X124072762Y-134158379D02*
X124034667Y-134234569D01*
X124034667Y-134234569D02*
X123958477Y-134310760D01*
X123958477Y-134310760D02*
X123844191Y-134348855D01*
X123844191Y-134348855D02*
X123653715Y-134348855D01*
X124415619Y-134120283D02*
X124796572Y-134120283D01*
X124339429Y-134348855D02*
X124606096Y-133548855D01*
X124606096Y-133548855D02*
X124872762Y-134348855D01*
X125025143Y-133548855D02*
X125482286Y-133548855D01*
X125253714Y-134348855D02*
X125253714Y-133548855D01*
X125710857Y-134120283D02*
X126091810Y-134120283D01*
X125634667Y-134348855D02*
X125901334Y-133548855D01*
X125901334Y-133548855D02*
X126168000Y-134348855D01*
X127234667Y-134615521D02*
X127234667Y-133472664D01*
X128834667Y-133586950D02*
X128758477Y-133548855D01*
X128758477Y-133548855D02*
X128644191Y-133548855D01*
X128644191Y-133548855D02*
X128529905Y-133586950D01*
X128529905Y-133586950D02*
X128453715Y-133663140D01*
X128453715Y-133663140D02*
X128415620Y-133739331D01*
X128415620Y-133739331D02*
X128377524Y-133891712D01*
X128377524Y-133891712D02*
X128377524Y-134005998D01*
X128377524Y-134005998D02*
X128415620Y-134158379D01*
X128415620Y-134158379D02*
X128453715Y-134234569D01*
X128453715Y-134234569D02*
X128529905Y-134310760D01*
X128529905Y-134310760D02*
X128644191Y-134348855D01*
X128644191Y-134348855D02*
X128720382Y-134348855D01*
X128720382Y-134348855D02*
X128834667Y-134310760D01*
X128834667Y-134310760D02*
X128872763Y-134272664D01*
X128872763Y-134272664D02*
X128872763Y-134005998D01*
X128872763Y-134005998D02*
X128720382Y-134005998D01*
X129215620Y-134348855D02*
X129215620Y-133548855D01*
X129215620Y-133548855D02*
X129672763Y-134348855D01*
X129672763Y-134348855D02*
X129672763Y-133548855D01*
X130053715Y-134348855D02*
X130053715Y-133548855D01*
X130053715Y-133548855D02*
X130244191Y-133548855D01*
X130244191Y-133548855D02*
X130358477Y-133586950D01*
X130358477Y-133586950D02*
X130434667Y-133663140D01*
X130434667Y-133663140D02*
X130472762Y-133739331D01*
X130472762Y-133739331D02*
X130510858Y-133891712D01*
X130510858Y-133891712D02*
X130510858Y-134005998D01*
X130510858Y-134005998D02*
X130472762Y-134158379D01*
X130472762Y-134158379D02*
X130434667Y-134234569D01*
X130434667Y-134234569D02*
X130358477Y-134310760D01*
X130358477Y-134310760D02*
X130244191Y-134348855D01*
X130244191Y-134348855D02*
X130053715Y-134348855D01*
X131439048Y-61247664D02*
X131400952Y-61285760D01*
X131400952Y-61285760D02*
X131286667Y-61323855D01*
X131286667Y-61323855D02*
X131210476Y-61323855D01*
X131210476Y-61323855D02*
X131096190Y-61285760D01*
X131096190Y-61285760D02*
X131020000Y-61209569D01*
X131020000Y-61209569D02*
X130981905Y-61133379D01*
X130981905Y-61133379D02*
X130943809Y-60980998D01*
X130943809Y-60980998D02*
X130943809Y-60866712D01*
X130943809Y-60866712D02*
X130981905Y-60714331D01*
X130981905Y-60714331D02*
X131020000Y-60638140D01*
X131020000Y-60638140D02*
X131096190Y-60561950D01*
X131096190Y-60561950D02*
X131210476Y-60523855D01*
X131210476Y-60523855D02*
X131286667Y-60523855D01*
X131286667Y-60523855D02*
X131400952Y-60561950D01*
X131400952Y-60561950D02*
X131439048Y-60600045D01*
X131934286Y-60523855D02*
X132086667Y-60523855D01*
X132086667Y-60523855D02*
X132162857Y-60561950D01*
X132162857Y-60561950D02*
X132239048Y-60638140D01*
X132239048Y-60638140D02*
X132277143Y-60790521D01*
X132277143Y-60790521D02*
X132277143Y-61057188D01*
X132277143Y-61057188D02*
X132239048Y-61209569D01*
X132239048Y-61209569D02*
X132162857Y-61285760D01*
X132162857Y-61285760D02*
X132086667Y-61323855D01*
X132086667Y-61323855D02*
X131934286Y-61323855D01*
X131934286Y-61323855D02*
X131858095Y-61285760D01*
X131858095Y-61285760D02*
X131781905Y-61209569D01*
X131781905Y-61209569D02*
X131743809Y-61057188D01*
X131743809Y-61057188D02*
X131743809Y-60790521D01*
X131743809Y-60790521D02*
X131781905Y-60638140D01*
X131781905Y-60638140D02*
X131858095Y-60561950D01*
X131858095Y-60561950D02*
X131934286Y-60523855D01*
X132620000Y-61323855D02*
X132620000Y-60523855D01*
X133381904Y-61323855D02*
X133000952Y-61323855D01*
X133000952Y-61323855D02*
X133000952Y-60523855D01*
X134219999Y-60485760D02*
X133534285Y-61514331D01*
X134448570Y-61285760D02*
X134562856Y-61323855D01*
X134562856Y-61323855D02*
X134753332Y-61323855D01*
X134753332Y-61323855D02*
X134829523Y-61285760D01*
X134829523Y-61285760D02*
X134867618Y-61247664D01*
X134867618Y-61247664D02*
X134905713Y-61171474D01*
X134905713Y-61171474D02*
X134905713Y-61095283D01*
X134905713Y-61095283D02*
X134867618Y-61019093D01*
X134867618Y-61019093D02*
X134829523Y-60980998D01*
X134829523Y-60980998D02*
X134753332Y-60942902D01*
X134753332Y-60942902D02*
X134600951Y-60904807D01*
X134600951Y-60904807D02*
X134524761Y-60866712D01*
X134524761Y-60866712D02*
X134486666Y-60828617D01*
X134486666Y-60828617D02*
X134448570Y-60752426D01*
X134448570Y-60752426D02*
X134448570Y-60676236D01*
X134448570Y-60676236D02*
X134486666Y-60600045D01*
X134486666Y-60600045D02*
X134524761Y-60561950D01*
X134524761Y-60561950D02*
X134600951Y-60523855D01*
X134600951Y-60523855D02*
X134791428Y-60523855D01*
X134791428Y-60523855D02*
X134905713Y-60561950D01*
X135210475Y-61095283D02*
X135591428Y-61095283D01*
X135134285Y-61323855D02*
X135400952Y-60523855D01*
X135400952Y-60523855D02*
X135667618Y-61323855D01*
X136200951Y-60904807D02*
X135934285Y-60904807D01*
X135934285Y-61323855D02*
X135934285Y-60523855D01*
X135934285Y-60523855D02*
X136315237Y-60523855D01*
X136619999Y-60904807D02*
X136886665Y-60904807D01*
X137000951Y-61323855D02*
X136619999Y-61323855D01*
X136619999Y-61323855D02*
X136619999Y-60523855D01*
X136619999Y-60523855D02*
X137000951Y-60523855D01*
X137229523Y-60523855D02*
X137686666Y-60523855D01*
X137458094Y-61323855D02*
X137458094Y-60523855D01*
X138105714Y-60942902D02*
X138105714Y-61323855D01*
X137839047Y-60523855D02*
X138105714Y-60942902D01*
X138105714Y-60942902D02*
X138372380Y-60523855D01*
X141512381Y-134348855D02*
X141245714Y-133967902D01*
X141055238Y-134348855D02*
X141055238Y-133548855D01*
X141055238Y-133548855D02*
X141360000Y-133548855D01*
X141360000Y-133548855D02*
X141436190Y-133586950D01*
X141436190Y-133586950D02*
X141474285Y-133625045D01*
X141474285Y-133625045D02*
X141512381Y-133701236D01*
X141512381Y-133701236D02*
X141512381Y-133815521D01*
X141512381Y-133815521D02*
X141474285Y-133891712D01*
X141474285Y-133891712D02*
X141436190Y-133929807D01*
X141436190Y-133929807D02*
X141360000Y-133967902D01*
X141360000Y-133967902D02*
X141055238Y-133967902D01*
X141855238Y-134044093D02*
X142464762Y-134044093D01*
X139452858Y-60603687D02*
X139414762Y-60641783D01*
X139414762Y-60641783D02*
X139300477Y-60679878D01*
X139300477Y-60679878D02*
X139224286Y-60679878D01*
X139224286Y-60679878D02*
X139110000Y-60641783D01*
X139110000Y-60641783D02*
X139033810Y-60565592D01*
X139033810Y-60565592D02*
X138995715Y-60489402D01*
X138995715Y-60489402D02*
X138957619Y-60337021D01*
X138957619Y-60337021D02*
X138957619Y-60222735D01*
X138957619Y-60222735D02*
X138995715Y-60070354D01*
X138995715Y-60070354D02*
X139033810Y-59994163D01*
X139033810Y-59994163D02*
X139110000Y-59917973D01*
X139110000Y-59917973D02*
X139224286Y-59879878D01*
X139224286Y-59879878D02*
X139300477Y-59879878D01*
X139300477Y-59879878D02*
X139414762Y-59917973D01*
X139414762Y-59917973D02*
X139452858Y-59956068D01*
X139948096Y-59879878D02*
X140100477Y-59879878D01*
X140100477Y-59879878D02*
X140176667Y-59917973D01*
X140176667Y-59917973D02*
X140252858Y-59994163D01*
X140252858Y-59994163D02*
X140290953Y-60146544D01*
X140290953Y-60146544D02*
X140290953Y-60413211D01*
X140290953Y-60413211D02*
X140252858Y-60565592D01*
X140252858Y-60565592D02*
X140176667Y-60641783D01*
X140176667Y-60641783D02*
X140100477Y-60679878D01*
X140100477Y-60679878D02*
X139948096Y-60679878D01*
X139948096Y-60679878D02*
X139871905Y-60641783D01*
X139871905Y-60641783D02*
X139795715Y-60565592D01*
X139795715Y-60565592D02*
X139757619Y-60413211D01*
X139757619Y-60413211D02*
X139757619Y-60146544D01*
X139757619Y-60146544D02*
X139795715Y-59994163D01*
X139795715Y-59994163D02*
X139871905Y-59917973D01*
X139871905Y-59917973D02*
X139948096Y-59879878D01*
X140633810Y-60679878D02*
X140633810Y-59879878D01*
X141395714Y-60679878D02*
X141014762Y-60679878D01*
X141014762Y-60679878D02*
X141014762Y-59879878D01*
X142538571Y-60260830D02*
X142271905Y-60260830D01*
X142271905Y-60679878D02*
X142271905Y-59879878D01*
X142271905Y-59879878D02*
X142652857Y-59879878D01*
X142957619Y-59879878D02*
X142957619Y-60527497D01*
X142957619Y-60527497D02*
X142995714Y-60603687D01*
X142995714Y-60603687D02*
X143033809Y-60641783D01*
X143033809Y-60641783D02*
X143110000Y-60679878D01*
X143110000Y-60679878D02*
X143262381Y-60679878D01*
X143262381Y-60679878D02*
X143338571Y-60641783D01*
X143338571Y-60641783D02*
X143376666Y-60603687D01*
X143376666Y-60603687D02*
X143414762Y-60527497D01*
X143414762Y-60527497D02*
X143414762Y-59879878D01*
X143757618Y-60641783D02*
X143871904Y-60679878D01*
X143871904Y-60679878D02*
X144062380Y-60679878D01*
X144062380Y-60679878D02*
X144138571Y-60641783D01*
X144138571Y-60641783D02*
X144176666Y-60603687D01*
X144176666Y-60603687D02*
X144214761Y-60527497D01*
X144214761Y-60527497D02*
X144214761Y-60451306D01*
X144214761Y-60451306D02*
X144176666Y-60375116D01*
X144176666Y-60375116D02*
X144138571Y-60337021D01*
X144138571Y-60337021D02*
X144062380Y-60298925D01*
X144062380Y-60298925D02*
X143909999Y-60260830D01*
X143909999Y-60260830D02*
X143833809Y-60222735D01*
X143833809Y-60222735D02*
X143795714Y-60184640D01*
X143795714Y-60184640D02*
X143757618Y-60108449D01*
X143757618Y-60108449D02*
X143757618Y-60032259D01*
X143757618Y-60032259D02*
X143795714Y-59956068D01*
X143795714Y-59956068D02*
X143833809Y-59917973D01*
X143833809Y-59917973D02*
X143909999Y-59879878D01*
X143909999Y-59879878D02*
X144100476Y-59879878D01*
X144100476Y-59879878D02*
X144214761Y-59917973D01*
X144557619Y-60260830D02*
X144824285Y-60260830D01*
X144938571Y-60679878D02*
X144557619Y-60679878D01*
X144557619Y-60679878D02*
X144557619Y-59879878D01*
X144557619Y-59879878D02*
X144938571Y-59879878D01*
X146119524Y-60984640D02*
X146081429Y-60946544D01*
X146081429Y-60946544D02*
X146005238Y-60832259D01*
X146005238Y-60832259D02*
X145967143Y-60756068D01*
X145967143Y-60756068D02*
X145929048Y-60641783D01*
X145929048Y-60641783D02*
X145890953Y-60451306D01*
X145890953Y-60451306D02*
X145890953Y-60298925D01*
X145890953Y-60298925D02*
X145929048Y-60108449D01*
X145929048Y-60108449D02*
X145967143Y-59994163D01*
X145967143Y-59994163D02*
X146005238Y-59917973D01*
X146005238Y-59917973D02*
X146081429Y-59803687D01*
X146081429Y-59803687D02*
X146119524Y-59765592D01*
X146843333Y-60679878D02*
X146386190Y-60679878D01*
X146614762Y-60679878D02*
X146614762Y-59879878D01*
X146614762Y-59879878D02*
X146538571Y-59994163D01*
X146538571Y-59994163D02*
X146462381Y-60070354D01*
X146462381Y-60070354D02*
X146386190Y-60108449D01*
X147148095Y-60451306D02*
X147529048Y-60451306D01*
X147071905Y-60679878D02*
X147338572Y-59879878D01*
X147338572Y-59879878D02*
X147605238Y-60679878D01*
X147795714Y-60984640D02*
X147833809Y-60946544D01*
X147833809Y-60946544D02*
X147910000Y-60832259D01*
X147910000Y-60832259D02*
X147948095Y-60756068D01*
X147948095Y-60756068D02*
X147986190Y-60641783D01*
X147986190Y-60641783D02*
X148024286Y-60451306D01*
X148024286Y-60451306D02*
X148024286Y-60298925D01*
X148024286Y-60298925D02*
X147986190Y-60108449D01*
X147986190Y-60108449D02*
X147948095Y-59994163D01*
X147948095Y-59994163D02*
X147910000Y-59917973D01*
X147910000Y-59917973D02*
X147833809Y-59803687D01*
X147833809Y-59803687D02*
X147795714Y-59765592D01*
X140443333Y-62272595D02*
X140405238Y-62234499D01*
X140405238Y-62234499D02*
X140329047Y-62120214D01*
X140329047Y-62120214D02*
X140290952Y-62044023D01*
X140290952Y-62044023D02*
X140252857Y-61929738D01*
X140252857Y-61929738D02*
X140214762Y-61739261D01*
X140214762Y-61739261D02*
X140214762Y-61586880D01*
X140214762Y-61586880D02*
X140252857Y-61396404D01*
X140252857Y-61396404D02*
X140290952Y-61282118D01*
X140290952Y-61282118D02*
X140329047Y-61205928D01*
X140329047Y-61205928D02*
X140405238Y-61091642D01*
X140405238Y-61091642D02*
X140443333Y-61053547D01*
X141014761Y-61548785D02*
X140748095Y-61548785D01*
X140748095Y-61967833D02*
X140748095Y-61167833D01*
X140748095Y-61167833D02*
X141129047Y-61167833D01*
X141776666Y-61967833D02*
X141776666Y-61548785D01*
X141776666Y-61548785D02*
X141738571Y-61472595D01*
X141738571Y-61472595D02*
X141662380Y-61434499D01*
X141662380Y-61434499D02*
X141509999Y-61434499D01*
X141509999Y-61434499D02*
X141433809Y-61472595D01*
X141776666Y-61929738D02*
X141700475Y-61967833D01*
X141700475Y-61967833D02*
X141509999Y-61967833D01*
X141509999Y-61967833D02*
X141433809Y-61929738D01*
X141433809Y-61929738D02*
X141395713Y-61853547D01*
X141395713Y-61853547D02*
X141395713Y-61777357D01*
X141395713Y-61777357D02*
X141433809Y-61701166D01*
X141433809Y-61701166D02*
X141509999Y-61663071D01*
X141509999Y-61663071D02*
X141700475Y-61663071D01*
X141700475Y-61663071D02*
X141776666Y-61624976D01*
X142119523Y-61929738D02*
X142195714Y-61967833D01*
X142195714Y-61967833D02*
X142348095Y-61967833D01*
X142348095Y-61967833D02*
X142424285Y-61929738D01*
X142424285Y-61929738D02*
X142462381Y-61853547D01*
X142462381Y-61853547D02*
X142462381Y-61815452D01*
X142462381Y-61815452D02*
X142424285Y-61739261D01*
X142424285Y-61739261D02*
X142348095Y-61701166D01*
X142348095Y-61701166D02*
X142233809Y-61701166D01*
X142233809Y-61701166D02*
X142157619Y-61663071D01*
X142157619Y-61663071D02*
X142119523Y-61586880D01*
X142119523Y-61586880D02*
X142119523Y-61548785D01*
X142119523Y-61548785D02*
X142157619Y-61472595D01*
X142157619Y-61472595D02*
X142233809Y-61434499D01*
X142233809Y-61434499D02*
X142348095Y-61434499D01*
X142348095Y-61434499D02*
X142424285Y-61472595D01*
X142690952Y-61434499D02*
X142995714Y-61434499D01*
X142805238Y-61167833D02*
X142805238Y-61853547D01*
X142805238Y-61853547D02*
X142843333Y-61929738D01*
X142843333Y-61929738D02*
X142919523Y-61967833D01*
X142919523Y-61967833D02*
X142995714Y-61967833D01*
X144138571Y-61548785D02*
X144252857Y-61586880D01*
X144252857Y-61586880D02*
X144290952Y-61624976D01*
X144290952Y-61624976D02*
X144329048Y-61701166D01*
X144329048Y-61701166D02*
X144329048Y-61815452D01*
X144329048Y-61815452D02*
X144290952Y-61891642D01*
X144290952Y-61891642D02*
X144252857Y-61929738D01*
X144252857Y-61929738D02*
X144176667Y-61967833D01*
X144176667Y-61967833D02*
X143871905Y-61967833D01*
X143871905Y-61967833D02*
X143871905Y-61167833D01*
X143871905Y-61167833D02*
X144138571Y-61167833D01*
X144138571Y-61167833D02*
X144214762Y-61205928D01*
X144214762Y-61205928D02*
X144252857Y-61244023D01*
X144252857Y-61244023D02*
X144290952Y-61320214D01*
X144290952Y-61320214D02*
X144290952Y-61396404D01*
X144290952Y-61396404D02*
X144252857Y-61472595D01*
X144252857Y-61472595D02*
X144214762Y-61510690D01*
X144214762Y-61510690D02*
X144138571Y-61548785D01*
X144138571Y-61548785D02*
X143871905Y-61548785D01*
X144786190Y-61967833D02*
X144710000Y-61929738D01*
X144710000Y-61929738D02*
X144671905Y-61853547D01*
X144671905Y-61853547D02*
X144671905Y-61167833D01*
X145205238Y-61967833D02*
X145129048Y-61929738D01*
X145129048Y-61929738D02*
X145090953Y-61891642D01*
X145090953Y-61891642D02*
X145052857Y-61815452D01*
X145052857Y-61815452D02*
X145052857Y-61586880D01*
X145052857Y-61586880D02*
X145090953Y-61510690D01*
X145090953Y-61510690D02*
X145129048Y-61472595D01*
X145129048Y-61472595D02*
X145205238Y-61434499D01*
X145205238Y-61434499D02*
X145319524Y-61434499D01*
X145319524Y-61434499D02*
X145395715Y-61472595D01*
X145395715Y-61472595D02*
X145433810Y-61510690D01*
X145433810Y-61510690D02*
X145471905Y-61586880D01*
X145471905Y-61586880D02*
X145471905Y-61815452D01*
X145471905Y-61815452D02*
X145433810Y-61891642D01*
X145433810Y-61891642D02*
X145395715Y-61929738D01*
X145395715Y-61929738D02*
X145319524Y-61967833D01*
X145319524Y-61967833D02*
X145205238Y-61967833D01*
X145738572Y-61434499D02*
X145890953Y-61967833D01*
X145890953Y-61967833D02*
X146043334Y-61586880D01*
X146043334Y-61586880D02*
X146195715Y-61967833D01*
X146195715Y-61967833D02*
X146348096Y-61434499D01*
X146576667Y-62272595D02*
X146614762Y-62234499D01*
X146614762Y-62234499D02*
X146690953Y-62120214D01*
X146690953Y-62120214D02*
X146729048Y-62044023D01*
X146729048Y-62044023D02*
X146767143Y-61929738D01*
X146767143Y-61929738D02*
X146805239Y-61739261D01*
X146805239Y-61739261D02*
X146805239Y-61586880D01*
X146805239Y-61586880D02*
X146767143Y-61396404D01*
X146767143Y-61396404D02*
X146729048Y-61282118D01*
X146729048Y-61282118D02*
X146690953Y-61205928D01*
X146690953Y-61205928D02*
X146614762Y-61091642D01*
X146614762Y-61091642D02*
X146576667Y-61053547D01*
X146554285Y-133586950D02*
X146478095Y-133548855D01*
X146478095Y-133548855D02*
X146363809Y-133548855D01*
X146363809Y-133548855D02*
X146249523Y-133586950D01*
X146249523Y-133586950D02*
X146173333Y-133663140D01*
X146173333Y-133663140D02*
X146135238Y-133739331D01*
X146135238Y-133739331D02*
X146097142Y-133891712D01*
X146097142Y-133891712D02*
X146097142Y-134005998D01*
X146097142Y-134005998D02*
X146135238Y-134158379D01*
X146135238Y-134158379D02*
X146173333Y-134234569D01*
X146173333Y-134234569D02*
X146249523Y-134310760D01*
X146249523Y-134310760D02*
X146363809Y-134348855D01*
X146363809Y-134348855D02*
X146440000Y-134348855D01*
X146440000Y-134348855D02*
X146554285Y-134310760D01*
X146554285Y-134310760D02*
X146592381Y-134272664D01*
X146592381Y-134272664D02*
X146592381Y-134005998D01*
X146592381Y-134005998D02*
X146440000Y-134005998D01*
X146935238Y-134044093D02*
X147544762Y-134044093D01*
X151481904Y-133929807D02*
X151596190Y-133967902D01*
X151596190Y-133967902D02*
X151634285Y-134005998D01*
X151634285Y-134005998D02*
X151672381Y-134082188D01*
X151672381Y-134082188D02*
X151672381Y-134196474D01*
X151672381Y-134196474D02*
X151634285Y-134272664D01*
X151634285Y-134272664D02*
X151596190Y-134310760D01*
X151596190Y-134310760D02*
X151520000Y-134348855D01*
X151520000Y-134348855D02*
X151215238Y-134348855D01*
X151215238Y-134348855D02*
X151215238Y-133548855D01*
X151215238Y-133548855D02*
X151481904Y-133548855D01*
X151481904Y-133548855D02*
X151558095Y-133586950D01*
X151558095Y-133586950D02*
X151596190Y-133625045D01*
X151596190Y-133625045D02*
X151634285Y-133701236D01*
X151634285Y-133701236D02*
X151634285Y-133777426D01*
X151634285Y-133777426D02*
X151596190Y-133853617D01*
X151596190Y-133853617D02*
X151558095Y-133891712D01*
X151558095Y-133891712D02*
X151481904Y-133929807D01*
X151481904Y-133929807D02*
X151215238Y-133929807D01*
X152015238Y-134044093D02*
X152624762Y-134044093D01*
X156161904Y-133548855D02*
X156352380Y-134348855D01*
X156352380Y-134348855D02*
X156504761Y-133777426D01*
X156504761Y-133777426D02*
X156657142Y-134348855D01*
X156657142Y-134348855D02*
X156847619Y-133548855D01*
X157152381Y-134044093D02*
X157761905Y-134044093D01*
X160632380Y-133625045D02*
X160670476Y-133586950D01*
X160670476Y-133586950D02*
X160746666Y-133548855D01*
X160746666Y-133548855D02*
X160937142Y-133548855D01*
X160937142Y-133548855D02*
X161013333Y-133586950D01*
X161013333Y-133586950D02*
X161051428Y-133625045D01*
X161051428Y-133625045D02*
X161089523Y-133701236D01*
X161089523Y-133701236D02*
X161089523Y-133777426D01*
X161089523Y-133777426D02*
X161051428Y-133891712D01*
X161051428Y-133891712D02*
X160594285Y-134348855D01*
X160594285Y-134348855D02*
X161089523Y-134348855D01*
X161775238Y-133815521D02*
X161775238Y-134348855D01*
X161584762Y-133510760D02*
X161394285Y-134082188D01*
X161394285Y-134082188D02*
X161889524Y-134082188D01*
X162080000Y-133548855D02*
X162346667Y-134348855D01*
X162346667Y-134348855D02*
X162613333Y-133548855D01*
X162880000Y-134044093D02*
X163489524Y-134044093D01*
X163184762Y-134348855D02*
X163184762Y-133739331D01*
X179433855Y-113105714D02*
X179433855Y-113486666D01*
X179433855Y-113486666D02*
X178633855Y-113486666D01*
X179014807Y-112839047D02*
X179014807Y-112572381D01*
X179433855Y-112458095D02*
X179433855Y-112839047D01*
X179433855Y-112839047D02*
X178633855Y-112839047D01*
X178633855Y-112839047D02*
X178633855Y-112458095D01*
X179433855Y-112115237D02*
X178633855Y-112115237D01*
X178633855Y-112115237D02*
X178633855Y-111924761D01*
X178633855Y-111924761D02*
X178671950Y-111810475D01*
X178671950Y-111810475D02*
X178748140Y-111734285D01*
X178748140Y-111734285D02*
X178824331Y-111696190D01*
X178824331Y-111696190D02*
X178976712Y-111658094D01*
X178976712Y-111658094D02*
X179090998Y-111658094D01*
X179090998Y-111658094D02*
X179243379Y-111696190D01*
X179243379Y-111696190D02*
X179319569Y-111734285D01*
X179319569Y-111734285D02*
X179395760Y-111810475D01*
X179395760Y-111810475D02*
X179433855Y-111924761D01*
X179433855Y-111924761D02*
X179433855Y-112115237D01*
X179014807Y-110439047D02*
X179014807Y-110705713D01*
X179433855Y-110705713D02*
X178633855Y-110705713D01*
X178633855Y-110705713D02*
X178633855Y-110324761D01*
X178633855Y-110019999D02*
X179281474Y-110019999D01*
X179281474Y-110019999D02*
X179357664Y-109981904D01*
X179357664Y-109981904D02*
X179395760Y-109943809D01*
X179395760Y-109943809D02*
X179433855Y-109867618D01*
X179433855Y-109867618D02*
X179433855Y-109715237D01*
X179433855Y-109715237D02*
X179395760Y-109639047D01*
X179395760Y-109639047D02*
X179357664Y-109600952D01*
X179357664Y-109600952D02*
X179281474Y-109562856D01*
X179281474Y-109562856D02*
X178633855Y-109562856D01*
X179395760Y-109220000D02*
X179433855Y-109105714D01*
X179433855Y-109105714D02*
X179433855Y-108915238D01*
X179433855Y-108915238D02*
X179395760Y-108839047D01*
X179395760Y-108839047D02*
X179357664Y-108800952D01*
X179357664Y-108800952D02*
X179281474Y-108762857D01*
X179281474Y-108762857D02*
X179205283Y-108762857D01*
X179205283Y-108762857D02*
X179129093Y-108800952D01*
X179129093Y-108800952D02*
X179090998Y-108839047D01*
X179090998Y-108839047D02*
X179052902Y-108915238D01*
X179052902Y-108915238D02*
X179014807Y-109067619D01*
X179014807Y-109067619D02*
X178976712Y-109143809D01*
X178976712Y-109143809D02*
X178938617Y-109181904D01*
X178938617Y-109181904D02*
X178862426Y-109220000D01*
X178862426Y-109220000D02*
X178786236Y-109220000D01*
X178786236Y-109220000D02*
X178710045Y-109181904D01*
X178710045Y-109181904D02*
X178671950Y-109143809D01*
X178671950Y-109143809D02*
X178633855Y-109067619D01*
X178633855Y-109067619D02*
X178633855Y-108877142D01*
X178633855Y-108877142D02*
X178671950Y-108762857D01*
X179014807Y-108419999D02*
X179014807Y-108153333D01*
X179433855Y-108039047D02*
X179433855Y-108419999D01*
X179433855Y-108419999D02*
X178633855Y-108419999D01*
X178633855Y-108419999D02*
X178633855Y-108039047D01*
X179738617Y-106858094D02*
X179700521Y-106896189D01*
X179700521Y-106896189D02*
X179586236Y-106972380D01*
X179586236Y-106972380D02*
X179510045Y-107010475D01*
X179510045Y-107010475D02*
X179395760Y-107048570D01*
X179395760Y-107048570D02*
X179205283Y-107086665D01*
X179205283Y-107086665D02*
X179052902Y-107086665D01*
X179052902Y-107086665D02*
X178862426Y-107048570D01*
X178862426Y-107048570D02*
X178748140Y-107010475D01*
X178748140Y-107010475D02*
X178671950Y-106972380D01*
X178671950Y-106972380D02*
X178557664Y-106896189D01*
X178557664Y-106896189D02*
X178519569Y-106858094D01*
X178633855Y-106172380D02*
X178633855Y-106553332D01*
X178633855Y-106553332D02*
X179014807Y-106591428D01*
X179014807Y-106591428D02*
X178976712Y-106553332D01*
X178976712Y-106553332D02*
X178938617Y-106477142D01*
X178938617Y-106477142D02*
X178938617Y-106286666D01*
X178938617Y-106286666D02*
X178976712Y-106210475D01*
X178976712Y-106210475D02*
X179014807Y-106172380D01*
X179014807Y-106172380D02*
X179090998Y-106134285D01*
X179090998Y-106134285D02*
X179281474Y-106134285D01*
X179281474Y-106134285D02*
X179357664Y-106172380D01*
X179357664Y-106172380D02*
X179395760Y-106210475D01*
X179395760Y-106210475D02*
X179433855Y-106286666D01*
X179433855Y-106286666D02*
X179433855Y-106477142D01*
X179433855Y-106477142D02*
X179395760Y-106553332D01*
X179395760Y-106553332D02*
X179357664Y-106591428D01*
X179205283Y-105829523D02*
X179205283Y-105448570D01*
X179433855Y-105905713D02*
X178633855Y-105639046D01*
X178633855Y-105639046D02*
X179433855Y-105372380D01*
X179738617Y-105181904D02*
X179700521Y-105143809D01*
X179700521Y-105143809D02*
X179586236Y-105067618D01*
X179586236Y-105067618D02*
X179510045Y-105029523D01*
X179510045Y-105029523D02*
X179395760Y-104991428D01*
X179395760Y-104991428D02*
X179205283Y-104953332D01*
X179205283Y-104953332D02*
X179052902Y-104953332D01*
X179052902Y-104953332D02*
X178862426Y-104991428D01*
X178862426Y-104991428D02*
X178748140Y-105029523D01*
X178748140Y-105029523D02*
X178671950Y-105067618D01*
X178671950Y-105067618D02*
X178557664Y-105143809D01*
X178557664Y-105143809D02*
X178519569Y-105181904D01*
X178760855Y-77850951D02*
X178760855Y-77774761D01*
X178760855Y-77774761D02*
X178798950Y-77698570D01*
X178798950Y-77698570D02*
X178837045Y-77660475D01*
X178837045Y-77660475D02*
X178913236Y-77622380D01*
X178913236Y-77622380D02*
X179065617Y-77584285D01*
X179065617Y-77584285D02*
X179256093Y-77584285D01*
X179256093Y-77584285D02*
X179408474Y-77622380D01*
X179408474Y-77622380D02*
X179484664Y-77660475D01*
X179484664Y-77660475D02*
X179522760Y-77698570D01*
X179522760Y-77698570D02*
X179560855Y-77774761D01*
X179560855Y-77774761D02*
X179560855Y-77850951D01*
X179560855Y-77850951D02*
X179522760Y-77927142D01*
X179522760Y-77927142D02*
X179484664Y-77965237D01*
X179484664Y-77965237D02*
X179408474Y-78003332D01*
X179408474Y-78003332D02*
X179256093Y-78041428D01*
X179256093Y-78041428D02*
X179065617Y-78041428D01*
X179065617Y-78041428D02*
X178913236Y-78003332D01*
X178913236Y-78003332D02*
X178837045Y-77965237D01*
X178837045Y-77965237D02*
X178798950Y-77927142D01*
X178798950Y-77927142D02*
X178760855Y-77850951D01*
X178760855Y-77355713D02*
X179560855Y-77089046D01*
X179560855Y-77089046D02*
X178760855Y-76822380D01*
X179256093Y-84873808D02*
X179256093Y-84264285D01*
X179560855Y-84569046D02*
X178951331Y-84569046D01*
X178837045Y-83921428D02*
X178798950Y-83883332D01*
X178798950Y-83883332D02*
X178760855Y-83807142D01*
X178760855Y-83807142D02*
X178760855Y-83616666D01*
X178760855Y-83616666D02*
X178798950Y-83540475D01*
X178798950Y-83540475D02*
X178837045Y-83502380D01*
X178837045Y-83502380D02*
X178913236Y-83464285D01*
X178913236Y-83464285D02*
X178989426Y-83464285D01*
X178989426Y-83464285D02*
X179103712Y-83502380D01*
X179103712Y-83502380D02*
X179560855Y-83959523D01*
X179560855Y-83959523D02*
X179560855Y-83464285D01*
X179027521Y-82778570D02*
X179560855Y-82778570D01*
X178722760Y-82969046D02*
X179294188Y-83159523D01*
X179294188Y-83159523D02*
X179294188Y-82664284D01*
X178760855Y-82473808D02*
X179560855Y-82207141D01*
X179560855Y-82207141D02*
X178760855Y-81940475D01*
X179560855Y-81064284D02*
X178760855Y-81064284D01*
X179560855Y-80683332D02*
X178760855Y-80683332D01*
X178760855Y-80683332D02*
X179560855Y-80226189D01*
X179560855Y-80226189D02*
X178760855Y-80226189D01*
D11*
X67651571Y-122247819D02*
X67651571Y-121247819D01*
X67651571Y-121247819D02*
X68032523Y-121247819D01*
X68032523Y-121247819D02*
X68127761Y-121295438D01*
X68127761Y-121295438D02*
X68175380Y-121343057D01*
X68175380Y-121343057D02*
X68222999Y-121438295D01*
X68222999Y-121438295D02*
X68222999Y-121581152D01*
X68222999Y-121581152D02*
X68175380Y-121676390D01*
X68175380Y-121676390D02*
X68127761Y-121724009D01*
X68127761Y-121724009D02*
X68032523Y-121771628D01*
X68032523Y-121771628D02*
X67651571Y-121771628D01*
X68603952Y-121962104D02*
X69080142Y-121962104D01*
X68508714Y-122247819D02*
X68842047Y-121247819D01*
X68842047Y-121247819D02*
X69175380Y-122247819D01*
X69508714Y-122247819D02*
X69508714Y-121247819D01*
X69508714Y-121247819D02*
X70080142Y-122247819D01*
X70080142Y-122247819D02*
X70080142Y-121247819D01*
X70556333Y-121724009D02*
X70889666Y-121724009D01*
X71032523Y-122247819D02*
X70556333Y-122247819D01*
X70556333Y-122247819D02*
X70556333Y-121247819D01*
X70556333Y-121247819D02*
X71032523Y-121247819D01*
X71937285Y-122247819D02*
X71461095Y-122247819D01*
X71461095Y-122247819D02*
X71461095Y-121247819D01*
X70557142Y-67241009D02*
X70890475Y-67241009D01*
X71033332Y-67764819D02*
X70557142Y-67764819D01*
X70557142Y-67764819D02*
X70557142Y-66764819D01*
X70557142Y-66764819D02*
X71033332Y-66764819D01*
X71414285Y-67717200D02*
X71557142Y-67764819D01*
X71557142Y-67764819D02*
X71795237Y-67764819D01*
X71795237Y-67764819D02*
X71890475Y-67717200D01*
X71890475Y-67717200D02*
X71938094Y-67669580D01*
X71938094Y-67669580D02*
X71985713Y-67574342D01*
X71985713Y-67574342D02*
X71985713Y-67479104D01*
X71985713Y-67479104D02*
X71938094Y-67383866D01*
X71938094Y-67383866D02*
X71890475Y-67336247D01*
X71890475Y-67336247D02*
X71795237Y-67288628D01*
X71795237Y-67288628D02*
X71604761Y-67241009D01*
X71604761Y-67241009D02*
X71509523Y-67193390D01*
X71509523Y-67193390D02*
X71461904Y-67145771D01*
X71461904Y-67145771D02*
X71414285Y-67050533D01*
X71414285Y-67050533D02*
X71414285Y-66955295D01*
X71414285Y-66955295D02*
X71461904Y-66860057D01*
X71461904Y-66860057D02*
X71509523Y-66812438D01*
X71509523Y-66812438D02*
X71604761Y-66764819D01*
X71604761Y-66764819D02*
X71842856Y-66764819D01*
X71842856Y-66764819D02*
X71985713Y-66812438D01*
X72414285Y-67764819D02*
X72414285Y-66764819D01*
X72414285Y-66764819D02*
X72795237Y-66764819D01*
X72795237Y-66764819D02*
X72890475Y-66812438D01*
X72890475Y-66812438D02*
X72938094Y-66860057D01*
X72938094Y-66860057D02*
X72985713Y-66955295D01*
X72985713Y-66955295D02*
X72985713Y-67098152D01*
X72985713Y-67098152D02*
X72938094Y-67193390D01*
X72938094Y-67193390D02*
X72890475Y-67241009D01*
X72890475Y-67241009D02*
X72795237Y-67288628D01*
X72795237Y-67288628D02*
X72414285Y-67288628D01*
X73319047Y-66764819D02*
X73938094Y-66764819D01*
X73938094Y-66764819D02*
X73604761Y-67145771D01*
X73604761Y-67145771D02*
X73747618Y-67145771D01*
X73747618Y-67145771D02*
X73842856Y-67193390D01*
X73842856Y-67193390D02*
X73890475Y-67241009D01*
X73890475Y-67241009D02*
X73938094Y-67336247D01*
X73938094Y-67336247D02*
X73938094Y-67574342D01*
X73938094Y-67574342D02*
X73890475Y-67669580D01*
X73890475Y-67669580D02*
X73842856Y-67717200D01*
X73842856Y-67717200D02*
X73747618Y-67764819D01*
X73747618Y-67764819D02*
X73461904Y-67764819D01*
X73461904Y-67764819D02*
X73366666Y-67717200D01*
X73366666Y-67717200D02*
X73319047Y-67669580D01*
X74319047Y-66860057D02*
X74366666Y-66812438D01*
X74366666Y-66812438D02*
X74461904Y-66764819D01*
X74461904Y-66764819D02*
X74699999Y-66764819D01*
X74699999Y-66764819D02*
X74795237Y-66812438D01*
X74795237Y-66812438D02*
X74842856Y-66860057D01*
X74842856Y-66860057D02*
X74890475Y-66955295D01*
X74890475Y-66955295D02*
X74890475Y-67050533D01*
X74890475Y-67050533D02*
X74842856Y-67193390D01*
X74842856Y-67193390D02*
X74271428Y-67764819D01*
X74271428Y-67764819D02*
X74890475Y-67764819D01*
X76080952Y-67764819D02*
X76080952Y-66764819D01*
X76080952Y-66764819D02*
X76319047Y-66764819D01*
X76319047Y-66764819D02*
X76461904Y-66812438D01*
X76461904Y-66812438D02*
X76557142Y-66907676D01*
X76557142Y-66907676D02*
X76604761Y-67002914D01*
X76604761Y-67002914D02*
X76652380Y-67193390D01*
X76652380Y-67193390D02*
X76652380Y-67336247D01*
X76652380Y-67336247D02*
X76604761Y-67526723D01*
X76604761Y-67526723D02*
X76557142Y-67621961D01*
X76557142Y-67621961D02*
X76461904Y-67717200D01*
X76461904Y-67717200D02*
X76319047Y-67764819D01*
X76319047Y-67764819D02*
X76080952Y-67764819D01*
X77461904Y-67717200D02*
X77366666Y-67764819D01*
X77366666Y-67764819D02*
X77176190Y-67764819D01*
X77176190Y-67764819D02*
X77080952Y-67717200D01*
X77080952Y-67717200D02*
X77033333Y-67621961D01*
X77033333Y-67621961D02*
X77033333Y-67241009D01*
X77033333Y-67241009D02*
X77080952Y-67145771D01*
X77080952Y-67145771D02*
X77176190Y-67098152D01*
X77176190Y-67098152D02*
X77366666Y-67098152D01*
X77366666Y-67098152D02*
X77461904Y-67145771D01*
X77461904Y-67145771D02*
X77509523Y-67241009D01*
X77509523Y-67241009D02*
X77509523Y-67336247D01*
X77509523Y-67336247D02*
X77033333Y-67431485D01*
X77842857Y-67098152D02*
X78080952Y-67764819D01*
X78080952Y-67764819D02*
X78319047Y-67098152D01*
X78700000Y-67764819D02*
X78700000Y-66764819D01*
X78795238Y-67383866D02*
X79080952Y-67764819D01*
X79080952Y-67098152D02*
X78700000Y-67479104D01*
X79509524Y-67764819D02*
X79509524Y-67098152D01*
X79509524Y-66764819D02*
X79461905Y-66812438D01*
X79461905Y-66812438D02*
X79509524Y-66860057D01*
X79509524Y-66860057D02*
X79557143Y-66812438D01*
X79557143Y-66812438D02*
X79509524Y-66764819D01*
X79509524Y-66764819D02*
X79509524Y-66860057D01*
X79842857Y-67098152D02*
X80223809Y-67098152D01*
X79985714Y-66764819D02*
X79985714Y-67621961D01*
X79985714Y-67621961D02*
X80033333Y-67717200D01*
X80033333Y-67717200D02*
X80128571Y-67764819D01*
X80128571Y-67764819D02*
X80223809Y-67764819D01*
X81890476Y-67669580D02*
X81842857Y-67717200D01*
X81842857Y-67717200D02*
X81700000Y-67764819D01*
X81700000Y-67764819D02*
X81604762Y-67764819D01*
X81604762Y-67764819D02*
X81461905Y-67717200D01*
X81461905Y-67717200D02*
X81366667Y-67621961D01*
X81366667Y-67621961D02*
X81319048Y-67526723D01*
X81319048Y-67526723D02*
X81271429Y-67336247D01*
X81271429Y-67336247D02*
X81271429Y-67193390D01*
X81271429Y-67193390D02*
X81319048Y-67002914D01*
X81319048Y-67002914D02*
X81366667Y-66907676D01*
X81366667Y-66907676D02*
X81461905Y-66812438D01*
X81461905Y-66812438D02*
X81604762Y-66764819D01*
X81604762Y-66764819D02*
X81700000Y-66764819D01*
X81700000Y-66764819D02*
X81842857Y-66812438D01*
X81842857Y-66812438D02*
X81890476Y-66860057D01*
X101016667Y-103324819D02*
X101016667Y-102324819D01*
X101016667Y-102324819D02*
X101397619Y-102324819D01*
X101397619Y-102324819D02*
X101492857Y-102372438D01*
X101492857Y-102372438D02*
X101540476Y-102420057D01*
X101540476Y-102420057D02*
X101588095Y-102515295D01*
X101588095Y-102515295D02*
X101588095Y-102658152D01*
X101588095Y-102658152D02*
X101540476Y-102753390D01*
X101540476Y-102753390D02*
X101492857Y-102801009D01*
X101492857Y-102801009D02*
X101397619Y-102848628D01*
X101397619Y-102848628D02*
X101016667Y-102848628D01*
X101921429Y-102324819D02*
X102159524Y-103324819D01*
X102159524Y-103324819D02*
X102350000Y-102610533D01*
X102350000Y-102610533D02*
X102540476Y-103324819D01*
X102540476Y-103324819D02*
X102778572Y-102324819D01*
X103730952Y-103324819D02*
X103397619Y-102848628D01*
X103159524Y-103324819D02*
X103159524Y-102324819D01*
X103159524Y-102324819D02*
X103540476Y-102324819D01*
X103540476Y-102324819D02*
X103635714Y-102372438D01*
X103635714Y-102372438D02*
X103683333Y-102420057D01*
X103683333Y-102420057D02*
X103730952Y-102515295D01*
X103730952Y-102515295D02*
X103730952Y-102658152D01*
X103730952Y-102658152D02*
X103683333Y-102753390D01*
X103683333Y-102753390D02*
X103635714Y-102801009D01*
X103635714Y-102801009D02*
X103540476Y-102848628D01*
X103540476Y-102848628D02*
X103159524Y-102848628D01*
X106521429Y-89288152D02*
X106759524Y-89954819D01*
X106759524Y-89954819D02*
X106997619Y-89288152D01*
X107902381Y-89954819D02*
X107330953Y-89954819D01*
X107616667Y-89954819D02*
X107616667Y-88954819D01*
X107616667Y-88954819D02*
X107521429Y-89097676D01*
X107521429Y-89097676D02*
X107426191Y-89192914D01*
X107426191Y-89192914D02*
X107330953Y-89240533D01*
X108330953Y-89859580D02*
X108378572Y-89907200D01*
X108378572Y-89907200D02*
X108330953Y-89954819D01*
X108330953Y-89954819D02*
X108283334Y-89907200D01*
X108283334Y-89907200D02*
X108330953Y-89859580D01*
X108330953Y-89859580D02*
X108330953Y-89954819D01*
X108997619Y-88954819D02*
X109092857Y-88954819D01*
X109092857Y-88954819D02*
X109188095Y-89002438D01*
X109188095Y-89002438D02*
X109235714Y-89050057D01*
X109235714Y-89050057D02*
X109283333Y-89145295D01*
X109283333Y-89145295D02*
X109330952Y-89335771D01*
X109330952Y-89335771D02*
X109330952Y-89573866D01*
X109330952Y-89573866D02*
X109283333Y-89764342D01*
X109283333Y-89764342D02*
X109235714Y-89859580D01*
X109235714Y-89859580D02*
X109188095Y-89907200D01*
X109188095Y-89907200D02*
X109092857Y-89954819D01*
X109092857Y-89954819D02*
X108997619Y-89954819D01*
X108997619Y-89954819D02*
X108902381Y-89907200D01*
X108902381Y-89907200D02*
X108854762Y-89859580D01*
X108854762Y-89859580D02*
X108807143Y-89764342D01*
X108807143Y-89764342D02*
X108759524Y-89573866D01*
X108759524Y-89573866D02*
X108759524Y-89335771D01*
X108759524Y-89335771D02*
X108807143Y-89145295D01*
X108807143Y-89145295D02*
X108854762Y-89050057D01*
X108854762Y-89050057D02*
X108902381Y-89002438D01*
X108902381Y-89002438D02*
X108997619Y-88954819D01*
X104497619Y-92454819D02*
X104497619Y-91454819D01*
X104497619Y-91454819D02*
X104830952Y-92169104D01*
X104830952Y-92169104D02*
X105164285Y-91454819D01*
X105164285Y-91454819D02*
X105164285Y-92454819D01*
X106069047Y-92454819D02*
X106069047Y-91931009D01*
X106069047Y-91931009D02*
X106021428Y-91835771D01*
X106021428Y-91835771D02*
X105926190Y-91788152D01*
X105926190Y-91788152D02*
X105735714Y-91788152D01*
X105735714Y-91788152D02*
X105640476Y-91835771D01*
X106069047Y-92407200D02*
X105973809Y-92454819D01*
X105973809Y-92454819D02*
X105735714Y-92454819D01*
X105735714Y-92454819D02*
X105640476Y-92407200D01*
X105640476Y-92407200D02*
X105592857Y-92311961D01*
X105592857Y-92311961D02*
X105592857Y-92216723D01*
X105592857Y-92216723D02*
X105640476Y-92121485D01*
X105640476Y-92121485D02*
X105735714Y-92073866D01*
X105735714Y-92073866D02*
X105973809Y-92073866D01*
X105973809Y-92073866D02*
X106069047Y-92026247D01*
X106450000Y-91788152D02*
X106688095Y-92454819D01*
X106926190Y-91788152D02*
X106688095Y-92454819D01*
X106688095Y-92454819D02*
X106592857Y-92692914D01*
X106592857Y-92692914D02*
X106545238Y-92740533D01*
X106545238Y-92740533D02*
X106450000Y-92788152D01*
X108021429Y-91550057D02*
X108069048Y-91502438D01*
X108069048Y-91502438D02*
X108164286Y-91454819D01*
X108164286Y-91454819D02*
X108402381Y-91454819D01*
X108402381Y-91454819D02*
X108497619Y-91502438D01*
X108497619Y-91502438D02*
X108545238Y-91550057D01*
X108545238Y-91550057D02*
X108592857Y-91645295D01*
X108592857Y-91645295D02*
X108592857Y-91740533D01*
X108592857Y-91740533D02*
X108545238Y-91883390D01*
X108545238Y-91883390D02*
X107973810Y-92454819D01*
X107973810Y-92454819D02*
X108592857Y-92454819D01*
X109211905Y-91454819D02*
X109307143Y-91454819D01*
X109307143Y-91454819D02*
X109402381Y-91502438D01*
X109402381Y-91502438D02*
X109450000Y-91550057D01*
X109450000Y-91550057D02*
X109497619Y-91645295D01*
X109497619Y-91645295D02*
X109545238Y-91835771D01*
X109545238Y-91835771D02*
X109545238Y-92073866D01*
X109545238Y-92073866D02*
X109497619Y-92264342D01*
X109497619Y-92264342D02*
X109450000Y-92359580D01*
X109450000Y-92359580D02*
X109402381Y-92407200D01*
X109402381Y-92407200D02*
X109307143Y-92454819D01*
X109307143Y-92454819D02*
X109211905Y-92454819D01*
X109211905Y-92454819D02*
X109116667Y-92407200D01*
X109116667Y-92407200D02*
X109069048Y-92359580D01*
X109069048Y-92359580D02*
X109021429Y-92264342D01*
X109021429Y-92264342D02*
X108973810Y-92073866D01*
X108973810Y-92073866D02*
X108973810Y-91835771D01*
X108973810Y-91835771D02*
X109021429Y-91645295D01*
X109021429Y-91645295D02*
X109069048Y-91550057D01*
X109069048Y-91550057D02*
X109116667Y-91502438D01*
X109116667Y-91502438D02*
X109211905Y-91454819D01*
X109926191Y-91550057D02*
X109973810Y-91502438D01*
X109973810Y-91502438D02*
X110069048Y-91454819D01*
X110069048Y-91454819D02*
X110307143Y-91454819D01*
X110307143Y-91454819D02*
X110402381Y-91502438D01*
X110402381Y-91502438D02*
X110450000Y-91550057D01*
X110450000Y-91550057D02*
X110497619Y-91645295D01*
X110497619Y-91645295D02*
X110497619Y-91740533D01*
X110497619Y-91740533D02*
X110450000Y-91883390D01*
X110450000Y-91883390D02*
X109878572Y-92454819D01*
X109878572Y-92454819D02*
X110497619Y-92454819D01*
X111354762Y-91454819D02*
X111164286Y-91454819D01*
X111164286Y-91454819D02*
X111069048Y-91502438D01*
X111069048Y-91502438D02*
X111021429Y-91550057D01*
X111021429Y-91550057D02*
X110926191Y-91692914D01*
X110926191Y-91692914D02*
X110878572Y-91883390D01*
X110878572Y-91883390D02*
X110878572Y-92264342D01*
X110878572Y-92264342D02*
X110926191Y-92359580D01*
X110926191Y-92359580D02*
X110973810Y-92407200D01*
X110973810Y-92407200D02*
X111069048Y-92454819D01*
X111069048Y-92454819D02*
X111259524Y-92454819D01*
X111259524Y-92454819D02*
X111354762Y-92407200D01*
X111354762Y-92407200D02*
X111402381Y-92359580D01*
X111402381Y-92359580D02*
X111450000Y-92264342D01*
X111450000Y-92264342D02*
X111450000Y-92026247D01*
X111450000Y-92026247D02*
X111402381Y-91931009D01*
X111402381Y-91931009D02*
X111354762Y-91883390D01*
X111354762Y-91883390D02*
X111259524Y-91835771D01*
X111259524Y-91835771D02*
X111069048Y-91835771D01*
X111069048Y-91835771D02*
X110973810Y-91883390D01*
X110973810Y-91883390D02*
X110926191Y-91931009D01*
X110926191Y-91931009D02*
X110878572Y-92026247D01*
X110902857Y-66399580D02*
X110855238Y-66447200D01*
X110855238Y-66447200D02*
X110712381Y-66494819D01*
X110712381Y-66494819D02*
X110617143Y-66494819D01*
X110617143Y-66494819D02*
X110474286Y-66447200D01*
X110474286Y-66447200D02*
X110379048Y-66351961D01*
X110379048Y-66351961D02*
X110331429Y-66256723D01*
X110331429Y-66256723D02*
X110283810Y-66066247D01*
X110283810Y-66066247D02*
X110283810Y-65923390D01*
X110283810Y-65923390D02*
X110331429Y-65732914D01*
X110331429Y-65732914D02*
X110379048Y-65637676D01*
X110379048Y-65637676D02*
X110474286Y-65542438D01*
X110474286Y-65542438D02*
X110617143Y-65494819D01*
X110617143Y-65494819D02*
X110712381Y-65494819D01*
X110712381Y-65494819D02*
X110855238Y-65542438D01*
X110855238Y-65542438D02*
X110902857Y-65590057D01*
X111521905Y-65494819D02*
X111712381Y-65494819D01*
X111712381Y-65494819D02*
X111807619Y-65542438D01*
X111807619Y-65542438D02*
X111902857Y-65637676D01*
X111902857Y-65637676D02*
X111950476Y-65828152D01*
X111950476Y-65828152D02*
X111950476Y-66161485D01*
X111950476Y-66161485D02*
X111902857Y-66351961D01*
X111902857Y-66351961D02*
X111807619Y-66447200D01*
X111807619Y-66447200D02*
X111712381Y-66494819D01*
X111712381Y-66494819D02*
X111521905Y-66494819D01*
X111521905Y-66494819D02*
X111426667Y-66447200D01*
X111426667Y-66447200D02*
X111331429Y-66351961D01*
X111331429Y-66351961D02*
X111283810Y-66161485D01*
X111283810Y-66161485D02*
X111283810Y-65828152D01*
X111283810Y-65828152D02*
X111331429Y-65637676D01*
X111331429Y-65637676D02*
X111426667Y-65542438D01*
X111426667Y-65542438D02*
X111521905Y-65494819D01*
X112379048Y-66494819D02*
X112379048Y-65494819D01*
X113331428Y-66494819D02*
X112855238Y-66494819D01*
X112855238Y-66494819D02*
X112855238Y-65494819D01*
X111104761Y-102801009D02*
X110771428Y-102801009D01*
X110771428Y-103324819D02*
X110771428Y-102324819D01*
X110771428Y-102324819D02*
X111247618Y-102324819D01*
X111580952Y-103039104D02*
X112057142Y-103039104D01*
X111485714Y-103324819D02*
X111819047Y-102324819D01*
X111819047Y-102324819D02*
X112152380Y-103324819D01*
X112485714Y-102324819D02*
X112485714Y-103134342D01*
X112485714Y-103134342D02*
X112533333Y-103229580D01*
X112533333Y-103229580D02*
X112580952Y-103277200D01*
X112580952Y-103277200D02*
X112676190Y-103324819D01*
X112676190Y-103324819D02*
X112866666Y-103324819D01*
X112866666Y-103324819D02*
X112961904Y-103277200D01*
X112961904Y-103277200D02*
X113009523Y-103229580D01*
X113009523Y-103229580D02*
X113057142Y-103134342D01*
X113057142Y-103134342D02*
X113057142Y-102324819D01*
X114009523Y-103324819D02*
X113533333Y-103324819D01*
X113533333Y-103324819D02*
X113533333Y-102324819D01*
X114200000Y-102324819D02*
X114771428Y-102324819D01*
X114485714Y-103324819D02*
X114485714Y-102324819D01*
X162433333Y-63859580D02*
X162385714Y-63907200D01*
X162385714Y-63907200D02*
X162242857Y-63954819D01*
X162242857Y-63954819D02*
X162147619Y-63954819D01*
X162147619Y-63954819D02*
X162004762Y-63907200D01*
X162004762Y-63907200D02*
X161909524Y-63811961D01*
X161909524Y-63811961D02*
X161861905Y-63716723D01*
X161861905Y-63716723D02*
X161814286Y-63526247D01*
X161814286Y-63526247D02*
X161814286Y-63383390D01*
X161814286Y-63383390D02*
X161861905Y-63192914D01*
X161861905Y-63192914D02*
X161909524Y-63097676D01*
X161909524Y-63097676D02*
X162004762Y-63002438D01*
X162004762Y-63002438D02*
X162147619Y-62954819D01*
X162147619Y-62954819D02*
X162242857Y-62954819D01*
X162242857Y-62954819D02*
X162385714Y-63002438D01*
X162385714Y-63002438D02*
X162433333Y-63050057D01*
X163052381Y-62954819D02*
X163242857Y-62954819D01*
X163242857Y-62954819D02*
X163338095Y-63002438D01*
X163338095Y-63002438D02*
X163433333Y-63097676D01*
X163433333Y-63097676D02*
X163480952Y-63288152D01*
X163480952Y-63288152D02*
X163480952Y-63621485D01*
X163480952Y-63621485D02*
X163433333Y-63811961D01*
X163433333Y-63811961D02*
X163338095Y-63907200D01*
X163338095Y-63907200D02*
X163242857Y-63954819D01*
X163242857Y-63954819D02*
X163052381Y-63954819D01*
X163052381Y-63954819D02*
X162957143Y-63907200D01*
X162957143Y-63907200D02*
X162861905Y-63811961D01*
X162861905Y-63811961D02*
X162814286Y-63621485D01*
X162814286Y-63621485D02*
X162814286Y-63288152D01*
X162814286Y-63288152D02*
X162861905Y-63097676D01*
X162861905Y-63097676D02*
X162957143Y-63002438D01*
X162957143Y-63002438D02*
X163052381Y-62954819D01*
X163909524Y-63954819D02*
X163909524Y-62954819D01*
X164861904Y-63954819D02*
X164385714Y-63954819D01*
X164385714Y-63954819D02*
X164385714Y-62954819D01*
X165909524Y-63669104D02*
X166385714Y-63669104D01*
X165814286Y-63954819D02*
X166147619Y-62954819D01*
X166147619Y-62954819D02*
X166480952Y-63954819D01*
X166814286Y-62954819D02*
X166814286Y-63764342D01*
X166814286Y-63764342D02*
X166861905Y-63859580D01*
X166861905Y-63859580D02*
X166909524Y-63907200D01*
X166909524Y-63907200D02*
X167004762Y-63954819D01*
X167004762Y-63954819D02*
X167195238Y-63954819D01*
X167195238Y-63954819D02*
X167290476Y-63907200D01*
X167290476Y-63907200D02*
X167338095Y-63859580D01*
X167338095Y-63859580D02*
X167385714Y-63764342D01*
X167385714Y-63764342D02*
X167385714Y-62954819D01*
X167766667Y-62954819D02*
X168433333Y-63954819D01*
X168433333Y-62954819D02*
X167766667Y-63954819D01*
X168619048Y-88073866D02*
X169380953Y-88073866D01*
X169190476Y-88264342D02*
X169380953Y-88073866D01*
X169380953Y-88073866D02*
X169190476Y-87883390D01*
X170860476Y-74114819D02*
X170860476Y-73114819D01*
X170860476Y-73114819D02*
X171241428Y-73114819D01*
X171241428Y-73114819D02*
X171336666Y-73162438D01*
X171336666Y-73162438D02*
X171384285Y-73210057D01*
X171384285Y-73210057D02*
X171431904Y-73305295D01*
X171431904Y-73305295D02*
X171431904Y-73448152D01*
X171431904Y-73448152D02*
X171384285Y-73543390D01*
X171384285Y-73543390D02*
X171336666Y-73591009D01*
X171336666Y-73591009D02*
X171241428Y-73638628D01*
X171241428Y-73638628D02*
X170860476Y-73638628D01*
X172050952Y-73114819D02*
X172241428Y-73114819D01*
X172241428Y-73114819D02*
X172336666Y-73162438D01*
X172336666Y-73162438D02*
X172431904Y-73257676D01*
X172431904Y-73257676D02*
X172479523Y-73448152D01*
X172479523Y-73448152D02*
X172479523Y-73781485D01*
X172479523Y-73781485D02*
X172431904Y-73971961D01*
X172431904Y-73971961D02*
X172336666Y-74067200D01*
X172336666Y-74067200D02*
X172241428Y-74114819D01*
X172241428Y-74114819D02*
X172050952Y-74114819D01*
X172050952Y-74114819D02*
X171955714Y-74067200D01*
X171955714Y-74067200D02*
X171860476Y-73971961D01*
X171860476Y-73971961D02*
X171812857Y-73781485D01*
X171812857Y-73781485D02*
X171812857Y-73448152D01*
X171812857Y-73448152D02*
X171860476Y-73257676D01*
X171860476Y-73257676D02*
X171955714Y-73162438D01*
X171955714Y-73162438D02*
X172050952Y-73114819D01*
X172812857Y-73114819D02*
X173050952Y-74114819D01*
X173050952Y-74114819D02*
X173241428Y-73400533D01*
X173241428Y-73400533D02*
X173431904Y-74114819D01*
X173431904Y-74114819D02*
X173670000Y-73114819D01*
X174050952Y-73591009D02*
X174384285Y-73591009D01*
X174527142Y-74114819D02*
X174050952Y-74114819D01*
X174050952Y-74114819D02*
X174050952Y-73114819D01*
X174050952Y-73114819D02*
X174527142Y-73114819D01*
X175527142Y-74114819D02*
X175193809Y-73638628D01*
X174955714Y-74114819D02*
X174955714Y-73114819D01*
X174955714Y-73114819D02*
X175336666Y-73114819D01*
X175336666Y-73114819D02*
X175431904Y-73162438D01*
X175431904Y-73162438D02*
X175479523Y-73210057D01*
X175479523Y-73210057D02*
X175527142Y-73305295D01*
X175527142Y-73305295D02*
X175527142Y-73448152D01*
X175527142Y-73448152D02*
X175479523Y-73543390D01*
X175479523Y-73543390D02*
X175431904Y-73591009D01*
X175431904Y-73591009D02*
X175336666Y-73638628D01*
X175336666Y-73638628D02*
X174955714Y-73638628D01*
D12*
X75328571Y-58622925D02*
X75900000Y-58622925D01*
X75214285Y-58965782D02*
X75614285Y-57765782D01*
X75614285Y-57765782D02*
X76014285Y-58965782D01*
X76414285Y-58965782D02*
X76414285Y-57765782D01*
X76414285Y-57765782D02*
X77099999Y-58965782D01*
X77099999Y-58965782D02*
X77099999Y-57765782D01*
X77499999Y-57765782D02*
X78185714Y-57765782D01*
X77842856Y-58965782D02*
X77842856Y-57765782D01*
X156042857Y-80088640D02*
X156957143Y-80088640D01*
X156500000Y-80545782D02*
X156500000Y-79631497D01*
D13*
X93902858Y-84073657D02*
X94617144Y-84073657D01*
X93760001Y-84502228D02*
X94260001Y-83002228D01*
X94260001Y-83002228D02*
X94760001Y-84502228D01*
X95474286Y-84502228D02*
X95331429Y-84430800D01*
X95331429Y-84430800D02*
X95260000Y-84287942D01*
X95260000Y-84287942D02*
X95260000Y-83002228D01*
X96617143Y-84430800D02*
X96474286Y-84502228D01*
X96474286Y-84502228D02*
X96188572Y-84502228D01*
X96188572Y-84502228D02*
X96045714Y-84430800D01*
X96045714Y-84430800D02*
X95974286Y-84287942D01*
X95974286Y-84287942D02*
X95974286Y-83716514D01*
X95974286Y-83716514D02*
X96045714Y-83573657D01*
X96045714Y-83573657D02*
X96188572Y-83502228D01*
X96188572Y-83502228D02*
X96474286Y-83502228D01*
X96474286Y-83502228D02*
X96617143Y-83573657D01*
X96617143Y-83573657D02*
X96688572Y-83716514D01*
X96688572Y-83716514D02*
X96688572Y-83859371D01*
X96688572Y-83859371D02*
X95974286Y-84002228D01*
X97188571Y-84502228D02*
X97974286Y-83502228D01*
X97188571Y-83502228D02*
X97974286Y-84502228D01*
X98617143Y-83002228D02*
X98474286Y-83287942D01*
X99188572Y-84430800D02*
X99331429Y-84502228D01*
X99331429Y-84502228D02*
X99617143Y-84502228D01*
X99617143Y-84502228D02*
X99760000Y-84430800D01*
X99760000Y-84430800D02*
X99831429Y-84287942D01*
X99831429Y-84287942D02*
X99831429Y-84216514D01*
X99831429Y-84216514D02*
X99760000Y-84073657D01*
X99760000Y-84073657D02*
X99617143Y-84002228D01*
X99617143Y-84002228D02*
X99402858Y-84002228D01*
X99402858Y-84002228D02*
X99260000Y-83930800D01*
X99260000Y-83930800D02*
X99188572Y-83787942D01*
X99188572Y-83787942D02*
X99188572Y-83716514D01*
X99188572Y-83716514D02*
X99260000Y-83573657D01*
X99260000Y-83573657D02*
X99402858Y-83502228D01*
X99402858Y-83502228D02*
X99617143Y-83502228D01*
X99617143Y-83502228D02*
X99760000Y-83573657D01*
X101545715Y-84430800D02*
X101760001Y-84502228D01*
X101760001Y-84502228D02*
X102117143Y-84502228D01*
X102117143Y-84502228D02*
X102260001Y-84430800D01*
X102260001Y-84430800D02*
X102331429Y-84359371D01*
X102331429Y-84359371D02*
X102402858Y-84216514D01*
X102402858Y-84216514D02*
X102402858Y-84073657D01*
X102402858Y-84073657D02*
X102331429Y-83930800D01*
X102331429Y-83930800D02*
X102260001Y-83859371D01*
X102260001Y-83859371D02*
X102117143Y-83787942D01*
X102117143Y-83787942D02*
X101831429Y-83716514D01*
X101831429Y-83716514D02*
X101688572Y-83645085D01*
X101688572Y-83645085D02*
X101617143Y-83573657D01*
X101617143Y-83573657D02*
X101545715Y-83430800D01*
X101545715Y-83430800D02*
X101545715Y-83287942D01*
X101545715Y-83287942D02*
X101617143Y-83145085D01*
X101617143Y-83145085D02*
X101688572Y-83073657D01*
X101688572Y-83073657D02*
X101831429Y-83002228D01*
X101831429Y-83002228D02*
X102188572Y-83002228D01*
X102188572Y-83002228D02*
X102402858Y-83073657D01*
X103688572Y-83502228D02*
X103688572Y-84502228D01*
X103045714Y-83502228D02*
X103045714Y-84287942D01*
X103045714Y-84287942D02*
X103117143Y-84430800D01*
X103117143Y-84430800D02*
X103260000Y-84502228D01*
X103260000Y-84502228D02*
X103474286Y-84502228D01*
X103474286Y-84502228D02*
X103617143Y-84430800D01*
X103617143Y-84430800D02*
X103688572Y-84359371D01*
X104402857Y-83502228D02*
X104402857Y-85002228D01*
X104402857Y-83573657D02*
X104545715Y-83502228D01*
X104545715Y-83502228D02*
X104831429Y-83502228D01*
X104831429Y-83502228D02*
X104974286Y-83573657D01*
X104974286Y-83573657D02*
X105045715Y-83645085D01*
X105045715Y-83645085D02*
X105117143Y-83787942D01*
X105117143Y-83787942D02*
X105117143Y-84216514D01*
X105117143Y-84216514D02*
X105045715Y-84359371D01*
X105045715Y-84359371D02*
X104974286Y-84430800D01*
X104974286Y-84430800D02*
X104831429Y-84502228D01*
X104831429Y-84502228D02*
X104545715Y-84502228D01*
X104545715Y-84502228D02*
X104402857Y-84430800D01*
X106331429Y-84430800D02*
X106188572Y-84502228D01*
X106188572Y-84502228D02*
X105902858Y-84502228D01*
X105902858Y-84502228D02*
X105760000Y-84430800D01*
X105760000Y-84430800D02*
X105688572Y-84287942D01*
X105688572Y-84287942D02*
X105688572Y-83716514D01*
X105688572Y-83716514D02*
X105760000Y-83573657D01*
X105760000Y-83573657D02*
X105902858Y-83502228D01*
X105902858Y-83502228D02*
X106188572Y-83502228D01*
X106188572Y-83502228D02*
X106331429Y-83573657D01*
X106331429Y-83573657D02*
X106402858Y-83716514D01*
X106402858Y-83716514D02*
X106402858Y-83859371D01*
X106402858Y-83859371D02*
X105688572Y-84002228D01*
X107045714Y-84502228D02*
X107045714Y-83502228D01*
X107045714Y-83787942D02*
X107117143Y-83645085D01*
X107117143Y-83645085D02*
X107188572Y-83573657D01*
X107188572Y-83573657D02*
X107331429Y-83502228D01*
X107331429Y-83502228D02*
X107474286Y-83502228D01*
X109045714Y-84430800D02*
X109260000Y-84502228D01*
X109260000Y-84502228D02*
X109617142Y-84502228D01*
X109617142Y-84502228D02*
X109760000Y-84430800D01*
X109760000Y-84430800D02*
X109831428Y-84359371D01*
X109831428Y-84359371D02*
X109902857Y-84216514D01*
X109902857Y-84216514D02*
X109902857Y-84073657D01*
X109902857Y-84073657D02*
X109831428Y-83930800D01*
X109831428Y-83930800D02*
X109760000Y-83859371D01*
X109760000Y-83859371D02*
X109617142Y-83787942D01*
X109617142Y-83787942D02*
X109331428Y-83716514D01*
X109331428Y-83716514D02*
X109188571Y-83645085D01*
X109188571Y-83645085D02*
X109117142Y-83573657D01*
X109117142Y-83573657D02*
X109045714Y-83430800D01*
X109045714Y-83430800D02*
X109045714Y-83287942D01*
X109045714Y-83287942D02*
X109117142Y-83145085D01*
X109117142Y-83145085D02*
X109188571Y-83073657D01*
X109188571Y-83073657D02*
X109331428Y-83002228D01*
X109331428Y-83002228D02*
X109688571Y-83002228D01*
X109688571Y-83002228D02*
X109902857Y-83073657D01*
X111188571Y-84502228D02*
X111188571Y-83716514D01*
X111188571Y-83716514D02*
X111117142Y-83573657D01*
X111117142Y-83573657D02*
X110974285Y-83502228D01*
X110974285Y-83502228D02*
X110688571Y-83502228D01*
X110688571Y-83502228D02*
X110545713Y-83573657D01*
X111188571Y-84430800D02*
X111045713Y-84502228D01*
X111045713Y-84502228D02*
X110688571Y-84502228D01*
X110688571Y-84502228D02*
X110545713Y-84430800D01*
X110545713Y-84430800D02*
X110474285Y-84287942D01*
X110474285Y-84287942D02*
X110474285Y-84145085D01*
X110474285Y-84145085D02*
X110545713Y-84002228D01*
X110545713Y-84002228D02*
X110688571Y-83930800D01*
X110688571Y-83930800D02*
X111045713Y-83930800D01*
X111045713Y-83930800D02*
X111188571Y-83859371D01*
X112545714Y-83502228D02*
X112545714Y-84502228D01*
X111902856Y-83502228D02*
X111902856Y-84287942D01*
X111902856Y-84287942D02*
X111974285Y-84430800D01*
X111974285Y-84430800D02*
X112117142Y-84502228D01*
X112117142Y-84502228D02*
X112331428Y-84502228D01*
X112331428Y-84502228D02*
X112474285Y-84430800D01*
X112474285Y-84430800D02*
X112545714Y-84359371D01*
X113259999Y-83502228D02*
X113259999Y-84502228D01*
X113259999Y-83645085D02*
X113331428Y-83573657D01*
X113331428Y-83573657D02*
X113474285Y-83502228D01*
X113474285Y-83502228D02*
X113688571Y-83502228D01*
X113688571Y-83502228D02*
X113831428Y-83573657D01*
X113831428Y-83573657D02*
X113902857Y-83716514D01*
X113902857Y-83716514D02*
X113902857Y-84502228D01*
X115260000Y-84502228D02*
X115260000Y-83716514D01*
X115260000Y-83716514D02*
X115188571Y-83573657D01*
X115188571Y-83573657D02*
X115045714Y-83502228D01*
X115045714Y-83502228D02*
X114760000Y-83502228D01*
X114760000Y-83502228D02*
X114617142Y-83573657D01*
X115260000Y-84430800D02*
X115117142Y-84502228D01*
X115117142Y-84502228D02*
X114760000Y-84502228D01*
X114760000Y-84502228D02*
X114617142Y-84430800D01*
X114617142Y-84430800D02*
X114545714Y-84287942D01*
X114545714Y-84287942D02*
X114545714Y-84145085D01*
X114545714Y-84145085D02*
X114617142Y-84002228D01*
X114617142Y-84002228D02*
X114760000Y-83930800D01*
X114760000Y-83930800D02*
X115117142Y-83930800D01*
X115117142Y-83930800D02*
X115260000Y-83859371D01*
X117974285Y-84359371D02*
X117902857Y-84430800D01*
X117902857Y-84430800D02*
X117688571Y-84502228D01*
X117688571Y-84502228D02*
X117545714Y-84502228D01*
X117545714Y-84502228D02*
X117331428Y-84430800D01*
X117331428Y-84430800D02*
X117188571Y-84287942D01*
X117188571Y-84287942D02*
X117117142Y-84145085D01*
X117117142Y-84145085D02*
X117045714Y-83859371D01*
X117045714Y-83859371D02*
X117045714Y-83645085D01*
X117045714Y-83645085D02*
X117117142Y-83359371D01*
X117117142Y-83359371D02*
X117188571Y-83216514D01*
X117188571Y-83216514D02*
X117331428Y-83073657D01*
X117331428Y-83073657D02*
X117545714Y-83002228D01*
X117545714Y-83002228D02*
X117688571Y-83002228D01*
X117688571Y-83002228D02*
X117902857Y-83073657D01*
X117902857Y-83073657D02*
X117974285Y-83145085D01*
X118831428Y-84502228D02*
X118688571Y-84430800D01*
X118688571Y-84430800D02*
X118617142Y-84359371D01*
X118617142Y-84359371D02*
X118545714Y-84216514D01*
X118545714Y-84216514D02*
X118545714Y-83787942D01*
X118545714Y-83787942D02*
X118617142Y-83645085D01*
X118617142Y-83645085D02*
X118688571Y-83573657D01*
X118688571Y-83573657D02*
X118831428Y-83502228D01*
X118831428Y-83502228D02*
X119045714Y-83502228D01*
X119045714Y-83502228D02*
X119188571Y-83573657D01*
X119188571Y-83573657D02*
X119260000Y-83645085D01*
X119260000Y-83645085D02*
X119331428Y-83787942D01*
X119331428Y-83787942D02*
X119331428Y-84216514D01*
X119331428Y-84216514D02*
X119260000Y-84359371D01*
X119260000Y-84359371D02*
X119188571Y-84430800D01*
X119188571Y-84430800D02*
X119045714Y-84502228D01*
X119045714Y-84502228D02*
X118831428Y-84502228D01*
X119974285Y-84502228D02*
X119974285Y-83502228D01*
X119974285Y-83645085D02*
X120045714Y-83573657D01*
X120045714Y-83573657D02*
X120188571Y-83502228D01*
X120188571Y-83502228D02*
X120402857Y-83502228D01*
X120402857Y-83502228D02*
X120545714Y-83573657D01*
X120545714Y-83573657D02*
X120617143Y-83716514D01*
X120617143Y-83716514D02*
X120617143Y-84502228D01*
X120617143Y-83716514D02*
X120688571Y-83573657D01*
X120688571Y-83573657D02*
X120831428Y-83502228D01*
X120831428Y-83502228D02*
X121045714Y-83502228D01*
X121045714Y-83502228D02*
X121188571Y-83573657D01*
X121188571Y-83573657D02*
X121260000Y-83716514D01*
X121260000Y-83716514D02*
X121260000Y-84502228D01*
X121974285Y-84502228D02*
X121974285Y-83502228D01*
X121974285Y-83645085D02*
X122045714Y-83573657D01*
X122045714Y-83573657D02*
X122188571Y-83502228D01*
X122188571Y-83502228D02*
X122402857Y-83502228D01*
X122402857Y-83502228D02*
X122545714Y-83573657D01*
X122545714Y-83573657D02*
X122617143Y-83716514D01*
X122617143Y-83716514D02*
X122617143Y-84502228D01*
X122617143Y-83716514D02*
X122688571Y-83573657D01*
X122688571Y-83573657D02*
X122831428Y-83502228D01*
X122831428Y-83502228D02*
X123045714Y-83502228D01*
X123045714Y-83502228D02*
X123188571Y-83573657D01*
X123188571Y-83573657D02*
X123260000Y-83716514D01*
X123260000Y-83716514D02*
X123260000Y-84502228D01*
X124617143Y-84502228D02*
X124617143Y-83716514D01*
X124617143Y-83716514D02*
X124545714Y-83573657D01*
X124545714Y-83573657D02*
X124402857Y-83502228D01*
X124402857Y-83502228D02*
X124117143Y-83502228D01*
X124117143Y-83502228D02*
X123974285Y-83573657D01*
X124617143Y-84430800D02*
X124474285Y-84502228D01*
X124474285Y-84502228D02*
X124117143Y-84502228D01*
X124117143Y-84502228D02*
X123974285Y-84430800D01*
X123974285Y-84430800D02*
X123902857Y-84287942D01*
X123902857Y-84287942D02*
X123902857Y-84145085D01*
X123902857Y-84145085D02*
X123974285Y-84002228D01*
X123974285Y-84002228D02*
X124117143Y-83930800D01*
X124117143Y-83930800D02*
X124474285Y-83930800D01*
X124474285Y-83930800D02*
X124617143Y-83859371D01*
X125331428Y-83502228D02*
X125331428Y-84502228D01*
X125331428Y-83645085D02*
X125402857Y-83573657D01*
X125402857Y-83573657D02*
X125545714Y-83502228D01*
X125545714Y-83502228D02*
X125760000Y-83502228D01*
X125760000Y-83502228D02*
X125902857Y-83573657D01*
X125902857Y-83573657D02*
X125974286Y-83716514D01*
X125974286Y-83716514D02*
X125974286Y-84502228D01*
X127331429Y-84502228D02*
X127331429Y-83002228D01*
X127331429Y-84430800D02*
X127188571Y-84502228D01*
X127188571Y-84502228D02*
X126902857Y-84502228D01*
X126902857Y-84502228D02*
X126760000Y-84430800D01*
X126760000Y-84430800D02*
X126688571Y-84359371D01*
X126688571Y-84359371D02*
X126617143Y-84216514D01*
X126617143Y-84216514D02*
X126617143Y-83787942D01*
X126617143Y-83787942D02*
X126688571Y-83645085D01*
X126688571Y-83645085D02*
X126760000Y-83573657D01*
X126760000Y-83573657D02*
X126902857Y-83502228D01*
X126902857Y-83502228D02*
X127188571Y-83502228D01*
X127188571Y-83502228D02*
X127331429Y-83573657D01*
X128617143Y-84430800D02*
X128474286Y-84502228D01*
X128474286Y-84502228D02*
X128188572Y-84502228D01*
X128188572Y-84502228D02*
X128045714Y-84430800D01*
X128045714Y-84430800D02*
X127974286Y-84287942D01*
X127974286Y-84287942D02*
X127974286Y-83716514D01*
X127974286Y-83716514D02*
X128045714Y-83573657D01*
X128045714Y-83573657D02*
X128188572Y-83502228D01*
X128188572Y-83502228D02*
X128474286Y-83502228D01*
X128474286Y-83502228D02*
X128617143Y-83573657D01*
X128617143Y-83573657D02*
X128688572Y-83716514D01*
X128688572Y-83716514D02*
X128688572Y-83859371D01*
X128688572Y-83859371D02*
X127974286Y-84002228D01*
X129331428Y-84502228D02*
X129331428Y-83502228D01*
X129331428Y-83787942D02*
X129402857Y-83645085D01*
X129402857Y-83645085D02*
X129474286Y-83573657D01*
X129474286Y-83573657D02*
X129617143Y-83502228D01*
X129617143Y-83502228D02*
X129760000Y-83502228D01*
D14*
X134723809Y-98137047D02*
X133890476Y-96946571D01*
X133295238Y-98137047D02*
X133295238Y-95637047D01*
X133295238Y-95637047D02*
X134247619Y-95637047D01*
X134247619Y-95637047D02*
X134485714Y-95756095D01*
X134485714Y-95756095D02*
X134604761Y-95875142D01*
X134604761Y-95875142D02*
X134723809Y-96113238D01*
X134723809Y-96113238D02*
X134723809Y-96470380D01*
X134723809Y-96470380D02*
X134604761Y-96708476D01*
X134604761Y-96708476D02*
X134485714Y-96827523D01*
X134485714Y-96827523D02*
X134247619Y-96946571D01*
X134247619Y-96946571D02*
X133295238Y-96946571D01*
X145124761Y-95756095D02*
X144886666Y-95637047D01*
X144886666Y-95637047D02*
X144529523Y-95637047D01*
X144529523Y-95637047D02*
X144172380Y-95756095D01*
X144172380Y-95756095D02*
X143934285Y-95994190D01*
X143934285Y-95994190D02*
X143815238Y-96232285D01*
X143815238Y-96232285D02*
X143696190Y-96708476D01*
X143696190Y-96708476D02*
X143696190Y-97065619D01*
X143696190Y-97065619D02*
X143815238Y-97541809D01*
X143815238Y-97541809D02*
X143934285Y-97779904D01*
X143934285Y-97779904D02*
X144172380Y-98018000D01*
X144172380Y-98018000D02*
X144529523Y-98137047D01*
X144529523Y-98137047D02*
X144767619Y-98137047D01*
X144767619Y-98137047D02*
X145124761Y-98018000D01*
X145124761Y-98018000D02*
X145243809Y-97898952D01*
X145243809Y-97898952D02*
X145243809Y-97065619D01*
X145243809Y-97065619D02*
X144767619Y-97065619D01*
X155128571Y-96827523D02*
X155485714Y-96946571D01*
X155485714Y-96946571D02*
X155604761Y-97065619D01*
X155604761Y-97065619D02*
X155723809Y-97303714D01*
X155723809Y-97303714D02*
X155723809Y-97660857D01*
X155723809Y-97660857D02*
X155604761Y-97898952D01*
X155604761Y-97898952D02*
X155485714Y-98018000D01*
X155485714Y-98018000D02*
X155247619Y-98137047D01*
X155247619Y-98137047D02*
X154295238Y-98137047D01*
X154295238Y-98137047D02*
X154295238Y-95637047D01*
X154295238Y-95637047D02*
X155128571Y-95637047D01*
X155128571Y-95637047D02*
X155366666Y-95756095D01*
X155366666Y-95756095D02*
X155485714Y-95875142D01*
X155485714Y-95875142D02*
X155604761Y-96113238D01*
X155604761Y-96113238D02*
X155604761Y-96351333D01*
X155604761Y-96351333D02*
X155485714Y-96589428D01*
X155485714Y-96589428D02*
X155366666Y-96708476D01*
X155366666Y-96708476D02*
X155128571Y-96827523D01*
X155128571Y-96827523D02*
X154295238Y-96827523D01*
X164898571Y-95637047D02*
X165493809Y-98137047D01*
X165493809Y-98137047D02*
X165970000Y-96351333D01*
X165970000Y-96351333D02*
X166446190Y-98137047D01*
X166446190Y-98137047D02*
X167041429Y-95637047D01*
%TO.C,TP_3V3*%
D10*
X117790000Y-78740000D02*
G75*
G02*
X115890000Y-78740000I-950000J0D01*
G01*
X115890000Y-78740000D02*
G75*
G02*
X117790000Y-78740000I950000J0D01*
G01*
%TO.C,Q_R1*%
X130500000Y-112100000D02*
X130770000Y-112100000D01*
X130500000Y-118520000D02*
X130500000Y-112100000D01*
X137400000Y-112100000D02*
X137130000Y-112100000D01*
X137400000Y-118520000D02*
X137400000Y-112100000D01*
X137560000Y-110710000D02*
X137090000Y-110370000D01*
X137560000Y-110030000D01*
X137560000Y-110710000D01*
G36*
X137560000Y-110710000D02*
G01*
X137090000Y-110370000D01*
X137560000Y-110030000D01*
X137560000Y-110710000D01*
G37*
%TO.C,R_OPT_AUX_PU1*%
X142775000Y-66624564D02*
X142775000Y-66170436D01*
X144245000Y-66624564D02*
X144245000Y-66170436D01*
%TO.C,R_DR_S1*%
X85625000Y-117979564D02*
X85625000Y-117525436D01*
X87095000Y-117979564D02*
X87095000Y-117525436D01*
%TO.C,TP_GND1*%
X124140000Y-92710000D02*
G75*
G02*
X122240000Y-92710000I-950000J0D01*
G01*
X122240000Y-92710000D02*
G75*
G02*
X124140000Y-92710000I950000J0D01*
G01*
%TO.C,R_GATE_G1*%
X141056667Y-100139564D02*
X141056667Y-99685436D01*
X142526667Y-100139564D02*
X142526667Y-99685436D01*
%TO.C,R_GPD_COIL1*%
X107215000Y-64900436D02*
X107215000Y-65354564D01*
X108685000Y-64900436D02*
X108685000Y-65354564D01*
%TO.C,J_BENCH1*%
X117215000Y-122737500D02*
X132695000Y-122737500D01*
X117215000Y-125757500D02*
X132695000Y-125757500D01*
X117215000Y-130657500D02*
X132695000Y-130657500D01*
X117215000Y-132157500D02*
X132695000Y-132157500D01*
X117215000Y-132777500D02*
X117215000Y-122737500D01*
X119575000Y-132777500D02*
X117215000Y-132777500D01*
X132695000Y-122737500D02*
X132695000Y-132777500D01*
X132695000Y-132777500D02*
X120175000Y-132777500D01*
X120315000Y-133387500D02*
X119435000Y-133387500D01*
X119875000Y-132777500D01*
X120315000Y-133387500D01*
G36*
X120315000Y-133387500D02*
G01*
X119435000Y-133387500D01*
X119875000Y-132777500D01*
X120315000Y-133387500D01*
G37*
%TO.C,J_ESP_L1*%
X62670000Y-58450000D02*
X62670000Y-104230000D01*
X62670000Y-58450000D02*
X65330000Y-58450000D01*
X62670000Y-104230000D02*
X65330000Y-104230000D01*
X64000000Y-55850000D02*
X65330000Y-55850000D01*
X65330000Y-55850000D02*
X65330000Y-57180000D01*
X65330000Y-58450000D02*
X65330000Y-104230000D01*
%TO.C,ESD_DS_CEILING1*%
X109640000Y-119617500D02*
X109640000Y-116957500D01*
X109640000Y-119617500D02*
X111340000Y-119617500D01*
X111340000Y-119617500D02*
X111340000Y-116957500D01*
%TO.C,R_GPD_B1*%
X157873333Y-100139564D02*
X157873333Y-99685436D01*
X159343333Y-100139564D02*
X159343333Y-99685436D01*
%TO.C,R_GATE_W1*%
X162740000Y-100139564D02*
X162740000Y-99685436D01*
X164210000Y-100139564D02*
X164210000Y-99685436D01*
%TO.C,J_CEILING1*%
X99210000Y-122680000D02*
X114690000Y-122680000D01*
X99210000Y-125700000D02*
X114690000Y-125700000D01*
X99210000Y-130600000D02*
X114690000Y-130600000D01*
X99210000Y-132100000D02*
X114690000Y-132100000D01*
X99210000Y-132720000D02*
X99210000Y-122680000D01*
X101570000Y-132720000D02*
X99210000Y-132720000D01*
X114690000Y-122680000D02*
X114690000Y-132720000D01*
X114690000Y-132720000D02*
X102170000Y-132720000D01*
X102310000Y-133330000D02*
X101430000Y-133330000D01*
X101870000Y-132720000D01*
X102310000Y-133330000D01*
G36*
X102310000Y-133330000D02*
G01*
X101430000Y-133330000D01*
X101870000Y-132720000D01*
X102310000Y-133330000D01*
G37*
%TO.C,R_RX1*%
X72259564Y-114835000D02*
X71805436Y-114835000D01*
X72259564Y-116305000D02*
X71805436Y-116305000D01*
%TO.C,OPT_AUX1*%
X158640000Y-64710000D02*
X158640000Y-69910000D01*
X158640000Y-69910000D02*
X160290000Y-69910000D01*
X162290000Y-69910000D02*
X163940000Y-69910000D01*
X163940000Y-64710000D02*
X158640000Y-64710000D01*
X163940000Y-69910000D02*
X163940000Y-64710000D01*
X160290000Y-69910000D02*
G75*
G02*
X162290000Y-69910000I1000000J0D01*
G01*
%TO.C,C_5V_OUT1*%
X141505000Y-84401252D02*
X141505000Y-83878748D01*
X142975000Y-84401252D02*
X142975000Y-83878748D01*
%TO.C,J_DOOR1*%
X84970000Y-122680000D02*
X95370000Y-122680000D01*
X84970000Y-125700000D02*
X95370000Y-125700000D01*
X84970000Y-130600000D02*
X95370000Y-130600000D01*
X84970000Y-132100000D02*
X95370000Y-132100000D01*
X84970000Y-132720000D02*
X84970000Y-122680000D01*
X87330000Y-132720000D02*
X84970000Y-132720000D01*
X95370000Y-122680000D02*
X95370000Y-132720000D01*
X95370000Y-132720000D02*
X87930000Y-132720000D01*
X88070000Y-133330000D02*
X87190000Y-133330000D01*
X87630000Y-132720000D01*
X88070000Y-133330000D01*
G36*
X88070000Y-133330000D02*
G01*
X87190000Y-133330000D01*
X87630000Y-132720000D01*
X88070000Y-133330000D01*
G37*
%TO.C,R_DR_PU1*%
X93245000Y-118139564D02*
X93245000Y-117685436D01*
X94715000Y-118139564D02*
X94715000Y-117685436D01*
%TO.C,TVS_AUX1*%
X168140000Y-64890000D02*
X168140000Y-69190000D01*
X168140000Y-64890000D02*
X173950000Y-64890000D01*
X168140000Y-69190000D02*
X173950000Y-69190000D01*
%TO.C,R_DS_BENCH1*%
X121185000Y-116154564D02*
X121185000Y-115700436D01*
X122655000Y-116154564D02*
X122655000Y-115700436D01*
%TO.C,D_REV1*%
X166990000Y-88850000D02*
X166990000Y-92150000D01*
X166990000Y-88850000D02*
X172500000Y-88850000D01*
X166990000Y-92150000D02*
X172500000Y-92150000D01*
%TO.C,C_DR1*%
X80591252Y-72605000D02*
X80068748Y-72605000D01*
X80591252Y-74075000D02*
X80068748Y-74075000D01*
%TO.C,R_GPD_R1*%
X136240000Y-100139564D02*
X136240000Y-99685436D01*
X137710000Y-100139564D02*
X137710000Y-99685436D01*
%TO.C,C_24V1*%
X150548748Y-69115000D02*
X151071252Y-69115000D01*
X150548748Y-70585000D02*
X151071252Y-70585000D01*
%TO.C,Q_G1*%
X141025000Y-112255000D02*
X141295000Y-112255000D01*
X141025000Y-118675000D02*
X141025000Y-112255000D01*
X147925000Y-112255000D02*
X147655000Y-112255000D01*
X147925000Y-118675000D02*
X147925000Y-112255000D01*
X148085000Y-110865000D02*
X147615000Y-110525000D01*
X148085000Y-110185000D01*
X148085000Y-110865000D01*
G36*
X148085000Y-110865000D02*
G01*
X147615000Y-110525000D01*
X148085000Y-110185000D01*
X148085000Y-110865000D01*
G37*
%TO.C,Q_W1*%
X162525000Y-112255000D02*
X162795000Y-112255000D01*
X162525000Y-118675000D02*
X162525000Y-112255000D01*
X169425000Y-112255000D02*
X169155000Y-112255000D01*
X169425000Y-118675000D02*
X169425000Y-112255000D01*
X169585000Y-110865000D02*
X169115000Y-110525000D01*
X169585000Y-110185000D01*
X169585000Y-110865000D01*
G36*
X169585000Y-110865000D02*
G01*
X169115000Y-110525000D01*
X169585000Y-110185000D01*
X169585000Y-110865000D01*
G37*
%TO.C,TP_5V1*%
X115250000Y-87630000D02*
G75*
G02*
X113350000Y-87630000I-950000J0D01*
G01*
X113350000Y-87630000D02*
G75*
G02*
X115250000Y-87630000I950000J0D01*
G01*
%TO.C,Q_B1*%
X151500000Y-112080000D02*
X151770000Y-112080000D01*
X151500000Y-118500000D02*
X151500000Y-112080000D01*
X158400000Y-112080000D02*
X158130000Y-112080000D01*
X158400000Y-118500000D02*
X158400000Y-112080000D01*
X158560000Y-110690000D02*
X158090000Y-110350000D01*
X158560000Y-110010000D01*
X158560000Y-110690000D01*
G36*
X158560000Y-110690000D02*
G01*
X158090000Y-110350000D01*
X158560000Y-110010000D01*
X158560000Y-110690000D01*
G37*
%TO.C,OPT_HL1*%
X126890000Y-71060000D02*
X126890000Y-76260000D01*
X126890000Y-76260000D02*
X128540000Y-76260000D01*
X130540000Y-76260000D02*
X132190000Y-76260000D01*
X132190000Y-71060000D02*
X126890000Y-71060000D01*
X132190000Y-76260000D02*
X132190000Y-71060000D01*
X128540000Y-76260000D02*
G75*
G02*
X130540000Y-76260000I1000000J0D01*
G01*
%TO.C,D_TVS_IN1*%
X157190000Y-87850000D02*
X157190000Y-92150000D01*
X157190000Y-87850000D02*
X163000000Y-87850000D01*
X157190000Y-92150000D02*
X163000000Y-92150000D01*
%TO.C,TVS_TX_PANEL1*%
X62790000Y-117260000D02*
X60130000Y-117260000D01*
X62790000Y-118960000D02*
X60130000Y-118960000D01*
X62790000Y-118960000D02*
X62790000Y-117260000D01*
%TO.C,TVS_RX_PANEL1*%
X67175000Y-117400000D02*
X67175000Y-114740000D01*
X67175000Y-117400000D02*
X68875000Y-117400000D01*
X68875000Y-117400000D02*
X68875000Y-114740000D01*
%TO.C,D_R1*%
X130465000Y-104350000D02*
X130465000Y-107650000D01*
X130465000Y-104350000D02*
X135975000Y-104350000D01*
X130465000Y-107650000D02*
X135975000Y-107650000D01*
%TO.C,R_TX1*%
X61495000Y-113160436D02*
X61495000Y-113614564D01*
X62965000Y-113160436D02*
X62965000Y-113614564D01*
%TO.C,R_GATE_R1*%
X130240000Y-100139564D02*
X130240000Y-99685436D01*
X131710000Y-100139564D02*
X131710000Y-99685436D01*
%TO.C,D_B1*%
X151098333Y-104175000D02*
X151098333Y-107475000D01*
X151098333Y-104175000D02*
X156608333Y-104175000D01*
X151098333Y-107475000D02*
X156608333Y-107475000D01*
%TO.C,R_GATE_COIL1*%
X103405000Y-65354564D02*
X103405000Y-64900436D01*
X104875000Y-65354564D02*
X104875000Y-64900436D01*
%TO.C,J_AUX1*%
X159900000Y-52430000D02*
X167340000Y-52430000D01*
X159900000Y-62470000D02*
X159900000Y-52430000D01*
X167940000Y-52430000D02*
X170300000Y-52430000D01*
X170300000Y-52430000D02*
X170300000Y-62470000D01*
X170300000Y-53050000D02*
X159900000Y-53050000D01*
X170300000Y-54550000D02*
X159900000Y-54550000D01*
X170300000Y-59450000D02*
X159900000Y-59450000D01*
X170300000Y-62470000D02*
X159900000Y-62470000D01*
X167640000Y-52430000D02*
X167200000Y-51820000D01*
X168080000Y-51820000D01*
X167640000Y-52430000D01*
G36*
X167640000Y-52430000D02*
G01*
X167200000Y-51820000D01*
X168080000Y-51820000D01*
X167640000Y-52430000D01*
G37*
%TO.C,U1*%
X146700000Y-76400000D02*
X146700000Y-77640000D01*
X146940000Y-76640000D02*
X155560000Y-76640000D01*
X146940000Y-88360000D02*
X146940000Y-76640000D01*
X147940000Y-76400000D02*
X146700000Y-76400000D01*
X155560000Y-76640000D02*
X155560000Y-88360000D01*
X155560000Y-88360000D02*
X146940000Y-88360000D01*
%TO.C,R_GATE_B1*%
X151873333Y-100139564D02*
X151873333Y-99685436D01*
X153343333Y-100139564D02*
X153343333Y-99685436D01*
%TO.C,TVS_HL1*%
X127190000Y-63350000D02*
X127190000Y-67650000D01*
X127190000Y-63350000D02*
X133000000Y-63350000D01*
X127190000Y-67650000D02*
X133000000Y-67650000D01*
%TO.C,TVS_5VP1*%
X70780000Y-117260000D02*
X70780000Y-118960000D01*
X70780000Y-117260000D02*
X73440000Y-117260000D01*
X70780000Y-118960000D02*
X73440000Y-118960000D01*
%TO.C,R_OPT_HL_LED1*%
X135155000Y-69980436D02*
X135155000Y-70434564D01*
X136625000Y-69980436D02*
X136625000Y-70434564D01*
%TO.C,R_LED_FAULT1*%
X112445436Y-104675000D02*
X112899564Y-104675000D01*
X112445436Y-106145000D02*
X112899564Y-106145000D01*
%TO.C,R_DS_CEILING1*%
X105350436Y-117352500D02*
X105804564Y-117352500D01*
X105350436Y-118822500D02*
X105804564Y-118822500D01*
%TO.C,J_LED1*%
X139100000Y-122680000D02*
X164740000Y-122680000D01*
X139100000Y-125700000D02*
X164740000Y-125700000D01*
X139100000Y-130600000D02*
X164740000Y-130600000D01*
X139100000Y-132100000D02*
X164740000Y-132100000D01*
X139100000Y-132720000D02*
X139100000Y-122680000D01*
X141460000Y-132720000D02*
X139100000Y-132720000D01*
X164740000Y-122680000D02*
X164740000Y-132720000D01*
X164740000Y-132720000D02*
X142060000Y-132720000D01*
X142200000Y-133330000D02*
X141320000Y-133330000D01*
X141760000Y-132720000D01*
X142200000Y-133330000D01*
G36*
X142200000Y-133330000D02*
G01*
X141320000Y-133330000D01*
X141760000Y-132720000D01*
X142200000Y-133330000D01*
G37*
%TO.C,J_COIL1*%
X114680000Y-52430000D02*
X127200000Y-52430000D01*
X114680000Y-62470000D02*
X114680000Y-52430000D01*
X127800000Y-52430000D02*
X130160000Y-52430000D01*
X130160000Y-52430000D02*
X130160000Y-62470000D01*
X130160000Y-53050000D02*
X114680000Y-53050000D01*
X130160000Y-54550000D02*
X114680000Y-54550000D01*
X130160000Y-59450000D02*
X114680000Y-59450000D01*
X130160000Y-62470000D02*
X114680000Y-62470000D01*
X127500000Y-52430000D02*
X127060000Y-51820000D01*
X127940000Y-51820000D01*
X127500000Y-52430000D01*
G36*
X127500000Y-52430000D02*
G01*
X127060000Y-51820000D01*
X127940000Y-51820000D01*
X127500000Y-52430000D01*
G37*
%TO.C,LED_PWR1*%
X100665000Y-104450000D02*
X100665000Y-106370000D01*
X100665000Y-106370000D02*
X103350000Y-106370000D01*
X103350000Y-104450000D02*
X100665000Y-104450000D01*
%TO.C,F2*%
X133900000Y-59000000D02*
X133900000Y-53000000D01*
X135200000Y-53000000D02*
X133900000Y-53000000D01*
X135200000Y-59000000D02*
X133900000Y-59000000D01*
X137800000Y-53000000D02*
X139100000Y-53000000D01*
X137800000Y-59000000D02*
X139100000Y-59000000D01*
X139100000Y-53500000D02*
X148900000Y-53500000D01*
X139100000Y-58500000D02*
X148900000Y-58500000D01*
X139100000Y-59000000D02*
X139100000Y-53000000D01*
X148900000Y-53000000D02*
X150200000Y-53000000D01*
X148900000Y-59000000D02*
X148900000Y-53000000D01*
X148900000Y-59000000D02*
X150200000Y-59000000D01*
X152800000Y-53000000D02*
X154100000Y-53000000D01*
X152800000Y-59000000D02*
X154100000Y-59000000D01*
X154100000Y-53000000D02*
X154100000Y-59000000D01*
%TO.C,F3*%
X73220000Y-104891248D02*
X73220000Y-107663752D01*
X76640000Y-104891248D02*
X76640000Y-107663752D01*
%TO.C,LED_COIL1*%
X110800000Y-60877500D02*
X110800000Y-63562500D01*
X112720000Y-60877500D02*
X110800000Y-60877500D01*
X112720000Y-63562500D02*
X112720000Y-60877500D01*
%TO.C,D_W1*%
X161965000Y-104175000D02*
X161965000Y-107475000D01*
X161965000Y-104175000D02*
X167475000Y-104175000D01*
X161965000Y-107475000D02*
X167475000Y-107475000D01*
%TO.C,C_BULK1*%
X156840302Y-77685000D02*
X157640302Y-77685000D01*
X157240302Y-77285000D02*
X157240302Y-78085000D01*
X161250000Y-75920000D02*
X161250000Y-84080000D01*
X161290000Y-75920000D02*
X161290000Y-84080000D01*
X161330000Y-75921000D02*
X161330000Y-84079000D01*
X161370000Y-75922000D02*
X161370000Y-84078000D01*
X161410000Y-75923000D02*
X161410000Y-84077000D01*
X161450000Y-75925000D02*
X161450000Y-84075000D01*
X161490000Y-75927000D02*
X161490000Y-84073000D01*
X161530000Y-75930000D02*
X161530000Y-84070000D01*
X161570000Y-75932000D02*
X161570000Y-84068000D01*
X161610000Y-75936000D02*
X161610000Y-84064000D01*
X161650000Y-75939000D02*
X161650000Y-84061000D01*
X161690000Y-75944000D02*
X161690000Y-84056000D01*
X161730000Y-75948000D02*
X161730000Y-84052000D01*
X161770000Y-75953000D02*
X161770000Y-84047000D01*
X161810000Y-75958000D02*
X161810000Y-84042000D01*
X161850000Y-75964000D02*
X161850000Y-84036000D01*
X161890000Y-75970000D02*
X161890000Y-84030000D01*
X161930000Y-75977000D02*
X161930000Y-84023000D01*
X161970000Y-75983000D02*
X161970000Y-78960000D01*
X161970000Y-81040000D02*
X161970000Y-84017000D01*
X162010000Y-75991000D02*
X162010000Y-78960000D01*
X162010000Y-81040000D02*
X162010000Y-84009000D01*
X162050000Y-75998000D02*
X162050000Y-78960000D01*
X162050000Y-81040000D02*
X162050000Y-84002000D01*
X162090000Y-76007000D02*
X162090000Y-78960000D01*
X162090000Y-81040000D02*
X162090000Y-83993000D01*
X162130000Y-76015000D02*
X162130000Y-78960000D01*
X162130000Y-81040000D02*
X162130000Y-83985000D01*
X162170000Y-76024000D02*
X162170000Y-78960000D01*
X162170000Y-81040000D02*
X162170000Y-83976000D01*
X162210000Y-76033000D02*
X162210000Y-78960000D01*
X162210000Y-81040000D02*
X162210000Y-83967000D01*
X162250000Y-76043000D02*
X162250000Y-78960000D01*
X162250000Y-81040000D02*
X162250000Y-83957000D01*
X162290000Y-76053000D02*
X162290000Y-78960000D01*
X162290000Y-81040000D02*
X162290000Y-83947000D01*
X162330000Y-76064000D02*
X162330000Y-78960000D01*
X162330000Y-81040000D02*
X162330000Y-83936000D01*
X162370000Y-76075000D02*
X162370000Y-78960000D01*
X162370000Y-81040000D02*
X162370000Y-83925000D01*
X162410000Y-76087000D02*
X162410000Y-78960000D01*
X162410000Y-81040000D02*
X162410000Y-83913000D01*
X162450000Y-76099000D02*
X162450000Y-78960000D01*
X162450000Y-81040000D02*
X162450000Y-83901000D01*
X162490000Y-76111000D02*
X162490000Y-78960000D01*
X162490000Y-81040000D02*
X162490000Y-83889000D01*
X162530000Y-76124000D02*
X162530000Y-78960000D01*
X162530000Y-81040000D02*
X162530000Y-83876000D01*
X162570000Y-76137000D02*
X162570000Y-78960000D01*
X162570000Y-81040000D02*
X162570000Y-83863000D01*
X162610000Y-76151000D02*
X162610000Y-78960000D01*
X162610000Y-81040000D02*
X162610000Y-83849000D01*
X162650000Y-76165000D02*
X162650000Y-78960000D01*
X162650000Y-81040000D02*
X162650000Y-83835000D01*
X162690000Y-76180000D02*
X162690000Y-78960000D01*
X162690000Y-81040000D02*
X162690000Y-83820000D01*
X162730000Y-76195000D02*
X162730000Y-78960000D01*
X162730000Y-81040000D02*
X162730000Y-83805000D01*
X162770000Y-76211000D02*
X162770000Y-78960000D01*
X162770000Y-81040000D02*
X162770000Y-83789000D01*
X162810000Y-76227000D02*
X162810000Y-78960000D01*
X162810000Y-81040000D02*
X162810000Y-83773000D01*
X162850000Y-76243000D02*
X162850000Y-78960000D01*
X162850000Y-81040000D02*
X162850000Y-83757000D01*
X162890000Y-76260000D02*
X162890000Y-78960000D01*
X162890000Y-81040000D02*
X162890000Y-83740000D01*
X162930000Y-76278000D02*
X162930000Y-78960000D01*
X162930000Y-81040000D02*
X162930000Y-83722000D01*
X162970000Y-76296000D02*
X162970000Y-78960000D01*
X162970000Y-81040000D02*
X162970000Y-83704000D01*
X163010000Y-76315000D02*
X163010000Y-78960000D01*
X163010000Y-81040000D02*
X163010000Y-83685000D01*
X163050000Y-76334000D02*
X163050000Y-78960000D01*
X163050000Y-81040000D02*
X163050000Y-83666000D01*
X163090000Y-76354000D02*
X163090000Y-78960000D01*
X163090000Y-81040000D02*
X163090000Y-83646000D01*
X163130000Y-76374000D02*
X163130000Y-78960000D01*
X163130000Y-81040000D02*
X163130000Y-83626000D01*
X163170000Y-76395000D02*
X163170000Y-78960000D01*
X163170000Y-81040000D02*
X163170000Y-83605000D01*
X163210000Y-76416000D02*
X163210000Y-78960000D01*
X163210000Y-81040000D02*
X163210000Y-83584000D01*
X163250000Y-76438000D02*
X163250000Y-78960000D01*
X163250000Y-81040000D02*
X163250000Y-83562000D01*
X163290000Y-76461000D02*
X163290000Y-78960000D01*
X163290000Y-81040000D02*
X163290000Y-83539000D01*
X163330000Y-76484000D02*
X163330000Y-78960000D01*
X163330000Y-81040000D02*
X163330000Y-83516000D01*
X163370000Y-76507000D02*
X163370000Y-78960000D01*
X163370000Y-81040000D02*
X163370000Y-83493000D01*
X163410000Y-76532000D02*
X163410000Y-78960000D01*
X163410000Y-81040000D02*
X163410000Y-83468000D01*
X163450000Y-76557000D02*
X163450000Y-78960000D01*
X163450000Y-81040000D02*
X163450000Y-83443000D01*
X163490000Y-76582000D02*
X163490000Y-78960000D01*
X163490000Y-81040000D02*
X163490000Y-83418000D01*
X163530000Y-76608000D02*
X163530000Y-78960000D01*
X163530000Y-81040000D02*
X163530000Y-83392000D01*
X163570000Y-76635000D02*
X163570000Y-78960000D01*
X163570000Y-81040000D02*
X163570000Y-83365000D01*
X163610000Y-76663000D02*
X163610000Y-78960000D01*
X163610000Y-81040000D02*
X163610000Y-83337000D01*
X163650000Y-76691000D02*
X163650000Y-78960000D01*
X163650000Y-81040000D02*
X163650000Y-83309000D01*
X163690000Y-76720000D02*
X163690000Y-78960000D01*
X163690000Y-81040000D02*
X163690000Y-83280000D01*
X163730000Y-76750000D02*
X163730000Y-78960000D01*
X163730000Y-81040000D02*
X163730000Y-83250000D01*
X163770000Y-76781000D02*
X163770000Y-78960000D01*
X163770000Y-81040000D02*
X163770000Y-83219000D01*
X163810000Y-76812000D02*
X163810000Y-78960000D01*
X163810000Y-81040000D02*
X163810000Y-83188000D01*
X163850000Y-76844000D02*
X163850000Y-78960000D01*
X163850000Y-81040000D02*
X163850000Y-83156000D01*
X163890000Y-76877000D02*
X163890000Y-78960000D01*
X163890000Y-81040000D02*
X163890000Y-83123000D01*
X163930000Y-76911000D02*
X163930000Y-78960000D01*
X163930000Y-81040000D02*
X163930000Y-83089000D01*
X163970000Y-76945000D02*
X163970000Y-78960000D01*
X163970000Y-81040000D02*
X163970000Y-83055000D01*
X164010000Y-76981000D02*
X164010000Y-78960000D01*
X164010000Y-81040000D02*
X164010000Y-83019000D01*
X164050000Y-77018000D02*
X164050000Y-82982000D01*
X164090000Y-77055000D02*
X164090000Y-82945000D01*
X164130000Y-77094000D02*
X164130000Y-82906000D01*
X164170000Y-77133000D02*
X164170000Y-82867000D01*
X164210000Y-77174000D02*
X164210000Y-82826000D01*
X164250000Y-77216000D02*
X164250000Y-82784000D01*
X164290000Y-77259000D02*
X164290000Y-82741000D01*
X164330000Y-77304000D02*
X164330000Y-82696000D01*
X164370000Y-77349000D02*
X164370000Y-82651000D01*
X164410000Y-77396000D02*
X164410000Y-82604000D01*
X164450000Y-77445000D02*
X164450000Y-82555000D01*
X164490000Y-77495000D02*
X164490000Y-82505000D01*
X164530000Y-77547000D02*
X164530000Y-82453000D01*
X164570000Y-77600000D02*
X164570000Y-82400000D01*
X164610000Y-77656000D02*
X164610000Y-82344000D01*
X164650000Y-77713000D02*
X164650000Y-82287000D01*
X164690000Y-77773000D02*
X164690000Y-82227000D01*
X164730000Y-77835000D02*
X164730000Y-82165000D01*
X164770000Y-77899000D02*
X164770000Y-82101000D01*
X164810000Y-77966000D02*
X164810000Y-82034000D01*
X164850000Y-78036000D02*
X164850000Y-81964000D01*
X164890000Y-78110000D02*
X164890000Y-81890000D01*
X164930000Y-78187000D02*
X164930000Y-81813000D01*
X164970000Y-78269000D02*
X164970000Y-81731000D01*
X165010000Y-78356000D02*
X165010000Y-81644000D01*
X165050000Y-78448000D02*
X165050000Y-81552000D01*
X165090000Y-78547000D02*
X165090000Y-81453000D01*
X165130000Y-78654000D02*
X165130000Y-81346000D01*
X165170000Y-78772000D02*
X165170000Y-81228000D01*
X165210000Y-78903000D02*
X165210000Y-81097000D01*
X165250000Y-79053000D02*
X165250000Y-80947000D01*
X165290000Y-79232000D02*
X165290000Y-80768000D01*
X165330000Y-79467000D02*
X165330000Y-80533000D01*
X165370000Y-80000000D02*
G75*
G02*
X157130000Y-80000000I-4120000J0D01*
G01*
X157130000Y-80000000D02*
G75*
G02*
X165370000Y-80000000I4120000J0D01*
G01*
%TO.C,F1*%
X172000000Y-99400000D02*
X178000000Y-99400000D01*
X172000000Y-100700000D02*
X172000000Y-99400000D01*
X172000000Y-104600000D02*
X172000000Y-103300000D01*
X172000000Y-115700000D02*
X172000000Y-114400000D01*
X172000000Y-118300000D02*
X172000000Y-119600000D01*
X172500000Y-114400000D02*
X172500000Y-104600000D01*
X177500000Y-114400000D02*
X177500000Y-104600000D01*
X178000000Y-100700000D02*
X178000000Y-99400000D01*
X178000000Y-104600000D02*
X172000000Y-104600000D01*
X178000000Y-104600000D02*
X178000000Y-103300000D01*
X178000000Y-114400000D02*
X172000000Y-114400000D01*
X178000000Y-115700000D02*
X178000000Y-114400000D01*
X178000000Y-118300000D02*
X178000000Y-119600000D01*
X178000000Y-119600000D02*
X172000000Y-119600000D01*
%TO.C,J_PANEL1*%
X59340000Y-122680000D02*
X79900000Y-122680000D01*
X59340000Y-125700000D02*
X79900000Y-125700000D01*
X59340000Y-130600000D02*
X79900000Y-130600000D01*
X59340000Y-132100000D02*
X79900000Y-132100000D01*
X59340000Y-132720000D02*
X59340000Y-122680000D01*
X61700000Y-132720000D02*
X59340000Y-132720000D01*
X79900000Y-122680000D02*
X79900000Y-132720000D01*
X79900000Y-132720000D02*
X62300000Y-132720000D01*
X62440000Y-133330000D02*
X61560000Y-133330000D01*
X62000000Y-132720000D01*
X62440000Y-133330000D01*
G36*
X62440000Y-133330000D02*
G01*
X61560000Y-133330000D01*
X62000000Y-132720000D01*
X62440000Y-133330000D01*
G37*
%TO.C,ESD_DR1*%
X89320000Y-116390000D02*
X89320000Y-119050000D01*
X91020000Y-116390000D02*
X89320000Y-116390000D01*
X91020000Y-116390000D02*
X91020000Y-119050000D01*
%TO.C,R_LED_COIL1*%
X115797064Y-65305000D02*
X115342936Y-65305000D01*
X115797064Y-66775000D02*
X115342936Y-66775000D01*
%TO.C,J_PWR1*%
X167852500Y-74805000D02*
X177892500Y-74805000D01*
X167852500Y-85205000D02*
X167852500Y-74805000D01*
X170872500Y-85205000D02*
X170872500Y-74805000D01*
X175772500Y-85205000D02*
X175772500Y-74805000D01*
X177272500Y-85205000D02*
X177272500Y-74805000D01*
X177892500Y-74805000D02*
X177892500Y-82245000D01*
X177892500Y-82845000D02*
X177892500Y-85205000D01*
X177892500Y-85205000D02*
X167852500Y-85205000D01*
X178502500Y-82985000D02*
X177892500Y-82545000D01*
X178502500Y-82105000D01*
X178502500Y-82985000D01*
G36*
X178502500Y-82985000D02*
G01*
X177892500Y-82545000D01*
X178502500Y-82105000D01*
X178502500Y-82985000D01*
G37*
%TO.C,ESD_DS_BENCH1*%
X126330000Y-117457500D02*
X126330000Y-114797500D01*
X126330000Y-117457500D02*
X128030000Y-117457500D01*
X128030000Y-117457500D02*
X128030000Y-114797500D01*
%TO.C,R_LED_PWR1*%
X102210436Y-99595000D02*
X102664564Y-99595000D01*
X102210436Y-101065000D02*
X102664564Y-101065000D01*
%TO.C,D_G1*%
X139948334Y-104175000D02*
X139948334Y-107475000D01*
X139948334Y-104175000D02*
X145458334Y-104175000D01*
X139948334Y-107475000D02*
X145458334Y-107475000D01*
%TO.C,R_GPD_G1*%
X147056667Y-100139564D02*
X147056667Y-99685436D01*
X148526667Y-100139564D02*
X148526667Y-99685436D01*
%TO.C,R_OPT_HL_PU1*%
X123725000Y-79324564D02*
X123725000Y-78870436D01*
X125195000Y-79324564D02*
X125195000Y-78870436D01*
%TO.C,R_OPT_AUX_LED1*%
X149990436Y-62765000D02*
X150444564Y-62765000D01*
X149990436Y-64235000D02*
X150444564Y-64235000D01*
%TO.C,J_ESP_R1*%
X88070000Y-58450000D02*
X88070000Y-104230000D01*
X88070000Y-58450000D02*
X90730000Y-58450000D01*
X88070000Y-104230000D02*
X90730000Y-104230000D01*
X89400000Y-55850000D02*
X90730000Y-55850000D01*
X90730000Y-55850000D02*
X90730000Y-57180000D01*
X90730000Y-58450000D02*
X90730000Y-104230000D01*
%TO.C,D_COIL1*%
X125510000Y-63850000D02*
X120000000Y-63850000D01*
X125510000Y-67150000D02*
X120000000Y-67150000D01*
X125510000Y-67150000D02*
X125510000Y-63850000D01*
%TO.C,C_5V_IN1*%
X150213748Y-72300000D02*
X151636252Y-72300000D01*
X150213748Y-75020000D02*
X151636252Y-75020000D01*
%TO.C,LED_FAULT1*%
X111012500Y-99370000D02*
X111012500Y-101290000D01*
X111012500Y-101290000D02*
X113697500Y-101290000D01*
X113697500Y-99370000D02*
X111012500Y-99370000D01*
%TO.C,R_GPD_W1*%
X167715000Y-100639564D02*
X167715000Y-100185436D01*
X169185000Y-100639564D02*
X169185000Y-100185436D01*
%TO.C,Q_COIL1*%
X102220000Y-53475000D02*
X102220000Y-59895000D01*
X102220000Y-59895000D02*
X102490000Y-59895000D01*
X109120000Y-53475000D02*
X109120000Y-59895000D01*
X109120000Y-59895000D02*
X108850000Y-59895000D01*
X102530000Y-61625000D02*
X102060000Y-61965000D01*
X102060000Y-61285000D01*
X102530000Y-61625000D01*
G36*
X102530000Y-61625000D02*
G01*
X102060000Y-61965000D01*
X102060000Y-61285000D01*
X102530000Y-61625000D01*
G37*
%TD*%
%LPC*%
D15*
%TO.C,TP_3V3*%
X116840000Y-78740000D03*
%TD*%
D16*
%TO.C,Q_R1*%
X136230000Y-110370000D03*
D17*
X133950000Y-116670000D03*
D16*
X131670000Y-110370000D03*
%TD*%
D18*
%TO.C,R_OPT_AUX_PU1*%
X143510000Y-67310000D03*
X143510000Y-65485000D03*
%TD*%
%TO.C,R_DR_S1*%
X86360000Y-118665000D03*
X86360000Y-116840000D03*
%TD*%
D15*
%TO.C,TP_GND1*%
X123190000Y-92710000D03*
%TD*%
D18*
%TO.C,R_GATE_G1*%
X141791667Y-100825000D03*
X141791667Y-99000000D03*
%TD*%
D19*
%TO.C,R_GPD_COIL1*%
X107950000Y-64215000D03*
X107950000Y-66040000D03*
%TD*%
D20*
%TO.C,J_BENCH1*%
X119875000Y-128057500D03*
D21*
X124955000Y-128057500D03*
X130035000Y-128057500D03*
%TD*%
D22*
%TO.C,J_ESP_L1*%
X64000000Y-57180000D03*
D23*
X64000000Y-59720000D03*
X64000000Y-62260000D03*
X64000000Y-64800000D03*
X64000000Y-67340000D03*
X64000000Y-69880000D03*
X64000000Y-72420000D03*
X64000000Y-74960000D03*
X64000000Y-77500000D03*
X64000000Y-80040000D03*
X64000000Y-82580000D03*
X64000000Y-85120000D03*
X64000000Y-87660000D03*
X64000000Y-90200000D03*
X64000000Y-92740000D03*
X64000000Y-95280000D03*
X64000000Y-97820000D03*
X64000000Y-100360000D03*
X64000000Y-102900000D03*
%TD*%
D24*
%TO.C,ESD_DS_CEILING1*%
X110490000Y-119057500D03*
X110490000Y-116957500D03*
%TD*%
D18*
%TO.C,R_GPD_B1*%
X158608333Y-100825000D03*
X158608333Y-99000000D03*
%TD*%
%TO.C,R_GATE_W1*%
X163475000Y-100825000D03*
X163475000Y-99000000D03*
%TD*%
D20*
%TO.C,J_CEILING1*%
X101870000Y-128000000D03*
D21*
X106950000Y-128000000D03*
X112030000Y-128000000D03*
%TD*%
D25*
%TO.C,R_RX1*%
X72945000Y-115570000D03*
X71120000Y-115570000D03*
%TD*%
D26*
%TO.C,OPT_AUX1*%
X165100000Y-68580000D03*
D27*
X165100000Y-66040000D03*
X157480000Y-66040000D03*
X157480000Y-68580000D03*
%TD*%
D28*
%TO.C,C_5V_OUT1*%
X142240000Y-85090000D03*
X142240000Y-83190000D03*
%TD*%
D20*
%TO.C,J_DOOR1*%
X87630000Y-128000000D03*
D21*
X92710000Y-128000000D03*
%TD*%
D18*
%TO.C,R_DR_PU1*%
X93980000Y-118825000D03*
X93980000Y-117000000D03*
%TD*%
D29*
%TO.C,TVS_AUX1*%
X169650000Y-67040000D03*
X173950000Y-67040000D03*
%TD*%
D30*
%TO.C,MH4*%
X175000000Y-130000000D03*
%TD*%
D18*
%TO.C,R_DS_BENCH1*%
X121920000Y-116840000D03*
X121920000Y-115015000D03*
%TD*%
D31*
%TO.C,D_REV1*%
X168500000Y-90500000D03*
X172500000Y-90500000D03*
%TD*%
D32*
%TO.C,C_DR1*%
X81280000Y-73340000D03*
X79380000Y-73340000D03*
%TD*%
D18*
%TO.C,R_GPD_R1*%
X136975000Y-100825000D03*
X136975000Y-99000000D03*
%TD*%
D33*
%TO.C,C_24V1*%
X149860000Y-69850000D03*
X151760000Y-69850000D03*
%TD*%
D16*
%TO.C,Q_G1*%
X146755000Y-110525000D03*
D17*
X144475000Y-116825000D03*
D16*
X142195000Y-110525000D03*
%TD*%
%TO.C,Q_W1*%
X168255000Y-110525000D03*
D17*
X165975000Y-116825000D03*
D16*
X163695000Y-110525000D03*
%TD*%
D15*
%TO.C,TP_5V1*%
X114300000Y-87630000D03*
%TD*%
D16*
%TO.C,Q_B1*%
X157230000Y-110350000D03*
D17*
X154950000Y-116650000D03*
D16*
X152670000Y-110350000D03*
%TD*%
D26*
%TO.C,OPT_HL1*%
X133350000Y-74930000D03*
D27*
X133350000Y-72390000D03*
X125730000Y-72390000D03*
X125730000Y-74930000D03*
%TD*%
D29*
%TO.C,D_TVS_IN1*%
X158700000Y-90000000D03*
X163000000Y-90000000D03*
%TD*%
D34*
%TO.C,TVS_TX_PANEL1*%
X62230000Y-118110000D03*
X60130000Y-118110000D03*
%TD*%
D24*
%TO.C,TVS_RX_PANEL1*%
X68025000Y-116840000D03*
X68025000Y-114740000D03*
%TD*%
D30*
%TO.C,MH2*%
X175000000Y-55000000D03*
%TD*%
D31*
%TO.C,D_R1*%
X131975000Y-106000000D03*
X135975000Y-106000000D03*
%TD*%
D19*
%TO.C,R_TX1*%
X62230000Y-112475000D03*
X62230000Y-114300000D03*
%TD*%
D18*
%TO.C,R_GATE_R1*%
X130975000Y-100825000D03*
X130975000Y-99000000D03*
%TD*%
D31*
%TO.C,D_B1*%
X152608333Y-105825000D03*
X156608333Y-105825000D03*
%TD*%
D18*
%TO.C,R_GATE_COIL1*%
X104140000Y-66040000D03*
X104140000Y-64215000D03*
%TD*%
D35*
%TO.C,J_AUX1*%
X167640000Y-57150000D03*
D21*
X162560000Y-57150000D03*
%TD*%
D36*
%TO.C,U1*%
X149000000Y-80010000D03*
D37*
X149000000Y-82550000D03*
X149000000Y-85090000D03*
%TD*%
D18*
%TO.C,R_GATE_B1*%
X152608333Y-100825000D03*
X152608333Y-99000000D03*
%TD*%
D30*
%TO.C,MH1*%
X55000000Y-55000000D03*
%TD*%
D29*
%TO.C,TVS_HL1*%
X128700000Y-65500000D03*
X133000000Y-65500000D03*
%TD*%
D38*
%TO.C,TVS_5VP1*%
X71340000Y-118110000D03*
X73440000Y-118110000D03*
%TD*%
D19*
%TO.C,R_OPT_HL_LED1*%
X135890000Y-69295000D03*
X135890000Y-71120000D03*
%TD*%
D39*
%TO.C,R_LED_FAULT1*%
X111760000Y-105410000D03*
X113585000Y-105410000D03*
%TD*%
%TO.C,R_DS_CEILING1*%
X104665000Y-118087500D03*
X106490000Y-118087500D03*
%TD*%
D20*
%TO.C,J_LED1*%
X141760000Y-128000000D03*
D21*
X146840000Y-128000000D03*
X151920000Y-128000000D03*
X157000000Y-128000000D03*
X162080000Y-128000000D03*
%TD*%
D35*
%TO.C,J_COIL1*%
X127500000Y-57150000D03*
D21*
X122420000Y-57150000D03*
X117340000Y-57150000D03*
%TD*%
D40*
%TO.C,LED_PWR1*%
X101412500Y-105410000D03*
X103287500Y-105410000D03*
%TD*%
D41*
%TO.C,F2*%
X151500000Y-58500000D03*
X151500000Y-53500000D03*
D42*
X136500000Y-58500000D03*
X136500000Y-53500000D03*
%TD*%
D43*
%TO.C,F3*%
X74930000Y-104140000D03*
X74930000Y-108415000D03*
%TD*%
D44*
%TO.C,LED_COIL1*%
X111760000Y-61625000D03*
X111760000Y-63500000D03*
%TD*%
D31*
%TO.C,D_W1*%
X163475000Y-105825000D03*
X167475000Y-105825000D03*
%TD*%
D45*
%TO.C,C_BULK1*%
X159500000Y-80000000D03*
D27*
X163000000Y-80000000D03*
%TD*%
D46*
%TO.C,F1*%
X177500000Y-102000000D03*
X172500000Y-102000000D03*
D42*
X177500000Y-117000000D03*
X172500000Y-117000000D03*
%TD*%
D20*
%TO.C,J_PANEL1*%
X62000000Y-128000000D03*
D21*
X67080000Y-128000000D03*
X72160000Y-128000000D03*
X77240000Y-128000000D03*
%TD*%
D47*
%TO.C,ESD_DR1*%
X90170000Y-116950000D03*
X90170000Y-119050000D03*
%TD*%
D25*
%TO.C,R_LED_COIL1*%
X116482500Y-66040000D03*
X114657500Y-66040000D03*
%TD*%
D48*
%TO.C,J_PWR1*%
X173172500Y-82545000D03*
D21*
X173172500Y-77465000D03*
%TD*%
D24*
%TO.C,ESD_DS_BENCH1*%
X127180000Y-116897500D03*
X127180000Y-114797500D03*
%TD*%
D39*
%TO.C,R_LED_PWR1*%
X101525000Y-100330000D03*
X103350000Y-100330000D03*
%TD*%
D31*
%TO.C,D_G1*%
X141458334Y-105825000D03*
X145458334Y-105825000D03*
%TD*%
D18*
%TO.C,R_GPD_G1*%
X147791667Y-100825000D03*
X147791667Y-99000000D03*
%TD*%
%TO.C,R_OPT_HL_PU1*%
X124460000Y-80010000D03*
X124460000Y-78185000D03*
%TD*%
D39*
%TO.C,R_OPT_AUX_LED1*%
X149305000Y-63500000D03*
X151130000Y-63500000D03*
%TD*%
D22*
%TO.C,J_ESP_R1*%
X89400000Y-57180000D03*
D23*
X89400000Y-59720000D03*
X89400000Y-62260000D03*
X89400000Y-64800000D03*
X89400000Y-67340000D03*
X89400000Y-69880000D03*
X89400000Y-72420000D03*
X89400000Y-74960000D03*
X89400000Y-77500000D03*
X89400000Y-80040000D03*
X89400000Y-82580000D03*
X89400000Y-85120000D03*
X89400000Y-87660000D03*
X89400000Y-90200000D03*
X89400000Y-92740000D03*
X89400000Y-95280000D03*
X89400000Y-97820000D03*
X89400000Y-100360000D03*
X89400000Y-102900000D03*
%TD*%
D49*
%TO.C,D_COIL1*%
X124000000Y-65500000D03*
X120000000Y-65500000D03*
%TD*%
D50*
%TO.C,C_5V_IN1*%
X149450000Y-73660000D03*
X152400000Y-73660000D03*
%TD*%
D30*
%TO.C,MH3*%
X55000000Y-130000000D03*
%TD*%
D40*
%TO.C,LED_FAULT1*%
X111760000Y-100330000D03*
X113635000Y-100330000D03*
%TD*%
D18*
%TO.C,R_GPD_W1*%
X168450000Y-101325000D03*
X168450000Y-99500000D03*
%TD*%
D51*
%TO.C,Q_COIL1*%
X103390000Y-61625000D03*
D52*
X105670000Y-55325000D03*
D51*
X107950000Y-61625000D03*
%TD*%
%LPD*%
M02*
