%TF.GenerationSoftware,KiCad,Pcbnew,10.0.1*%
%TF.CreationDate,2026-04-30T13:42:22-06:00*%
%TF.ProjectId,sauna-controller,7361756e-612d-4636-9f6e-74726f6c6c65,rev?*%
%TF.SameCoordinates,Original*%
%TF.FileFunction,Legend,Bot*%
%TF.FilePolarity,Positive*%
%FSLAX46Y46*%
G04 Gerber Fmt 4.6, Leading zero omitted, Abs format (unit mm)*
G04 Created by KiCad (PCBNEW 10.0.1) date 2026-04-30 13:42:22*
%MOMM*%
%LPD*%
G01*
G04 APERTURE LIST*
G04 Aperture macros list*
%AMRoundRect*
0 Rectangle with rounded corners*
0 $1 Rounding radius*
0 $2 $3 $4 $5 $6 $7 $8 $9 X,Y pos of 4 corners*
0 Add a 4 corners polygon primitive as box body*
4,1,4,$2,$3,$4,$5,$6,$7,$8,$9,$2,$3,0*
0 Add four circle primitives for the rounded corners*
1,1,$1+$1,$2,$3*
1,1,$1+$1,$4,$5*
1,1,$1+$1,$6,$7*
1,1,$1+$1,$8,$9*
0 Add four rect primitives between the rounded corners*
20,1,$1+$1,$2,$3,$4,$5,0*
20,1,$1+$1,$4,$5,$6,$7,0*
20,1,$1+$1,$6,$7,$8,$9,0*
20,1,$1+$1,$8,$9,$2,$3,0*%
G04 Aperture macros list end*
%ADD10C,0.150000*%
%ADD11C,0.225000*%
%ADD12RoundRect,0.250000X-1.050000X-1.050000X1.050000X-1.050000X1.050000X1.050000X-1.050000X1.050000X0*%
%ADD13C,2.600000*%
%ADD14R,1.700000X1.700000*%
%ADD15C,1.700000*%
%ADD16RoundRect,0.250000X0.550000X0.550000X-0.550000X0.550000X-0.550000X-0.550000X0.550000X-0.550000X0*%
%ADD17C,1.600000*%
%ADD18C,3.200000*%
%ADD19RoundRect,0.250000X1.050000X1.050000X-1.050000X1.050000X-1.050000X-1.050000X1.050000X-1.050000X0*%
%ADD20R,2.300000X1.500000*%
%ADD21O,2.300000X1.500000*%
%ADD22RoundRect,0.575000X0.575000X0.575000X-0.575000X0.575000X-0.575000X-0.575000X0.575000X-0.575000X0*%
%ADD23C,2.300000*%
%ADD24RoundRect,0.250000X-0.550000X-0.550000X0.550000X-0.550000X0.550000X0.550000X-0.550000X0.550000X0*%
%ADD25RoundRect,0.575000X-0.575000X0.575000X-0.575000X-0.575000X0.575000X-0.575000X0.575000X0.575000X0*%
%ADD26RoundRect,0.250000X1.050000X-1.050000X1.050000X1.050000X-1.050000X1.050000X-1.050000X-1.050000X0*%
G04 APERTURE END LIST*
D10*
X109378570Y-89288152D02*
X109140475Y-89954819D01*
X109140475Y-89954819D02*
X108902380Y-89288152D01*
X107997618Y-89954819D02*
X108569046Y-89954819D01*
X108283332Y-89954819D02*
X108283332Y-88954819D01*
X108283332Y-88954819D02*
X108378570Y-89097676D01*
X108378570Y-89097676D02*
X108473808Y-89192914D01*
X108473808Y-89192914D02*
X108569046Y-89240533D01*
X107569046Y-89859580D02*
X107521427Y-89907200D01*
X107521427Y-89907200D02*
X107569046Y-89954819D01*
X107569046Y-89954819D02*
X107616665Y-89907200D01*
X107616665Y-89907200D02*
X107569046Y-89859580D01*
X107569046Y-89859580D02*
X107569046Y-89954819D01*
X106902380Y-88954819D02*
X106807142Y-88954819D01*
X106807142Y-88954819D02*
X106711904Y-89002438D01*
X106711904Y-89002438D02*
X106664285Y-89050057D01*
X106664285Y-89050057D02*
X106616666Y-89145295D01*
X106616666Y-89145295D02*
X106569047Y-89335771D01*
X106569047Y-89335771D02*
X106569047Y-89573866D01*
X106569047Y-89573866D02*
X106616666Y-89764342D01*
X106616666Y-89764342D02*
X106664285Y-89859580D01*
X106664285Y-89859580D02*
X106711904Y-89907200D01*
X106711904Y-89907200D02*
X106807142Y-89954819D01*
X106807142Y-89954819D02*
X106902380Y-89954819D01*
X106902380Y-89954819D02*
X106997618Y-89907200D01*
X106997618Y-89907200D02*
X107045237Y-89859580D01*
X107045237Y-89859580D02*
X107092856Y-89764342D01*
X107092856Y-89764342D02*
X107140475Y-89573866D01*
X107140475Y-89573866D02*
X107140475Y-89335771D01*
X107140475Y-89335771D02*
X107092856Y-89145295D01*
X107092856Y-89145295D02*
X107045237Y-89050057D01*
X107045237Y-89050057D02*
X106997618Y-89002438D01*
X106997618Y-89002438D02*
X106902380Y-88954819D01*
D11*
X129617141Y-85343657D02*
X128902856Y-85343657D01*
X129759998Y-85772228D02*
X129259998Y-84272228D01*
X129259998Y-84272228D02*
X128759998Y-85772228D01*
X128045713Y-85772228D02*
X128188570Y-85700800D01*
X128188570Y-85700800D02*
X128259999Y-85557942D01*
X128259999Y-85557942D02*
X128259999Y-84272228D01*
X126902856Y-85700800D02*
X127045713Y-85772228D01*
X127045713Y-85772228D02*
X127331428Y-85772228D01*
X127331428Y-85772228D02*
X127474285Y-85700800D01*
X127474285Y-85700800D02*
X127545713Y-85557942D01*
X127545713Y-85557942D02*
X127545713Y-84986514D01*
X127545713Y-84986514D02*
X127474285Y-84843657D01*
X127474285Y-84843657D02*
X127331428Y-84772228D01*
X127331428Y-84772228D02*
X127045713Y-84772228D01*
X127045713Y-84772228D02*
X126902856Y-84843657D01*
X126902856Y-84843657D02*
X126831428Y-84986514D01*
X126831428Y-84986514D02*
X126831428Y-85129371D01*
X126831428Y-85129371D02*
X127545713Y-85272228D01*
X126331428Y-85772228D02*
X125545714Y-84772228D01*
X126331428Y-84772228D02*
X125545714Y-85772228D01*
X124902856Y-84272228D02*
X125045713Y-84557942D01*
X124331427Y-85700800D02*
X124188570Y-85772228D01*
X124188570Y-85772228D02*
X123902856Y-85772228D01*
X123902856Y-85772228D02*
X123759999Y-85700800D01*
X123759999Y-85700800D02*
X123688570Y-85557942D01*
X123688570Y-85557942D02*
X123688570Y-85486514D01*
X123688570Y-85486514D02*
X123759999Y-85343657D01*
X123759999Y-85343657D02*
X123902856Y-85272228D01*
X123902856Y-85272228D02*
X124117142Y-85272228D01*
X124117142Y-85272228D02*
X124259999Y-85200800D01*
X124259999Y-85200800D02*
X124331427Y-85057942D01*
X124331427Y-85057942D02*
X124331427Y-84986514D01*
X124331427Y-84986514D02*
X124259999Y-84843657D01*
X124259999Y-84843657D02*
X124117142Y-84772228D01*
X124117142Y-84772228D02*
X123902856Y-84772228D01*
X123902856Y-84772228D02*
X123759999Y-84843657D01*
X121974284Y-85700800D02*
X121759999Y-85772228D01*
X121759999Y-85772228D02*
X121402856Y-85772228D01*
X121402856Y-85772228D02*
X121259999Y-85700800D01*
X121259999Y-85700800D02*
X121188570Y-85629371D01*
X121188570Y-85629371D02*
X121117141Y-85486514D01*
X121117141Y-85486514D02*
X121117141Y-85343657D01*
X121117141Y-85343657D02*
X121188570Y-85200800D01*
X121188570Y-85200800D02*
X121259999Y-85129371D01*
X121259999Y-85129371D02*
X121402856Y-85057942D01*
X121402856Y-85057942D02*
X121688570Y-84986514D01*
X121688570Y-84986514D02*
X121831427Y-84915085D01*
X121831427Y-84915085D02*
X121902856Y-84843657D01*
X121902856Y-84843657D02*
X121974284Y-84700800D01*
X121974284Y-84700800D02*
X121974284Y-84557942D01*
X121974284Y-84557942D02*
X121902856Y-84415085D01*
X121902856Y-84415085D02*
X121831427Y-84343657D01*
X121831427Y-84343657D02*
X121688570Y-84272228D01*
X121688570Y-84272228D02*
X121331427Y-84272228D01*
X121331427Y-84272228D02*
X121117141Y-84343657D01*
X119831428Y-84772228D02*
X119831428Y-85772228D01*
X120474285Y-84772228D02*
X120474285Y-85557942D01*
X120474285Y-85557942D02*
X120402856Y-85700800D01*
X120402856Y-85700800D02*
X120259999Y-85772228D01*
X120259999Y-85772228D02*
X120045713Y-85772228D01*
X120045713Y-85772228D02*
X119902856Y-85700800D01*
X119902856Y-85700800D02*
X119831428Y-85629371D01*
X119117142Y-84772228D02*
X119117142Y-86272228D01*
X119117142Y-84843657D02*
X118974285Y-84772228D01*
X118974285Y-84772228D02*
X118688570Y-84772228D01*
X118688570Y-84772228D02*
X118545713Y-84843657D01*
X118545713Y-84843657D02*
X118474285Y-84915085D01*
X118474285Y-84915085D02*
X118402856Y-85057942D01*
X118402856Y-85057942D02*
X118402856Y-85486514D01*
X118402856Y-85486514D02*
X118474285Y-85629371D01*
X118474285Y-85629371D02*
X118545713Y-85700800D01*
X118545713Y-85700800D02*
X118688570Y-85772228D01*
X118688570Y-85772228D02*
X118974285Y-85772228D01*
X118974285Y-85772228D02*
X119117142Y-85700800D01*
X117188570Y-85700800D02*
X117331427Y-85772228D01*
X117331427Y-85772228D02*
X117617142Y-85772228D01*
X117617142Y-85772228D02*
X117759999Y-85700800D01*
X117759999Y-85700800D02*
X117831427Y-85557942D01*
X117831427Y-85557942D02*
X117831427Y-84986514D01*
X117831427Y-84986514D02*
X117759999Y-84843657D01*
X117759999Y-84843657D02*
X117617142Y-84772228D01*
X117617142Y-84772228D02*
X117331427Y-84772228D01*
X117331427Y-84772228D02*
X117188570Y-84843657D01*
X117188570Y-84843657D02*
X117117142Y-84986514D01*
X117117142Y-84986514D02*
X117117142Y-85129371D01*
X117117142Y-85129371D02*
X117831427Y-85272228D01*
X116474285Y-85772228D02*
X116474285Y-84772228D01*
X116474285Y-85057942D02*
X116402856Y-84915085D01*
X116402856Y-84915085D02*
X116331428Y-84843657D01*
X116331428Y-84843657D02*
X116188570Y-84772228D01*
X116188570Y-84772228D02*
X116045713Y-84772228D01*
X114474285Y-85700800D02*
X114260000Y-85772228D01*
X114260000Y-85772228D02*
X113902857Y-85772228D01*
X113902857Y-85772228D02*
X113760000Y-85700800D01*
X113760000Y-85700800D02*
X113688571Y-85629371D01*
X113688571Y-85629371D02*
X113617142Y-85486514D01*
X113617142Y-85486514D02*
X113617142Y-85343657D01*
X113617142Y-85343657D02*
X113688571Y-85200800D01*
X113688571Y-85200800D02*
X113760000Y-85129371D01*
X113760000Y-85129371D02*
X113902857Y-85057942D01*
X113902857Y-85057942D02*
X114188571Y-84986514D01*
X114188571Y-84986514D02*
X114331428Y-84915085D01*
X114331428Y-84915085D02*
X114402857Y-84843657D01*
X114402857Y-84843657D02*
X114474285Y-84700800D01*
X114474285Y-84700800D02*
X114474285Y-84557942D01*
X114474285Y-84557942D02*
X114402857Y-84415085D01*
X114402857Y-84415085D02*
X114331428Y-84343657D01*
X114331428Y-84343657D02*
X114188571Y-84272228D01*
X114188571Y-84272228D02*
X113831428Y-84272228D01*
X113831428Y-84272228D02*
X113617142Y-84343657D01*
X112331429Y-85772228D02*
X112331429Y-84986514D01*
X112331429Y-84986514D02*
X112402857Y-84843657D01*
X112402857Y-84843657D02*
X112545714Y-84772228D01*
X112545714Y-84772228D02*
X112831429Y-84772228D01*
X112831429Y-84772228D02*
X112974286Y-84843657D01*
X112331429Y-85700800D02*
X112474286Y-85772228D01*
X112474286Y-85772228D02*
X112831429Y-85772228D01*
X112831429Y-85772228D02*
X112974286Y-85700800D01*
X112974286Y-85700800D02*
X113045714Y-85557942D01*
X113045714Y-85557942D02*
X113045714Y-85415085D01*
X113045714Y-85415085D02*
X112974286Y-85272228D01*
X112974286Y-85272228D02*
X112831429Y-85200800D01*
X112831429Y-85200800D02*
X112474286Y-85200800D01*
X112474286Y-85200800D02*
X112331429Y-85129371D01*
X110974286Y-84772228D02*
X110974286Y-85772228D01*
X111617143Y-84772228D02*
X111617143Y-85557942D01*
X111617143Y-85557942D02*
X111545714Y-85700800D01*
X111545714Y-85700800D02*
X111402857Y-85772228D01*
X111402857Y-85772228D02*
X111188571Y-85772228D01*
X111188571Y-85772228D02*
X111045714Y-85700800D01*
X111045714Y-85700800D02*
X110974286Y-85629371D01*
X110260000Y-84772228D02*
X110260000Y-85772228D01*
X110260000Y-84915085D02*
X110188571Y-84843657D01*
X110188571Y-84843657D02*
X110045714Y-84772228D01*
X110045714Y-84772228D02*
X109831428Y-84772228D01*
X109831428Y-84772228D02*
X109688571Y-84843657D01*
X109688571Y-84843657D02*
X109617143Y-84986514D01*
X109617143Y-84986514D02*
X109617143Y-85772228D01*
X108260000Y-85772228D02*
X108260000Y-84986514D01*
X108260000Y-84986514D02*
X108331428Y-84843657D01*
X108331428Y-84843657D02*
X108474285Y-84772228D01*
X108474285Y-84772228D02*
X108760000Y-84772228D01*
X108760000Y-84772228D02*
X108902857Y-84843657D01*
X108260000Y-85700800D02*
X108402857Y-85772228D01*
X108402857Y-85772228D02*
X108760000Y-85772228D01*
X108760000Y-85772228D02*
X108902857Y-85700800D01*
X108902857Y-85700800D02*
X108974285Y-85557942D01*
X108974285Y-85557942D02*
X108974285Y-85415085D01*
X108974285Y-85415085D02*
X108902857Y-85272228D01*
X108902857Y-85272228D02*
X108760000Y-85200800D01*
X108760000Y-85200800D02*
X108402857Y-85200800D01*
X108402857Y-85200800D02*
X108260000Y-85129371D01*
X105545714Y-85629371D02*
X105617142Y-85700800D01*
X105617142Y-85700800D02*
X105831428Y-85772228D01*
X105831428Y-85772228D02*
X105974285Y-85772228D01*
X105974285Y-85772228D02*
X106188571Y-85700800D01*
X106188571Y-85700800D02*
X106331428Y-85557942D01*
X106331428Y-85557942D02*
X106402857Y-85415085D01*
X106402857Y-85415085D02*
X106474285Y-85129371D01*
X106474285Y-85129371D02*
X106474285Y-84915085D01*
X106474285Y-84915085D02*
X106402857Y-84629371D01*
X106402857Y-84629371D02*
X106331428Y-84486514D01*
X106331428Y-84486514D02*
X106188571Y-84343657D01*
X106188571Y-84343657D02*
X105974285Y-84272228D01*
X105974285Y-84272228D02*
X105831428Y-84272228D01*
X105831428Y-84272228D02*
X105617142Y-84343657D01*
X105617142Y-84343657D02*
X105545714Y-84415085D01*
X104688571Y-85772228D02*
X104831428Y-85700800D01*
X104831428Y-85700800D02*
X104902857Y-85629371D01*
X104902857Y-85629371D02*
X104974285Y-85486514D01*
X104974285Y-85486514D02*
X104974285Y-85057942D01*
X104974285Y-85057942D02*
X104902857Y-84915085D01*
X104902857Y-84915085D02*
X104831428Y-84843657D01*
X104831428Y-84843657D02*
X104688571Y-84772228D01*
X104688571Y-84772228D02*
X104474285Y-84772228D01*
X104474285Y-84772228D02*
X104331428Y-84843657D01*
X104331428Y-84843657D02*
X104260000Y-84915085D01*
X104260000Y-84915085D02*
X104188571Y-85057942D01*
X104188571Y-85057942D02*
X104188571Y-85486514D01*
X104188571Y-85486514D02*
X104260000Y-85629371D01*
X104260000Y-85629371D02*
X104331428Y-85700800D01*
X104331428Y-85700800D02*
X104474285Y-85772228D01*
X104474285Y-85772228D02*
X104688571Y-85772228D01*
X103545714Y-85772228D02*
X103545714Y-84772228D01*
X103545714Y-84915085D02*
X103474285Y-84843657D01*
X103474285Y-84843657D02*
X103331428Y-84772228D01*
X103331428Y-84772228D02*
X103117142Y-84772228D01*
X103117142Y-84772228D02*
X102974285Y-84843657D01*
X102974285Y-84843657D02*
X102902857Y-84986514D01*
X102902857Y-84986514D02*
X102902857Y-85772228D01*
X102902857Y-84986514D02*
X102831428Y-84843657D01*
X102831428Y-84843657D02*
X102688571Y-84772228D01*
X102688571Y-84772228D02*
X102474285Y-84772228D01*
X102474285Y-84772228D02*
X102331428Y-84843657D01*
X102331428Y-84843657D02*
X102259999Y-84986514D01*
X102259999Y-84986514D02*
X102259999Y-85772228D01*
X101545714Y-85772228D02*
X101545714Y-84772228D01*
X101545714Y-84915085D02*
X101474285Y-84843657D01*
X101474285Y-84843657D02*
X101331428Y-84772228D01*
X101331428Y-84772228D02*
X101117142Y-84772228D01*
X101117142Y-84772228D02*
X100974285Y-84843657D01*
X100974285Y-84843657D02*
X100902857Y-84986514D01*
X100902857Y-84986514D02*
X100902857Y-85772228D01*
X100902857Y-84986514D02*
X100831428Y-84843657D01*
X100831428Y-84843657D02*
X100688571Y-84772228D01*
X100688571Y-84772228D02*
X100474285Y-84772228D01*
X100474285Y-84772228D02*
X100331428Y-84843657D01*
X100331428Y-84843657D02*
X100259999Y-84986514D01*
X100259999Y-84986514D02*
X100259999Y-85772228D01*
X98902857Y-85772228D02*
X98902857Y-84986514D01*
X98902857Y-84986514D02*
X98974285Y-84843657D01*
X98974285Y-84843657D02*
X99117142Y-84772228D01*
X99117142Y-84772228D02*
X99402857Y-84772228D01*
X99402857Y-84772228D02*
X99545714Y-84843657D01*
X98902857Y-85700800D02*
X99045714Y-85772228D01*
X99045714Y-85772228D02*
X99402857Y-85772228D01*
X99402857Y-85772228D02*
X99545714Y-85700800D01*
X99545714Y-85700800D02*
X99617142Y-85557942D01*
X99617142Y-85557942D02*
X99617142Y-85415085D01*
X99617142Y-85415085D02*
X99545714Y-85272228D01*
X99545714Y-85272228D02*
X99402857Y-85200800D01*
X99402857Y-85200800D02*
X99045714Y-85200800D01*
X99045714Y-85200800D02*
X98902857Y-85129371D01*
X98188571Y-84772228D02*
X98188571Y-85772228D01*
X98188571Y-84915085D02*
X98117142Y-84843657D01*
X98117142Y-84843657D02*
X97974285Y-84772228D01*
X97974285Y-84772228D02*
X97759999Y-84772228D01*
X97759999Y-84772228D02*
X97617142Y-84843657D01*
X97617142Y-84843657D02*
X97545714Y-84986514D01*
X97545714Y-84986514D02*
X97545714Y-85772228D01*
X96188571Y-85772228D02*
X96188571Y-84272228D01*
X96188571Y-85700800D02*
X96331428Y-85772228D01*
X96331428Y-85772228D02*
X96617142Y-85772228D01*
X96617142Y-85772228D02*
X96759999Y-85700800D01*
X96759999Y-85700800D02*
X96831428Y-85629371D01*
X96831428Y-85629371D02*
X96902856Y-85486514D01*
X96902856Y-85486514D02*
X96902856Y-85057942D01*
X96902856Y-85057942D02*
X96831428Y-84915085D01*
X96831428Y-84915085D02*
X96759999Y-84843657D01*
X96759999Y-84843657D02*
X96617142Y-84772228D01*
X96617142Y-84772228D02*
X96331428Y-84772228D01*
X96331428Y-84772228D02*
X96188571Y-84843657D01*
X94902856Y-85700800D02*
X95045713Y-85772228D01*
X95045713Y-85772228D02*
X95331428Y-85772228D01*
X95331428Y-85772228D02*
X95474285Y-85700800D01*
X95474285Y-85700800D02*
X95545713Y-85557942D01*
X95545713Y-85557942D02*
X95545713Y-84986514D01*
X95545713Y-84986514D02*
X95474285Y-84843657D01*
X95474285Y-84843657D02*
X95331428Y-84772228D01*
X95331428Y-84772228D02*
X95045713Y-84772228D01*
X95045713Y-84772228D02*
X94902856Y-84843657D01*
X94902856Y-84843657D02*
X94831428Y-84986514D01*
X94831428Y-84986514D02*
X94831428Y-85129371D01*
X94831428Y-85129371D02*
X95545713Y-85272228D01*
X94188571Y-85772228D02*
X94188571Y-84772228D01*
X94188571Y-85057942D02*
X94117142Y-84915085D01*
X94117142Y-84915085D02*
X94045714Y-84843657D01*
X94045714Y-84843657D02*
X93902856Y-84772228D01*
X93902856Y-84772228D02*
X93759999Y-84772228D01*
%LPC*%
D12*
%TO.C,J_BENCH1*%
X119875000Y-128057500D03*
D13*
X124955000Y-128057500D03*
X130035000Y-128057500D03*
%TD*%
D14*
%TO.C,J_ESP_L1*%
X64000000Y-57180000D03*
D15*
X64000000Y-59720000D03*
X64000000Y-62260000D03*
X64000000Y-64800000D03*
X64000000Y-67340000D03*
X64000000Y-69880000D03*
X64000000Y-72420000D03*
X64000000Y-74960000D03*
X64000000Y-77500000D03*
X64000000Y-80040000D03*
X64000000Y-82580000D03*
X64000000Y-85120000D03*
X64000000Y-87660000D03*
X64000000Y-90200000D03*
X64000000Y-92740000D03*
X64000000Y-95280000D03*
X64000000Y-97820000D03*
X64000000Y-100360000D03*
X64000000Y-102900000D03*
%TD*%
D12*
%TO.C,J_CEILING1*%
X101870000Y-128000000D03*
D13*
X106950000Y-128000000D03*
X112030000Y-128000000D03*
%TD*%
D16*
%TO.C,OPT_AUX1*%
X165100000Y-68580000D03*
D17*
X165100000Y-66040000D03*
X157480000Y-66040000D03*
X157480000Y-68580000D03*
%TD*%
D12*
%TO.C,J_DOOR1*%
X87630000Y-128000000D03*
D13*
X92710000Y-128000000D03*
%TD*%
D18*
%TO.C,MH4*%
X175000000Y-130000000D03*
%TD*%
D16*
%TO.C,OPT_HL1*%
X133350000Y-74930000D03*
D17*
X133350000Y-72390000D03*
X125730000Y-72390000D03*
X125730000Y-74930000D03*
%TD*%
D18*
%TO.C,MH2*%
X175000000Y-55000000D03*
%TD*%
D19*
%TO.C,J_AUX1*%
X167640000Y-57150000D03*
D13*
X162560000Y-57150000D03*
%TD*%
D20*
%TO.C,U1*%
X149000000Y-80010000D03*
D21*
X149000000Y-82550000D03*
X149000000Y-85090000D03*
%TD*%
D18*
%TO.C,MH1*%
X55000000Y-55000000D03*
%TD*%
D12*
%TO.C,J_LED1*%
X141760000Y-128000000D03*
D13*
X146840000Y-128000000D03*
X151920000Y-128000000D03*
X157000000Y-128000000D03*
X162080000Y-128000000D03*
%TD*%
D19*
%TO.C,J_COIL1*%
X127500000Y-57150000D03*
D13*
X122420000Y-57150000D03*
X117340000Y-57150000D03*
%TD*%
D22*
%TO.C,F2*%
X151500000Y-58500000D03*
X151500000Y-53500000D03*
D23*
X136500000Y-58500000D03*
X136500000Y-53500000D03*
%TD*%
D24*
%TO.C,C_BULK1*%
X159500000Y-80000000D03*
D17*
X163000000Y-80000000D03*
%TD*%
D25*
%TO.C,F1*%
X177500000Y-102000000D03*
X172500000Y-102000000D03*
D23*
X177500000Y-117000000D03*
X172500000Y-117000000D03*
%TD*%
D12*
%TO.C,J_PANEL1*%
X62000000Y-128000000D03*
D13*
X67080000Y-128000000D03*
X72160000Y-128000000D03*
X77240000Y-128000000D03*
%TD*%
D26*
%TO.C,J_PWR1*%
X173172500Y-82545000D03*
D13*
X173172500Y-77465000D03*
%TD*%
D14*
%TO.C,J_ESP_R1*%
X89400000Y-57180000D03*
D15*
X89400000Y-59720000D03*
X89400000Y-62260000D03*
X89400000Y-64800000D03*
X89400000Y-67340000D03*
X89400000Y-69880000D03*
X89400000Y-72420000D03*
X89400000Y-74960000D03*
X89400000Y-77500000D03*
X89400000Y-80040000D03*
X89400000Y-82580000D03*
X89400000Y-85120000D03*
X89400000Y-87660000D03*
X89400000Y-90200000D03*
X89400000Y-92740000D03*
X89400000Y-95280000D03*
X89400000Y-97820000D03*
X89400000Y-100360000D03*
X89400000Y-102900000D03*
%TD*%
D18*
%TO.C,MH3*%
X55000000Y-130000000D03*
%TD*%
%LPD*%
M02*
