M48
; DRILL file KiCad 10.0.1 date 2026-06-17T13:41:46
; FORMAT={-:-/ absolute / metric / decimal}
; #@! TF.CreationDate,2026-06-17T13:41:46-06:00
; #@! TF.GenerationSoftware,Kicad,Pcbnew,10.0.1
; #@! TF.FileFunction,Plated,1,2,PTH
FMAT,2
METRIC
; #@! TA.AperFunction,Plated,PTH,ViaDrill
T1C0.400
; #@! TA.AperFunction,Plated,PTH,ComponentDrill
T2C0.900
; #@! TA.AperFunction,Plated,PTH,ComponentDrill
T3C1.000
; #@! TA.AperFunction,Plated,PTH,ComponentDrill
T4C1.300
%
G90
G05
T1
X91.44Y-120.67
X99.06Y-119.72
X100.33Y-70.73
X104.14Y-72.63
X104.14Y-74.68
X104.72Y-68.18
X109.12Y-110.37
X109.22Y-70.73
X111.73Y-119.7
X113.03Y-72.63
X113.03Y-74.73
X113.72Y-68.18
X114.33Y-119.7
X116.84Y-120.65
X118.11Y-70.73
X119.16Y-119.056
X122.03Y-72.63
X122.03Y-74.73
X122.72Y-68.18
X127.0Y-70.73
X127.44Y-119.126
X129.54Y-119.126
X131.03Y-72.63
X131.03Y-74.73
X131.72Y-68.18
X133.3Y-117.78
X135.768Y-67.31
X135.89Y-120.01
X137.16Y-74.93
X139.84Y-118.11
X141.97Y-119.38
X147.142Y-79.68
X147.142Y-81.58
X156.464Y-61.842
X156.464Y-73.32
X157.353Y-93.599
X162.56Y-103.5
X162.56Y-112.136
X163.39Y-118.18
X164.948Y-90.18
X165.195Y-97.77
X165.195Y-107.93
X166.94Y-118.18
X168.148Y-91.248
X169.418Y-78.232
X171.695Y-97.77
X171.695Y-107.93
X172.255Y-78.443
X172.72Y-74.93
X173.87Y-102.87
X175.44Y-83.68
X175.514Y-76.454
X176.784Y-68.834
X176.784Y-91.948
X179.07Y-116.84
X181.102Y-80.772
X181.78Y-88.646
X182.372Y-81.026
X184.028Y-84.328
X185.42Y-101.6
X186.944Y-64.008
X187.045Y-56.008
X187.045Y-60.008
X188.08Y-97.79
X190.35Y-73.37
X190.38Y-97.79
X193.995Y-56.008
X193.995Y-60.008
X193.995Y-64.008
X198.12Y-96.52
X198.12Y-126.66
T2
X138.43Y-82.296
X141.93Y-82.296
X142.55Y-71.2
X146.05Y-71.2
T3
X110.44Y-89.18
X110.44Y-114.58
X112.98Y-89.18
X112.98Y-114.58
X115.52Y-89.18
X115.52Y-114.58
X118.06Y-89.18
X118.06Y-114.58
X120.6Y-89.18
X120.6Y-114.58
X123.14Y-89.18
X123.14Y-114.58
X125.68Y-89.18
X125.68Y-114.58
X128.22Y-89.18
X128.22Y-114.58
X130.76Y-89.18
X130.76Y-114.58
X133.3Y-89.18
X133.3Y-114.58
X135.84Y-89.18
X135.84Y-114.58
X138.38Y-89.18
X138.38Y-114.58
X140.92Y-89.18
X140.92Y-114.58
X143.46Y-89.18
X143.46Y-114.58
X146.0Y-89.18
X146.0Y-114.58
X148.54Y-89.18
X148.54Y-114.58
X151.08Y-89.18
X151.08Y-114.58
X153.62Y-89.18
X153.62Y-114.58
X156.16Y-89.18
X156.16Y-114.58
X164.084Y-85.598
X166.624Y-85.598
X169.164Y-85.598
T4
X88.138Y-62.23
X88.138Y-67.31
X88.138Y-72.39
X88.138Y-77.47
X88.138Y-82.55
X95.22Y-132.588
X100.3Y-132.588
X105.38Y-132.588
X110.46Y-132.588
X121.25Y-132.588
X126.33Y-132.588
X138.43Y-132.588
X139.7Y-55.626
X143.51Y-132.588
X144.78Y-55.626
X148.59Y-132.588
X159.99Y-132.588
X165.07Y-132.588
X170.15Y-132.588
X176.53Y-55.626
X181.61Y-55.626
X182.88Y-132.588
X187.96Y-132.588
X197.596Y-83.82
X197.596Y-88.9
X197.596Y-104.2
X197.596Y-109.28
M30
