%TF.GenerationSoftware,KiCad,Pcbnew,10.0.1*%
%TF.CreationDate,2026-06-16T23:00:29-06:00*%
%TF.ProjectId,sauna-rev-b,7361756e-612d-4726-9576-2d622e6b6963,rev?*%
%TF.SameCoordinates,Original*%
%TF.FileFunction,Paste,Top*%
%TF.FilePolarity,Positive*%
%FSLAX46Y46*%
G04 Gerber Fmt 4.6, Leading zero omitted, Abs format (unit mm)*
G04 Created by KiCad (PCBNEW 10.0.1) date 2026-06-16 23:00:29*
%MOMM*%
%LPD*%
G01*
G04 APERTURE LIST*
G04 Aperture macros list*
%AMRoundRect*
0 Rectangle with rounded corners*
0 $1 Rounding radius*
0 $2 $3 $4 $5 $6 $7 $8 $9 X,Y pos of 4 corners*
0 Add a 4 corners polygon primitive as box body*
4,1,4,$2,$3,$4,$5,$6,$7,$8,$9,$2,$3,0*
0 Add four circle primitives for the rounded corners*
1,1,$1+$1,$2,$3*
1,1,$1+$1,$4,$5*
1,1,$1+$1,$6,$7*
1,1,$1+$1,$8,$9*
0 Add four rect primitives between the rounded corners*
20,1,$1+$1,$2,$3,$4,$5,0*
20,1,$1+$1,$4,$5,$6,$7,0*
20,1,$1+$1,$6,$7,$8,$9,0*
20,1,$1+$1,$8,$9,$2,$3,0*%
G04 Aperture macros list end*
%ADD10RoundRect,0.287500X1.062500X-0.287500X1.062500X0.287500X-1.062500X0.287500X-1.062500X-0.287500X0*%
%ADD11RoundRect,0.250000X-0.400000X0.250000X-0.400000X-0.250000X0.400000X-0.250000X0.400000X0.250000X0*%
%ADD12RoundRect,0.250000X0.400000X-0.250000X0.400000X0.250000X-0.400000X0.250000X-0.400000X-0.250000X0*%
%ADD13RoundRect,0.250000X0.250000X0.400000X-0.250000X0.400000X-0.250000X-0.400000X0.250000X-0.400000X0*%
%ADD14RoundRect,0.250000X-0.250000X-0.400000X0.250000X-0.400000X0.250000X0.400000X-0.250000X0.400000X0*%
%ADD15RoundRect,0.575000X0.575000X-0.675000X0.575000X0.675000X-0.575000X0.675000X-0.575000X-0.675000X0*%
%ADD16RoundRect,0.200000X-0.250000X-0.200000X0.250000X-0.200000X0.250000X0.200000X-0.250000X0.200000X0*%
%ADD17RoundRect,0.425000X0.825000X0.425000X-0.825000X0.425000X-0.825000X-0.425000X0.825000X-0.425000X0*%
%ADD18RoundRect,0.575000X0.675000X0.575000X-0.675000X0.575000X-0.675000X-0.575000X0.675000X-0.575000X0*%
%ADD19RoundRect,0.125000X0.125000X0.125000X-0.125000X0.125000X-0.125000X-0.125000X0.125000X-0.125000X0*%
%ADD20RoundRect,0.125000X-0.125000X-0.125000X0.125000X-0.125000X0.125000X0.125000X-0.125000X0.125000X0*%
%ADD21RoundRect,0.650000X-1.950000X0.650000X-1.950000X-0.650000X1.950000X-0.650000X1.950000X0.650000X0*%
%ADD22RoundRect,0.375000X-1.325000X0.375000X-1.325000X-0.375000X1.325000X-0.375000X1.325000X0.375000X0*%
%ADD23RoundRect,0.275000X0.525000X-0.275000X0.525000X0.275000X-0.525000X0.275000X-0.525000X-0.275000X0*%
%ADD24RoundRect,0.375000X0.375000X1.325000X-0.375000X1.325000X-0.375000X-1.325000X0.375000X-1.325000X0*%
%ADD25RoundRect,0.350000X-0.750000X0.350000X-0.750000X-0.350000X0.750000X-0.350000X0.750000X0.350000X0*%
%ADD26R,6.400000X6.000000*%
%ADD27RoundRect,0.350000X-0.350000X-0.750000X0.350000X-0.750000X0.350000X0.750000X-0.350000X0.750000X0*%
%ADD28R,6.000000X6.400000*%
%ADD29RoundRect,0.287500X0.562500X-0.287500X0.562500X0.287500X-0.562500X0.287500X-0.562500X-0.287500X0*%
%ADD30RoundRect,0.287500X0.287500X0.562500X-0.287500X0.562500X-0.287500X-0.562500X0.287500X-0.562500X0*%
%ADD31C,1.500000*%
%ADD32RoundRect,0.155000X-0.445000X0.155000X-0.445000X-0.155000X0.445000X-0.155000X0.445000X0.155000X0*%
G04 APERTURE END LIST*
D10*
%TO.C,C1*%
X175440000Y-86630000D03*
X175440000Y-83730000D03*
%TD*%
D11*
%TO.C,C10*%
X91440000Y-118770000D03*
X91440000Y-120670000D03*
%TD*%
D10*
%TO.C,C2*%
X164440000Y-93130000D03*
X164440000Y-90230000D03*
%TD*%
D12*
%TO.C,C3*%
X168440000Y-92630000D03*
X168440000Y-90730000D03*
%TD*%
D13*
%TO.C,C5*%
X137668000Y-67310000D03*
X135768000Y-67310000D03*
%TD*%
D11*
%TO.C,C7*%
X147142000Y-79680000D03*
X147142000Y-81580000D03*
%TD*%
%TO.C,C8*%
X116840000Y-118750000D03*
X116840000Y-120650000D03*
%TD*%
D14*
%TO.C,C9*%
X125540000Y-118180000D03*
X127440000Y-118180000D03*
%TD*%
D15*
%TO.C,D1*%
X137160000Y-74930000D03*
X137160000Y-70530000D03*
%TD*%
D16*
%TO.C,D10*%
X188080000Y-97790000D03*
X190380000Y-97790000D03*
%TD*%
D17*
%TO.C,D11*%
X184658000Y-68326000D03*
X180658000Y-68326000D03*
%TD*%
D18*
%TO.C,D2*%
X198120000Y-96520000D03*
X193720000Y-96520000D03*
%TD*%
D15*
%TO.C,D3*%
X198120000Y-126660000D03*
X198120000Y-122260000D03*
%TD*%
D17*
%TO.C,D5*%
X200890000Y-77440000D03*
X196890000Y-77440000D03*
%TD*%
D19*
%TO.C,D6*%
X120160000Y-118110000D03*
X119160000Y-118110000D03*
%TD*%
D20*
%TO.C,D7*%
X140970000Y-119380000D03*
X141970000Y-119380000D03*
%TD*%
%TO.C,D8*%
X165940000Y-118180000D03*
X166940000Y-118180000D03*
%TD*%
D16*
%TO.C,D9*%
X171570000Y-102870000D03*
X173870000Y-102870000D03*
%TD*%
D21*
%TO.C,F1*%
X156464000Y-56642000D03*
X156464000Y-61842000D03*
%TD*%
D22*
%TO.C,F2*%
X156464000Y-68920000D03*
X156464000Y-73320000D03*
%TD*%
%TO.C,F3*%
X167132000Y-68920000D03*
X167132000Y-73320000D03*
%TD*%
D21*
%TO.C,F4*%
X167132000Y-56702000D03*
X167132000Y-61902000D03*
%TD*%
D14*
%TO.C,LED1*%
X192045000Y-56008000D03*
X193945000Y-56008000D03*
%TD*%
%TO.C,LED2*%
X192045000Y-60008000D03*
X193945000Y-60008000D03*
%TD*%
%TO.C,LED3*%
X192045000Y-64008000D03*
X193945000Y-64008000D03*
%TD*%
D12*
%TO.C,LED4*%
X100330000Y-72630000D03*
X100330000Y-70730000D03*
%TD*%
%TO.C,LED5*%
X109220000Y-72630000D03*
X109220000Y-70730000D03*
%TD*%
%TO.C,LED6*%
X118110000Y-72630000D03*
X118110000Y-70730000D03*
%TD*%
%TO.C,LED7*%
X127000000Y-72630000D03*
X127000000Y-70730000D03*
%TD*%
D23*
%TO.C,OPT2*%
X171695000Y-110470000D03*
X171695000Y-107930000D03*
X165195000Y-107930000D03*
X165195000Y-110470000D03*
%TD*%
%TO.C,OPT_RELAY_FB*%
X171695000Y-100310000D03*
X171695000Y-97770000D03*
X165195000Y-97770000D03*
X165195000Y-100310000D03*
%TD*%
D24*
%TO.C,PF1*%
X99060000Y-119720000D03*
X94660000Y-119720000D03*
%TD*%
D25*
%TO.C,Q1*%
X190350000Y-68810000D03*
X190350000Y-73370000D03*
D26*
X196850000Y-71090000D03*
%TD*%
D27*
%TO.C,Q2*%
X100160000Y-68180000D03*
X104720000Y-68180000D03*
D28*
X102440000Y-61680000D03*
%TD*%
D27*
%TO.C,Q3*%
X109160000Y-68180000D03*
X113720000Y-68180000D03*
D28*
X111440000Y-61680000D03*
%TD*%
D27*
%TO.C,Q4*%
X118160000Y-68180000D03*
X122720000Y-68180000D03*
D28*
X120440000Y-61680000D03*
%TD*%
D27*
%TO.C,Q5*%
X127160000Y-68180000D03*
X131720000Y-68180000D03*
D28*
X129440000Y-61680000D03*
%TD*%
D25*
%TO.C,Q6*%
X175532000Y-71888000D03*
X175532000Y-76448000D03*
D26*
X182032000Y-74168000D03*
%TD*%
D29*
%TO.C,R1*%
X176530000Y-100690000D03*
X176530000Y-97790000D03*
%TD*%
D12*
%TO.C,R10*%
X122030000Y-72630000D03*
X122030000Y-70730000D03*
%TD*%
%TO.C,R11*%
X131030000Y-72630000D03*
X131030000Y-70730000D03*
%TD*%
D13*
%TO.C,R12*%
X185928000Y-84328000D03*
X184028000Y-84328000D03*
%TD*%
D12*
%TO.C,R13*%
X104140000Y-76630000D03*
X104140000Y-74730000D03*
%TD*%
%TO.C,R14*%
X113030000Y-76630000D03*
X113030000Y-74730000D03*
%TD*%
%TO.C,R15*%
X122030000Y-76630000D03*
X122030000Y-74730000D03*
%TD*%
%TO.C,R16*%
X131030000Y-76630000D03*
X131030000Y-74730000D03*
%TD*%
D14*
%TO.C,R17*%
X129540000Y-118180000D03*
X131440000Y-118180000D03*
%TD*%
%TO.C,R18*%
X121540000Y-118180000D03*
X123440000Y-118180000D03*
%TD*%
D12*
%TO.C,R19*%
X135890000Y-120010000D03*
X135890000Y-118110000D03*
%TD*%
D30*
%TO.C,R2*%
X200840000Y-116840000D03*
X197940000Y-116840000D03*
%TD*%
D14*
%TO.C,R20*%
X157490000Y-118180000D03*
X159390000Y-118180000D03*
%TD*%
D12*
%TO.C,R21*%
X138430000Y-120010000D03*
X138430000Y-118110000D03*
%TD*%
D14*
%TO.C,R22*%
X161490000Y-118180000D03*
X163390000Y-118180000D03*
%TD*%
D11*
%TO.C,R23*%
X105410000Y-118750000D03*
X105410000Y-120650000D03*
%TD*%
D12*
%TO.C,R24*%
X107950000Y-120650000D03*
X107950000Y-118750000D03*
%TD*%
D14*
%TO.C,R25*%
X187045000Y-56008000D03*
X188945000Y-56008000D03*
%TD*%
%TO.C,R26*%
X187045000Y-60008000D03*
X188945000Y-60008000D03*
%TD*%
%TO.C,R27*%
X187045000Y-64008000D03*
X188945000Y-64008000D03*
%TD*%
D12*
%TO.C,R28*%
X100330000Y-76630000D03*
X100330000Y-74730000D03*
%TD*%
%TO.C,R29*%
X109220000Y-76630000D03*
X109220000Y-74730000D03*
%TD*%
%TO.C,R30*%
X118110000Y-76630000D03*
X118110000Y-74730000D03*
%TD*%
%TO.C,R31*%
X127000000Y-76630000D03*
X127000000Y-74730000D03*
%TD*%
%TO.C,R32*%
X172720000Y-74930000D03*
X172720000Y-73030000D03*
%TD*%
D14*
%TO.C,R33*%
X174884000Y-68834000D03*
X176784000Y-68834000D03*
%TD*%
D12*
%TO.C,R4*%
X162560000Y-103500000D03*
X162560000Y-101600000D03*
%TD*%
%TO.C,R5*%
X168910000Y-116840000D03*
X168910000Y-114940000D03*
%TD*%
D14*
%TO.C,R7*%
X184028000Y-88646000D03*
X185928000Y-88646000D03*
%TD*%
D12*
%TO.C,R8*%
X104140000Y-72630000D03*
X104140000Y-70730000D03*
%TD*%
%TO.C,R9*%
X113030000Y-72630000D03*
X113030000Y-70730000D03*
%TD*%
D31*
%TO.C,TP2*%
X179070000Y-116840000D03*
%TD*%
%TO.C,TP3*%
X175260000Y-116840000D03*
%TD*%
D32*
%TO.C,U2*%
X111730000Y-118750000D03*
X111730000Y-119700000D03*
X111730000Y-120650000D03*
X114330000Y-120650000D03*
X114330000Y-119700000D03*
X114330000Y-118750000D03*
%TD*%
M02*
