%TF.GenerationSoftware,KiCad,Pcbnew,10.0.1*%
%TF.CreationDate,2026-06-16T23:00:29-06:00*%
%TF.ProjectId,sauna-rev-b,7361756e-612d-4726-9576-2d622e6b6963,rev?*%
%TF.SameCoordinates,Original*%
%TF.FileFunction,Copper,L1,Top*%
%TF.FilePolarity,Positive*%
%FSLAX46Y46*%
G04 Gerber Fmt 4.6, Leading zero omitted, Abs format (unit mm)*
G04 Created by KiCad (PCBNEW 10.0.1) date 2026-06-16 23:00:29*
%MOMM*%
%LPD*%
G01*
G04 APERTURE LIST*
G04 Aperture macros list*
%AMRoundRect*
0 Rectangle with rounded corners*
0 $1 Rounding radius*
0 $2 $3 $4 $5 $6 $7 $8 $9 X,Y pos of 4 corners*
0 Add a 4 corners polygon primitive as box body*
4,1,4,$2,$3,$4,$5,$6,$7,$8,$9,$2,$3,0*
0 Add four circle primitives for the rounded corners*
1,1,$1+$1,$2,$3*
1,1,$1+$1,$4,$5*
1,1,$1+$1,$6,$7*
1,1,$1+$1,$8,$9*
0 Add four rect primitives between the rounded corners*
20,1,$1+$1,$2,$3,$4,$5,0*
20,1,$1+$1,$4,$5,$6,$7,0*
20,1,$1+$1,$6,$7,$8,$9,0*
20,1,$1+$1,$8,$9,$2,$3,0*%
G04 Aperture macros list end*
%TA.AperFunction,SMDPad,CuDef*%
%ADD10RoundRect,0.287500X1.062500X-0.287500X1.062500X0.287500X-1.062500X0.287500X-1.062500X-0.287500X0*%
%TD*%
%TA.AperFunction,SMDPad,CuDef*%
%ADD11RoundRect,0.250000X-0.400000X0.250000X-0.400000X-0.250000X0.400000X-0.250000X0.400000X0.250000X0*%
%TD*%
%TA.AperFunction,SMDPad,CuDef*%
%ADD12RoundRect,0.250000X0.400000X-0.250000X0.400000X0.250000X-0.400000X0.250000X-0.400000X-0.250000X0*%
%TD*%
%TA.AperFunction,ComponentPad*%
%ADD13R,1.800000X1.800000*%
%TD*%
%TA.AperFunction,ComponentPad*%
%ADD14C,1.800000*%
%TD*%
%TA.AperFunction,SMDPad,CuDef*%
%ADD15RoundRect,0.250000X0.250000X0.400000X-0.250000X0.400000X-0.250000X-0.400000X0.250000X-0.400000X0*%
%TD*%
%TA.AperFunction,SMDPad,CuDef*%
%ADD16RoundRect,0.250000X-0.250000X-0.400000X0.250000X-0.400000X0.250000X0.400000X-0.250000X0.400000X0*%
%TD*%
%TA.AperFunction,SMDPad,CuDef*%
%ADD17RoundRect,0.575000X0.575000X-0.675000X0.575000X0.675000X-0.575000X0.675000X-0.575000X-0.675000X0*%
%TD*%
%TA.AperFunction,SMDPad,CuDef*%
%ADD18RoundRect,0.200000X-0.250000X-0.200000X0.250000X-0.200000X0.250000X0.200000X-0.250000X0.200000X0*%
%TD*%
%TA.AperFunction,SMDPad,CuDef*%
%ADD19RoundRect,0.425000X0.825000X0.425000X-0.825000X0.425000X-0.825000X-0.425000X0.825000X-0.425000X0*%
%TD*%
%TA.AperFunction,SMDPad,CuDef*%
%ADD20RoundRect,0.575000X0.675000X0.575000X-0.675000X0.575000X-0.675000X-0.575000X0.675000X-0.575000X0*%
%TD*%
%TA.AperFunction,SMDPad,CuDef*%
%ADD21RoundRect,0.125000X0.125000X0.125000X-0.125000X0.125000X-0.125000X-0.125000X0.125000X-0.125000X0*%
%TD*%
%TA.AperFunction,SMDPad,CuDef*%
%ADD22RoundRect,0.125000X-0.125000X-0.125000X0.125000X-0.125000X0.125000X0.125000X-0.125000X0.125000X0*%
%TD*%
%TA.AperFunction,SMDPad,CuDef*%
%ADD23RoundRect,0.650000X-1.950000X0.650000X-1.950000X-0.650000X1.950000X-0.650000X1.950000X0.650000X0*%
%TD*%
%TA.AperFunction,SMDPad,CuDef*%
%ADD24RoundRect,0.375000X-1.325000X0.375000X-1.325000X-0.375000X1.325000X-0.375000X1.325000X0.375000X0*%
%TD*%
%TA.AperFunction,ComponentPad*%
%ADD25R,3.000000X3.000000*%
%TD*%
%TA.AperFunction,ComponentPad*%
%ADD26C,3.000000*%
%TD*%
%TA.AperFunction,ComponentPad*%
%ADD27R,1.700000X1.700000*%
%TD*%
%TA.AperFunction,ComponentPad*%
%ADD28O,1.700000X1.700000*%
%TD*%
%TA.AperFunction,SMDPad,CuDef*%
%ADD29RoundRect,0.275000X0.525000X-0.275000X0.525000X0.275000X-0.525000X0.275000X-0.525000X-0.275000X0*%
%TD*%
%TA.AperFunction,SMDPad,CuDef*%
%ADD30RoundRect,0.375000X0.375000X1.325000X-0.375000X1.325000X-0.375000X-1.325000X0.375000X-1.325000X0*%
%TD*%
%TA.AperFunction,SMDPad,CuDef*%
%ADD31RoundRect,0.350000X-0.750000X0.350000X-0.750000X-0.350000X0.750000X-0.350000X0.750000X0.350000X0*%
%TD*%
%TA.AperFunction,SMDPad,CuDef*%
%ADD32R,6.400000X6.000000*%
%TD*%
%TA.AperFunction,SMDPad,CuDef*%
%ADD33RoundRect,0.350000X-0.350000X-0.750000X0.350000X-0.750000X0.350000X0.750000X-0.350000X0.750000X0*%
%TD*%
%TA.AperFunction,SMDPad,CuDef*%
%ADD34R,6.000000X6.400000*%
%TD*%
%TA.AperFunction,SMDPad,CuDef*%
%ADD35RoundRect,0.287500X0.562500X-0.287500X0.562500X0.287500X-0.562500X0.287500X-0.562500X-0.287500X0*%
%TD*%
%TA.AperFunction,SMDPad,CuDef*%
%ADD36RoundRect,0.287500X0.287500X0.562500X-0.287500X0.562500X-0.287500X-0.562500X0.287500X-0.562500X0*%
%TD*%
%TA.AperFunction,SMDPad,CuDef*%
%ADD37C,1.500000*%
%TD*%
%TA.AperFunction,SMDPad,CuDef*%
%ADD38RoundRect,0.155000X-0.445000X0.155000X-0.445000X-0.155000X0.445000X-0.155000X0.445000X0.155000X0*%
%TD*%
%TA.AperFunction,ViaPad*%
%ADD39C,0.800000*%
%TD*%
%TA.AperFunction,Conductor*%
%ADD40C,0.508000*%
%TD*%
%TA.AperFunction,Conductor*%
%ADD41C,0.300000*%
%TD*%
%TA.AperFunction,Conductor*%
%ADD42C,0.200000*%
%TD*%
%TA.AperFunction,Conductor*%
%ADD43C,2.000000*%
%TD*%
%TA.AperFunction,Conductor*%
%ADD44C,2.032000*%
%TD*%
%TA.AperFunction,Conductor*%
%ADD45C,1.000000*%
%TD*%
%TA.AperFunction,Conductor*%
%ADD46C,0.500000*%
%TD*%
%TA.AperFunction,Conductor*%
%ADD47C,0.254000*%
%TD*%
G04 APERTURE END LIST*
D10*
%TO.P,C1,1*%
%TO.N,+24V_LOGIC*%
X175440000Y-86630000D03*
%TO.P,C1,2*%
%TO.N,GND*%
X175440000Y-83730000D03*
%TD*%
D11*
%TO.P,C10,1*%
%TO.N,+5V_PANEL*%
X91440000Y-118770000D03*
%TO.P,C10,2*%
%TO.N,GND*%
X91440000Y-120670000D03*
%TD*%
D10*
%TO.P,C2,1*%
%TO.N,+5V*%
X164440000Y-93130000D03*
%TO.P,C2,2*%
%TO.N,GND*%
X164440000Y-90230000D03*
%TD*%
D12*
%TO.P,C3,1*%
%TO.N,+5V*%
X168440000Y-92630000D03*
%TO.P,C3,2*%
%TO.N,GND*%
X168440000Y-90730000D03*
%TD*%
D13*
%TO.P,C4,1*%
%TO.N,+24V*%
X142550000Y-71200000D03*
D14*
%TO.P,C4,2*%
%TO.N,GND*%
X146050000Y-71200000D03*
%TD*%
D15*
%TO.P,C5,1*%
%TO.N,+24V*%
X137668000Y-67310000D03*
%TO.P,C5,2*%
%TO.N,GND*%
X135768000Y-67310000D03*
%TD*%
D13*
%TO.P,C6,1*%
%TO.N,+24V_LED*%
X138430000Y-82296000D03*
D14*
%TO.P,C6,2*%
%TO.N,GND*%
X141930000Y-82296000D03*
%TD*%
D11*
%TO.P,C7,1*%
%TO.N,+24V_LED*%
X147142000Y-79680000D03*
%TO.P,C7,2*%
%TO.N,GND*%
X147142000Y-81580000D03*
%TD*%
%TO.P,C8,1*%
%TO.N,+3V3*%
X116840000Y-118750000D03*
%TO.P,C8,2*%
%TO.N,GND*%
X116840000Y-120650000D03*
%TD*%
D16*
%TO.P,C9,1*%
%TO.N,GPIO22*%
X125540000Y-118180000D03*
%TO.P,C9,2*%
%TO.N,GND*%
X127440000Y-118180000D03*
%TD*%
D17*
%TO.P,D1,1*%
%TO.N,GND*%
X137160000Y-74930000D03*
%TO.P,D1,2*%
%TO.N,+24V*%
X137160000Y-70530000D03*
%TD*%
D18*
%TO.P,D10,1*%
%TO.N,HL_LED*%
X188080000Y-97790000D03*
%TO.P,D10,2*%
%TO.N,GND*%
X190380000Y-97790000D03*
%TD*%
D19*
%TO.P,D11,1*%
%TO.N,+24V_AUX*%
X184658000Y-68326000D03*
%TO.P,D11,2*%
%TO.N,AUX_OUT-*%
X180658000Y-68326000D03*
%TD*%
D20*
%TO.P,D2,1*%
%TO.N,GND*%
X198120000Y-96520000D03*
%TO.P,D2,2*%
%TO.N,RELAY_FB_IN*%
X193720000Y-96520000D03*
%TD*%
D17*
%TO.P,D3,1*%
%TO.N,GND*%
X198120000Y-126660000D03*
%TO.P,D3,2*%
%TO.N,SRL250_RTN*%
X198120000Y-122260000D03*
%TD*%
D19*
%TO.P,D5,1*%
%TO.N,SRL250_RTN*%
X200890000Y-77440000D03*
%TO.P,D5,2*%
%TO.N,COIL-*%
X196890000Y-77440000D03*
%TD*%
D21*
%TO.P,D6,1*%
%TO.N,DOOR_IN*%
X120160000Y-118110000D03*
%TO.P,D6,2*%
%TO.N,GND*%
X119160000Y-118110000D03*
%TD*%
D22*
%TO.P,D7,1*%
%TO.N,BENCH_DATA*%
X140970000Y-119380000D03*
%TO.P,D7,2*%
%TO.N,GND*%
X141970000Y-119380000D03*
%TD*%
%TO.P,D8,1*%
%TO.N,CEIL_DATA*%
X165940000Y-118180000D03*
%TO.P,D8,2*%
%TO.N,GND*%
X166940000Y-118180000D03*
%TD*%
D18*
%TO.P,D9,1*%
%TO.N,RELAY_FB_LED*%
X171570000Y-102870000D03*
%TO.P,D9,2*%
%TO.N,GND*%
X173870000Y-102870000D03*
%TD*%
D23*
%TO.P,F1,1*%
%TO.N,+24V*%
X156464000Y-56642000D03*
%TO.P,F1,2*%
%TO.N,+24V_LED*%
X156464000Y-61842000D03*
%TD*%
D24*
%TO.P,F2,1*%
%TO.N,+24V*%
X156464000Y-68920000D03*
%TO.P,F2,2*%
%TO.N,+24V_SAFE*%
X156464000Y-73320000D03*
%TD*%
%TO.P,F3,1*%
%TO.N,+24V*%
X167132000Y-68920000D03*
%TO.P,F3,2*%
%TO.N,+24V_LOGIC*%
X167132000Y-73320000D03*
%TD*%
D23*
%TO.P,F4,1*%
%TO.N,+24V*%
X167132000Y-56702000D03*
%TO.P,F4,2*%
%TO.N,+24V_AUX*%
X167132000Y-61902000D03*
%TD*%
D25*
%TO.P,J_AUX_OUT,1*%
%TO.N,+24V_AUX*%
X181610000Y-55626000D03*
D26*
%TO.P,J_AUX_OUT,2*%
%TO.N,AUX_OUT-*%
X176530000Y-55626000D03*
%TD*%
D25*
%TO.P,J_BENCH,1*%
%TO.N,+3V3*%
X138430000Y-132588000D03*
D26*
%TO.P,J_BENCH,2*%
%TO.N,BENCH_DATA*%
X143510000Y-132588000D03*
%TO.P,J_BENCH,3*%
%TO.N,GND*%
X148590000Y-132588000D03*
%TD*%
D25*
%TO.P,J_CEILING,1*%
%TO.N,+3V3*%
X159990000Y-132588000D03*
D26*
%TO.P,J_CEILING,2*%
%TO.N,CEIL_DATA*%
X165070000Y-132588000D03*
%TO.P,J_CEILING,3*%
%TO.N,GND*%
X170150000Y-132588000D03*
%TD*%
D25*
%TO.P,J_COIL,1*%
%TO.N,SRL250_RTN*%
X197596000Y-88900000D03*
D26*
%TO.P,J_COIL,2*%
%TO.N,COIL-*%
X197596000Y-83820000D03*
%TD*%
D25*
%TO.P,J_DOOR,1*%
%TO.N,DOOR_IN*%
X121250000Y-132588000D03*
D26*
%TO.P,J_DOOR,2*%
%TO.N,GND*%
X126330000Y-132588000D03*
%TD*%
D27*
%TO.P,J_ESP1,1*%
%TO.N,+3V3*%
X110440000Y-114580000D03*
D28*
%TO.P,J_ESP1,2*%
%TO.N,N/C*%
X112980000Y-114580000D03*
%TO.P,J_ESP1,3*%
X115520000Y-114580000D03*
%TO.P,J_ESP1,4*%
X118060000Y-114580000D03*
%TO.P,J_ESP1,5*%
X120600000Y-114580000D03*
%TO.P,J_ESP1,6*%
X123140000Y-114580000D03*
%TO.P,J_ESP1,7*%
%TO.N,GPIO32*%
X125680000Y-114580000D03*
%TO.P,J_ESP1,8*%
%TO.N,GPIO33*%
X128220000Y-114580000D03*
%TO.P,J_ESP1,9*%
%TO.N,GPIO25*%
X130760000Y-114580000D03*
%TO.P,J_ESP1,10*%
%TO.N,GPIO26*%
X133300000Y-114580000D03*
%TO.P,J_ESP1,11*%
%TO.N,GPIO27*%
X135840000Y-114580000D03*
%TO.P,J_ESP1,12*%
%TO.N,GPIO14*%
X138380000Y-114580000D03*
%TO.P,J_ESP1,13*%
%TO.N,N/C*%
X140920000Y-114580000D03*
%TO.P,J_ESP1,14*%
%TO.N,GND*%
X143460000Y-114580000D03*
%TO.P,J_ESP1,15*%
%TO.N,GPIO13*%
X146000000Y-114580000D03*
%TO.P,J_ESP1,16*%
%TO.N,N/C*%
X148540000Y-114580000D03*
%TO.P,J_ESP1,17*%
X151080000Y-114580000D03*
%TO.P,J_ESP1,18*%
X153620000Y-114580000D03*
%TO.P,J_ESP1,19*%
%TO.N,+5V*%
X156160000Y-114580000D03*
%TD*%
D27*
%TO.P,J_ESP2,1*%
%TO.N,GND*%
X110440000Y-89180000D03*
D28*
%TO.P,J_ESP2,2*%
%TO.N,GPIO23*%
X112980000Y-89180000D03*
%TO.P,J_ESP2,3*%
%TO.N,GPIO22*%
X115520000Y-89180000D03*
%TO.P,J_ESP2,4*%
%TO.N,N/C*%
X118060000Y-89180000D03*
%TO.P,J_ESP2,5*%
X120600000Y-89180000D03*
%TO.P,J_ESP2,6*%
X123140000Y-89180000D03*
%TO.P,J_ESP2,7*%
%TO.N,GND*%
X125680000Y-89180000D03*
%TO.P,J_ESP2,8*%
%TO.N,GPIO19*%
X128220000Y-89180000D03*
%TO.P,J_ESP2,9*%
%TO.N,GPIO18*%
X130760000Y-89180000D03*
%TO.P,J_ESP2,10*%
%TO.N,N/C*%
X133300000Y-89180000D03*
%TO.P,J_ESP2,11*%
%TO.N,GPIO17*%
X135840000Y-89180000D03*
%TO.P,J_ESP2,12*%
%TO.N,GPIO16*%
X138380000Y-89180000D03*
%TO.P,J_ESP2,13*%
%TO.N,GPIO4*%
X140920000Y-89180000D03*
%TO.P,J_ESP2,14*%
%TO.N,N/C*%
X143460000Y-89180000D03*
%TO.P,J_ESP2,15*%
X146000000Y-89180000D03*
%TO.P,J_ESP2,16*%
X148540000Y-89180000D03*
%TO.P,J_ESP2,17*%
X151080000Y-89180000D03*
%TO.P,J_ESP2,18*%
X153620000Y-89180000D03*
%TO.P,J_ESP2,19*%
X156160000Y-89180000D03*
%TD*%
D25*
%TO.P,J_LED,1*%
%TO.N,LED_R-*%
X88138000Y-62230000D03*
D26*
%TO.P,J_LED,2*%
%TO.N,LED_G-*%
X88138000Y-67310000D03*
%TO.P,J_LED,3*%
%TO.N,LED_B-*%
X88138000Y-72390000D03*
%TO.P,J_LED,4*%
%TO.N,LED_W-*%
X88138000Y-77470000D03*
%TO.P,J_LED,5*%
%TO.N,+24V_LED*%
X88138000Y-82550000D03*
%TD*%
D25*
%TO.P,J_PANEL,1*%
%TO.N,+5V_PANEL*%
X95220000Y-132588000D03*
D26*
%TO.P,J_PANEL,2*%
%TO.N,GND*%
X100300000Y-132588000D03*
%TO.P,J_PANEL,3*%
%TO.N,PANEL_TX*%
X105380000Y-132588000D03*
%TO.P,J_PANEL,4*%
%TO.N,PANEL_RX*%
X110460000Y-132588000D03*
%TD*%
D25*
%TO.P,J_PWR,1*%
%TO.N,+24V*%
X144780000Y-55626000D03*
D26*
%TO.P,J_PWR,2*%
%TO.N,GND*%
X139700000Y-55626000D03*
%TD*%
D25*
%TO.P,J_RELAY_FB,1*%
%TO.N,+24V_SAFE*%
X197596000Y-109280000D03*
D26*
%TO.P,J_RELAY_FB,2*%
%TO.N,RELAY_FB_IN*%
X197596000Y-104200000D03*
%TD*%
D25*
%TO.P,J_SRL250,1*%
%TO.N,+24V_SAFE*%
X182880000Y-132588000D03*
D26*
%TO.P,J_SRL250,2*%
%TO.N,SRL250_RTN*%
X187960000Y-132588000D03*
%TD*%
D16*
%TO.P,LED1,1*%
%TO.N,LED24_A*%
X192045000Y-56008000D03*
%TO.P,LED1,2*%
%TO.N,GND*%
X193945000Y-56008000D03*
%TD*%
%TO.P,LED2,1*%
%TO.N,LED5_A*%
X192045000Y-60008000D03*
%TO.P,LED2,2*%
%TO.N,GND*%
X193945000Y-60008000D03*
%TD*%
%TO.P,LED3,1*%
%TO.N,FAULT_A*%
X192045000Y-64008000D03*
%TO.P,LED3,2*%
%TO.N,GND*%
X193945000Y-64008000D03*
%TD*%
D12*
%TO.P,LED4,1*%
%TO.N,ACT_R*%
X100330000Y-72630000D03*
%TO.P,LED4,2*%
%TO.N,GND*%
X100330000Y-70730000D03*
%TD*%
%TO.P,LED5,1*%
%TO.N,ACT_G*%
X109220000Y-72630000D03*
%TO.P,LED5,2*%
%TO.N,GND*%
X109220000Y-70730000D03*
%TD*%
%TO.P,LED6,1*%
%TO.N,ACT_B*%
X118110000Y-72630000D03*
%TO.P,LED6,2*%
%TO.N,GND*%
X118110000Y-70730000D03*
%TD*%
%TO.P,LED7,1*%
%TO.N,ACT_W*%
X127000000Y-72630000D03*
%TO.P,LED7,2*%
%TO.N,GND*%
X127000000Y-70730000D03*
%TD*%
D29*
%TO.P,OPT2,1*%
%TO.N,HL_LED*%
X171695000Y-110470000D03*
%TO.P,OPT2,2*%
%TO.N,GND*%
X171695000Y-107930000D03*
%TO.P,OPT2,3*%
X165195000Y-107930000D03*
%TO.P,OPT2,4*%
%TO.N,GPIO33*%
X165195000Y-110470000D03*
%TD*%
%TO.P,OPT_RELAY_FB,1*%
%TO.N,RELAY_FB_LED*%
X171695000Y-100310000D03*
%TO.P,OPT_RELAY_FB,2*%
%TO.N,GND*%
X171695000Y-97770000D03*
%TO.P,OPT_RELAY_FB,3*%
X165195000Y-97770000D03*
%TO.P,OPT_RELAY_FB,4*%
%TO.N,GPIO32*%
X165195000Y-100310000D03*
%TD*%
D30*
%TO.P,PF1,1*%
%TO.N,+5V*%
X99060000Y-119720000D03*
%TO.P,PF1,2*%
%TO.N,+5V_PANEL*%
X94660000Y-119720000D03*
%TD*%
D31*
%TO.P,Q1,1*%
%TO.N,G_COIL*%
X190350000Y-68810000D03*
%TO.P,Q1,3*%
%TO.N,GND*%
X190350000Y-73370000D03*
D32*
%TO.P,Q1,2*%
%TO.N,COIL-*%
X196850000Y-71090000D03*
%TD*%
D33*
%TO.P,Q2,1*%
%TO.N,G_R*%
X100160000Y-68180000D03*
%TO.P,Q2,3*%
%TO.N,GND*%
X104720000Y-68180000D03*
D34*
%TO.P,Q2,2*%
%TO.N,LED_R-*%
X102440000Y-61680000D03*
%TD*%
D33*
%TO.P,Q3,1*%
%TO.N,G_G*%
X109160000Y-68180000D03*
%TO.P,Q3,3*%
%TO.N,GND*%
X113720000Y-68180000D03*
D34*
%TO.P,Q3,2*%
%TO.N,LED_G-*%
X111440000Y-61680000D03*
%TD*%
D33*
%TO.P,Q4,1*%
%TO.N,G_B*%
X118160000Y-68180000D03*
%TO.P,Q4,3*%
%TO.N,GND*%
X122720000Y-68180000D03*
D34*
%TO.P,Q4,2*%
%TO.N,LED_B-*%
X120440000Y-61680000D03*
%TD*%
D33*
%TO.P,Q5,1*%
%TO.N,G_W*%
X127160000Y-68180000D03*
%TO.P,Q5,3*%
%TO.N,GND*%
X131720000Y-68180000D03*
D34*
%TO.P,Q5,2*%
%TO.N,LED_W-*%
X129440000Y-61680000D03*
%TD*%
D31*
%TO.P,Q6,1*%
%TO.N,G_AUX*%
X175532000Y-71888000D03*
%TO.P,Q6,3*%
%TO.N,GND*%
X175532000Y-76448000D03*
D32*
%TO.P,Q6,2*%
%TO.N,AUX_OUT-*%
X182032000Y-74168000D03*
%TD*%
D35*
%TO.P,R1,1*%
%TO.N,RELAY_FB_IN*%
X176530000Y-100690000D03*
%TO.P,R1,2*%
%TO.N,RELAY_FB_LED*%
X176530000Y-97790000D03*
%TD*%
D12*
%TO.P,R10,1*%
%TO.N,GPIO17*%
X122030000Y-72630000D03*
%TO.P,R10,2*%
%TO.N,G_B*%
X122030000Y-70730000D03*
%TD*%
%TO.P,R11,1*%
%TO.N,GPIO16*%
X131030000Y-72630000D03*
%TO.P,R11,2*%
%TO.N,G_W*%
X131030000Y-70730000D03*
%TD*%
D15*
%TO.P,R12,1*%
%TO.N,G_COIL*%
X185928000Y-84328000D03*
%TO.P,R12,2*%
%TO.N,GND*%
X184028000Y-84328000D03*
%TD*%
D12*
%TO.P,R13,1*%
%TO.N,G_R*%
X104140000Y-76630000D03*
%TO.P,R13,2*%
%TO.N,GND*%
X104140000Y-74730000D03*
%TD*%
%TO.P,R14,1*%
%TO.N,G_G*%
X113030000Y-76630000D03*
%TO.P,R14,2*%
%TO.N,GND*%
X113030000Y-74730000D03*
%TD*%
%TO.P,R15,1*%
%TO.N,G_B*%
X122030000Y-76630000D03*
%TO.P,R15,2*%
%TO.N,GND*%
X122030000Y-74730000D03*
%TD*%
%TO.P,R16,1*%
%TO.N,G_W*%
X131030000Y-76630000D03*
%TO.P,R16,2*%
%TO.N,GND*%
X131030000Y-74730000D03*
%TD*%
D16*
%TO.P,R17,1*%
%TO.N,+3V3*%
X129540000Y-118180000D03*
%TO.P,R17,2*%
%TO.N,GPIO22*%
X131440000Y-118180000D03*
%TD*%
%TO.P,R18,1*%
%TO.N,DOOR_IN*%
X121540000Y-118180000D03*
%TO.P,R18,2*%
%TO.N,GPIO22*%
X123440000Y-118180000D03*
%TD*%
D12*
%TO.P,R19,1*%
%TO.N,+3V3*%
X135890000Y-120010000D03*
%TO.P,R19,2*%
%TO.N,BENCH_DATA*%
X135890000Y-118110000D03*
%TD*%
D36*
%TO.P,R2,1*%
%TO.N,SRL250_RTN*%
X200840000Y-116840000D03*
%TO.P,R2,2*%
%TO.N,HL_LED*%
X197940000Y-116840000D03*
%TD*%
D16*
%TO.P,R20,1*%
%TO.N,+3V3*%
X157490000Y-118180000D03*
%TO.P,R20,2*%
%TO.N,CEIL_DATA*%
X159390000Y-118180000D03*
%TD*%
D12*
%TO.P,R21,1*%
%TO.N,BENCH_DATA*%
X138430000Y-120010000D03*
%TO.P,R21,2*%
%TO.N,GPIO26*%
X138430000Y-118110000D03*
%TD*%
D16*
%TO.P,R22,1*%
%TO.N,CEIL_DATA*%
X161490000Y-118180000D03*
%TO.P,R22,2*%
%TO.N,GPIO27*%
X163390000Y-118180000D03*
%TD*%
D11*
%TO.P,R23,1*%
%TO.N,GPIO14*%
X105410000Y-118750000D03*
%TO.P,R23,2*%
%TO.N,PANEL_TX*%
X105410000Y-120650000D03*
%TD*%
D12*
%TO.P,R24,1*%
%TO.N,PANEL_RX*%
X107950000Y-120650000D03*
%TO.P,R24,2*%
%TO.N,GPIO4*%
X107950000Y-118750000D03*
%TD*%
D16*
%TO.P,R25,1*%
%TO.N,+24V_LOGIC*%
X187045000Y-56008000D03*
%TO.P,R25,2*%
%TO.N,LED24_A*%
X188945000Y-56008000D03*
%TD*%
%TO.P,R26,1*%
%TO.N,+5V*%
X187045000Y-60008000D03*
%TO.P,R26,2*%
%TO.N,LED5_A*%
X188945000Y-60008000D03*
%TD*%
%TO.P,R27,1*%
%TO.N,GPIO23*%
X187045000Y-64008000D03*
%TO.P,R27,2*%
%TO.N,FAULT_A*%
X188945000Y-64008000D03*
%TD*%
D12*
%TO.P,R28,1*%
%TO.N,G_R*%
X100330000Y-76630000D03*
%TO.P,R28,2*%
%TO.N,ACT_R*%
X100330000Y-74730000D03*
%TD*%
%TO.P,R29,1*%
%TO.N,G_G*%
X109220000Y-76630000D03*
%TO.P,R29,2*%
%TO.N,ACT_G*%
X109220000Y-74730000D03*
%TD*%
%TO.P,R30,1*%
%TO.N,G_B*%
X118110000Y-76630000D03*
%TO.P,R30,2*%
%TO.N,ACT_B*%
X118110000Y-74730000D03*
%TD*%
%TO.P,R31,1*%
%TO.N,G_W*%
X127000000Y-76630000D03*
%TO.P,R31,2*%
%TO.N,ACT_W*%
X127000000Y-74730000D03*
%TD*%
%TO.P,R32,1*%
%TO.N,GPIO25*%
X172720000Y-74930000D03*
%TO.P,R32,2*%
%TO.N,G_AUX*%
X172720000Y-73030000D03*
%TD*%
D16*
%TO.P,R33,1*%
%TO.N,G_AUX*%
X174884000Y-68834000D03*
%TO.P,R33,2*%
%TO.N,GND*%
X176784000Y-68834000D03*
%TD*%
D12*
%TO.P,R4,1*%
%TO.N,+3V3*%
X162560000Y-103500000D03*
%TO.P,R4,2*%
%TO.N,GPIO32*%
X162560000Y-101600000D03*
%TD*%
%TO.P,R5,1*%
%TO.N,+3V3*%
X168910000Y-116840000D03*
%TO.P,R5,2*%
%TO.N,GPIO33*%
X168910000Y-114940000D03*
%TD*%
D16*
%TO.P,R7,1*%
%TO.N,GPIO13*%
X184028000Y-88646000D03*
%TO.P,R7,2*%
%TO.N,G_COIL*%
X185928000Y-88646000D03*
%TD*%
D12*
%TO.P,R8,1*%
%TO.N,GPIO19*%
X104140000Y-72630000D03*
%TO.P,R8,2*%
%TO.N,G_R*%
X104140000Y-70730000D03*
%TD*%
%TO.P,R9,1*%
%TO.N,GPIO18*%
X113030000Y-72630000D03*
%TO.P,R9,2*%
%TO.N,G_G*%
X113030000Y-70730000D03*
%TD*%
D37*
%TO.P,TP2,1*%
%TO.N,+5V*%
X179070000Y-116840000D03*
%TD*%
%TO.P,TP3,1*%
%TO.N,+3V3*%
X175260000Y-116840000D03*
%TD*%
D13*
%TO.P,U1,1*%
%TO.N,+24V_LOGIC*%
X169164000Y-85598000D03*
D14*
%TO.P,U1,2*%
%TO.N,GND*%
X166624000Y-85598000D03*
%TO.P,U1,3*%
%TO.N,+5V*%
X164084000Y-85598000D03*
%TD*%
D38*
%TO.P,U2,1*%
%TO.N,PANEL_TX*%
X111730000Y-118750000D03*
%TO.P,U2,2*%
%TO.N,GND*%
X111730000Y-119700000D03*
%TO.P,U2,3*%
%TO.N,PANEL_RX*%
X111730000Y-120650000D03*
%TO.P,U2,4*%
X114330000Y-120650000D03*
%TO.P,U2,5*%
%TO.N,+3V3*%
X114330000Y-119700000D03*
%TO.P,U2,6*%
%TO.N,PANEL_TX*%
X114330000Y-118750000D03*
%TD*%
D39*
%TO.N,+3V3*%
X135890000Y-120010000D03*
X112565000Y-116840000D03*
X114330000Y-119700000D03*
X162560000Y-103500000D03*
X162560000Y-111760000D03*
X129540000Y-118180000D03*
%TO.N,+24V_LED*%
X156464000Y-61842000D03*
X147142000Y-79680000D03*
%TO.N,GND*%
X131940000Y-68180000D03*
X109220000Y-70730000D03*
X100330000Y-70730000D03*
X175440000Y-83680000D03*
X147142000Y-81580000D03*
X175514000Y-76454000D03*
X166940000Y-118180000D03*
X91440000Y-120670000D03*
X122030000Y-74730000D03*
X193995000Y-64008000D03*
X122940000Y-68180000D03*
X168440000Y-90680000D03*
X137160000Y-74930000D03*
X198120000Y-96520000D03*
X171695000Y-97770000D03*
X198120000Y-126660000D03*
X171695000Y-107930000D03*
X190350000Y-73370000D03*
X111730000Y-119700000D03*
X113030000Y-74730000D03*
X113940000Y-68180000D03*
X127440000Y-118180000D03*
X131030000Y-74730000D03*
X116840000Y-120650000D03*
X165195000Y-107930000D03*
X176784000Y-68834000D03*
X141970000Y-119380000D03*
X119160000Y-118110000D03*
X173870000Y-102870000D03*
X118110000Y-70730000D03*
X190380000Y-97790000D03*
X165195000Y-97770000D03*
X164440000Y-90180000D03*
X193995000Y-56008000D03*
X104140000Y-74680000D03*
X135768000Y-67310000D03*
X104940000Y-68180000D03*
X127000000Y-70730000D03*
X193995000Y-60008000D03*
X184028000Y-84328000D03*
%TO.N,GPIO22*%
X118618000Y-96266000D03*
X115570000Y-93218000D03*
%TO.N,GPIO27*%
X163390000Y-118180000D03*
%TO.N,GPIO13*%
X159940000Y-112680000D03*
X164084000Y-95250000D03*
%TO.N,+24V_SAFE*%
X156464000Y-73320000D03*
%TO.N,+5V*%
X157353000Y-93599000D03*
X179070000Y-116840000D03*
X126111000Y-93599000D03*
X99060000Y-119720000D03*
X181102000Y-80772000D03*
X187045000Y-60008000D03*
%TO.N,GPIO17*%
X122030000Y-72630000D03*
%TO.N,HL_LED*%
X185420000Y-101600000D03*
X188080000Y-97790000D03*
%TO.N,DOOR_IN*%
X121540000Y-118180000D03*
%TO.N,GPIO23*%
X187045000Y-64008000D03*
X182372000Y-80772000D03*
X180975000Y-86995000D03*
%TO.N,GPIO19*%
X104140000Y-72630000D03*
%TO.N,GPIO18*%
X113030000Y-72630000D03*
%TO.N,GPIO16*%
X131030000Y-72630000D03*
%TO.N,+24V_LOGIC*%
X187045000Y-56008000D03*
X172255000Y-78443000D03*
%TO.N,GPIO25*%
X172720000Y-74930000D03*
X169926000Y-77724000D03*
X156718000Y-92430000D03*
%TO.N,GPIO26*%
X138430000Y-118110000D03*
%TO.N,GPIO14*%
X132080000Y-116238000D03*
X105410000Y-118750000D03*
%TD*%
%TO.N,+3V3*%
D40*
X158830000Y-116840000D02*
X157490000Y-118180000D01*
X138430000Y-132588000D02*
X135890000Y-130048000D01*
X157440000Y-126990000D02*
X159990000Y-129540000D01*
X162560000Y-116500000D02*
X162220000Y-116840000D01*
X169164000Y-116840000D02*
X175260000Y-116840000D01*
X159990000Y-132334000D02*
X157196000Y-135128000D01*
D41*
X129490000Y-118680000D02*
X129540000Y-118180000D01*
D42*
X115890000Y-119700000D02*
X116840000Y-118750000D01*
D40*
X162560000Y-111760000D02*
X162560000Y-116500000D01*
X110440000Y-114715000D02*
X112565000Y-116840000D01*
D41*
X129490000Y-117680000D02*
X129540000Y-118180000D01*
D42*
X135890000Y-119705000D02*
X135890000Y-120010000D01*
D40*
X168910000Y-116840000D02*
X158830000Y-116840000D01*
X157196000Y-135128000D02*
X141478000Y-135128000D01*
D41*
X110440000Y-114580000D02*
X110940000Y-114180000D01*
D42*
X114330000Y-119700000D02*
X115890000Y-119700000D01*
D40*
X157440000Y-118230000D02*
X157440000Y-126990000D01*
X135890000Y-130048000D02*
X135890000Y-120010000D01*
X141478000Y-135128000D02*
X138938000Y-132588000D01*
X138938000Y-132588000D02*
X138430000Y-132588000D01*
X157490000Y-118180000D02*
X157440000Y-118230000D01*
X159990000Y-129540000D02*
X159990000Y-132334000D01*
%TO.N,GPIO32*%
D41*
X156210000Y-107950000D02*
X132080000Y-107950000D01*
X125680000Y-114350000D02*
X125680000Y-114580000D01*
X162560000Y-101600000D02*
X156210000Y-107950000D01*
X125440000Y-114180000D02*
X125680000Y-114580000D01*
D42*
X163850000Y-100310000D02*
X162560000Y-101600000D01*
D41*
X132080000Y-107950000D02*
X125680000Y-114350000D01*
D42*
X165195000Y-100310000D02*
X163850000Y-100310000D01*
%TO.N,+24V_LED*%
D43*
X147142000Y-79680000D02*
X140792000Y-79680000D01*
X138070000Y-82550000D02*
X88408000Y-82550000D01*
X140792000Y-79680000D02*
X138440000Y-82032000D01*
%TO.N,GND*%
D41*
X131720000Y-68180000D02*
X131940000Y-68180000D01*
X122720000Y-68180000D02*
X122940000Y-68180000D01*
X104720000Y-68180000D02*
X104940000Y-68180000D01*
X113720000Y-68180000D02*
X113940000Y-68180000D01*
%TO.N,+24V_AUX*%
D44*
X167132000Y-61902000D02*
X167968000Y-61902000D01*
D45*
X179070000Y-53340000D02*
X181610000Y-55880000D01*
X170740000Y-53340000D02*
X179070000Y-53340000D01*
X181610000Y-55880000D02*
X181610000Y-65278000D01*
X167132000Y-61722000D02*
X170740000Y-61722000D01*
X170740000Y-61722000D02*
X170740000Y-53340000D01*
X181610000Y-65278000D02*
X184658000Y-68326000D01*
X167132000Y-61902000D02*
X167132000Y-61722000D01*
%TO.N,AUX_OUT-*%
D44*
X180594000Y-68326000D02*
X180658000Y-68326000D01*
D45*
X182032000Y-69700000D02*
X180658000Y-68326000D01*
X176530000Y-64198000D02*
X176530000Y-55880000D01*
D44*
X180658000Y-72794000D02*
X182032000Y-74168000D01*
D45*
X180658000Y-68326000D02*
X176530000Y-64198000D01*
X182032000Y-74168000D02*
X182032000Y-69700000D01*
%TO.N,SRL250_RTN*%
X198034000Y-122260000D02*
X198120000Y-122260000D01*
X200660000Y-119720000D02*
X198120000Y-122260000D01*
X200660000Y-92710000D02*
X200660000Y-119720000D01*
X197358000Y-89408000D02*
X200660000Y-92710000D01*
X197358000Y-88900000D02*
X197358000Y-89408000D01*
X187960000Y-132334000D02*
X198034000Y-122260000D01*
X200890000Y-85368000D02*
X197358000Y-88900000D01*
X200890000Y-77440000D02*
X200890000Y-85368000D01*
%TO.N,COIL-*%
X196890000Y-77440000D02*
X196890000Y-71130000D01*
X197612000Y-78162000D02*
X197612000Y-83804000D01*
X197596000Y-83820000D02*
X197358000Y-83820000D01*
X197612000Y-83804000D02*
X197596000Y-83820000D01*
X196890000Y-71130000D02*
X196850000Y-71090000D01*
X196890000Y-77440000D02*
X197612000Y-78162000D01*
%TO.N,GPIO22*%
D41*
X125510000Y-118180000D02*
X125540000Y-118180000D01*
X125540000Y-118180000D02*
X125490000Y-118180000D01*
D42*
X115570000Y-93218000D02*
X115520000Y-93168000D01*
D41*
X125540000Y-118180000D02*
X125697000Y-118180000D01*
D42*
X121920000Y-99568000D02*
X121920000Y-116660000D01*
X118618000Y-96266000D02*
X121920000Y-99568000D01*
D41*
X124990000Y-118180000D02*
X125510000Y-118180000D01*
X126897000Y-119380000D02*
X130240000Y-119380000D01*
X130240000Y-119380000D02*
X131440000Y-118180000D01*
X123990000Y-118180000D02*
X124990000Y-118180000D01*
X123440000Y-118180000D02*
X123990000Y-118180000D01*
X125490000Y-118680000D02*
X125540000Y-118180000D01*
D42*
X121920000Y-116660000D02*
X123440000Y-118180000D01*
X115520000Y-93168000D02*
X115520000Y-89180000D01*
D41*
X125697000Y-118180000D02*
X126897000Y-119380000D01*
X131440000Y-118180000D02*
X131490000Y-118180000D01*
%TO.N,CEIL_DATA*%
X165940000Y-119180000D02*
X165940000Y-118180000D01*
X161940000Y-126410000D02*
X161940000Y-119180000D01*
X161490000Y-118180000D02*
X161940000Y-118680000D01*
X160940000Y-118180000D02*
X161490000Y-118180000D01*
X165070000Y-132334000D02*
X165070000Y-129540000D01*
X161940000Y-118680000D02*
X161940000Y-119180000D01*
X165070000Y-129540000D02*
X161940000Y-126410000D01*
X159390000Y-118180000D02*
X159940000Y-118180000D01*
X161940000Y-119180000D02*
X165940000Y-119180000D01*
X159940000Y-118180000D02*
X160940000Y-118180000D01*
%TO.N,GPIO13*%
X183896000Y-88646000D02*
X184028000Y-88646000D01*
X177424000Y-95250000D02*
X184028000Y-88646000D01*
X164084000Y-95250000D02*
X177424000Y-95250000D01*
X145940000Y-114180000D02*
X146000000Y-114580000D01*
X145940000Y-112680000D02*
X145940000Y-114180000D01*
X159940000Y-112680000D02*
X145940000Y-112680000D01*
%TO.N,G_COIL*%
D42*
X185928000Y-84328000D02*
X185928000Y-88646000D01*
X190350000Y-68810000D02*
X185928000Y-73232000D01*
X185928000Y-73232000D02*
X185928000Y-84328000D01*
%TO.N,G_W*%
X129540000Y-72220000D02*
X129540000Y-75140000D01*
X129710000Y-70730000D02*
X131030000Y-70730000D01*
X127000000Y-76630000D02*
X131030000Y-76630000D01*
X131030000Y-70730000D02*
X129540000Y-72220000D01*
X127160000Y-68180000D02*
X129710000Y-70730000D01*
X129540000Y-75140000D02*
X131030000Y-76630000D01*
%TO.N,ACT_W*%
X127000000Y-72630000D02*
X127000000Y-74730000D01*
%TO.N,+24V*%
D43*
X137160000Y-70530000D02*
X137290000Y-70530000D01*
X144780000Y-55626000D02*
X144780000Y-63040000D01*
X152594000Y-56702000D02*
X167132000Y-56702000D01*
X167132000Y-68920000D02*
X156464000Y-68920000D01*
X150622000Y-63078000D02*
X150622000Y-58674000D01*
X139470000Y-68350000D02*
X139700000Y-68350000D01*
X137290000Y-70530000D02*
X139470000Y-68350000D01*
X144780000Y-63040000D02*
X139470000Y-68350000D01*
X139700000Y-68350000D02*
X142550000Y-71200000D01*
X144764000Y-55610000D02*
X144780000Y-55626000D01*
X156464000Y-68920000D02*
X150622000Y-63078000D01*
X165224000Y-68920000D02*
X167132000Y-68920000D01*
X137668000Y-67310000D02*
X138660000Y-67310000D01*
X144796000Y-58674000D02*
X150622000Y-58674000D01*
X138660000Y-67310000D02*
X139700000Y-68350000D01*
X150622000Y-58674000D02*
X152594000Y-56702000D01*
%TO.N,BENCH_DATA*%
D41*
X138430000Y-120010000D02*
X138430000Y-124460000D01*
D42*
X138430000Y-120010000D02*
X137790000Y-120010000D01*
X140970000Y-119380000D02*
X140340000Y-120010000D01*
D41*
X138430000Y-124460000D02*
X143510000Y-129540000D01*
X143510000Y-129540000D02*
X143510000Y-132334000D01*
D42*
X137790000Y-120010000D02*
X135890000Y-118110000D01*
X140340000Y-120010000D02*
X138430000Y-120010000D01*
%TO.N,+5V_PANEL*%
D46*
X94660000Y-119720000D02*
X95250000Y-120310000D01*
X95250000Y-120310000D02*
X95250000Y-132304000D01*
X93710000Y-118770000D02*
X94660000Y-119720000D01*
X91440000Y-118770000D02*
X93710000Y-118770000D01*
X95250000Y-132304000D02*
X95220000Y-132334000D01*
%TO.N,PANEL_TX*%
D42*
X111730000Y-118750000D02*
X114330000Y-118750000D01*
X111120000Y-118750000D02*
X111730000Y-118750000D01*
X105380000Y-120680000D02*
X105410000Y-120650000D01*
X105380000Y-132334000D02*
X105380000Y-120680000D01*
X106210000Y-119850000D02*
X110020000Y-119850000D01*
X105410000Y-120650000D02*
X106210000Y-119850000D01*
X110020000Y-119850000D02*
X111120000Y-118750000D01*
%TO.N,PANEL_RX*%
X110460000Y-123160000D02*
X110460000Y-132334000D01*
X107950000Y-120650000D02*
X111730000Y-120650000D01*
X107950000Y-120650000D02*
X110460000Y-123160000D01*
X111730000Y-120650000D02*
X114330000Y-120650000D01*
%TO.N,+5V*%
D46*
X181102000Y-85090000D02*
X181102000Y-80772000D01*
X165440000Y-93180000D02*
X164440000Y-93130000D01*
X167940000Y-93180000D02*
X165440000Y-93180000D01*
X157353000Y-93599000D02*
X162100000Y-93599000D01*
X162100000Y-93599000D02*
X162440000Y-93259000D01*
X168440000Y-92630000D02*
X167940000Y-93180000D01*
X168440000Y-92630000D02*
X173562000Y-92630000D01*
D40*
X157353000Y-93599000D02*
X126111000Y-93599000D01*
D46*
X162440000Y-93180000D02*
X164390000Y-93180000D01*
X162440000Y-93259000D02*
X162440000Y-93180000D01*
X164390000Y-93180000D02*
X164440000Y-93130000D01*
X164084000Y-85598000D02*
X162440000Y-87242000D01*
X162440000Y-87242000D02*
X162440000Y-93180000D01*
X173562000Y-92630000D02*
X181102000Y-85090000D01*
%TO.N,ACT_B*%
D42*
X118110000Y-72630000D02*
X118110000Y-74730000D01*
%TO.N,LED24_A*%
X188945000Y-56008000D02*
X192045000Y-56008000D01*
%TO.N,G_R*%
X100330000Y-76630000D02*
X104140000Y-76630000D01*
X102710000Y-70730000D02*
X104140000Y-70730000D01*
X100160000Y-68180000D02*
X102710000Y-70730000D01*
D41*
X103140000Y-71730000D02*
X103140000Y-75630000D01*
X104140000Y-70730000D02*
X103140000Y-71730000D01*
X103140000Y-75630000D02*
X104140000Y-76630000D01*
%TO.N,ACT_R*%
D42*
X100330000Y-72630000D02*
X100330000Y-74730000D01*
%TO.N,GPIO17*%
D41*
X135940000Y-88680000D02*
X135840000Y-89180000D01*
%TO.N,G_B*%
D42*
X120710000Y-70730000D02*
X122030000Y-70730000D01*
X118110000Y-76630000D02*
X122030000Y-76630000D01*
X118160000Y-68180000D02*
X120710000Y-70730000D01*
X120650000Y-72110000D02*
X120650000Y-75250000D01*
X122030000Y-70730000D02*
X120650000Y-72110000D01*
X120650000Y-75250000D02*
X122030000Y-76630000D01*
%TO.N,HL_LED*%
X172700000Y-110470000D02*
X171695000Y-110470000D01*
X172720000Y-110490000D02*
X172700000Y-110470000D01*
X197940000Y-116840000D02*
X187960000Y-116840000D01*
X187960000Y-116840000D02*
X185420000Y-114300000D01*
X181610000Y-110490000D02*
X172720000Y-110490000D01*
X185420000Y-114300000D02*
X185420000Y-101600000D01*
X185420000Y-114300000D02*
X181610000Y-110490000D01*
X171695000Y-110470000D02*
X171470000Y-110470000D01*
X171470000Y-110470000D02*
X171450000Y-110490000D01*
%TO.N,LED5_A*%
D41*
X191495000Y-60008000D02*
X192045000Y-60008000D01*
X188945000Y-60008000D02*
X189495000Y-60008000D01*
X189495000Y-60008000D02*
X191495000Y-60008000D01*
%TO.N,LED_W-*%
D45*
X124968000Y-76962000D02*
X121920000Y-80010000D01*
X129440000Y-61680000D02*
X124968000Y-66152000D01*
X121920000Y-80010000D02*
X93980000Y-80010000D01*
X93980000Y-80010000D02*
X91440000Y-77470000D01*
X91440000Y-77470000D02*
X88408000Y-77470000D01*
X124968000Y-66152000D02*
X124968000Y-76962000D01*
%TO.N,GPIO4*%
D42*
X107950000Y-118750000D02*
X109220000Y-117480000D01*
X109220000Y-117480000D02*
X109220000Y-102870000D01*
X120650000Y-91440000D02*
X138660000Y-91440000D01*
X109220000Y-102870000D02*
X120650000Y-91440000D01*
X138660000Y-91440000D02*
X140920000Y-89180000D01*
%TO.N,GPIO33*%
D41*
X128220000Y-114350000D02*
X132100000Y-110470000D01*
X132100000Y-110470000D02*
X164075000Y-110470000D01*
D42*
X165195000Y-111225000D02*
X165195000Y-110470000D01*
X168890000Y-114920000D02*
X165195000Y-111225000D01*
X165195000Y-110470000D02*
X164075000Y-110470000D01*
D41*
X128440000Y-115180000D02*
X128220000Y-114580000D01*
X128220000Y-114580000D02*
X128220000Y-114350000D01*
%TO.N,DOOR_IN*%
D42*
X120160000Y-118110000D02*
X121470000Y-118110000D01*
X121470000Y-118110000D02*
X121540000Y-118180000D01*
%TO.N,GPIO23*%
D41*
X180975000Y-86995000D02*
X182372000Y-85598000D01*
X182372000Y-85598000D02*
X182372000Y-80772000D01*
X112940000Y-88680000D02*
X112980000Y-89180000D01*
%TO.N,GPIO19*%
X127440000Y-89180000D02*
X128220000Y-89180000D01*
%TO.N,GPIO16*%
X138440000Y-88680000D02*
X138380000Y-89180000D01*
%TO.N,RELAY_FB_IN*%
D42*
X193720000Y-96520000D02*
X189910000Y-100330000D01*
X176890000Y-100330000D02*
X176530000Y-100690000D01*
X176530000Y-100690000D02*
X176530000Y-100330000D01*
X189910000Y-100330000D02*
X176890000Y-100330000D01*
X193720000Y-97200000D02*
X193720000Y-96520000D01*
X193253000Y-96987000D02*
X193253000Y-100095000D01*
X193253000Y-100095000D02*
X197358000Y-104200000D01*
X194040000Y-97520000D02*
X193720000Y-97200000D01*
X193720000Y-96520000D02*
X193253000Y-96987000D01*
%TO.N,LED_B-*%
D45*
X113798000Y-78480000D02*
X97530000Y-78480000D01*
X97530000Y-78480000D02*
X91440000Y-72390000D01*
X117440000Y-64680000D02*
X117438000Y-64680000D01*
X115824000Y-76454000D02*
X113798000Y-78480000D01*
X120440000Y-61680000D02*
X117440000Y-64680000D01*
X91440000Y-72390000D02*
X88408000Y-72390000D01*
X117438000Y-64680000D02*
X115824000Y-66294000D01*
X115824000Y-66294000D02*
X115824000Y-76454000D01*
%TO.N,ACT_G*%
D42*
X109220000Y-74730000D02*
X109220000Y-72630000D01*
%TO.N,LED_R-*%
D45*
X99440000Y-62180000D02*
X88458000Y-62180000D01*
X88458000Y-62180000D02*
X88408000Y-62230000D01*
X102440000Y-61680000D02*
X99440000Y-62180000D01*
%TO.N,LED_G-*%
X89538000Y-66180000D02*
X88408000Y-67310000D01*
X111440000Y-61680000D02*
X106940000Y-66180000D01*
X106940000Y-66180000D02*
X89538000Y-66180000D01*
%TO.N,+24V_LOGIC*%
D46*
X173415000Y-85115000D02*
X173440000Y-85090000D01*
X173440000Y-85090000D02*
X174980000Y-86630000D01*
X173440000Y-79628000D02*
X173440000Y-85090000D01*
X186867000Y-56528000D02*
X187045000Y-56528000D01*
X167132000Y-73320000D02*
X173440000Y-79628000D01*
X169647000Y-85115000D02*
X173415000Y-85115000D01*
X169164000Y-85598000D02*
X169647000Y-85115000D01*
X174980000Y-86630000D02*
X175440000Y-86630000D01*
%TO.N,G_AUX*%
D40*
X174390000Y-73030000D02*
X175532000Y-71888000D01*
X172720000Y-73030000D02*
X174390000Y-73030000D01*
X174884000Y-68834000D02*
X174884000Y-71240000D01*
X174884000Y-71240000D02*
X175532000Y-71888000D01*
%TO.N,GPIO25*%
D47*
X169926000Y-77724000D02*
X169418000Y-78232000D01*
X165354000Y-78232000D02*
X159766000Y-83820000D01*
X157002000Y-92426000D02*
X156722000Y-92426000D01*
X159766000Y-89662000D02*
X157002000Y-92426000D01*
X156722000Y-92426000D02*
X156718000Y-92430000D01*
X169418000Y-78232000D02*
X165354000Y-78232000D01*
X159766000Y-83820000D02*
X159766000Y-89662000D01*
%TO.N,RELAY_FB_LED*%
D42*
X171450000Y-100555000D02*
X171695000Y-100310000D01*
X174215000Y-97790000D02*
X176530000Y-97790000D01*
X171570000Y-102870000D02*
X171450000Y-102870000D01*
X171675000Y-100330000D02*
X174215000Y-97790000D01*
X171450000Y-102870000D02*
X171450000Y-100555000D01*
X171675000Y-100330000D02*
X171450000Y-100330000D01*
X171695000Y-100310000D02*
X171675000Y-100330000D01*
%TO.N,GPIO14*%
X132080000Y-116238000D02*
X136722000Y-116238000D01*
D41*
X137940000Y-114680000D02*
X138380000Y-114580000D01*
D42*
X136722000Y-116238000D02*
X138380000Y-114580000D01*
%TO.N,G_G*%
X111760000Y-72000000D02*
X111760000Y-75360000D01*
X109160000Y-68180000D02*
X111710000Y-70730000D01*
X113030000Y-76630000D02*
X109220000Y-76630000D01*
X113030000Y-70730000D02*
X111760000Y-72000000D01*
X111710000Y-70730000D02*
X113030000Y-70730000D01*
X111760000Y-75360000D02*
X113030000Y-76630000D01*
%TO.N,FAULT_A*%
D41*
X188945000Y-64008000D02*
X189495000Y-64008000D01*
X189495000Y-64008000D02*
X191495000Y-64008000D01*
X191495000Y-64008000D02*
X192045000Y-64008000D01*
%TD*%
M02*
