%TF.GenerationSoftware,KiCad,Pcbnew,10.0.1*%
%TF.CreationDate,2026-06-17T13:41:46-06:00*%
%TF.ProjectId,sauna-rev-b,7361756e-612d-4726-9576-2d622e6b6963,rev?*%
%TF.SameCoordinates,Original*%
%TF.FileFunction,Copper,L2,Bot*%
%TF.FilePolarity,Positive*%
%FSLAX46Y46*%
G04 Gerber Fmt 4.6, Leading zero omitted, Abs format (unit mm)*
G04 Created by KiCad (PCBNEW 10.0.1) date 2026-06-17 13:41:46*
%MOMM*%
%LPD*%
G01*
G04 APERTURE LIST*
%TA.AperFunction,ComponentPad*%
%ADD10R,1.800000X1.800000*%
%TD*%
%TA.AperFunction,ComponentPad*%
%ADD11C,1.800000*%
%TD*%
%TA.AperFunction,ComponentPad*%
%ADD12R,3.000000X3.000000*%
%TD*%
%TA.AperFunction,ComponentPad*%
%ADD13C,3.000000*%
%TD*%
%TA.AperFunction,ComponentPad*%
%ADD14R,1.700000X1.700000*%
%TD*%
%TA.AperFunction,ComponentPad*%
%ADD15O,1.700000X1.700000*%
%TD*%
%TA.AperFunction,ViaPad*%
%ADD16C,0.800000*%
%TD*%
%TA.AperFunction,Conductor*%
%ADD17C,2.000000*%
%TD*%
%TA.AperFunction,Conductor*%
%ADD18C,0.500000*%
%TD*%
%TA.AperFunction,Conductor*%
%ADD19C,1.000000*%
%TD*%
%TA.AperFunction,Conductor*%
%ADD20C,0.508000*%
%TD*%
%TA.AperFunction,Conductor*%
%ADD21C,0.300000*%
%TD*%
%TA.AperFunction,Conductor*%
%ADD22C,0.200000*%
%TD*%
G04 APERTURE END LIST*
D10*
%TO.P,C4,1*%
%TO.N,+24V*%
X142550000Y-71200000D03*
D11*
%TO.P,C4,2*%
%TO.N,GND*%
X146050000Y-71200000D03*
%TD*%
D10*
%TO.P,C6,1*%
%TO.N,+24V_LED*%
X138430000Y-82296000D03*
D11*
%TO.P,C6,2*%
%TO.N,GND*%
X141930000Y-82296000D03*
%TD*%
D12*
%TO.P,J_AUX_OUT,1*%
%TO.N,+24V_AUX*%
X181610000Y-55626000D03*
D13*
%TO.P,J_AUX_OUT,2*%
%TO.N,AUX_OUT-*%
X176530000Y-55626000D03*
%TD*%
D12*
%TO.P,J_BENCH,1*%
%TO.N,+3V3*%
X138430000Y-132588000D03*
D13*
%TO.P,J_BENCH,2*%
%TO.N,BENCH_DATA*%
X143510000Y-132588000D03*
%TO.P,J_BENCH,3*%
%TO.N,GND*%
X148590000Y-132588000D03*
%TD*%
D12*
%TO.P,J_CEILING,1*%
%TO.N,+3V3*%
X159990000Y-132588000D03*
D13*
%TO.P,J_CEILING,2*%
%TO.N,CEIL_DATA*%
X165070000Y-132588000D03*
%TO.P,J_CEILING,3*%
%TO.N,GND*%
X170150000Y-132588000D03*
%TD*%
D12*
%TO.P,J_COIL,1*%
%TO.N,SRL250_RTN*%
X197596000Y-88900000D03*
D13*
%TO.P,J_COIL,2*%
%TO.N,COIL-*%
X197596000Y-83820000D03*
%TD*%
D12*
%TO.P,J_DOOR,1*%
%TO.N,DOOR_IN*%
X121250000Y-132588000D03*
D13*
%TO.P,J_DOOR,2*%
%TO.N,GND*%
X126330000Y-132588000D03*
%TD*%
D14*
%TO.P,J_ESP1,1*%
%TO.N,+3V3*%
X110440000Y-114580000D03*
D15*
%TO.P,J_ESP1,2*%
%TO.N,N/C*%
X112980000Y-114580000D03*
%TO.P,J_ESP1,3*%
X115520000Y-114580000D03*
%TO.P,J_ESP1,4*%
X118060000Y-114580000D03*
%TO.P,J_ESP1,5*%
%TO.N,GPIO34*%
X120600000Y-114580000D03*
%TO.P,J_ESP1,6*%
%TO.N,GPIO35*%
X123140000Y-114580000D03*
%TO.P,J_ESP1,7*%
%TO.N,GPIO32*%
X125680000Y-114580000D03*
%TO.P,J_ESP1,8*%
%TO.N,GPIO33*%
X128220000Y-114580000D03*
%TO.P,J_ESP1,9*%
%TO.N,GPIO25*%
X130760000Y-114580000D03*
%TO.P,J_ESP1,10*%
%TO.N,GPIO26*%
X133300000Y-114580000D03*
%TO.P,J_ESP1,11*%
%TO.N,GPIO27*%
X135840000Y-114580000D03*
%TO.P,J_ESP1,12*%
%TO.N,N/C*%
X138380000Y-114580000D03*
%TO.P,J_ESP1,13*%
X140920000Y-114580000D03*
%TO.P,J_ESP1,14*%
%TO.N,GND*%
X143460000Y-114580000D03*
%TO.P,J_ESP1,15*%
%TO.N,N/C*%
X146000000Y-114580000D03*
%TO.P,J_ESP1,16*%
X148540000Y-114580000D03*
%TO.P,J_ESP1,17*%
X151080000Y-114580000D03*
%TO.P,J_ESP1,18*%
X153620000Y-114580000D03*
%TO.P,J_ESP1,19*%
%TO.N,+5V*%
X156160000Y-114580000D03*
%TD*%
D14*
%TO.P,J_ESP2,1*%
%TO.N,GND*%
X110440000Y-89180000D03*
D15*
%TO.P,J_ESP2,2*%
%TO.N,GPIO23*%
X112980000Y-89180000D03*
%TO.P,J_ESP2,3*%
%TO.N,GPIO22*%
X115520000Y-89180000D03*
%TO.P,J_ESP2,4*%
%TO.N,N/C*%
X118060000Y-89180000D03*
%TO.P,J_ESP2,5*%
X120600000Y-89180000D03*
%TO.P,J_ESP2,6*%
X123140000Y-89180000D03*
%TO.P,J_ESP2,7*%
%TO.N,GND*%
X125680000Y-89180000D03*
%TO.P,J_ESP2,8*%
%TO.N,GPIO19*%
X128220000Y-89180000D03*
%TO.P,J_ESP2,9*%
%TO.N,GPIO18*%
X130760000Y-89180000D03*
%TO.P,J_ESP2,10*%
%TO.N,N/C*%
X133300000Y-89180000D03*
%TO.P,J_ESP2,11*%
%TO.N,GPIO17*%
X135840000Y-89180000D03*
%TO.P,J_ESP2,12*%
%TO.N,GPIO16*%
X138380000Y-89180000D03*
%TO.P,J_ESP2,13*%
%TO.N,GPIO4*%
X140920000Y-89180000D03*
%TO.P,J_ESP2,14*%
%TO.N,N/C*%
X143460000Y-89180000D03*
%TO.P,J_ESP2,15*%
X146000000Y-89180000D03*
%TO.P,J_ESP2,16*%
X148540000Y-89180000D03*
%TO.P,J_ESP2,17*%
X151080000Y-89180000D03*
%TO.P,J_ESP2,18*%
X153620000Y-89180000D03*
%TO.P,J_ESP2,19*%
X156160000Y-89180000D03*
%TD*%
D12*
%TO.P,J_LED,1*%
%TO.N,LED_R-*%
X88138000Y-62230000D03*
D13*
%TO.P,J_LED,2*%
%TO.N,LED_G-*%
X88138000Y-67310000D03*
%TO.P,J_LED,3*%
%TO.N,LED_B-*%
X88138000Y-72390000D03*
%TO.P,J_LED,4*%
%TO.N,LED_W-*%
X88138000Y-77470000D03*
%TO.P,J_LED,5*%
%TO.N,+24V_LED*%
X88138000Y-82550000D03*
%TD*%
D12*
%TO.P,J_PANEL,1*%
%TO.N,+5V_PANEL*%
X95220000Y-132588000D03*
D13*
%TO.P,J_PANEL,2*%
%TO.N,GND*%
X100300000Y-132588000D03*
%TO.P,J_PANEL,3*%
%TO.N,PANEL_TX*%
X105380000Y-132588000D03*
%TO.P,J_PANEL,4*%
%TO.N,PANEL_RX*%
X110460000Y-132588000D03*
%TD*%
D12*
%TO.P,J_PWR,1*%
%TO.N,+24V*%
X144780000Y-55626000D03*
D13*
%TO.P,J_PWR,2*%
%TO.N,GND*%
X139700000Y-55626000D03*
%TD*%
D12*
%TO.P,J_RELAY_FB,1*%
%TO.N,+24V_SAFE*%
X197596000Y-109280000D03*
D13*
%TO.P,J_RELAY_FB,2*%
%TO.N,RELAY_FB_IN*%
X197596000Y-104200000D03*
%TD*%
D12*
%TO.P,J_SRL250,1*%
%TO.N,+24V_SAFE*%
X182880000Y-132588000D03*
D13*
%TO.P,J_SRL250,2*%
%TO.N,SRL250_RTN*%
X187960000Y-132588000D03*
%TD*%
D10*
%TO.P,U1,1*%
%TO.N,+24V_LOGIC*%
X169164000Y-85598000D03*
D11*
%TO.P,U1,2*%
%TO.N,GND*%
X166624000Y-85598000D03*
%TO.P,U1,3*%
%TO.N,+5V*%
X164084000Y-85598000D03*
%TD*%
D16*
%TO.N,+24V_LED*%
X156464000Y-61842000D03*
X147142000Y-79680000D03*
%TO.N,+24V_LOGIC*%
X172255000Y-78443000D03*
X187045000Y-56008000D03*
%TO.N,+24V_SAFE*%
X156464000Y-73320000D03*
%TO.N,+3V3*%
X129540000Y-119126000D03*
X162560000Y-112136000D03*
X135890000Y-120010000D03*
X162560000Y-103500000D03*
X114330000Y-119700000D03*
%TO.N,+5V*%
X99060000Y-119720000D03*
X187045000Y-60008000D03*
X179070000Y-116840000D03*
X109120000Y-110370000D03*
X181102000Y-80772000D03*
X157353000Y-93599000D03*
%TO.N,GND*%
X127000000Y-70730000D03*
X119160000Y-119056000D03*
X190350000Y-73370000D03*
X135768000Y-67310000D03*
X166940000Y-118180000D03*
X171695000Y-107930000D03*
X175514000Y-76454000D03*
X113720000Y-68180000D03*
X193995000Y-64008000D03*
X198120000Y-126660000D03*
X116840000Y-120650000D03*
X141970000Y-119380000D03*
X127440000Y-119126000D03*
X118110000Y-70730000D03*
X147142000Y-81580000D03*
X168148000Y-91248000D03*
X131030000Y-74730000D03*
X175440000Y-83680000D03*
X176784000Y-68834000D03*
X173870000Y-102870000D03*
X165195000Y-107930000D03*
X100330000Y-70730000D03*
X109220000Y-70730000D03*
X104720000Y-68180000D03*
X137160000Y-74930000D03*
X190380000Y-97790000D03*
X131720000Y-68180000D03*
X122720000Y-68180000D03*
X104140000Y-74680000D03*
X198120000Y-96520000D03*
X113030000Y-74730000D03*
X184028000Y-84328000D03*
X111730000Y-119700000D03*
X193995000Y-60008000D03*
X122030000Y-74730000D03*
X165195000Y-97770000D03*
X164948000Y-90180000D03*
X91440000Y-120670000D03*
X171695000Y-97770000D03*
X193995000Y-56008000D03*
%TO.N,GPIO16*%
X131030000Y-72630000D03*
%TO.N,GPIO17*%
X122030000Y-72630000D03*
%TO.N,GPIO18*%
X113030000Y-72630000D03*
%TO.N,GPIO19*%
X104140000Y-72630000D03*
%TO.N,GPIO22*%
X182372000Y-81026000D03*
X186944000Y-64008000D03*
X176784000Y-91948000D03*
%TO.N,GPIO23*%
X181780000Y-88646000D03*
%TO.N,GPIO26*%
X133300000Y-117780000D03*
X139840000Y-118110000D03*
%TO.N,GPIO27*%
X163390000Y-118180000D03*
%TO.N,GPIO4*%
X169418000Y-78232000D03*
X172720000Y-74930000D03*
%TO.N,HL_LED*%
X185420000Y-101600000D03*
X188080000Y-97790000D03*
%TD*%
%TO.N,+24V_LED*%
D17*
X150368000Y-68072000D02*
X156404000Y-62036000D01*
X147142000Y-79680000D02*
X150368000Y-76454000D01*
X150368000Y-76454000D02*
X150368000Y-68072000D01*
X156404000Y-62036000D02*
X156404000Y-61976000D01*
%TO.N,+24V_LOGIC*%
D18*
X179832000Y-77724000D02*
X179832000Y-66802000D01*
X172255000Y-78443000D02*
X179113000Y-78443000D01*
X185674000Y-60960000D02*
X185674000Y-57948000D01*
X179113000Y-78443000D02*
X179832000Y-77724000D01*
X187045000Y-56577000D02*
X187045000Y-56008000D01*
X185674000Y-57948000D02*
X187045000Y-56577000D01*
X186883000Y-56170000D02*
X187045000Y-56008000D01*
X179832000Y-66802000D02*
X185674000Y-60960000D01*
%TO.N,+24V_SAFE*%
D19*
X182880000Y-86360000D02*
X182880000Y-132334000D01*
X177800000Y-81280000D02*
X182880000Y-86360000D01*
X156464000Y-73320000D02*
X164424000Y-81280000D01*
X182910000Y-109250000D02*
X197328000Y-109250000D01*
X164424000Y-81280000D02*
X177800000Y-81280000D01*
X197328000Y-109250000D02*
X197358000Y-109280000D01*
%TO.N,+3V3*%
D20*
X162560000Y-103500000D02*
X162560000Y-112136000D01*
X112565000Y-116840000D02*
X127254000Y-116840000D01*
D21*
X110440000Y-115180000D02*
X110440000Y-114580000D01*
D20*
X110440000Y-114715000D02*
X114300000Y-118575000D01*
X129540000Y-119126000D02*
X130424000Y-120010000D01*
X114300000Y-118575000D02*
X114300000Y-119670000D01*
X130424000Y-120010000D02*
X135890000Y-120010000D01*
D22*
X114300000Y-119670000D02*
X114330000Y-119700000D01*
D20*
X127254000Y-116840000D02*
X129540000Y-119126000D01*
X110440000Y-114580000D02*
X110440000Y-114715000D01*
%TO.N,+5V*%
D18*
X181102000Y-80772000D02*
X181102000Y-68326000D01*
X156160000Y-94792000D02*
X156160000Y-114580000D01*
X156186000Y-114554000D02*
X176784000Y-114554000D01*
D20*
X109120000Y-110370000D02*
X109120000Y-117130000D01*
D18*
X176784000Y-114554000D02*
X179070000Y-116840000D01*
X157353000Y-93599000D02*
X156160000Y-94792000D01*
D20*
X109120000Y-117130000D02*
X108394000Y-117856000D01*
D18*
X181102000Y-68326000D02*
X187045000Y-62383000D01*
D20*
X100924000Y-117856000D02*
X99060000Y-119720000D01*
D18*
X187045000Y-62383000D02*
X187045000Y-60008000D01*
D20*
X108394000Y-117856000D02*
X100924000Y-117856000D01*
D18*
X156160000Y-114580000D02*
X156186000Y-114554000D01*
%TO.N,DOOR_IN*%
D21*
X121490000Y-132094000D02*
X121250000Y-132334000D01*
%TO.N,GPIO16*%
X133350000Y-83820000D02*
X133350000Y-84150000D01*
X131030000Y-72630000D02*
X133350000Y-74950000D01*
X133350000Y-84150000D02*
X138380000Y-89180000D01*
X133350000Y-74950000D02*
X133350000Y-83820000D01*
%TO.N,GPIO17*%
X122030000Y-72630000D02*
X122030000Y-72754000D01*
X130810000Y-84150000D02*
X135840000Y-89180000D01*
X130810000Y-81534000D02*
X130810000Y-84150000D01*
X122030000Y-72754000D02*
X130810000Y-81534000D01*
%TO.N,GPIO18*%
X127940000Y-86360000D02*
X130760000Y-89180000D01*
X113030000Y-72630000D02*
X113030000Y-72644000D01*
X130760000Y-88850000D02*
X130760000Y-89180000D01*
X113030000Y-72644000D02*
X126746000Y-86360000D01*
X126746000Y-86360000D02*
X127940000Y-86360000D01*
%TO.N,GPIO19*%
X118110000Y-86360000D02*
X125400000Y-86360000D01*
X125400000Y-86360000D02*
X128220000Y-89180000D01*
X104140000Y-72630000D02*
X104380000Y-72630000D01*
X104380000Y-72630000D02*
X118110000Y-86360000D01*
%TO.N,GPIO22*%
D22*
X182372000Y-81026000D02*
X182372000Y-69342000D01*
X118288000Y-91948000D02*
X115520000Y-89180000D01*
X176784000Y-91948000D02*
X118288000Y-91948000D01*
X186944000Y-64770000D02*
X186944000Y-64008000D01*
X182372000Y-69342000D02*
X186944000Y-64770000D01*
%TO.N,GPIO23*%
X181780000Y-88646000D02*
X177828000Y-92598000D01*
X177828000Y-92598000D02*
X116398000Y-92598000D01*
X116398000Y-92598000D02*
X112980000Y-89180000D01*
%TO.N,GPIO26*%
X133300000Y-117780000D02*
X139840000Y-117780000D01*
X139840000Y-117780000D02*
X139840000Y-118110000D01*
%TO.N,GPIO27*%
D21*
X163390000Y-118180000D02*
X162050000Y-116840000D01*
X162050000Y-116840000D02*
X138100000Y-116840000D01*
X138100000Y-116840000D02*
X135840000Y-114580000D01*
%TO.N,GPIO4*%
D22*
X169418000Y-78232000D02*
X172720000Y-74930000D01*
%TO.N,HL_LED*%
X185420000Y-100450000D02*
X188080000Y-97790000D01*
X185420000Y-101600000D02*
X185420000Y-100450000D01*
%TD*%
M02*
