M48
; DRILL file KiCad 10.0.1 date 2026-04-30T13:42:22
; FORMAT={-:-/ absolute / metric / decimal}
; #@! TF.CreationDate,2026-04-30T13:42:22-06:00
; #@! TF.GenerationSoftware,Kicad,Pcbnew,10.0.1
; #@! TF.FileFunction,MixedPlating,1,2
FMAT,2
METRIC
; #@! TA.AperFunction,Plated,PTH,ViaDrill
T1C0.300
; #@! TA.AperFunction,Plated,PTH,ViaDrill
T2C0.305
; #@! TA.AperFunction,Plated,PTH,ViaDrill
T3C0.508
; #@! TA.AperFunction,Plated,PTH,ComponentDrill
T4C0.800
; #@! TA.AperFunction,Plated,PTH,ComponentDrill
T5C1.000
; #@! TA.AperFunction,Plated,PTH,ComponentDrill
T6C1.300
; #@! TA.AperFunction,NonPlated,NPTH,ComponentDrill
T7C3.200
%
G90
G05
T1
X58.42Y-118.11
X68.025Y-113.03
X74.93Y-104.14
X74.93Y-118.11
X77.79Y-73.34
X90.17Y-115.57
X99.06Y-105.41
X101.6Y-106.68
X106.68Y-60.96
X107.95Y-67.31
X110.49Y-100.33
X110.49Y-120.65
X114.3Y-87.63
X116.84Y-78.74
X123.19Y-92.71
X127.18Y-117.93
X129.66Y-110.37
X134.62Y-64.77
X137.16Y-97.79
X139.735Y-110.525
X140.97Y-87.63
X142.24Y-81.28
X147.32Y-97.79
X151.13Y-110.49
X153.67Y-69.85
X153.67Y-73.66
X156.21Y-66.04
X156.21Y-91.44
X158.608Y-97.932
X161.29Y-110.49
X168.45Y-98.25
X176.26Y-67.04
T2
X60.96Y-85.09
X60.96Y-87.63
X72.945Y-115.57
X81.28Y-95.25
X81.28Y-102.87
X90.17Y-110.49
X95.25Y-55.88
X100.33Y-53.34
X122.555Y-59.055
X128.7Y-65.5
X143.51Y-65.485
X153.67Y-63.5
X153.67Y-66.04
T3
X96.52Y-62.23
X104.14Y-114.3
X131.975Y-107.4
X141.458Y-107.4
X152.608Y-107.4
X163.475Y-107.4
X172.5Y-111.708
T4
X125.73Y-72.39
X125.73Y-74.93
X133.35Y-72.39
X133.35Y-74.93
X157.48Y-66.04
X157.48Y-68.58
X159.5Y-80.0
X163.0Y-80.0
X165.1Y-66.04
X165.1Y-68.58
T5
X64.0Y-57.18
X64.0Y-59.72
X64.0Y-62.26
X64.0Y-64.8
X64.0Y-67.34
X64.0Y-69.88
X64.0Y-72.42
X64.0Y-74.96
X64.0Y-77.5
X64.0Y-80.04
X64.0Y-82.58
X64.0Y-85.12
X64.0Y-87.66
X64.0Y-90.2
X64.0Y-92.74
X64.0Y-95.28
X64.0Y-97.82
X64.0Y-100.36
X64.0Y-102.9
X89.4Y-57.18
X89.4Y-59.72
X89.4Y-62.26
X89.4Y-64.8
X89.4Y-67.34
X89.4Y-69.88
X89.4Y-72.42
X89.4Y-74.96
X89.4Y-77.5
X89.4Y-80.04
X89.4Y-82.58
X89.4Y-85.12
X89.4Y-87.66
X89.4Y-90.2
X89.4Y-92.74
X89.4Y-95.28
X89.4Y-97.82
X89.4Y-100.36
X89.4Y-102.9
X149.0Y-80.01
X149.0Y-82.55
X149.0Y-85.09
T6
X62.0Y-128.0
X67.08Y-128.0
X72.16Y-128.0
X77.24Y-128.0
X87.63Y-128.0
X92.71Y-128.0
X101.87Y-128.0
X106.95Y-128.0
X112.03Y-128.0
X117.34Y-57.15
X119.875Y-128.058
X122.42Y-57.15
X124.955Y-128.058
X127.5Y-57.15
X130.035Y-128.058
X136.5Y-53.5
X136.5Y-58.5
X141.76Y-128.0
X146.84Y-128.0
X151.5Y-53.5
X151.5Y-58.5
X151.92Y-128.0
X157.0Y-128.0
X162.08Y-128.0
X162.56Y-57.15
X167.64Y-57.15
X172.5Y-102.0
X172.5Y-117.0
X173.172Y-77.465
X173.172Y-82.545
X177.5Y-102.0
X177.5Y-117.0
T7
X55.0Y-55.0
X55.0Y-130.0
X175.0Y-55.0
X175.0Y-130.0
M30
